%MOIN*%
%OFA0B0*%
%FSLAX44Y44*%
%IPPOS*%
%LPD*%
%ADD10C,0.0078740157480314977*%
D10*
X00037092Y00063483D02*
X00036959Y00063483D01*
X00036809Y00062838D01*
X00036767Y00062637D01*
X00036751Y00062708D01*
X00036738Y00062761D01*
X00036728Y00062798D01*
X00036723Y00062819D01*
X00036536Y00063483D01*
X00036379Y00063483D01*
X00036238Y00062985D01*
X00036192Y00062806D01*
X00036162Y00062637D01*
X00036140Y00062737D01*
X00036113Y00062851D01*
X00035958Y00063483D01*
X00035827Y00063483D01*
X00036097Y00062500D01*
X00036223Y00062500D01*
X00036430Y00063249D01*
X00036451Y00063325D01*
X00036461Y00063364D01*
X00036490Y00063249D01*
X00036698Y00062500D01*
X00036831Y00062500D01*
X00037092Y00063483D01*
X00035109Y00062714D02*
X00035151Y00062616D01*
X00035218Y00062544D01*
X00035309Y00062498D01*
X00035422Y00062483D01*
X00035562Y00062507D01*
X00035670Y00062580D01*
X00035739Y00062695D01*
X00035762Y00062850D01*
X00035739Y00063009D01*
X00035669Y00063129D01*
X00035563Y00063203D01*
X00035429Y00063228D01*
X00035299Y00063204D01*
X00035195Y00063131D01*
X00035127Y00063014D01*
X00035105Y00062857D01*
X00035105Y00062825D01*
X00035637Y00062825D01*
X00035617Y00062721D01*
X00035570Y00062645D01*
X00035503Y00062598D01*
X00035422Y00062583D01*
X00035360Y00062591D01*
X00035308Y00062618D01*
X00035266Y00062663D01*
X00035234Y00062729D01*
X00035109Y00062714D01*
X00035232Y00062924D02*
X00035248Y00063003D01*
X00035278Y00063059D01*
X00035344Y00063111D01*
X00035428Y00063129D01*
X00035504Y00063115D01*
X00035567Y00063073D01*
X00035611Y00063008D01*
X00035630Y00062924D01*
X00035232Y00062924D01*
X00034958Y00062500D02*
X00034958Y00063483D01*
X00034837Y00063483D01*
X00034837Y00063132D01*
X00034750Y00063204D01*
X00034642Y00063228D01*
X00034578Y00063222D01*
X00034517Y00063202D01*
X00034421Y00063127D01*
X00034361Y00063011D01*
X00034340Y00062866D01*
X00034363Y00062704D01*
X00034431Y00062583D01*
X00034530Y00062508D01*
X00034648Y00062483D01*
X00034708Y00062490D01*
X00034760Y00062510D01*
X00034807Y00062543D01*
X00034846Y00062589D01*
X00034846Y00062500D01*
X00034958Y00062500D01*
X00034838Y00062751D02*
X00034812Y00062676D01*
X00034745Y00062606D01*
X00034658Y00062583D01*
X00034584Y00062600D01*
X00034521Y00062651D01*
X00034478Y00062737D01*
X00034463Y00062856D01*
X00034477Y00062978D01*
X00034519Y00063062D01*
X00034580Y00063112D01*
X00034653Y00063129D01*
X00034726Y00063112D01*
X00034789Y00063060D01*
X00034833Y00062976D01*
X00034847Y00062861D01*
X00034838Y00062751D01*
X00034183Y00063483D02*
X00034053Y00063483D01*
X00034053Y00062616D01*
X00033568Y00062616D01*
X00033568Y00062500D01*
X00034183Y00062500D01*
X00034183Y00063483D01*
X00033428Y00063483D02*
X00033307Y00063483D01*
X00033307Y00063344D01*
X00033428Y00063344D01*
X00033428Y00063483D01*
X00033428Y00063212D02*
X00033307Y00063212D01*
X00033307Y00062500D01*
X00033428Y00062500D01*
X00033428Y00063212D01*
X00033028Y00062423D02*
X00033014Y00062376D01*
X00032987Y00062344D01*
X00032934Y00062319D01*
X00032865Y00062310D01*
X00032790Y00062319D01*
X00032735Y00062344D01*
X00032697Y00062384D01*
X00032673Y00062438D01*
X00032667Y00062495D01*
X00032665Y00062593D01*
X00032754Y00062523D01*
X00032862Y00062500D01*
X00032931Y00062506D01*
X00032992Y00062526D01*
X00033045Y00062559D01*
X00033089Y00062606D01*
X00033150Y00062722D01*
X00033170Y00062860D01*
X00033161Y00062958D01*
X00033133Y00063048D01*
X00033088Y00063124D01*
X00033026Y00063181D01*
X00032950Y00063216D01*
X00032861Y00063228D01*
X00032746Y00063203D01*
X00032653Y00063126D01*
X00032653Y00063212D01*
X00032542Y00063212D01*
X00032542Y00062596D01*
X00032550Y00062454D01*
X00032576Y00062360D01*
X00032620Y00062298D01*
X00032683Y00062251D01*
X00032765Y00062220D01*
X00032864Y00062210D01*
X00032979Y00062225D01*
X00033070Y00062268D01*
X00033128Y00062340D01*
X00033146Y00062440D01*
X00033028Y00062423D01*
X00033032Y00062747D02*
X00032990Y00062664D01*
X00032927Y00062616D01*
X00032851Y00062599D01*
X00032774Y00062615D01*
X00032711Y00062664D01*
X00032669Y00062746D01*
X00032655Y00062864D01*
X00032669Y00062979D01*
X00032713Y00063062D01*
X00032777Y00063112D01*
X00032853Y00063128D01*
X00032927Y00063112D01*
X00032989Y00063063D01*
X00033032Y00062981D01*
X00033046Y00062869D01*
X00033032Y00062747D01*
X00032359Y00063483D02*
X00032239Y00063483D01*
X00032239Y00063130D01*
X00032143Y00063204D01*
X00032025Y00063228D01*
X00031951Y00063220D01*
X00031888Y00063197D01*
X00031838Y00063160D01*
X00031804Y00063111D01*
X00031785Y00063043D01*
X00031779Y00062951D01*
X00031779Y00062500D01*
X00031900Y00062500D01*
X00031900Y00062951D01*
X00031910Y00063029D01*
X00031939Y00063083D01*
X00031986Y00063114D01*
X00032050Y00063124D01*
X00032102Y00063117D01*
X00032151Y00063096D01*
X00032192Y00063063D01*
X00032218Y00063021D01*
X00032234Y00062964D01*
X00032239Y00062889D01*
X00032239Y00062500D01*
X00032359Y00062500D01*
X00032359Y00063483D01*
X00031314Y00062501D02*
X00031405Y00062490D01*
X00031464Y00062495D01*
X00031507Y00062511D01*
X00031558Y00062566D01*
X00031569Y00062618D01*
X00031573Y00062708D01*
X00031573Y00063118D01*
X00031662Y00063118D01*
X00031662Y00063212D01*
X00031573Y00063212D01*
X00031573Y00063388D01*
X00031453Y00063461D01*
X00031453Y00063212D01*
X00031332Y00063212D01*
X00031332Y00063118D01*
X00031453Y00063118D01*
X00031453Y00062701D01*
X00031451Y00062659D01*
X00031447Y00062635D01*
X00031426Y00062612D01*
X00031385Y00062603D01*
X00031332Y00062608D01*
X00031314Y00062501D01*
X00030879Y00062916D02*
X00030508Y00062916D01*
X00030508Y00062795D01*
X00030879Y00062795D01*
X00030879Y00062916D01*
X00029993Y00062500D02*
X00029993Y00063483D01*
X00029872Y00063483D01*
X00029872Y00063132D01*
X00029785Y00063204D01*
X00029677Y00063228D01*
X00029613Y00063222D01*
X00029553Y00063202D01*
X00029456Y00063127D01*
X00029397Y00063011D01*
X00029375Y00062866D01*
X00029398Y00062704D01*
X00029466Y00062583D01*
X00029565Y00062508D01*
X00029683Y00062483D01*
X00029743Y00062490D01*
X00029796Y00062510D01*
X00029842Y00062543D01*
X00029881Y00062589D01*
X00029881Y00062500D01*
X00029993Y00062500D01*
X00029874Y00062751D02*
X00029847Y00062676D01*
X00029780Y00062606D01*
X00029693Y00062583D01*
X00029619Y00062600D01*
X00029556Y00062651D01*
X00029513Y00062737D01*
X00029499Y00062856D01*
X00029512Y00062978D01*
X00029554Y00063062D01*
X00029615Y00063112D01*
X00029688Y00063129D01*
X00029762Y00063112D01*
X00029825Y00063060D01*
X00029868Y00062976D01*
X00029882Y00062861D01*
X00029874Y00062751D01*
X00029266Y00062948D02*
X00029246Y00063028D01*
X00029211Y00063095D01*
X00029163Y00063149D01*
X00029061Y00063208D01*
X00028939Y00063228D01*
X00028805Y00063204D01*
X00028699Y00063132D01*
X00028629Y00063017D01*
X00028606Y00062866D01*
X00028616Y00062743D01*
X00028647Y00062649D01*
X00028697Y00062579D01*
X00028767Y00062527D01*
X00028849Y00062494D01*
X00028939Y00062483D01*
X00029074Y00062507D01*
X00029181Y00062579D01*
X00029250Y00062696D01*
X00029273Y00062856D01*
X00029266Y00062948D01*
X00029134Y00062736D02*
X00029089Y00062651D01*
X00029022Y00062600D01*
X00028939Y00062583D01*
X00028857Y00062600D01*
X00028789Y00062651D01*
X00028745Y00062738D01*
X00028730Y00062860D01*
X00028745Y00062976D01*
X00028790Y00063060D01*
X00028857Y00063111D01*
X00028939Y00063128D01*
X00029022Y00063111D01*
X00029089Y00063060D01*
X00029134Y00062975D01*
X00029149Y00062856D01*
X00029134Y00062736D01*
X00028183Y00062501D02*
X00028274Y00062490D01*
X00028332Y00062495D01*
X00028376Y00062511D01*
X00028427Y00062566D01*
X00028438Y00062618D01*
X00028442Y00062708D01*
X00028442Y00063118D01*
X00028530Y00063118D01*
X00028530Y00063212D01*
X00028442Y00063212D01*
X00028442Y00063388D01*
X00028322Y00063461D01*
X00028322Y00063212D01*
X00028200Y00063212D01*
X00028200Y00063118D01*
X00028322Y00063118D01*
X00028322Y00062701D01*
X00028320Y00062659D01*
X00028315Y00062635D01*
X00028295Y00062612D01*
X00028253Y00062603D01*
X00028200Y00062608D01*
X00028183Y00062501D01*
X00027801Y00062501D02*
X00027892Y00062490D01*
X00027951Y00062495D01*
X00027994Y00062511D01*
X00028045Y00062566D01*
X00028056Y00062618D01*
X00028060Y00062708D01*
X00028060Y00063118D01*
X00028149Y00063118D01*
X00028149Y00063212D01*
X00028060Y00063212D01*
X00028060Y00063388D01*
X00027940Y00063461D01*
X00027940Y00063212D01*
X00027819Y00063212D01*
X00027819Y00063118D01*
X00027940Y00063118D01*
X00027940Y00062701D01*
X00027938Y00062659D01*
X00027934Y00062635D01*
X00027913Y00062612D01*
X00027872Y00062603D01*
X00027819Y00062608D01*
X00027801Y00062501D01*
X00027739Y00062948D02*
X00027718Y00063028D01*
X00027684Y00063095D01*
X00027635Y00063149D01*
X00027533Y00063208D01*
X00027411Y00063228D01*
X00027278Y00063204D01*
X00027171Y00063132D01*
X00027101Y00063017D01*
X00027078Y00062866D01*
X00027088Y00062743D01*
X00027119Y00062649D01*
X00027170Y00062579D01*
X00027239Y00062527D01*
X00027322Y00062494D01*
X00027411Y00062483D01*
X00027547Y00062507D01*
X00027653Y00062579D01*
X00027722Y00062696D01*
X00027745Y00062856D01*
X00027739Y00062948D01*
X00027606Y00062736D02*
X00027562Y00062651D01*
X00027494Y00062600D01*
X00027411Y00062583D01*
X00027329Y00062600D01*
X00027262Y00062651D01*
X00027217Y00062738D01*
X00027202Y00062860D01*
X00027217Y00062976D01*
X00027262Y00063060D01*
X00027329Y00063111D01*
X00027411Y00063128D01*
X00027494Y00063111D01*
X00027562Y00063060D01*
X00027606Y00062975D01*
X00027621Y00062856D01*
X00027606Y00062736D01*
X00026936Y00063212D02*
X00026828Y00063212D01*
X00026828Y00063112D01*
X00026739Y00063196D01*
X00026679Y00063220D01*
X00026612Y00063228D01*
X00026540Y00063220D01*
X00026482Y00063195D01*
X00026439Y00063156D01*
X00026411Y00063103D01*
X00026365Y00063158D01*
X00026314Y00063197D01*
X00026255Y00063220D01*
X00026191Y00063228D01*
X00026097Y00063213D01*
X00026028Y00063169D01*
X00025985Y00063095D01*
X00025971Y00062989D01*
X00025971Y00062500D01*
X00026091Y00062500D01*
X00026091Y00062948D01*
X00026094Y00063011D01*
X00026103Y00063053D01*
X00026145Y00063104D01*
X00026218Y00063123D01*
X00026286Y00063111D01*
X00026342Y00063073D01*
X00026380Y00063008D01*
X00026392Y00062913D01*
X00026392Y00062500D01*
X00026513Y00062500D01*
X00026513Y00062962D01*
X00026520Y00063033D01*
X00026542Y00063083D01*
X00026581Y00063113D01*
X00026639Y00063123D01*
X00026688Y00063117D01*
X00026733Y00063097D01*
X00026796Y00063018D01*
X00026811Y00062955D01*
X00026816Y00062869D01*
X00026816Y00062500D01*
X00026936Y00062500D01*
X00026936Y00063212D01*
M02*