G75*
%MOIN*%
%OFA0B0*%
%FSLAX24Y24*%
%IPPOS*%
%LPD*%
%AMOC8*
5,1,8,0,0,1.08239X$1,22.5*
%
%ADD10C,0.0000*%
D10*
X001180Y000680D02*
X017180Y000680D01*
X017224Y000682D01*
X017267Y000688D01*
X017309Y000697D01*
X017351Y000710D01*
X017391Y000727D01*
X017430Y000747D01*
X017467Y000770D01*
X017501Y000797D01*
X017534Y000826D01*
X017563Y000859D01*
X017590Y000893D01*
X017613Y000930D01*
X017633Y000969D01*
X017650Y001009D01*
X017663Y001051D01*
X017672Y001093D01*
X017678Y001136D01*
X017680Y001180D01*
X017680Y005180D01*
X017678Y005224D01*
X017672Y005267D01*
X017663Y005309D01*
X017650Y005351D01*
X017633Y005391D01*
X017613Y005430D01*
X017590Y005467D01*
X017563Y005501D01*
X017534Y005534D01*
X017501Y005563D01*
X017467Y005590D01*
X017430Y005613D01*
X017391Y005633D01*
X017351Y005650D01*
X017309Y005663D01*
X017267Y005672D01*
X017224Y005678D01*
X017180Y005680D01*
X001180Y005680D01*
X001136Y005678D01*
X001093Y005672D01*
X001051Y005663D01*
X001009Y005650D01*
X000969Y005633D01*
X000930Y005613D01*
X000893Y005590D01*
X000859Y005563D01*
X000826Y005534D01*
X000797Y005501D01*
X000770Y005467D01*
X000747Y005430D01*
X000727Y005391D01*
X000710Y005351D01*
X000697Y005309D01*
X000688Y005267D01*
X000682Y005224D01*
X000680Y005180D01*
X000680Y001180D01*
X000682Y001136D01*
X000688Y001093D01*
X000697Y001051D01*
X000710Y001009D01*
X000727Y000969D01*
X000747Y000930D01*
X000770Y000893D01*
X000797Y000859D01*
X000826Y000826D01*
X000859Y000797D01*
X000893Y000770D01*
X000930Y000747D01*
X000969Y000727D01*
X001009Y000710D01*
X001051Y000697D01*
X001093Y000688D01*
X001136Y000682D01*
X001180Y000680D01*
M02*
