G75*
%MOIN*%
%OFA0B0*%
%FSLAX24Y24*%
%IPPOS*%
%LPD*%
%AMOC8*
5,1,8,0,0,1.08239X$1,22.5*
%
%ADD10R,0.0552X0.0631*%
%ADD11R,0.0571X0.0355*%
%ADD12R,0.0910X0.0280*%
%ADD13R,0.0827X0.0473*%
%ADD14R,0.0390X0.0360*%
%ADD15C,0.0390*%
%ADD16R,0.2993X0.0631*%
%ADD17R,0.2599X0.0434*%
D10*
X005806Y001680D03*
X006554Y001680D03*
X006554Y002680D03*
X005806Y002680D03*
X010056Y002680D03*
X010804Y002680D03*
X010804Y003680D03*
X010056Y003680D03*
X010056Y004680D03*
X010804Y004680D03*
X010804Y001680D03*
X010056Y001680D03*
D11*
X011930Y001680D03*
X012930Y001680D03*
X012930Y002680D03*
X011930Y002680D03*
X011930Y003680D03*
X012930Y003680D03*
X012930Y004680D03*
X011930Y004680D03*
D12*
X008260Y004580D03*
X008260Y005080D03*
X005610Y005080D03*
X005610Y004580D03*
X005610Y004080D03*
X005610Y003580D03*
X008260Y003580D03*
X008260Y004080D03*
D13*
X002393Y001351D03*
X003967Y001351D03*
X003967Y002020D03*
X002393Y002020D03*
X002393Y002689D03*
X003967Y002689D03*
X003967Y003661D03*
X002393Y003661D03*
X002393Y004330D03*
X003967Y004330D03*
X003967Y004999D03*
X002393Y004999D03*
D14*
X001130Y003680D03*
X001130Y003180D03*
X001130Y002680D03*
X001130Y002180D03*
D15*
X001130Y001680D03*
X001130Y004180D03*
D16*
X015759Y004558D03*
X015759Y001802D03*
D17*
X015562Y002786D03*
X015562Y003574D03*
M02*
