G75*
%MOIN*%
%OFA0B0*%
%FSLAX24Y24*%
%IPPOS*%
%LPD*%
%AMOC8*
5,1,8,0,0,1.08239X$1,22.5*
%
%ADD10R,0.0512X0.0591*%
%ADD11R,0.0531X0.0315*%
%ADD12R,0.0870X0.0240*%
%ADD13R,0.0787X0.0433*%
%ADD14R,0.0350X0.0320*%
D10*
X005806Y001680D03*
X006554Y001680D03*
X006554Y002680D03*
X005806Y002680D03*
X010056Y002680D03*
X010804Y002680D03*
X010804Y003680D03*
X010056Y003680D03*
X010056Y004680D03*
X010804Y004680D03*
X010804Y001680D03*
X010056Y001680D03*
D11*
X011930Y001680D03*
X012930Y001680D03*
X012930Y002680D03*
X011930Y002680D03*
X011930Y003680D03*
X012930Y003680D03*
X012930Y004680D03*
X011930Y004680D03*
D12*
X008260Y004580D03*
X008260Y005080D03*
X005610Y005080D03*
X005610Y004580D03*
X005610Y004080D03*
X005610Y003580D03*
X008260Y003580D03*
X008260Y004080D03*
D13*
X002393Y001351D03*
X003967Y001351D03*
X003967Y002020D03*
X002393Y002020D03*
X002393Y002689D03*
X003967Y002689D03*
X003967Y003661D03*
X002393Y003661D03*
X002393Y004330D03*
X003967Y004330D03*
X003967Y004999D03*
X002393Y004999D03*
D14*
X001130Y003680D03*
X001130Y003180D03*
X001130Y002680D03*
X001130Y002180D03*
M02*
