G75*
%MOIN*%
%OFA0B0*%
%FSLAX24Y24*%
%IPPOS*%
%LPD*%
%AMOC8*
5,1,8,0,0,1.08239X$1,22.5*
%
%ADD10R,0.0512X0.0591*%
%ADD11R,0.0531X0.0315*%
%ADD12R,0.0870X0.0240*%
%ADD13R,0.0787X0.0433*%
%ADD14R,0.0350X0.0320*%
%ADD15C,0.0350*%
%ADD16R,0.2953X0.0591*%
%ADD17R,0.2559X0.0394*%
%ADD18C,0.0394*%
%ADD19C,0.0240*%
%ADD20C,0.0150*%
%ADD21C,0.0100*%
%ADD22C,0.0160*%
%ADD23C,0.0120*%
%ADD24C,0.0270*%
%ADD25C,0.0060*%
D10*
X005806Y001542D03*
X006554Y001542D03*
X006554Y002542D03*
X005806Y002542D03*
X010056Y002542D03*
X010804Y002542D03*
X010804Y001542D03*
X010056Y001542D03*
X010056Y003542D03*
X010804Y003542D03*
X010804Y004542D03*
X010056Y004542D03*
D11*
X011930Y004542D03*
X012930Y004542D03*
X012930Y003542D03*
X011930Y003542D03*
X011930Y002542D03*
X012930Y002542D03*
X012930Y001542D03*
X011930Y001542D03*
D12*
X008260Y003442D03*
X008260Y003942D03*
X008260Y004442D03*
X008260Y004942D03*
X005610Y004942D03*
X005610Y004442D03*
X005610Y003942D03*
X005610Y003442D03*
D13*
X003967Y003523D03*
X002393Y003523D03*
X002393Y004192D03*
X003967Y004192D03*
X003967Y004861D03*
X002393Y004861D03*
X002393Y002551D03*
X003967Y002551D03*
X003967Y001882D03*
X002393Y001882D03*
X002393Y001213D03*
X003967Y001213D03*
D14*
X001130Y002042D03*
X001130Y002542D03*
X001130Y003042D03*
X001130Y003542D03*
D15*
X001130Y004042D03*
X001130Y001542D03*
D16*
X015759Y001664D03*
X015759Y004420D03*
D17*
X015562Y003436D03*
X015562Y002648D03*
D18*
X006980Y004380D03*
D19*
X005610Y003442D02*
X005380Y003442D01*
X005380Y002542D01*
X005806Y002542D01*
X005780Y000942D01*
X010304Y000942D01*
X010804Y001342D02*
X010804Y001542D01*
X010804Y002542D01*
X011930Y002542D01*
X011930Y003542D01*
X013980Y003842D02*
X014380Y004580D01*
X005806Y002542D02*
X005806Y001542D01*
X005780Y001542D02*
X004580Y001542D01*
X004580Y001342D01*
X003967Y001342D01*
X004580Y001542D02*
X004580Y003442D01*
X003980Y003442D01*
X005780Y002542D02*
X005806Y002542D01*
X005780Y001542D02*
X005780Y000942D01*
X010304Y000942D02*
X010346Y000939D01*
X010388Y000940D01*
X010429Y000945D01*
X010470Y000954D01*
X010510Y000967D01*
X010548Y000983D01*
X010585Y001003D01*
X010620Y001026D01*
X010653Y001052D01*
X010683Y001081D01*
X010710Y001112D01*
X010735Y001147D01*
X010756Y001183D01*
X010773Y001221D01*
X010787Y001260D01*
X010798Y001301D01*
X010804Y001342D01*
X013780Y001542D02*
X015881Y001580D01*
D20*
X010056Y003542D02*
X009980Y003542D01*
X008380Y003942D02*
X008260Y003942D01*
X010804Y004542D02*
X011930Y004542D01*
X003967Y003523D02*
X003967Y003442D01*
X005780Y001542D02*
X005806Y001542D01*
X003967Y001342D02*
X003967Y001213D01*
D21*
X003967Y001342D02*
X003680Y001342D01*
X003553Y001469D02*
X003532Y001487D01*
X003509Y001504D01*
X003484Y001517D01*
X003459Y001528D01*
X003432Y001536D01*
X003404Y001540D01*
X003376Y001542D01*
X001130Y001542D01*
D22*
X001002Y000914D02*
X001118Y000866D01*
X001180Y000860D01*
X001881Y000860D01*
X001855Y000886D01*
X001831Y000927D01*
X001819Y000973D01*
X001819Y001185D01*
X002364Y001185D01*
X002364Y001241D01*
X001819Y001241D01*
X001819Y001362D01*
X001381Y001362D01*
X001303Y001284D01*
X001191Y001237D01*
X001069Y001237D01*
X000957Y001284D01*
X000871Y001369D01*
X000860Y001397D01*
X000860Y001180D01*
X000866Y001118D01*
X000914Y001002D01*
X001002Y000914D01*
X000919Y000997D02*
X001819Y000997D01*
X001819Y001156D02*
X000862Y001156D01*
X000860Y001314D02*
X000927Y001314D01*
X001333Y001314D02*
X001819Y001314D01*
X001580Y001142D02*
X002393Y001242D01*
X002393Y001213D01*
X002421Y001241D02*
X002421Y001362D01*
X002364Y001362D01*
X002364Y001241D01*
X002421Y001241D01*
X002966Y001241D01*
X002966Y001362D01*
X003376Y001362D01*
X003390Y001361D01*
X003394Y001359D01*
X003444Y001310D01*
X003444Y000943D01*
X003520Y000866D01*
X004415Y000866D01*
X004491Y000943D01*
X004491Y001092D01*
X004630Y001092D01*
X004722Y001130D01*
X004792Y001201D01*
X004830Y001292D01*
X005420Y001292D01*
X005420Y001193D01*
X005496Y001117D01*
X005530Y001117D01*
X005530Y000944D01*
X005529Y000897D01*
X005530Y000895D01*
X005530Y000892D01*
X005543Y000860D01*
X002904Y000860D01*
X002930Y000886D01*
X002954Y000927D01*
X002966Y000973D01*
X002966Y001185D01*
X002421Y001185D01*
X002421Y001241D01*
X002421Y001314D02*
X002364Y001314D01*
X002966Y001314D02*
X003439Y001314D01*
X003180Y001242D02*
X003180Y001213D01*
X002966Y001156D02*
X003444Y001156D01*
X003444Y000997D02*
X002966Y000997D01*
X004491Y000997D02*
X005530Y000997D01*
X005458Y001156D02*
X004747Y001156D01*
X006506Y001590D02*
X006506Y002017D01*
X006274Y002017D01*
X006229Y002005D01*
X006188Y001982D01*
X006154Y001948D01*
X006147Y001936D01*
X006116Y001967D01*
X006056Y001967D01*
X006056Y002117D01*
X006116Y002117D01*
X006147Y002148D01*
X006154Y002136D01*
X006188Y002103D01*
X006229Y002079D01*
X006274Y002067D01*
X006506Y002067D01*
X006506Y002494D01*
X006602Y002494D01*
X006602Y002067D01*
X006834Y002067D01*
X006879Y002079D01*
X006920Y002103D01*
X006954Y002136D01*
X006978Y002177D01*
X006990Y002223D01*
X006990Y002494D01*
X006602Y002494D01*
X006602Y002590D01*
X006990Y002590D01*
X006990Y002861D01*
X006978Y002907D01*
X006954Y002948D01*
X006920Y002982D01*
X006879Y003005D01*
X006834Y003017D01*
X006602Y003017D01*
X006602Y002590D01*
X006506Y002590D01*
X006506Y003017D01*
X006274Y003017D01*
X006229Y003005D01*
X006188Y002982D01*
X006154Y002948D01*
X006147Y002936D01*
X006116Y002967D01*
X005630Y002967D01*
X005630Y003192D01*
X006099Y003192D01*
X006175Y003268D01*
X006175Y003616D01*
X006099Y003692D01*
X005121Y003692D01*
X005045Y003616D01*
X005045Y003268D01*
X005121Y003192D01*
X005130Y003192D01*
X005130Y002492D01*
X005168Y002401D01*
X005238Y002330D01*
X005330Y002292D01*
X005420Y002292D01*
X005420Y002193D01*
X005496Y002117D01*
X005549Y002117D01*
X005547Y001967D01*
X005496Y001967D01*
X005420Y001891D01*
X005420Y001792D01*
X004830Y001792D01*
X004830Y003492D01*
X004792Y003584D01*
X004722Y003654D01*
X004666Y003677D01*
X004733Y003677D01*
X004830Y003718D01*
X004845Y003732D01*
X005081Y003732D01*
X005121Y003692D01*
X006099Y003692D01*
X006175Y003768D01*
X006175Y004116D01*
X006099Y004192D01*
X005121Y004192D01*
X005081Y004152D01*
X004845Y004152D01*
X004830Y004167D01*
X004733Y004207D01*
X004627Y004207D01*
X004530Y004167D01*
X004491Y004128D01*
X004491Y004463D01*
X004427Y004527D01*
X004491Y004591D01*
X004491Y005052D01*
X005045Y005052D01*
X005045Y004768D01*
X005121Y004692D01*
X005045Y004616D01*
X005045Y004268D01*
X005121Y004192D01*
X006099Y004192D01*
X006127Y004220D01*
X006130Y004218D01*
X006227Y004177D01*
X006333Y004177D01*
X006430Y004218D01*
X006490Y004277D01*
X006491Y004259D01*
X006499Y004252D01*
X006500Y004250D01*
X006496Y004240D01*
X006511Y004209D01*
X006520Y004176D01*
X006529Y004171D01*
X006530Y004169D01*
X006528Y004159D01*
X006548Y004130D01*
X006562Y004099D01*
X006572Y004096D01*
X006573Y004094D01*
X006573Y004083D01*
X006598Y004059D01*
X006617Y004031D01*
X006628Y004029D01*
X006629Y004028D01*
X006631Y004017D01*
X006659Y003998D01*
X006683Y003973D01*
X006694Y003973D01*
X006696Y003972D01*
X006699Y003962D01*
X006730Y003948D01*
X006759Y003928D01*
X006769Y003930D01*
X006771Y003929D01*
X006776Y003920D01*
X006809Y003911D01*
X006840Y003896D01*
X006850Y003900D01*
X006852Y003899D01*
X006859Y003891D01*
X006893Y003888D01*
X006926Y003880D01*
X006935Y003885D01*
X006938Y003885D01*
X006946Y003878D01*
X006980Y003881D01*
X007014Y003878D01*
X007022Y003885D01*
X007025Y003885D01*
X007034Y003880D01*
X007067Y003888D01*
X007101Y003891D01*
X007108Y003899D01*
X007110Y003900D01*
X007120Y003896D01*
X007151Y003911D01*
X007184Y003920D01*
X007189Y003929D01*
X007191Y003930D01*
X007201Y003928D01*
X007230Y003948D01*
X007261Y003962D01*
X007264Y003972D01*
X007266Y003973D01*
X007277Y003973D01*
X007301Y003998D01*
X007329Y004017D01*
X007331Y004028D01*
X007332Y004029D01*
X007343Y004031D01*
X007362Y004059D01*
X007387Y004083D01*
X007387Y004094D01*
X007388Y004096D01*
X007398Y004099D01*
X007412Y004130D01*
X007432Y004159D01*
X007430Y004169D01*
X007431Y004171D01*
X007440Y004176D01*
X007449Y004209D01*
X007464Y004240D01*
X007460Y004250D01*
X007461Y004252D01*
X007469Y004259D01*
X007472Y004293D01*
X007480Y004326D01*
X007695Y004326D01*
X007695Y004268D02*
X007771Y004192D01*
X007695Y004116D01*
X007695Y003768D01*
X007771Y003692D01*
X007731Y003652D01*
X007145Y003652D01*
X007130Y003667D01*
X007033Y003707D01*
X006927Y003707D01*
X006830Y003667D01*
X006755Y003592D01*
X006715Y003495D01*
X006715Y003389D01*
X006755Y003292D01*
X006830Y003218D01*
X006927Y003177D01*
X007033Y003177D01*
X007130Y003218D01*
X007145Y003232D01*
X007731Y003232D01*
X007771Y003192D01*
X008749Y003192D01*
X008789Y003232D01*
X008949Y003232D01*
X009005Y003227D01*
X009110Y003183D01*
X009154Y003147D01*
X009180Y003122D01*
X009215Y003086D01*
X009670Y002631D01*
X009670Y002193D01*
X009746Y002117D01*
X010366Y002117D01*
X010430Y002181D01*
X010494Y002117D01*
X010554Y002117D01*
X010554Y001967D01*
X010494Y001967D01*
X010430Y001903D01*
X010366Y001967D01*
X009746Y001967D01*
X009670Y001891D01*
X009670Y001752D01*
X009645Y001752D01*
X009630Y001767D01*
X009533Y001807D01*
X009427Y001807D01*
X009330Y001767D01*
X009255Y001692D01*
X009215Y001595D01*
X009215Y001489D01*
X009255Y001392D01*
X009330Y001318D01*
X009427Y001277D01*
X009533Y001277D01*
X009630Y001318D01*
X009645Y001332D01*
X009670Y001332D01*
X009670Y001193D01*
X009671Y001192D01*
X006982Y001192D01*
X006990Y001223D01*
X006990Y001494D01*
X006602Y001494D01*
X006602Y001590D01*
X006990Y001590D01*
X006990Y001861D01*
X006978Y001907D01*
X006954Y001948D01*
X006920Y001982D01*
X006879Y002005D01*
X006834Y002017D01*
X006602Y002017D01*
X006602Y001590D01*
X006506Y001590D01*
X006506Y001631D02*
X006602Y001631D01*
X006554Y001542D02*
X007280Y001542D01*
X006990Y001473D02*
X009222Y001473D01*
X009480Y001542D02*
X010056Y001542D01*
X009670Y001314D02*
X009622Y001314D01*
X009338Y001314D02*
X006990Y001314D01*
X007280Y001542D02*
X007306Y001540D01*
X007332Y001535D01*
X007357Y001527D01*
X007380Y001515D01*
X007402Y001501D01*
X007421Y001483D01*
X007439Y001464D01*
X007453Y001442D01*
X007465Y001419D01*
X007473Y001394D01*
X007478Y001368D01*
X007480Y001342D01*
X006990Y001631D02*
X009230Y001631D01*
X009385Y001790D02*
X006990Y001790D01*
X006954Y001948D02*
X009727Y001948D01*
X009670Y001790D02*
X009575Y001790D01*
X010385Y001948D02*
X010475Y001948D01*
X010554Y002107D02*
X006924Y002107D01*
X006602Y002107D02*
X006506Y002107D01*
X006184Y002107D02*
X006056Y002107D01*
X006135Y001948D02*
X006154Y001948D01*
X006506Y001948D02*
X006602Y001948D01*
X006602Y001790D02*
X006506Y001790D01*
X005549Y002107D02*
X004830Y002107D01*
X004830Y002265D02*
X005420Y002265D01*
X005159Y002424D02*
X004830Y002424D01*
X004830Y002582D02*
X005130Y002582D01*
X005130Y002741D02*
X004830Y002741D01*
X004830Y002899D02*
X005130Y002899D01*
X005130Y003058D02*
X004830Y003058D01*
X004830Y003216D02*
X005097Y003216D01*
X005630Y003058D02*
X009244Y003058D01*
X009031Y003216D02*
X008773Y003216D01*
X009302Y003296D02*
X010056Y002542D01*
X009670Y002582D02*
X006602Y002582D01*
X006602Y002741D02*
X006506Y002741D01*
X006506Y002899D02*
X006602Y002899D01*
X006980Y002899D02*
X009402Y002899D01*
X009303Y003296D02*
X009270Y003325D01*
X009236Y003352D01*
X009199Y003375D01*
X009160Y003395D01*
X009120Y003412D01*
X009078Y003425D01*
X009036Y003434D01*
X008993Y003440D01*
X008949Y003442D01*
X008260Y003442D01*
X006980Y003442D01*
X006731Y003533D02*
X006175Y003533D01*
X006100Y003692D02*
X006889Y003692D01*
X007071Y003692D02*
X007770Y003692D01*
X007771Y003692D02*
X008749Y003692D01*
X008789Y003652D01*
X009090Y003652D01*
X009351Y003544D01*
X009351Y003544D01*
X009389Y003506D01*
X009476Y003420D01*
X009512Y003383D01*
X009670Y003225D01*
X009670Y003555D01*
X009639Y003586D01*
X009619Y003606D01*
X009578Y003647D01*
X009534Y003683D01*
X009429Y003727D01*
X009373Y003732D01*
X008789Y003732D01*
X008749Y003692D01*
X007771Y003692D01*
X007695Y003850D02*
X006175Y003850D01*
X006175Y004009D02*
X006644Y004009D01*
X006530Y004167D02*
X006124Y004167D01*
X005610Y003942D02*
X004680Y003942D01*
X004530Y004167D02*
X004491Y004167D01*
X004830Y004167D02*
X005096Y004167D01*
X005045Y004326D02*
X004491Y004326D01*
X004470Y004484D02*
X005045Y004484D01*
X005071Y004643D02*
X004491Y004643D01*
X004491Y004801D02*
X005045Y004801D01*
X005121Y004692D02*
X006099Y004692D01*
X006127Y004664D01*
X006130Y004667D01*
X006227Y004707D01*
X006333Y004707D01*
X006430Y004667D01*
X006505Y004592D01*
X006515Y004567D01*
X006520Y004584D01*
X006529Y004589D01*
X006530Y004591D01*
X006528Y004601D01*
X006548Y004630D01*
X006562Y004661D01*
X006572Y004664D01*
X006573Y004666D01*
X006573Y004677D01*
X006598Y004701D01*
X006617Y004729D01*
X006628Y004731D01*
X006629Y004732D01*
X006631Y004743D01*
X006659Y004762D01*
X006683Y004787D01*
X006694Y004787D01*
X006696Y004788D01*
X006699Y004798D01*
X006730Y004812D01*
X006759Y004832D01*
X006769Y004830D01*
X006771Y004831D01*
X006776Y004840D01*
X006809Y004849D01*
X006840Y004864D01*
X006850Y004860D01*
X006852Y004861D01*
X006859Y004869D01*
X006893Y004872D01*
X006926Y004880D01*
X006935Y004875D01*
X006938Y004875D01*
X006946Y004882D01*
X006980Y004879D01*
X007014Y004882D01*
X007022Y004875D01*
X007025Y004875D01*
X007034Y004880D01*
X007067Y004872D01*
X007101Y004869D01*
X007108Y004861D01*
X007110Y004860D01*
X007120Y004864D01*
X007151Y004849D01*
X007184Y004840D01*
X007189Y004831D01*
X007191Y004830D01*
X007201Y004832D01*
X007230Y004812D01*
X007261Y004798D01*
X007264Y004788D01*
X007266Y004787D01*
X007277Y004787D01*
X007301Y004762D01*
X007329Y004743D01*
X007331Y004732D01*
X007332Y004731D01*
X007343Y004729D01*
X007362Y004701D01*
X007387Y004677D01*
X007387Y004666D01*
X007388Y004664D01*
X007398Y004661D01*
X007412Y004630D01*
X007432Y004601D01*
X007430Y004591D01*
X007431Y004589D01*
X007440Y004584D01*
X007449Y004551D01*
X007464Y004520D01*
X007460Y004510D01*
X007461Y004508D01*
X007469Y004501D01*
X007472Y004467D01*
X007480Y004434D01*
X007475Y004425D01*
X007475Y004422D01*
X007482Y004414D01*
X007479Y004380D01*
X007482Y004346D01*
X007475Y004338D01*
X007475Y004335D01*
X007480Y004326D01*
X007695Y004268D02*
X007695Y004616D01*
X007742Y004663D01*
X007714Y004678D01*
X007681Y004712D01*
X007657Y004753D01*
X007645Y004799D01*
X007645Y004942D01*
X008260Y004942D01*
X008260Y004942D01*
X008260Y004942D01*
X008875Y004942D01*
X008875Y004799D01*
X008863Y004753D01*
X008839Y004712D01*
X008806Y004678D01*
X008778Y004663D01*
X008789Y004652D01*
X009670Y004652D01*
X009670Y004891D01*
X009746Y004967D01*
X010366Y004967D01*
X010430Y004903D01*
X010494Y004967D01*
X011114Y004967D01*
X011190Y004891D01*
X011190Y004747D01*
X011534Y004747D01*
X011534Y004754D01*
X011610Y004830D01*
X012250Y004830D01*
X012326Y004754D01*
X012326Y004331D01*
X012287Y004293D01*
X012379Y004257D01*
X012432Y004252D01*
X012542Y004252D01*
X012520Y004274D01*
X012497Y004315D01*
X012484Y004361D01*
X012484Y004542D01*
X012930Y004542D01*
X012930Y004542D01*
X012930Y004542D01*
X013376Y004542D01*
X013376Y004361D01*
X013363Y004315D01*
X013340Y004274D01*
X013306Y004241D01*
X013265Y004217D01*
X013229Y004207D01*
X013382Y004144D01*
X013382Y004144D01*
X013582Y003944D01*
X013582Y003944D01*
X013690Y003683D01*
X013690Y003607D01*
X013705Y003592D01*
X013745Y003495D01*
X013745Y003389D01*
X013743Y003385D01*
X013778Y003315D01*
X013830Y003367D01*
X013927Y003407D01*
X014015Y003407D01*
X014080Y003446D01*
X014080Y003597D01*
X014033Y003577D01*
X013927Y003577D01*
X013830Y003618D01*
X013755Y003692D01*
X013715Y003789D01*
X013715Y003895D01*
X013755Y003992D01*
X013803Y004040D01*
X014080Y004551D01*
X014080Y005224D01*
X008774Y005224D01*
X008806Y005206D01*
X008839Y005173D01*
X008863Y005132D01*
X008875Y005086D01*
X008875Y004942D01*
X008260Y004942D01*
X007645Y004942D01*
X007645Y005086D01*
X007657Y005132D01*
X007681Y005173D01*
X007714Y005206D01*
X007746Y005224D01*
X005691Y005224D01*
X005695Y005220D01*
X005695Y005220D01*
X005707Y005192D01*
X006099Y005192D01*
X006175Y005116D01*
X006175Y004768D01*
X006099Y004692D01*
X005121Y004692D01*
X005610Y004442D02*
X006280Y004442D01*
X006454Y004643D02*
X006554Y004643D01*
X006706Y004801D02*
X006175Y004801D01*
X006175Y004960D02*
X007645Y004960D01*
X007654Y005118D02*
X006173Y005118D01*
X007254Y004801D02*
X007645Y004801D01*
X007721Y004643D02*
X007406Y004643D01*
X007470Y004484D02*
X007695Y004484D01*
X008260Y004442D02*
X009880Y004442D01*
X009880Y004542D01*
X010056Y004542D01*
X010080Y004542D01*
X009670Y004801D02*
X008875Y004801D01*
X008875Y004960D02*
X009738Y004960D01*
X010374Y004960D02*
X010486Y004960D01*
X011122Y004960D02*
X014080Y004960D01*
X014080Y005118D02*
X008866Y005118D01*
X011190Y004801D02*
X011582Y004801D01*
X011930Y004542D02*
X011935Y004492D01*
X012326Y004484D02*
X012484Y004484D01*
X012484Y004542D02*
X012930Y004542D01*
X013480Y004542D01*
X013376Y004542D02*
X013376Y004723D01*
X013363Y004769D01*
X013340Y004810D01*
X013306Y004844D01*
X013265Y004867D01*
X013219Y004880D01*
X012930Y004880D01*
X012641Y004880D01*
X012595Y004867D01*
X012554Y004844D01*
X012520Y004810D01*
X012497Y004769D01*
X012484Y004723D01*
X012484Y004542D01*
X012432Y004042D02*
X012389Y004044D01*
X012346Y004049D01*
X012304Y004059D01*
X012262Y004072D01*
X012222Y004088D01*
X012184Y004108D01*
X012147Y004131D01*
X012113Y004157D01*
X012081Y004186D01*
X012051Y004218D01*
X012025Y004252D01*
X012001Y004288D01*
X011981Y004326D01*
X011964Y004366D01*
X011950Y004407D01*
X011941Y004449D01*
X011934Y004492D01*
X012326Y004643D02*
X012484Y004643D01*
X012930Y004643D02*
X012930Y004643D01*
X012930Y004542D02*
X012930Y004880D01*
X012930Y004542D01*
X013376Y004542D01*
X013376Y004484D02*
X014044Y004484D01*
X014080Y004643D02*
X013376Y004643D01*
X013345Y004801D02*
X014080Y004801D01*
X014380Y004580D02*
X015680Y004580D01*
X015759Y004420D01*
X013958Y004326D02*
X013366Y004326D01*
X013327Y004167D02*
X013872Y004167D01*
X013772Y004009D02*
X013518Y004009D01*
X013621Y003850D02*
X013715Y003850D01*
X013687Y003692D02*
X013756Y003692D01*
X013729Y003533D02*
X014080Y003533D01*
X013848Y003375D02*
X013749Y003375D01*
X013480Y003442D02*
X013742Y002919D01*
X013980Y003142D02*
X014380Y003380D01*
X015562Y003436D01*
X015562Y002648D02*
X015511Y002632D01*
X015460Y002620D01*
X015408Y002610D01*
X015356Y002605D01*
X015304Y002602D01*
X015251Y002603D01*
X015198Y002607D01*
X015146Y002615D01*
X015095Y002627D01*
X015044Y002641D01*
X014995Y002659D01*
X014946Y002680D01*
X014947Y002680D02*
X014189Y002642D01*
X013480Y002542D02*
X012980Y003542D01*
X013480Y003542D02*
X013478Y003586D01*
X013472Y003629D01*
X013463Y003671D01*
X013450Y003713D01*
X013433Y003753D01*
X013413Y003792D01*
X013390Y003829D01*
X013363Y003863D01*
X013334Y003896D01*
X013301Y003925D01*
X013267Y003952D01*
X013230Y003975D01*
X013191Y003995D01*
X013151Y004012D01*
X013109Y004025D01*
X013067Y004034D01*
X013024Y004040D01*
X012980Y004042D01*
X012432Y004042D01*
X012300Y003832D02*
X012054Y003927D01*
X012054Y003927D01*
X011858Y004104D01*
X011858Y004104D01*
X011782Y004255D01*
X011610Y004255D01*
X011534Y004331D01*
X011534Y004337D01*
X011190Y004337D01*
X011190Y004193D01*
X011114Y004117D01*
X010494Y004117D01*
X010430Y004181D01*
X010366Y004117D01*
X009746Y004117D01*
X009670Y004193D01*
X009670Y004232D01*
X008789Y004232D01*
X008749Y004192D01*
X007771Y004192D01*
X008749Y004192D01*
X008789Y004152D01*
X009514Y004152D01*
X009775Y004044D01*
X009775Y004044D01*
X009813Y004006D01*
X009852Y003967D01*
X010366Y003967D01*
X010430Y003903D01*
X010494Y003967D01*
X011114Y003967D01*
X011190Y003891D01*
X011190Y003752D01*
X011215Y003752D01*
X011230Y003767D01*
X011327Y003807D01*
X011433Y003807D01*
X011530Y003767D01*
X011539Y003758D01*
X011610Y003830D01*
X012250Y003830D01*
X012326Y003754D01*
X012326Y003331D01*
X012250Y003255D01*
X012180Y003255D01*
X012180Y002830D01*
X012250Y002830D01*
X012326Y002754D01*
X012326Y002352D01*
X012534Y002352D01*
X012534Y002754D01*
X012610Y002830D01*
X012618Y002830D01*
X012555Y002892D01*
X012515Y002989D01*
X012515Y003095D01*
X012555Y003192D01*
X012618Y003255D01*
X012610Y003255D01*
X012534Y003331D01*
X012534Y003754D01*
X012610Y003830D01*
X013006Y003830D01*
X012980Y003832D01*
X012300Y003832D01*
X012254Y003850D02*
X011190Y003850D01*
X011964Y004009D02*
X009811Y004009D01*
X009696Y004167D02*
X008774Y004167D01*
X008260Y003942D02*
X009373Y003942D01*
X009726Y003796D02*
X009980Y003542D01*
X009670Y003533D02*
X009362Y003533D01*
X009373Y003942D02*
X009417Y003940D01*
X009460Y003934D01*
X009502Y003925D01*
X009544Y003912D01*
X009584Y003895D01*
X009623Y003875D01*
X009660Y003852D01*
X009694Y003825D01*
X009727Y003796D01*
X009514Y003692D02*
X008750Y003692D01*
X009521Y003375D02*
X009670Y003375D01*
X010804Y003542D02*
X011380Y003542D01*
X012326Y003533D02*
X012534Y003533D01*
X012534Y003692D02*
X012326Y003692D01*
X012930Y003542D02*
X012980Y003542D01*
X012534Y003375D02*
X012326Y003375D01*
X012180Y003216D02*
X012579Y003216D01*
X012515Y003058D02*
X012180Y003058D01*
X012180Y002899D02*
X012552Y002899D01*
X012534Y002741D02*
X012326Y002741D01*
X012326Y002582D02*
X012534Y002582D01*
X012880Y002542D02*
X012930Y002542D01*
X012880Y002542D02*
X012880Y003042D01*
X012780Y003042D01*
X013480Y003442D02*
X013480Y003542D01*
X013742Y002918D02*
X013762Y002881D01*
X013786Y002846D01*
X013813Y002813D01*
X013842Y002782D01*
X013874Y002754D01*
X013908Y002728D01*
X013944Y002706D01*
X013982Y002687D01*
X014022Y002671D01*
X014063Y002658D01*
X014104Y002649D01*
X014146Y002644D01*
X014189Y002642D01*
X013980Y002142D02*
X012430Y002142D01*
X012430Y001932D02*
X012373Y001927D01*
X012269Y001883D01*
X012215Y001830D01*
X012250Y001830D01*
X012326Y001754D01*
X012326Y001331D01*
X012250Y001255D01*
X011610Y001255D01*
X011539Y001326D01*
X011530Y001318D01*
X011433Y001277D01*
X011327Y001277D01*
X011230Y001318D01*
X011190Y001358D01*
X011190Y001193D01*
X011114Y001117D01*
X011005Y001117D01*
X010902Y000931D01*
X010902Y000931D01*
X010902Y000931D01*
X010814Y000860D01*
X014080Y000860D01*
X014080Y001897D01*
X014033Y001877D01*
X013927Y001877D01*
X013830Y001918D01*
X013815Y001932D01*
X012430Y001932D01*
X012554Y001844D02*
X012595Y001867D01*
X012641Y001880D01*
X012930Y001880D01*
X013219Y001880D01*
X013265Y001867D01*
X013306Y001844D01*
X013340Y001810D01*
X013363Y001769D01*
X013376Y001723D01*
X013376Y001542D01*
X012930Y001542D01*
X012930Y001205D01*
X013219Y001205D01*
X013265Y001217D01*
X013306Y001241D01*
X013340Y001274D01*
X013363Y001315D01*
X013376Y001361D01*
X013376Y001542D01*
X012930Y001542D01*
X012930Y001542D01*
X012930Y001205D01*
X012641Y001205D01*
X012595Y001217D01*
X012554Y001241D01*
X012520Y001274D01*
X012497Y001315D01*
X012484Y001361D01*
X012484Y001542D01*
X012930Y001542D01*
X012930Y001542D01*
X012930Y001542D01*
X013780Y001542D01*
X013780Y000942D01*
X014080Y000997D02*
X010939Y000997D01*
X011152Y001156D02*
X014080Y001156D01*
X014080Y001314D02*
X013363Y001314D01*
X013376Y001473D02*
X014080Y001473D01*
X014080Y001631D02*
X013376Y001631D01*
X013352Y001790D02*
X014080Y001790D01*
X012930Y001790D02*
X012930Y001790D01*
X012930Y001880D02*
X012930Y001542D01*
X012484Y001542D01*
X012484Y001723D01*
X012497Y001769D01*
X012520Y001810D01*
X012554Y001844D01*
X012508Y001790D02*
X012290Y001790D01*
X012326Y001631D02*
X012484Y001631D01*
X012430Y002142D02*
X012386Y002140D01*
X012343Y002134D01*
X012301Y002125D01*
X012259Y002112D01*
X012219Y002095D01*
X012180Y002075D01*
X012143Y002052D01*
X012109Y002025D01*
X012076Y001996D01*
X012047Y001963D01*
X012020Y001929D01*
X011997Y001892D01*
X011977Y001853D01*
X011960Y001813D01*
X011947Y001771D01*
X011938Y001729D01*
X011932Y001686D01*
X011930Y001642D01*
X011930Y001542D01*
X011380Y001542D01*
X011522Y001314D02*
X011551Y001314D01*
X011238Y001314D02*
X011190Y001314D01*
X012309Y001314D02*
X012497Y001314D01*
X012484Y001473D02*
X012326Y001473D01*
X012930Y001473D02*
X012930Y001473D01*
X012930Y001542D02*
X012930Y001542D01*
X012930Y001880D01*
X012930Y001631D02*
X012930Y001631D01*
X012930Y001314D02*
X012930Y001314D01*
X015759Y001664D02*
X015881Y001580D01*
X012534Y002424D02*
X012326Y002424D01*
X009670Y002424D02*
X006990Y002424D01*
X006990Y002265D02*
X009670Y002265D01*
X009561Y002741D02*
X006990Y002741D01*
X006602Y002424D02*
X006506Y002424D01*
X006506Y002265D02*
X006602Y002265D01*
X005477Y001948D02*
X004830Y001948D01*
X001933Y002217D02*
X001869Y002153D01*
X001869Y001722D01*
X001388Y001722D01*
X001416Y001738D01*
X001449Y001772D01*
X001473Y001813D01*
X001485Y001859D01*
X001485Y002042D01*
X001130Y002042D01*
X001130Y002042D01*
X001580Y002042D01*
X001485Y002042D02*
X001485Y002226D01*
X001473Y002272D01*
X001449Y002313D01*
X001434Y002328D01*
X001435Y002328D01*
X001435Y002524D01*
X001562Y002598D01*
X001670Y002784D01*
X001670Y003077D01*
X001703Y003077D01*
X001872Y003175D01*
X001872Y003175D01*
X001873Y003177D01*
X001888Y003162D01*
X001929Y003139D01*
X001975Y003126D01*
X002364Y003126D01*
X002364Y003495D01*
X002421Y003495D01*
X002421Y003551D01*
X002966Y003551D01*
X002966Y003763D01*
X002954Y003809D01*
X002930Y003850D01*
X002990Y003850D01*
X002930Y003850D02*
X002897Y003883D01*
X002885Y003890D01*
X002916Y003922D01*
X002916Y004463D01*
X002852Y004527D01*
X002916Y004591D01*
X002916Y005052D01*
X003444Y005052D01*
X003444Y005051D01*
X003312Y005051D01*
X003108Y004934D01*
X003108Y004934D01*
X003108Y004934D01*
X002990Y004729D01*
X002990Y003142D01*
X002984Y003082D01*
X002938Y002970D01*
X002853Y002885D01*
X002840Y002898D01*
X001945Y002898D01*
X001869Y002822D01*
X001869Y002281D01*
X001933Y002217D01*
X001885Y002265D02*
X001475Y002265D01*
X001435Y002424D02*
X001869Y002424D01*
X001869Y002582D02*
X001535Y002582D01*
X001562Y002598D02*
X001562Y002598D01*
X001562Y002598D01*
X001645Y002741D02*
X001869Y002741D01*
X001670Y002899D02*
X002867Y002899D01*
X002974Y003058D02*
X001670Y003058D01*
X001872Y003175D02*
X001872Y003175D01*
X002364Y003216D02*
X002421Y003216D01*
X002421Y003126D02*
X002810Y003126D01*
X002856Y003139D01*
X002897Y003162D01*
X002930Y003196D01*
X002954Y003237D01*
X002966Y003283D01*
X002966Y003495D01*
X002421Y003495D01*
X002421Y003126D01*
X002942Y003216D02*
X002990Y003216D01*
X002990Y003375D02*
X002966Y003375D01*
X002990Y003533D02*
X002421Y003533D01*
X002421Y003375D02*
X002364Y003375D01*
X002966Y003692D02*
X002990Y003692D01*
X002990Y004009D02*
X002916Y004009D01*
X002916Y004167D02*
X002990Y004167D01*
X002990Y004326D02*
X002916Y004326D01*
X002895Y004484D02*
X002990Y004484D01*
X002990Y004643D02*
X002916Y004643D01*
X002916Y004801D02*
X003031Y004801D01*
X002916Y004960D02*
X003153Y004960D01*
X004491Y004960D02*
X005045Y004960D01*
X007430Y004167D02*
X007746Y004167D01*
X007695Y004009D02*
X007316Y004009D01*
X006721Y003375D02*
X006175Y003375D01*
X006123Y003216D02*
X006834Y003216D01*
X007126Y003216D02*
X007747Y003216D01*
X005120Y003692D02*
X004767Y003692D01*
X004813Y003533D02*
X005045Y003533D01*
X005045Y003375D02*
X004830Y003375D01*
X003980Y003442D02*
X003967Y003442D01*
X002343Y004142D02*
X001780Y004142D01*
X002343Y004142D02*
X002356Y004144D01*
X002368Y004149D01*
X002378Y004157D01*
X002386Y004167D01*
X002391Y004179D01*
X002393Y004192D01*
X001180Y002542D02*
X001130Y002542D01*
X001485Y002107D02*
X001869Y002107D01*
X001485Y002042D02*
X001130Y002042D01*
X001485Y001948D02*
X001869Y001948D01*
X001869Y001790D02*
X001459Y001790D01*
X010416Y004167D02*
X010444Y004167D01*
X011164Y004167D02*
X011827Y004167D01*
X011540Y004326D02*
X011190Y004326D01*
X012320Y004326D02*
X012494Y004326D01*
X012930Y004542D02*
X012930Y004542D01*
X012930Y004801D02*
X012930Y004801D01*
X012515Y004801D02*
X012278Y004801D01*
D23*
X005610Y004942D02*
X005580Y004942D01*
X005578Y004976D01*
X005572Y005009D01*
X005563Y005041D01*
X005550Y005072D01*
X005534Y005102D01*
X005515Y005129D01*
X005492Y005154D01*
X005467Y005177D01*
X005440Y005196D01*
X005410Y005212D01*
X005379Y005225D01*
X005347Y005234D01*
X005314Y005240D01*
X005280Y005242D01*
X002773Y005242D01*
X002736Y005240D01*
X002699Y005235D01*
X002662Y005226D01*
X002627Y005213D01*
X002593Y005197D01*
X002561Y005178D01*
X002531Y005156D01*
X002504Y005130D01*
X002478Y005103D01*
X002456Y005073D01*
X002437Y005041D01*
X002421Y005007D01*
X002408Y004972D01*
X002399Y004935D01*
X002394Y004898D01*
X002392Y004861D01*
X002393Y004861D02*
X001750Y004861D01*
X001720Y004859D01*
X001690Y004854D01*
X001661Y004845D01*
X001634Y004832D01*
X001608Y004817D01*
X001584Y004798D01*
X001563Y004777D01*
X001544Y004753D01*
X001529Y004727D01*
X001516Y004700D01*
X001507Y004671D01*
X001502Y004641D01*
X001500Y004611D01*
X001500Y003542D01*
X001130Y003542D01*
X001605Y003267D02*
X001630Y003269D01*
X001654Y003274D01*
X001678Y003283D01*
X001700Y003295D01*
X001720Y003310D01*
X001737Y003327D01*
X001752Y003347D01*
X001764Y003369D01*
X001773Y003393D01*
X001778Y003417D01*
X001780Y003442D01*
X001780Y004142D01*
X003180Y004611D02*
X003180Y003142D01*
X003178Y003098D01*
X003172Y003055D01*
X003163Y003013D01*
X003150Y002971D01*
X003133Y002931D01*
X003113Y002892D01*
X003090Y002855D01*
X003063Y002821D01*
X003034Y002788D01*
X003001Y002759D01*
X002967Y002732D01*
X002930Y002709D01*
X002891Y002689D01*
X002851Y002672D01*
X002809Y002659D01*
X002767Y002650D01*
X002724Y002644D01*
X002680Y002642D01*
X002393Y002642D01*
X002393Y002551D01*
X001480Y002892D02*
X001480Y003142D01*
X001482Y003162D01*
X001486Y003181D01*
X001494Y003199D01*
X001504Y003215D01*
X001517Y003230D01*
X001532Y003243D01*
X001548Y003253D01*
X001566Y003261D01*
X001585Y003265D01*
X001605Y003267D01*
X001480Y002892D02*
X001478Y002864D01*
X001473Y002837D01*
X001464Y002811D01*
X001452Y002786D01*
X001436Y002763D01*
X001418Y002742D01*
X001397Y002724D01*
X001374Y002708D01*
X001349Y002696D01*
X001323Y002687D01*
X001296Y002682D01*
X001268Y002680D01*
X001246Y002678D01*
X001225Y002673D01*
X001205Y002665D01*
X001187Y002654D01*
X001170Y002640D01*
X001156Y002623D01*
X001145Y002605D01*
X001137Y002585D01*
X001132Y002564D01*
X001130Y002542D01*
X003130Y001842D02*
X003160Y001844D01*
X003190Y001849D01*
X003219Y001858D01*
X003246Y001871D01*
X003272Y001886D01*
X003296Y001905D01*
X003317Y001926D01*
X003336Y001950D01*
X003351Y001976D01*
X003364Y002003D01*
X003373Y002032D01*
X003378Y002062D01*
X003380Y002092D01*
X003380Y003942D01*
X003382Y003972D01*
X003387Y004002D01*
X003396Y004031D01*
X003409Y004058D01*
X003424Y004084D01*
X003443Y004108D01*
X003464Y004129D01*
X003488Y004148D01*
X003514Y004163D01*
X003541Y004176D01*
X003570Y004185D01*
X003600Y004190D01*
X003630Y004192D01*
X003967Y004192D01*
X003430Y004861D02*
X003400Y004859D01*
X003370Y004854D01*
X003341Y004845D01*
X003314Y004832D01*
X003288Y004817D01*
X003264Y004798D01*
X003243Y004777D01*
X003224Y004753D01*
X003209Y004727D01*
X003196Y004700D01*
X003187Y004671D01*
X003182Y004641D01*
X003180Y004611D01*
X003430Y004861D02*
X003967Y004861D01*
X002393Y001882D02*
X002393Y001842D01*
X003130Y001842D01*
X003553Y001469D02*
X003680Y001342D01*
D24*
X001580Y001142D03*
X001580Y002042D03*
X001130Y003042D03*
X001780Y004142D03*
X004680Y003942D03*
X006280Y004442D03*
X006980Y003442D03*
X011380Y003542D03*
X012780Y003042D03*
X013480Y003442D03*
X013980Y003142D03*
X013480Y002542D03*
X013980Y002142D03*
X011380Y001542D03*
X009480Y001542D03*
X007480Y001342D03*
X013780Y000942D03*
X013980Y003842D03*
X013480Y004542D03*
D25*
X002420Y001262D02*
X002393Y001213D01*
M02*
