G75*
%MOIN*%
%OFA0B0*%
%FSLAX24Y24*%
%IPPOS*%
%LPD*%
%AMOC8*
5,1,8,0,0,1.08239X$1,22.5*
%
%ADD10C,0.0030*%
%ADD11C,0.0080*%
%ADD12R,0.0079X0.0394*%
%ADD13C,0.0060*%
%ADD14C,0.0050*%
D10*
X002995Y001161D02*
X003365Y001161D01*
X003365Y001407D01*
X003365Y001529D02*
X002995Y001529D01*
X002995Y001776D01*
X002995Y001897D02*
X002995Y002082D01*
X003056Y002144D01*
X003303Y002144D01*
X003365Y002082D01*
X003365Y001897D01*
X002995Y001897D01*
X003365Y001776D02*
X003365Y001529D01*
X003180Y001529D02*
X003180Y001652D01*
X003056Y002266D02*
X002995Y002327D01*
X002995Y002451D01*
X003056Y002512D01*
X003118Y002512D01*
X003365Y002266D01*
X003365Y002512D01*
X003365Y003471D02*
X002995Y003471D01*
X003365Y003471D02*
X003365Y003717D01*
X003365Y003839D02*
X002995Y003839D01*
X002995Y004086D01*
X002995Y004207D02*
X002995Y004392D01*
X003056Y004454D01*
X003303Y004454D01*
X003365Y004392D01*
X003365Y004207D01*
X002995Y004207D01*
X003365Y004086D02*
X003365Y003839D01*
X003180Y003839D02*
X003180Y003962D01*
X003118Y004576D02*
X002995Y004699D01*
X003365Y004699D01*
X003365Y004576D02*
X003365Y004822D01*
X006227Y003928D02*
X006227Y003619D01*
X006288Y003557D01*
X006412Y003557D01*
X006474Y003619D01*
X006474Y003928D01*
X006595Y003804D02*
X006718Y003928D01*
X006718Y003557D01*
X006595Y003557D02*
X006842Y003557D01*
X009245Y003757D02*
X009245Y004128D01*
X009430Y004128D01*
X009492Y004066D01*
X009492Y003942D01*
X009430Y003881D01*
X009245Y003881D01*
X009368Y003881D02*
X009492Y003757D01*
X009613Y003819D02*
X009675Y003757D01*
X009798Y003757D01*
X009860Y003819D01*
X009860Y003881D01*
X009798Y003942D01*
X009737Y003942D01*
X009798Y003942D02*
X009860Y004004D01*
X009860Y004066D01*
X009798Y004128D01*
X009675Y004128D01*
X009613Y004066D01*
X011445Y004128D02*
X011445Y003757D01*
X011630Y003757D01*
X011692Y003819D01*
X011692Y004066D01*
X011630Y004128D01*
X011445Y004128D01*
X011813Y003942D02*
X012060Y003942D01*
X011998Y004128D02*
X011813Y003942D01*
X011998Y003757D02*
X011998Y004128D01*
X011937Y004757D02*
X011937Y005128D01*
X011813Y005004D01*
X011692Y005066D02*
X011630Y005128D01*
X011445Y005128D01*
X011445Y004757D01*
X011630Y004757D01*
X011692Y004819D01*
X011692Y005066D01*
X011813Y004757D02*
X012060Y004757D01*
X009860Y004757D02*
X009613Y004757D01*
X009860Y005004D01*
X009860Y005066D01*
X009798Y005128D01*
X009675Y005128D01*
X009613Y005066D01*
X009492Y005066D02*
X009492Y004942D01*
X009430Y004881D01*
X009245Y004881D01*
X009368Y004881D02*
X009492Y004757D01*
X009245Y004757D02*
X009245Y005128D01*
X009430Y005128D01*
X009492Y005066D01*
X009430Y003128D02*
X009245Y003128D01*
X009245Y002757D01*
X009368Y002881D02*
X009492Y002757D01*
X009430Y002881D02*
X009245Y002881D01*
X009430Y002881D02*
X009492Y002942D01*
X009492Y003066D01*
X009430Y003128D01*
X009613Y002942D02*
X009798Y003128D01*
X009798Y002757D01*
X009860Y002942D02*
X009613Y002942D01*
X011445Y002757D02*
X011630Y002757D01*
X011692Y002819D01*
X011692Y003066D01*
X011630Y003128D01*
X011445Y003128D01*
X011445Y002757D01*
X011813Y002819D02*
X011875Y002757D01*
X011998Y002757D01*
X012060Y002819D01*
X012060Y002881D01*
X011998Y002942D01*
X011937Y002942D01*
X011998Y002942D02*
X012060Y003004D01*
X012060Y003066D01*
X011998Y003128D01*
X011875Y003128D01*
X011813Y003066D01*
X011875Y002128D02*
X011813Y002066D01*
X011875Y002128D02*
X011998Y002128D01*
X012060Y002066D01*
X012060Y002004D01*
X011813Y001757D01*
X012060Y001757D01*
X011692Y001819D02*
X011692Y002066D01*
X011630Y002128D01*
X011445Y002128D01*
X011445Y001757D01*
X011630Y001757D01*
X011692Y001819D01*
X009860Y001757D02*
X009613Y001757D01*
X009492Y001757D02*
X009368Y001881D01*
X009430Y001881D02*
X009245Y001881D01*
X009430Y001881D02*
X009492Y001942D01*
X009492Y002066D01*
X009430Y002128D01*
X009245Y002128D01*
X009245Y001757D01*
X009737Y001757D02*
X009737Y002128D01*
X009613Y002004D01*
X007610Y002357D02*
X007363Y002357D01*
X007610Y002604D01*
X007610Y002666D01*
X007548Y002728D01*
X007425Y002728D01*
X007363Y002666D01*
X007242Y002666D02*
X007180Y002728D01*
X007057Y002728D01*
X006995Y002666D01*
X006995Y002419D01*
X007057Y002357D01*
X007180Y002357D01*
X007242Y002419D01*
X007180Y001728D02*
X007057Y001728D01*
X006995Y001666D01*
X006995Y001419D01*
X007057Y001357D01*
X007180Y001357D01*
X007242Y001419D01*
X007363Y001357D02*
X007610Y001357D01*
X007487Y001357D02*
X007487Y001728D01*
X007363Y001604D01*
X007242Y001666D02*
X007180Y001728D01*
D11*
X012036Y001818D02*
X012824Y001818D01*
X012568Y001700D02*
X012568Y001385D01*
X012332Y001542D01*
X012568Y001700D01*
X012509Y001621D02*
X012509Y001463D01*
X012391Y001542D01*
X012509Y001621D01*
X012509Y001544D02*
X012393Y001544D01*
X012506Y001465D02*
X012509Y001465D01*
X012824Y001267D02*
X012036Y001267D01*
X012036Y002267D02*
X012824Y002267D01*
X012568Y002385D02*
X012332Y002542D01*
X012568Y002700D01*
X012568Y002385D01*
X012509Y002463D02*
X012391Y002542D01*
X012509Y002621D01*
X012509Y002463D01*
X012509Y002486D02*
X012476Y002486D01*
X012509Y002564D02*
X012423Y002564D01*
X012036Y002818D02*
X012824Y002818D01*
X012824Y003267D02*
X012036Y003267D01*
X012332Y003542D02*
X012568Y003385D01*
X012568Y003700D01*
X012332Y003542D01*
X012391Y003542D02*
X012509Y003463D01*
X012509Y003621D01*
X012391Y003542D01*
X012445Y003506D02*
X012509Y003506D01*
X012509Y003585D02*
X012454Y003585D01*
X012824Y003818D02*
X012036Y003818D01*
X012036Y004267D02*
X012824Y004267D01*
X012568Y004385D02*
X012332Y004542D01*
X012568Y004700D01*
X012568Y004385D01*
X012509Y004463D02*
X012391Y004542D01*
X012509Y004621D01*
X012509Y004463D01*
X012509Y004527D02*
X012414Y004527D01*
X012485Y004605D02*
X012509Y004605D01*
X012824Y004818D02*
X012036Y004818D01*
D12*
X012292Y004542D03*
X012292Y003542D03*
X012292Y002542D03*
X012292Y001542D03*
D13*
X007940Y003262D02*
X005930Y003262D01*
X001260Y004429D02*
X001260Y004516D01*
X001260Y004473D02*
X001000Y004473D01*
X001000Y004516D02*
X001000Y004429D01*
X001043Y004626D02*
X001087Y004626D01*
X001130Y004669D01*
X001130Y004756D01*
X001173Y004799D01*
X001217Y004799D01*
X001260Y004756D01*
X001260Y004669D01*
X001217Y004626D01*
X001043Y004626D02*
X001000Y004669D01*
X001000Y004756D01*
X001043Y004799D01*
X001000Y004920D02*
X001000Y005051D01*
X001043Y005094D01*
X001130Y005094D01*
X001173Y005051D01*
X001173Y004920D01*
X001260Y004920D02*
X001000Y004920D01*
X005930Y005122D02*
X007940Y005122D01*
D14*
X002196Y002473D02*
X002196Y000898D01*
X004164Y000898D01*
X004164Y002866D01*
X002589Y002866D01*
X002196Y002473D01*
X002196Y002866D01*
X002589Y002866D01*
X001969Y002940D02*
X001971Y002954D01*
X001977Y002968D01*
X001985Y002980D01*
X001997Y002988D01*
X002011Y002994D01*
X002025Y002996D01*
X002039Y002994D01*
X002053Y002988D01*
X002065Y002980D01*
X002073Y002968D01*
X002079Y002954D01*
X002081Y002940D01*
X002079Y002926D01*
X002073Y002912D01*
X002065Y002900D01*
X002053Y002892D01*
X002039Y002886D01*
X002025Y002884D01*
X002011Y002886D01*
X001997Y002892D01*
X001985Y002900D01*
X001977Y002912D01*
X001971Y002926D01*
X001969Y002940D01*
X002196Y003208D02*
X002196Y004783D01*
X002589Y005176D01*
X004164Y005176D01*
X004164Y003208D01*
X002196Y003208D01*
X001380Y003292D02*
X001380Y004292D01*
X000880Y004292D01*
X000880Y003292D01*
X001380Y003292D01*
X001380Y003299D02*
X000880Y003299D01*
X000880Y003348D02*
X001380Y003348D01*
X001380Y003396D02*
X000880Y003396D01*
X000880Y003445D02*
X001380Y003445D01*
X001380Y003493D02*
X000880Y003493D01*
X000880Y003542D02*
X001380Y003542D01*
X001380Y003590D02*
X000880Y003590D01*
X000880Y003639D02*
X001380Y003639D01*
X001380Y003687D02*
X000880Y003687D01*
X000880Y003736D02*
X001380Y003736D01*
X001380Y003784D02*
X000880Y003784D01*
X000880Y003833D02*
X001380Y003833D01*
X001380Y003881D02*
X000880Y003881D01*
X000880Y003930D02*
X001380Y003930D01*
X001380Y003978D02*
X000880Y003978D01*
X000880Y004027D02*
X001380Y004027D01*
X001380Y004075D02*
X000880Y004075D01*
X000880Y004124D02*
X001380Y004124D01*
X001380Y004172D02*
X000880Y004172D01*
X000880Y004221D02*
X001380Y004221D01*
X001380Y004269D02*
X000880Y004269D01*
X000880Y004292D02*
X000880Y001292D01*
X001380Y001292D01*
X001380Y004292D01*
X000880Y004292D01*
X002196Y004783D02*
X002196Y005176D01*
X002589Y005176D01*
X001969Y005250D02*
X001971Y005264D01*
X001977Y005278D01*
X001985Y005290D01*
X001997Y005298D01*
X002011Y005304D01*
X002025Y005306D01*
X002039Y005304D01*
X002053Y005298D01*
X002065Y005290D01*
X002073Y005278D01*
X002079Y005264D01*
X002081Y005250D01*
X002079Y005236D01*
X002073Y005222D01*
X002065Y005210D01*
X002053Y005202D01*
X002039Y005196D01*
X002025Y005194D01*
X002011Y005196D01*
X001997Y005202D01*
X001985Y005210D01*
X001977Y005222D01*
X001971Y005236D01*
X001969Y005250D01*
X002353Y004192D02*
X002355Y004249D01*
X002361Y004306D01*
X002371Y004362D01*
X002384Y004418D01*
X002402Y004472D01*
X002423Y004525D01*
X002448Y004576D01*
X002476Y004626D01*
X002508Y004673D01*
X002542Y004719D01*
X002580Y004761D01*
X002621Y004801D01*
X002664Y004839D01*
X002710Y004873D01*
X002758Y004903D01*
X002808Y004931D01*
X002860Y004955D01*
X002914Y004975D01*
X002968Y004991D01*
X003024Y005004D01*
X003080Y005013D01*
X003137Y005018D01*
X003194Y005019D01*
X003251Y005016D01*
X003308Y005009D01*
X003364Y004998D01*
X003419Y004984D01*
X003473Y004965D01*
X003526Y004943D01*
X003577Y004918D01*
X003626Y004888D01*
X003673Y004856D01*
X003718Y004820D01*
X003760Y004782D01*
X003799Y004740D01*
X003835Y004696D01*
X003869Y004650D01*
X003899Y004601D01*
X003925Y004551D01*
X003948Y004499D01*
X003967Y004445D01*
X003983Y004390D01*
X003995Y004334D01*
X004003Y004277D01*
X004007Y004221D01*
X004007Y004163D01*
X004003Y004107D01*
X003995Y004050D01*
X003983Y003994D01*
X003967Y003939D01*
X003948Y003885D01*
X003925Y003833D01*
X003899Y003783D01*
X003869Y003734D01*
X003835Y003688D01*
X003799Y003644D01*
X003760Y003602D01*
X003718Y003564D01*
X003673Y003528D01*
X003626Y003496D01*
X003577Y003466D01*
X003526Y003441D01*
X003473Y003419D01*
X003419Y003400D01*
X003364Y003386D01*
X003308Y003375D01*
X003251Y003368D01*
X003194Y003365D01*
X003137Y003366D01*
X003080Y003371D01*
X003024Y003380D01*
X002968Y003393D01*
X002914Y003409D01*
X002860Y003429D01*
X002808Y003453D01*
X002758Y003481D01*
X002710Y003511D01*
X002664Y003545D01*
X002621Y003583D01*
X002580Y003623D01*
X002542Y003665D01*
X002508Y003711D01*
X002476Y003758D01*
X002448Y003808D01*
X002423Y003859D01*
X002402Y003912D01*
X002384Y003966D01*
X002371Y004022D01*
X002361Y004078D01*
X002355Y004135D01*
X002353Y004192D01*
X007986Y003157D02*
X007988Y003172D01*
X007994Y003185D01*
X008003Y003197D01*
X008014Y003206D01*
X008028Y003212D01*
X008043Y003214D01*
X008058Y003212D01*
X008071Y003206D01*
X008083Y003197D01*
X008092Y003186D01*
X008098Y003172D01*
X008100Y003157D01*
X008098Y003142D01*
X008092Y003129D01*
X008083Y003117D01*
X008072Y003108D01*
X008058Y003102D01*
X008043Y003100D01*
X008028Y003102D01*
X008015Y003108D01*
X008003Y003117D01*
X007994Y003128D01*
X007988Y003142D01*
X007986Y003157D01*
X002353Y001882D02*
X002355Y001939D01*
X002361Y001996D01*
X002371Y002052D01*
X002384Y002108D01*
X002402Y002162D01*
X002423Y002215D01*
X002448Y002266D01*
X002476Y002316D01*
X002508Y002363D01*
X002542Y002409D01*
X002580Y002451D01*
X002621Y002491D01*
X002664Y002529D01*
X002710Y002563D01*
X002758Y002593D01*
X002808Y002621D01*
X002860Y002645D01*
X002914Y002665D01*
X002968Y002681D01*
X003024Y002694D01*
X003080Y002703D01*
X003137Y002708D01*
X003194Y002709D01*
X003251Y002706D01*
X003308Y002699D01*
X003364Y002688D01*
X003419Y002674D01*
X003473Y002655D01*
X003526Y002633D01*
X003577Y002608D01*
X003626Y002578D01*
X003673Y002546D01*
X003718Y002510D01*
X003760Y002472D01*
X003799Y002430D01*
X003835Y002386D01*
X003869Y002340D01*
X003899Y002291D01*
X003925Y002241D01*
X003948Y002189D01*
X003967Y002135D01*
X003983Y002080D01*
X003995Y002024D01*
X004003Y001967D01*
X004007Y001911D01*
X004007Y001853D01*
X004003Y001797D01*
X003995Y001740D01*
X003983Y001684D01*
X003967Y001629D01*
X003948Y001575D01*
X003925Y001523D01*
X003899Y001473D01*
X003869Y001424D01*
X003835Y001378D01*
X003799Y001334D01*
X003760Y001292D01*
X003718Y001254D01*
X003673Y001218D01*
X003626Y001186D01*
X003577Y001156D01*
X003526Y001131D01*
X003473Y001109D01*
X003419Y001090D01*
X003364Y001076D01*
X003308Y001065D01*
X003251Y001058D01*
X003194Y001055D01*
X003137Y001056D01*
X003080Y001061D01*
X003024Y001070D01*
X002968Y001083D01*
X002914Y001099D01*
X002860Y001119D01*
X002808Y001143D01*
X002758Y001171D01*
X002710Y001201D01*
X002664Y001235D01*
X002621Y001273D01*
X002580Y001313D01*
X002542Y001355D01*
X002508Y001401D01*
X002476Y001448D01*
X002448Y001498D01*
X002423Y001549D01*
X002402Y001602D01*
X002384Y001656D01*
X002371Y001712D01*
X002361Y001768D01*
X002355Y001825D01*
X002353Y001882D01*
M02*
