G75*
%MOIN*%
%OFA0B0*%
%FSLAX24Y24*%
%IPPOS*%
%LPD*%
%AMOC8*
5,1,8,0,0,1.08239X$1,22.5*
%
%ADD10C,0.0350*%
%ADD11R,0.2953X0.0591*%
%ADD12R,0.2559X0.0394*%
%ADD13C,0.0160*%
%ADD14C,0.0270*%
%ADD15C,0.0240*%
%ADD16C,0.0120*%
D10*
X001130Y001542D03*
X001130Y004042D03*
D11*
X015759Y004420D03*
X015759Y001664D03*
D12*
X015562Y002648D03*
X015562Y003436D03*
D13*
X001118Y000866D02*
X001002Y000914D01*
X000914Y001002D01*
X000866Y001118D01*
X000860Y001180D01*
X000860Y001397D01*
X000871Y001369D01*
X000957Y001284D01*
X001069Y001237D01*
X001191Y001237D01*
X001303Y001284D01*
X001389Y001369D01*
X001435Y001482D01*
X001435Y001603D01*
X001389Y001715D01*
X001303Y001801D01*
X001191Y001847D01*
X001069Y001847D01*
X000957Y001801D01*
X000871Y001715D01*
X000860Y001687D01*
X000860Y003897D01*
X000871Y003869D01*
X000957Y003784D01*
X001069Y003737D01*
X001191Y003737D01*
X001303Y003784D01*
X001389Y003869D01*
X001435Y003982D01*
X001435Y004103D01*
X001389Y004215D01*
X001340Y004264D01*
X001340Y004829D01*
X001338Y004831D01*
X001372Y004913D01*
X001458Y004998D01*
X001569Y005044D01*
X001630Y005050D01*
X001708Y005050D01*
X001708Y005050D01*
X006302Y005050D01*
X006380Y005050D01*
X006380Y005050D01*
X006460Y005042D01*
X006608Y004982D01*
X006721Y004869D01*
X006782Y004722D01*
X006790Y004642D01*
X006790Y003627D01*
X006755Y003592D01*
X006715Y003495D01*
X006715Y003389D01*
X006755Y003292D01*
X006770Y003277D01*
X006770Y003255D01*
X006893Y003132D01*
X007067Y003132D01*
X007190Y003255D01*
X007190Y003277D01*
X007205Y003292D01*
X007245Y003389D01*
X007245Y003495D01*
X007205Y003592D01*
X007170Y003627D01*
X007170Y004564D01*
X007170Y004643D01*
X007170Y004721D01*
X007170Y004721D01*
X007170Y004799D01*
X007049Y005089D01*
X007049Y005089D01*
X006913Y005224D01*
X014080Y005224D01*
X014080Y004088D01*
X014033Y004107D01*
X013927Y004107D01*
X013830Y004067D01*
X013815Y004052D01*
X013139Y004052D01*
X012878Y003944D01*
X012878Y003944D01*
X012678Y003744D01*
X012570Y003483D01*
X012570Y003207D01*
X012555Y003192D01*
X012515Y003095D01*
X012515Y002989D01*
X012555Y002892D01*
X012630Y002818D01*
X012727Y002777D01*
X012833Y002777D01*
X012930Y002818D01*
X013005Y002892D01*
X013045Y002989D01*
X013045Y003095D01*
X013005Y003192D01*
X012990Y003207D01*
X012990Y003342D01*
X012996Y003399D01*
X013039Y003503D01*
X013119Y003583D01*
X013223Y003627D01*
X013280Y003632D01*
X013295Y003632D01*
X013255Y003592D01*
X013215Y003495D01*
X013215Y003389D01*
X013255Y003292D01*
X013330Y003218D01*
X013427Y003177D01*
X013533Y003177D01*
X013630Y003218D01*
X013644Y003232D01*
X013730Y003231D01*
X013715Y003195D01*
X013715Y003089D01*
X013755Y002992D01*
X013830Y002918D01*
X013927Y002877D01*
X013935Y002877D01*
X014080Y002714D01*
X014080Y002633D01*
X013843Y002374D01*
X013840Y002371D01*
X013830Y002367D01*
X013755Y002292D01*
X013715Y002195D01*
X013715Y002089D01*
X013755Y001992D01*
X013830Y001918D01*
X013838Y001914D01*
X013690Y001914D01*
X013690Y002377D01*
X013705Y002392D01*
X013745Y002489D01*
X013745Y002595D01*
X013705Y002692D01*
X013630Y002767D01*
X013533Y002807D01*
X013427Y002807D01*
X013330Y002767D01*
X013255Y002692D01*
X013215Y002595D01*
X013215Y002489D01*
X013255Y002392D01*
X013270Y002377D01*
X013270Y001808D01*
X013268Y001806D01*
X013230Y001714D01*
X013230Y001615D01*
X013268Y001523D01*
X013338Y001452D01*
X013430Y001414D01*
X014080Y001414D01*
X014080Y000860D01*
X001180Y000860D01*
X001118Y000866D01*
X000919Y000997D02*
X014080Y000997D01*
X013780Y000942D02*
X013753Y000915D01*
X013576Y000942D02*
X007730Y000942D01*
X007480Y001092D02*
X007480Y001342D01*
X007480Y001092D02*
X007488Y001066D01*
X007500Y001042D01*
X007514Y001019D01*
X007532Y000999D01*
X007552Y000981D01*
X007574Y000965D01*
X007598Y000953D01*
X007623Y000944D01*
X007650Y000938D01*
X007676Y000936D01*
X007703Y000937D01*
X007730Y000942D01*
X009215Y001489D02*
X009255Y001392D01*
X009330Y001318D01*
X009427Y001277D01*
X009533Y001277D01*
X009630Y001318D01*
X009645Y001332D01*
X011215Y001332D01*
X011230Y001318D01*
X011327Y001277D01*
X011433Y001277D01*
X011530Y001318D01*
X011605Y001392D01*
X011645Y001489D01*
X011645Y001595D01*
X011605Y001692D01*
X011590Y001707D01*
X011590Y003377D01*
X011605Y003392D01*
X011645Y003489D01*
X011645Y003595D01*
X011605Y003692D01*
X011530Y003767D01*
X011433Y003807D01*
X011327Y003807D01*
X011230Y003767D01*
X011155Y003692D01*
X011115Y003595D01*
X011115Y003489D01*
X011155Y003392D01*
X011170Y003377D01*
X011170Y001752D01*
X009645Y001752D01*
X009630Y001767D01*
X009533Y001807D01*
X009427Y001807D01*
X009330Y001767D01*
X009255Y001692D01*
X009215Y001595D01*
X009215Y001489D01*
X009222Y001473D02*
X001431Y001473D01*
X001333Y001314D02*
X009338Y001314D01*
X009622Y001314D02*
X011238Y001314D01*
X011522Y001314D02*
X014080Y001314D01*
X014080Y001156D02*
X000862Y001156D01*
X000860Y001314D02*
X000927Y001314D01*
X001580Y001142D02*
X001580Y002042D01*
X001314Y001790D02*
X009385Y001790D01*
X009575Y001790D02*
X011170Y001790D01*
X011170Y001948D02*
X000860Y001948D01*
X000860Y001790D02*
X000946Y001790D01*
X001423Y001631D02*
X009230Y001631D01*
X009480Y001542D02*
X011380Y001542D01*
X011380Y003542D01*
X011645Y003533D02*
X012591Y003533D01*
X012656Y003692D02*
X011605Y003692D01*
X011155Y003692D02*
X007170Y003692D01*
X007229Y003533D02*
X011115Y003533D01*
X011170Y003375D02*
X007239Y003375D01*
X006980Y003342D02*
X006980Y003442D01*
X006731Y003533D02*
X005190Y003533D01*
X004980Y003542D02*
X004980Y004342D01*
X004982Y004359D01*
X004986Y004376D01*
X004993Y004392D01*
X005003Y004406D01*
X005016Y004419D01*
X005030Y004429D01*
X005046Y004436D01*
X005063Y004440D01*
X005080Y004442D01*
X006280Y004442D01*
X006545Y004484D02*
X006790Y004484D01*
X006790Y004643D02*
X006454Y004643D01*
X006430Y004667D02*
X006505Y004592D01*
X006545Y004495D01*
X006545Y004389D01*
X006505Y004292D01*
X006430Y004218D01*
X006333Y004177D01*
X006227Y004177D01*
X006130Y004218D01*
X006115Y004232D01*
X005190Y004232D01*
X005190Y003401D01*
X005082Y003140D01*
X005082Y003140D01*
X004882Y002940D01*
X004882Y002940D01*
X004621Y002832D01*
X001295Y002832D01*
X001280Y002818D01*
X001183Y002777D01*
X001077Y002777D01*
X000980Y002818D01*
X000905Y002892D01*
X000865Y002989D01*
X000865Y003095D01*
X000905Y003192D01*
X000980Y003267D01*
X001077Y003307D01*
X001183Y003307D01*
X001280Y003267D01*
X001295Y003252D01*
X004480Y003252D01*
X004537Y003258D01*
X004641Y003301D01*
X004721Y003381D01*
X004764Y003486D01*
X004770Y003542D01*
X004770Y003693D01*
X004733Y003677D01*
X004627Y003677D01*
X004530Y003718D01*
X004455Y003792D01*
X004415Y003889D01*
X004415Y003932D01*
X001945Y003932D01*
X001930Y003918D01*
X001833Y003877D01*
X001727Y003877D01*
X001630Y003918D01*
X001555Y003992D01*
X001515Y004089D01*
X001515Y004195D01*
X001555Y004292D01*
X001630Y004367D01*
X001727Y004407D01*
X001833Y004407D01*
X001930Y004367D01*
X001945Y004352D01*
X004667Y004352D01*
X004672Y004347D01*
X004770Y004290D01*
X004770Y004429D01*
X004775Y004435D01*
X004853Y004569D01*
X004853Y004569D01*
X004853Y004569D01*
X004988Y004647D01*
X004993Y004652D01*
X006115Y004652D01*
X006130Y004667D01*
X006227Y004707D01*
X006333Y004707D01*
X006430Y004667D01*
X006749Y004801D02*
X001340Y004801D01*
X001130Y004742D02*
X001130Y004042D01*
X001435Y004009D02*
X001549Y004009D01*
X001515Y004167D02*
X001408Y004167D01*
X001758Y004142D02*
X001780Y004142D01*
X004580Y004142D01*
X004597Y004140D01*
X004614Y004136D01*
X004630Y004129D01*
X004644Y004119D01*
X004657Y004106D01*
X004667Y004092D01*
X004674Y004076D01*
X004678Y004059D01*
X004680Y004042D01*
X004680Y003942D01*
X004431Y003850D02*
X001369Y003850D01*
X000891Y003850D02*
X000860Y003850D01*
X000860Y003692D02*
X004593Y003692D01*
X004767Y003692D02*
X004770Y003692D01*
X004769Y003533D02*
X000860Y003533D01*
X000860Y003375D02*
X004715Y003375D01*
X005179Y003375D02*
X006721Y003375D01*
X006809Y003216D02*
X005113Y003216D01*
X004999Y003058D02*
X011170Y003058D01*
X011170Y003216D02*
X007151Y003216D01*
X006790Y003692D02*
X005190Y003692D01*
X005190Y003850D02*
X006790Y003850D01*
X007170Y003850D02*
X012784Y003850D01*
X012678Y003744D02*
X012678Y003744D01*
X013069Y003533D02*
X013231Y003533D01*
X013480Y003442D02*
X015562Y003436D01*
X014480Y002580D02*
X013980Y003142D01*
X013728Y003058D02*
X013045Y003058D01*
X012990Y003216D02*
X013334Y003216D01*
X013626Y003216D02*
X013724Y003216D01*
X013280Y003842D02*
X013236Y003840D01*
X013193Y003834D01*
X013151Y003825D01*
X013109Y003812D01*
X013069Y003795D01*
X013030Y003775D01*
X012993Y003752D01*
X012959Y003725D01*
X012926Y003696D01*
X012897Y003663D01*
X012870Y003629D01*
X012847Y003592D01*
X012827Y003553D01*
X012810Y003513D01*
X012797Y003471D01*
X012788Y003429D01*
X012782Y003386D01*
X012780Y003342D01*
X012780Y003042D01*
X012515Y003058D02*
X011590Y003058D01*
X011590Y003216D02*
X012570Y003216D01*
X012570Y003375D02*
X011590Y003375D01*
X011590Y002899D02*
X012552Y002899D01*
X013008Y002899D02*
X013875Y002899D01*
X014056Y002741D02*
X013656Y002741D01*
X013745Y002582D02*
X014033Y002582D01*
X014380Y002680D02*
X014780Y002680D01*
X014480Y002580D02*
X015562Y002648D01*
X014380Y002680D01*
X013888Y002424D02*
X013718Y002424D01*
X013690Y002265D02*
X013744Y002265D01*
X013715Y002107D02*
X013690Y002107D01*
X013270Y002107D02*
X011590Y002107D01*
X011170Y002107D02*
X000860Y002107D01*
X000860Y002265D02*
X011170Y002265D01*
X011170Y002424D02*
X000860Y002424D01*
X000860Y002582D02*
X011170Y002582D01*
X011170Y002741D02*
X000860Y002741D01*
X000860Y002899D02*
X000902Y002899D01*
X000865Y003058D02*
X000860Y003058D01*
X000860Y003216D02*
X000929Y003216D01*
X001130Y003042D02*
X004480Y003042D01*
X004783Y002899D02*
X011170Y002899D01*
X011590Y002741D02*
X013304Y002741D01*
X013215Y002582D02*
X011590Y002582D01*
X011590Y002424D02*
X013242Y002424D01*
X013270Y002265D02*
X011590Y002265D01*
X011590Y001948D02*
X013270Y001948D01*
X013261Y001790D02*
X011590Y001790D01*
X011630Y001631D02*
X013230Y001631D01*
X013480Y001664D02*
X013480Y002542D01*
X013690Y001948D02*
X013799Y001948D01*
X013318Y001473D02*
X011638Y001473D01*
X013576Y000942D02*
X013600Y000929D01*
X013624Y000920D01*
X013649Y000913D01*
X013675Y000909D01*
X013701Y000908D01*
X013728Y000910D01*
X013753Y000915D01*
X013221Y003375D02*
X012993Y003375D01*
X013280Y003842D02*
X013980Y003842D01*
X014080Y004167D02*
X007170Y004167D01*
X007170Y004009D02*
X013033Y004009D01*
X014080Y004326D02*
X007170Y004326D01*
X006790Y004326D02*
X006518Y004326D01*
X006790Y004167D02*
X005190Y004167D01*
X005190Y004009D02*
X006790Y004009D01*
X007170Y004484D02*
X014080Y004484D01*
X014080Y004643D02*
X007170Y004643D01*
X007170Y004564D02*
X007170Y004564D01*
X007170Y004799D02*
X007170Y004799D01*
X007169Y004801D02*
X014080Y004801D01*
X014080Y004960D02*
X007103Y004960D01*
X007020Y005118D02*
X014080Y005118D01*
X013480Y004542D02*
X014637Y004480D01*
X015759Y004420D01*
X006630Y004960D02*
X001419Y004960D01*
X001630Y005050D02*
X001630Y005050D01*
X001340Y004643D02*
X004980Y004643D01*
X004804Y004484D02*
X001340Y004484D01*
X001340Y004326D02*
X001589Y004326D01*
X004480Y003042D02*
X004524Y003044D01*
X004567Y003050D01*
X004609Y003059D01*
X004651Y003072D01*
X004691Y003089D01*
X004730Y003109D01*
X004767Y003132D01*
X004801Y003159D01*
X004834Y003188D01*
X004863Y003221D01*
X004890Y003255D01*
X004913Y003292D01*
X004933Y003331D01*
X004950Y003371D01*
X004963Y003413D01*
X004972Y003455D01*
X004978Y003498D01*
X004980Y003542D01*
X004770Y004326D02*
X004709Y004326D01*
X006302Y005050D02*
X006302Y005050D01*
D14*
X006280Y004442D03*
X004680Y003942D03*
X006980Y003442D03*
X011380Y003542D03*
X012780Y003042D03*
X013480Y003442D03*
X013980Y003142D03*
X013480Y002542D03*
X013980Y002142D03*
X011380Y001542D03*
X009480Y001542D03*
X007480Y001342D03*
X001580Y001142D03*
X001580Y002042D03*
X001130Y003042D03*
X001780Y004142D03*
X013480Y004542D03*
X013980Y003842D03*
X013780Y000942D03*
D15*
X013480Y001664D02*
X015759Y001664D01*
X015759Y004420D02*
X013480Y004542D01*
D16*
X014380Y002680D02*
X013980Y002242D01*
X013980Y002142D01*
X006980Y003342D02*
X006980Y004642D01*
X006978Y004689D01*
X006972Y004736D01*
X006963Y004782D01*
X006950Y004827D01*
X006934Y004871D01*
X006914Y004914D01*
X006891Y004955D01*
X006865Y004994D01*
X006836Y005031D01*
X006804Y005065D01*
X006769Y005097D01*
X006732Y005126D01*
X006693Y005152D01*
X006652Y005175D01*
X006609Y005195D01*
X006565Y005211D01*
X006520Y005224D01*
X006474Y005233D01*
X006427Y005238D01*
X006380Y005240D01*
X001630Y005240D01*
X001587Y005238D01*
X001543Y005233D01*
X001501Y005223D01*
X001459Y005210D01*
X001419Y005194D01*
X001380Y005174D01*
X001344Y005150D01*
X001309Y005124D01*
X001277Y005095D01*
X001247Y005063D01*
X001221Y005028D01*
X001197Y004991D01*
X001177Y004953D01*
X001160Y004913D01*
X001147Y004871D01*
X001138Y004829D01*
X001132Y004786D01*
X001130Y004742D01*
M02*
