G75*
%MOIN*%
%OFA0B0*%
%FSLAX24Y24*%
%IPPOS*%
%LPD*%
%AMOC8*
5,1,8,0,0,1.08239X$1,22.5*
%
%ADD10R,0.0552X0.0631*%
%ADD11R,0.0571X0.0355*%
%ADD12R,0.0910X0.0280*%
%ADD13R,0.0827X0.0473*%
%ADD14R,0.0390X0.0360*%
%ADD15C,0.0390*%
%ADD16R,0.2993X0.0631*%
%ADD17R,0.2599X0.0434*%
%ADD18C,0.0050*%
D10*
X005806Y001542D03*
X006554Y001542D03*
X006554Y002542D03*
X005806Y002542D03*
X010056Y002542D03*
X010804Y002542D03*
X010804Y001542D03*
X010056Y001542D03*
X010056Y003542D03*
X010804Y003542D03*
X010804Y004542D03*
X010056Y004542D03*
D11*
X011930Y004542D03*
X012930Y004542D03*
X012930Y003542D03*
X011930Y003542D03*
X011930Y002542D03*
X012930Y002542D03*
X012930Y001542D03*
X011930Y001542D03*
D12*
X008260Y003442D03*
X008260Y003942D03*
X008260Y004442D03*
X008260Y004942D03*
X005610Y004942D03*
X005610Y004442D03*
X005610Y003942D03*
X005610Y003442D03*
D13*
X002393Y001213D03*
X003967Y001213D03*
X003967Y001882D03*
X002393Y001882D03*
X002393Y002551D03*
X003967Y002551D03*
X003967Y003523D03*
X002393Y003523D03*
X002393Y004192D03*
X003967Y004192D03*
X003967Y004861D03*
X002393Y004861D03*
D14*
X001130Y003542D03*
X001130Y003042D03*
X001130Y002542D03*
X001130Y002042D03*
D15*
X001130Y001542D03*
X001130Y004042D03*
D16*
X015759Y004420D03*
X015759Y001664D03*
D17*
X015562Y002648D03*
X015562Y003436D03*
D18*
X007368Y004312D02*
X007350Y004245D01*
X007321Y004183D01*
X007282Y004127D01*
X007233Y004078D01*
X007177Y004039D01*
X007115Y004010D01*
X007048Y003992D01*
X006980Y003986D01*
X006912Y003992D01*
X006845Y004010D01*
X006783Y004039D01*
X006727Y004078D01*
X006678Y004127D01*
X006639Y004183D01*
X006610Y004245D01*
X006592Y004312D01*
X006586Y004380D01*
X006592Y004448D01*
X006610Y004515D01*
X006639Y004577D01*
X006678Y004633D01*
X006727Y004682D01*
X006783Y004721D01*
X006845Y004750D01*
X006912Y004768D01*
X006980Y004774D01*
X007048Y004768D01*
X007115Y004750D01*
X007177Y004721D01*
X007233Y004682D01*
X007282Y004633D01*
X007321Y004577D01*
X007350Y004515D01*
X007368Y004448D01*
X007374Y004380D01*
X007368Y004312D01*
X007368Y004318D02*
X006592Y004318D01*
X006588Y004366D02*
X007372Y004366D01*
X007371Y004415D02*
X006589Y004415D01*
X006596Y004463D02*
X007364Y004463D01*
X007351Y004512D02*
X006609Y004512D01*
X006631Y004560D02*
X007329Y004560D01*
X007299Y004609D02*
X006661Y004609D01*
X006702Y004657D02*
X007258Y004657D01*
X007199Y004706D02*
X006761Y004706D01*
X006861Y004754D02*
X007099Y004754D01*
X007356Y004269D02*
X006604Y004269D01*
X006622Y004221D02*
X007338Y004221D01*
X007313Y004172D02*
X006647Y004172D01*
X006682Y004124D02*
X007278Y004124D01*
X007228Y004075D02*
X006732Y004075D01*
X006810Y004027D02*
X007150Y004027D01*
M02*
