G75*
%MOIN*%
%OFA0B0*%
%FSLAX24Y24*%
%IPPOS*%
%LPD*%
%AMOC8*
5,1,8,0,0,1.08239X$1,22.5*
%
%ADD10C,0.0100*%
%ADD11C,0.0060*%
%ADD12C,0.0030*%
D10*
X007609Y002442D02*
X007609Y003193D01*
X008059Y003193D01*
X008209Y003043D01*
X008209Y002742D01*
X008059Y002592D01*
X007609Y002592D01*
X007288Y002592D02*
X007288Y003493D01*
X007138Y003193D02*
X006838Y003193D01*
X006688Y003043D01*
X006688Y002592D01*
X006218Y002742D02*
X006067Y002592D01*
X006218Y002742D02*
X006218Y003343D01*
X006368Y003193D02*
X006067Y003193D01*
X007138Y003193D02*
X007288Y003043D01*
X008523Y002592D02*
X008823Y002592D01*
X008673Y002592D02*
X008673Y003193D01*
X008823Y003193D01*
X008673Y003493D02*
X008673Y003643D01*
X009744Y003493D02*
X009744Y002592D01*
X009143Y002592D01*
X010064Y002742D02*
X010064Y003043D01*
X010214Y003193D01*
X010665Y003193D01*
X010985Y003043D02*
X010985Y002892D01*
X011585Y002892D01*
X011585Y002742D02*
X011585Y003043D01*
X011435Y003193D01*
X011135Y003193D01*
X010985Y003043D01*
X011435Y002592D02*
X011585Y002742D01*
X011435Y002592D02*
X011135Y002592D01*
X010665Y002592D02*
X010214Y002592D01*
X010064Y002742D01*
X010665Y002592D02*
X010665Y003493D01*
X011906Y003493D02*
X011906Y002592D01*
X012206Y002892D01*
X012506Y002592D01*
X012506Y003493D01*
X007909Y002292D02*
X007759Y002292D01*
X007609Y002442D01*
D11*
X005792Y000906D02*
X005748Y000862D01*
X005792Y000906D02*
X005792Y001079D01*
X005835Y001036D02*
X005748Y001036D01*
X005956Y000992D02*
X005956Y000862D01*
X006130Y000862D02*
X006130Y001122D01*
X006086Y001036D02*
X006000Y001036D01*
X005956Y000992D01*
X006086Y001036D02*
X006130Y000992D01*
X006251Y001036D02*
X006381Y001036D01*
X006424Y000992D01*
X006424Y000906D01*
X006381Y000862D01*
X006251Y000862D01*
X006251Y000819D02*
X006251Y001036D01*
X006578Y001036D02*
X006578Y000862D01*
X006621Y000862D02*
X006534Y000862D01*
X006731Y000862D02*
X006817Y000862D01*
X006774Y000862D02*
X006774Y001122D01*
X006817Y001122D01*
X006939Y000992D02*
X006982Y001036D01*
X007112Y001036D01*
X007112Y001122D02*
X007112Y000862D01*
X006982Y000862D01*
X006939Y000906D01*
X006939Y000992D01*
X006621Y001036D02*
X006578Y001036D01*
X006578Y001122D02*
X006578Y001166D01*
X007233Y000992D02*
X007233Y000949D01*
X007407Y000949D01*
X007407Y000906D02*
X007407Y000992D01*
X007363Y001036D01*
X007277Y001036D01*
X007233Y000992D01*
X007363Y000862D02*
X007407Y000906D01*
X007363Y000862D02*
X007277Y000862D01*
X007528Y000906D02*
X007571Y000862D01*
X007615Y000906D01*
X007658Y000862D01*
X007701Y000906D01*
X007701Y001036D01*
X007822Y001122D02*
X007996Y000862D01*
X008117Y000862D02*
X008247Y000862D01*
X008291Y000906D01*
X008291Y000992D01*
X008247Y001036D01*
X008117Y001036D01*
X008117Y000819D01*
X008160Y000775D01*
X008204Y000775D01*
X008412Y000862D02*
X008412Y001036D01*
X008585Y001036D02*
X008585Y000906D01*
X008542Y000862D01*
X008412Y000862D01*
X008706Y000906D02*
X008706Y000992D01*
X008750Y001036D01*
X008880Y001036D01*
X008880Y001122D02*
X008880Y000862D01*
X008750Y000862D01*
X008706Y000906D01*
X009001Y000906D02*
X009001Y001036D01*
X009175Y001036D02*
X009175Y000906D01*
X009131Y000862D01*
X009088Y000906D01*
X009044Y000862D01*
X009001Y000906D01*
X009296Y000906D02*
X009339Y000862D01*
X009426Y000862D01*
X009469Y000906D01*
X009469Y000992D01*
X009426Y001036D01*
X009339Y001036D01*
X009296Y000992D01*
X009296Y000906D01*
X009590Y000906D02*
X009634Y000949D01*
X009720Y000949D01*
X009764Y000992D01*
X009720Y001036D01*
X009590Y001036D01*
X009590Y000906D02*
X009634Y000862D01*
X009764Y000862D01*
X009885Y001122D02*
X010059Y000862D01*
X010180Y000862D02*
X010180Y000992D01*
X010223Y001036D01*
X010266Y000992D01*
X010266Y000862D01*
X010353Y000862D02*
X010353Y001036D01*
X010310Y001036D01*
X010266Y000992D01*
X010474Y000992D02*
X010474Y000906D01*
X010518Y000862D01*
X010604Y000862D01*
X010648Y000906D01*
X010648Y000992D01*
X010604Y001036D01*
X010518Y001036D01*
X010474Y000992D01*
X010769Y001036D02*
X010899Y001036D01*
X010942Y000992D01*
X010942Y000906D01*
X010899Y000862D01*
X010769Y000862D01*
X011046Y000862D02*
X011046Y000906D01*
X011090Y000906D01*
X011090Y000862D01*
X011046Y000862D01*
X011211Y000906D02*
X011211Y000992D01*
X011254Y001036D01*
X011384Y001036D01*
X011384Y001122D02*
X011384Y000862D01*
X011254Y000862D01*
X011211Y000906D01*
X011506Y000862D02*
X011506Y001036D01*
X011679Y001036D02*
X011679Y000906D01*
X011636Y000862D01*
X011506Y000862D01*
X011800Y000862D02*
X011800Y000992D01*
X011844Y001036D01*
X011930Y001036D01*
X011974Y000992D01*
X012083Y001036D02*
X012170Y001036D01*
X012127Y001079D02*
X012127Y000906D01*
X012083Y000862D01*
X011974Y000862D02*
X011974Y001122D01*
X012323Y001122D02*
X012323Y001166D01*
X012323Y001036D02*
X012323Y000862D01*
X012280Y000862D02*
X012367Y000862D01*
X012488Y000862D02*
X012618Y000862D01*
X012661Y000906D01*
X012661Y000992D01*
X012618Y001036D01*
X012488Y001036D01*
X012488Y000819D01*
X012531Y000775D01*
X012575Y000775D01*
X012367Y001036D02*
X012323Y001036D01*
X007528Y001036D02*
X007528Y000906D01*
X006338Y000775D02*
X006294Y000775D01*
X006251Y000819D01*
D12*
X008550Y001769D02*
X008612Y001707D01*
X008735Y001707D01*
X008797Y001769D01*
X008919Y001769D02*
X008919Y001707D01*
X008981Y001707D01*
X008981Y001769D01*
X008919Y001769D01*
X009102Y001769D02*
X009164Y001707D01*
X009287Y001707D01*
X009349Y001769D01*
X009472Y001769D02*
X009472Y001707D01*
X009533Y001707D01*
X009533Y001769D01*
X009472Y001769D01*
X009655Y001769D02*
X009716Y001707D01*
X009840Y001707D01*
X009902Y001769D01*
X009655Y002016D01*
X009655Y001769D01*
X009902Y001769D02*
X009902Y002016D01*
X009840Y002078D01*
X009716Y002078D01*
X009655Y002016D01*
X009349Y002016D02*
X009349Y001954D01*
X009287Y001892D01*
X009102Y001892D01*
X009102Y001769D02*
X009102Y002016D01*
X009164Y002078D01*
X009287Y002078D01*
X009349Y002016D01*
X008797Y002016D02*
X008735Y002078D01*
X008612Y002078D01*
X008550Y002016D01*
X008550Y001954D01*
X008612Y001892D01*
X008550Y001831D01*
X008550Y001769D01*
X008612Y001892D02*
X008673Y001892D01*
M02*
