  0
SECTION
  2
HEADER
  9
$ACADVER
  1
AC1009
  9
$MEASUREMENT
 70
     1
  0
ENDSEC
  0
SECTION
  2
ENTITIES
  0
LWPOLYLINE
  8
0
 62
7
 90
5
 70
1
 10
14.271562
 20
2.189987
 10
14.271562
 20
1.441550
 10
15.568437
 20
1.441550
 10
15.568437
 20
2.938425
 10
14.271562
 20
2.938425
  0
LWPOLYLINE
  8
0
 62
7
 90
5
 70
1
 10
12.371562
 20
2.189987
 10
12.371562
 20
1.441550
 10
13.668437
 20
1.441550
 10
13.668437
 20
2.938425
 10
12.371562
 20
2.938425
  0
LWPOLYLINE
  8
0
 62
7
 90
5
 70
1
 10
14.271562
 20
4.729988
 10
14.271562
 20
3.981550
 10
15.568437
 20
3.981550
 10
15.568437
 20
5.478425
 10
14.271562
 20
5.478425
  0
LWPOLYLINE
  8
0
 62
7
 90
5
 70
1
 10
12.371562
 20
4.729988
 10
12.371562
 20
3.981550
 10
13.668437
 20
3.981550
 10
13.668437
 20
5.478425
 10
12.371562
 20
5.478425
  0
LWPOLYLINE
  8
0
 62
7
 90
5
 70
1
 10
31.788437
 20
9.809988
 10
31.788437
 20
10.208425
 10
30.441562
 20
10.208425
 10
30.441562
 20
9.411550
 10
31.788437
 20
9.411550
  0
LWPOLYLINE
  8
0
 62
7
 90
5
 70
1
 10
29.248437
 20
9.809988
 10
29.248437
 20
10.208425
 10
27.901563
 20
10.208425
 10
27.901563
 20
9.411550
 10
29.248437
 20
9.411550
  0
LWPOLYLINE
  8
0
 62
7
 90
5
 70
1
 10
31.788437
 20
2.189987
 10
31.788437
 20
2.588425
 10
30.441562
 20
2.588425
 10
30.441562
 20
1.791550
 10
31.788437
 20
1.791550
  0
LWPOLYLINE
  8
0
 62
7
 90
5
 70
1
 10
29.248437
 20
2.189987
 10
29.248437
 20
2.588425
 10
27.901563
 20
2.588425
 10
27.901563
 20
1.791550
 10
29.248437
 20
1.791550
  0
LWPOLYLINE
  8
0
 62
7
 90
5
 70
1
 10
31.788437
 20
4.729988
 10
31.788437
 20
5.128425
 10
30.441562
 20
5.128425
 10
30.441562
 20
4.331550
 10
31.788437
 20
4.331550
  0
LWPOLYLINE
  8
0
 62
7
 90
5
 70
1
 10
29.248437
 20
4.729988
 10
29.248437
 20
5.128425
 10
27.901563
 20
5.128425
 10
27.901563
 20
4.331550
 10
29.248437
 20
4.331550
  0
LWPOLYLINE
  8
0
 62
7
 90
5
 70
1
 10
31.788437
 20
7.269988
 10
31.788437
 20
7.668425
 10
30.441562
 20
7.668425
 10
30.441562
 20
6.871550
 10
31.788437
 20
6.871550
  0
LWPOLYLINE
  8
0
 62
7
 90
5
 70
1
 10
29.248437
 20
7.269988
 10
29.248437
 20
7.668425
 10
27.901563
 20
7.668425
 10
27.901563
 20
6.871550
 10
29.248437
 20
6.871550
  0
LWPOLYLINE
  8
0
 62
7
 90
5
 70
1
 10
3.351562
 20
8.920988
 10
3.351562
 20
8.372550
 10
5.348437
 20
8.372550
 10
5.348437
 20
9.469425
 10
3.351562
 20
9.469425
  0
LWPOLYLINE
  8
0
 62
7
 90
5
 70
1
 10
7.351562
 20
8.920988
 10
7.351562
 20
8.372550
 10
9.348437
 20
8.372550
 10
9.348437
 20
9.469425
 10
7.351562
 20
9.469425
  0
LWPOLYLINE
  8
0
 62
7
 90
5
 70
1
 10
3.351562
 20
10.620988
 10
3.351562
 20
10.072550
 10
5.348437
 20
10.072550
 10
5.348437
 20
11.169425
 10
3.351562
 20
11.169425
  0
LWPOLYLINE
  8
0
 62
7
 90
5
 70
1
 10
7.351562
 20
10.620988
 10
7.351562
 20
10.072550
 10
9.348437
 20
10.072550
 10
9.348437
 20
11.169425
 10
7.351562
 20
11.169425
  0
LWPOLYLINE
  8
0
 62
7
 90
5
 70
1
 10
3.351562
 20
7.220987
 10
3.351562
 20
6.672550
 10
5.348437
 20
6.672550
 10
5.348437
 20
7.769425
 10
3.351562
 20
7.769425
  0
LWPOLYLINE
  8
0
 62
7
 90
5
 70
1
 10
7.351562
 20
7.220987
 10
7.351562
 20
6.672550
 10
9.348437
 20
6.672550
 10
9.348437
 20
7.769425
 10
7.351562
 20
7.769425
  0
LWPOLYLINE
  8
0
 62
7
 90
5
 70
1
 10
3.351562
 20
3.053587
 10
3.351562
 20
2.505150
 10
5.348437
 20
2.505150
 10
5.348437
 20
3.602025
 10
3.351562
 20
3.602025
  0
LWPOLYLINE
  8
0
 62
7
 90
5
 70
1
 10
7.351562
 20
3.053587
 10
7.351562
 20
2.505150
 10
9.348437
 20
2.505150
 10
9.348437
 20
3.602025
 10
7.351562
 20
3.602025
  0
LWPOLYLINE
  8
0
 62
7
 90
5
 70
1
 10
3.351562
 20
4.753588
 10
3.351562
 20
4.205150
 10
5.348437
 20
4.205150
 10
5.348437
 20
5.302025
 10
3.351562
 20
5.302025
  0
LWPOLYLINE
  8
0
 62
7
 90
5
 70
1
 10
7.351562
 20
4.753588
 10
7.351562
 20
4.205150
 10
9.348437
 20
4.205150
 10
9.348437
 20
5.302025
 10
7.351562
 20
5.302025
  0
LWPOLYLINE
  8
0
 62
7
 90
5
 70
1
 10
3.351562
 20
1.353588
 10
3.351562
 20
0.805150
 10
5.348437
 20
0.805150
 10
5.348437
 20
1.902025
 10
3.351562
 20
1.902025
  0
LWPOLYLINE
  8
0
 62
7
 90
5
 70
1
 10
7.351562
 20
1.353588
 10
7.351562
 20
0.805150
 10
9.348437
 20
0.805150
 10
9.348437
 20
1.902025
 10
7.351562
 20
1.902025
  0
LWPOLYLINE
  8
0
 62
7
 90
5
 70
1
 10
24.463438
 20
2.189987
 10
24.463438
 20
2.938425
 10
23.166563
 20
2.938425
 10
23.166563
 20
1.441550
 10
24.463438
 20
1.441550
  0
LWPOLYLINE
  8
0
 62
7
 90
5
 70
1
 10
26.363437
 20
2.189987
 10
26.363437
 20
2.938425
 10
25.066562
 20
2.938425
 10
25.066562
 20
1.441550
 10
26.363437
 20
1.441550
  0
LWPOLYLINE
  8
0
 62
7
 90
5
 70
1
 10
24.463438
 20
9.809988
 10
24.463438
 20
10.558425
 10
23.166563
 20
10.558425
 10
23.166563
 20
9.061550
 10
24.463438
 20
9.061550
  0
LWPOLYLINE
  8
0
 62
7
 90
5
 70
1
 10
26.363437
 20
9.809988
 10
26.363437
 20
10.558425
 10
25.066562
 20
10.558425
 10
25.066562
 20
9.061550
 10
26.363437
 20
9.061550
  0
LWPOLYLINE
  8
0
 62
7
 90
5
 70
1
 10
25.066562
 20
7.269988
 10
25.066562
 20
6.521550
 10
26.363437
 20
6.521550
 10
26.363437
 20
8.018425
 10
25.066562
 20
8.018425
  0
LWPOLYLINE
  8
0
 62
7
 90
5
 70
1
 10
23.166563
 20
7.269988
 10
23.166563
 20
6.521550
 10
24.463438
 20
6.521550
 10
24.463438
 20
8.018425
 10
23.166563
 20
8.018425
  0
LWPOLYLINE
  8
0
 62
7
 90
5
 70
1
 10
25.066562
 20
4.729988
 10
25.066562
 20
3.981550
 10
26.363437
 20
3.981550
 10
26.363437
 20
5.478425
 10
25.066562
 20
5.478425
  0
LWPOLYLINE
  8
0
 62
7
 90
5
 70
1
 10
23.166563
 20
4.729988
 10
23.166563
 20
3.981550
 10
24.463438
 20
3.981550
 10
24.463438
 20
5.478425
 10
23.166563
 20
5.478425
  0
LWPOLYLINE
  8
0
 62
7
 90
5
 70
1
 10
19.253200
 20
7.319225
 10
18.149863
 20
7.319225
 10
18.149863
 20
6.712750
 10
20.356537
 20
6.712750
 10
20.356537
 20
7.319225
  0
LWPOLYLINE
  8
0
 62
7
 90
5
 70
1
 10
19.253200
 20
8.589225
 10
18.149863
 20
8.589225
 10
18.149863
 20
7.982750
 10
20.356537
 20
7.982750
 10
20.356537
 20
8.589225
  0
LWPOLYLINE
  8
0
 62
7
 90
5
 70
1
 10
19.253200
 20
9.859225
 10
18.149863
 20
9.859225
 10
18.149863
 20
9.252750
 10
20.356537
 20
9.252750
 10
20.356537
 20
9.859225
  0
LWPOLYLINE
  8
0
 62
7
 90
5
 70
1
 10
19.253200
 20
11.129225
 10
18.149863
 20
11.129225
 10
18.149863
 20
10.522750
 10
20.356537
 20
10.522750
 10
20.356537
 20
11.129225
  0
LWPOLYLINE
  8
0
 62
7
 90
5
 70
1
 10
12.522200
 20
11.129225
 10
11.418862
 20
11.129225
 10
11.418862
 20
10.522750
 10
13.625538
 20
10.522750
 10
13.625538
 20
11.129225
  0
LWPOLYLINE
  8
0
 62
7
 90
5
 70
1
 10
12.522200
 20
9.859225
 10
11.418862
 20
9.859225
 10
11.418862
 20
9.252750
 10
13.625538
 20
9.252750
 10
13.625538
 20
9.859225
  0
LWPOLYLINE
  8
0
 62
7
 90
5
 70
1
 10
12.522200
 20
8.589225
 10
11.418862
 20
8.589225
 10
11.418862
 20
7.982750
 10
13.625538
 20
7.982750
 10
13.625538
 20
8.589225
  0
LWPOLYLINE
  8
0
 62
7
 90
5
 70
1
 10
12.522200
 20
7.319225
 10
11.418862
 20
7.319225
 10
11.418862
 20
6.712750
 10
13.625538
 20
6.712750
 10
13.625538
 20
7.319225
  0
ENDSEC
  0
EOF
