G75*
%MOIN*%
%OFA0B0*%
%FSLAX24Y24*%
%IPPOS*%
%LPD*%
%AMOC8*
5,1,8,0,0,1.08239X$1,22.5*
%
%ADD10C,0.0000*%
D10*
X001180Y000680D02*
X016893Y000680D01*
X016947Y000682D01*
X017000Y000687D01*
X017053Y000696D01*
X017105Y000709D01*
X017157Y000725D01*
X017207Y000745D01*
X017255Y000768D01*
X017302Y000795D01*
X017347Y000824D01*
X017390Y000857D01*
X017430Y000892D01*
X017468Y000930D01*
X017503Y000970D01*
X017536Y001013D01*
X017565Y001058D01*
X017592Y001105D01*
X017615Y001153D01*
X017635Y001203D01*
X017651Y001255D01*
X017664Y001307D01*
X017673Y001360D01*
X017678Y001413D01*
X017680Y001467D01*
X017680Y004617D01*
X017678Y004671D01*
X017673Y004724D01*
X017664Y004777D01*
X017651Y004829D01*
X017635Y004881D01*
X017615Y004931D01*
X017592Y004979D01*
X017565Y005026D01*
X017536Y005071D01*
X017503Y005114D01*
X017468Y005154D01*
X017430Y005192D01*
X017390Y005227D01*
X017347Y005260D01*
X017302Y005289D01*
X017255Y005316D01*
X017207Y005339D01*
X017157Y005359D01*
X017105Y005375D01*
X017053Y005388D01*
X017000Y005397D01*
X016947Y005402D01*
X016893Y005404D01*
X001180Y005404D01*
X001136Y005402D01*
X001093Y005396D01*
X001051Y005387D01*
X001009Y005374D01*
X000969Y005357D01*
X000930Y005337D01*
X000893Y005314D01*
X000859Y005287D01*
X000826Y005258D01*
X000797Y005225D01*
X000770Y005191D01*
X000747Y005154D01*
X000727Y005115D01*
X000710Y005075D01*
X000697Y005033D01*
X000688Y004991D01*
X000682Y004948D01*
X000680Y004904D01*
X000680Y001180D01*
X000682Y001136D01*
X000688Y001093D01*
X000697Y001051D01*
X000710Y001009D01*
X000727Y000969D01*
X000747Y000930D01*
X000770Y000893D01*
X000797Y000859D01*
X000826Y000826D01*
X000859Y000797D01*
X000893Y000770D01*
X000930Y000747D01*
X000969Y000727D01*
X001009Y000710D01*
X001051Y000697D01*
X001093Y000688D01*
X001136Y000682D01*
X001180Y000680D01*
M02*
