G75*
%MOIN*%
%OFA0B0*%
%FSLAX25Y25*%
%IPPOS*%
%LPD*%
%AMOC8*
5,1,8,0,0,1.08239X$1,22.5*
%
%ADD10C,0.00000*%
%ADD11C,0.01000*%
%ADD12C,0.00600*%
%ADD13C,0.00300*%
D10*
X0011800Y0006800D02*
X0168926Y0006800D01*
X0169116Y0006802D01*
X0169306Y0006809D01*
X0169496Y0006821D01*
X0169686Y0006837D01*
X0169875Y0006857D01*
X0170064Y0006883D01*
X0170252Y0006912D01*
X0170439Y0006947D01*
X0170625Y0006986D01*
X0170810Y0007029D01*
X0170995Y0007077D01*
X0171178Y0007129D01*
X0171359Y0007185D01*
X0171539Y0007246D01*
X0171718Y0007312D01*
X0171895Y0007381D01*
X0172071Y0007455D01*
X0172244Y0007533D01*
X0172416Y0007616D01*
X0172585Y0007702D01*
X0172753Y0007792D01*
X0172918Y0007887D01*
X0173081Y0007985D01*
X0173241Y0008088D01*
X0173399Y0008194D01*
X0173554Y0008304D01*
X0173707Y0008417D01*
X0173857Y0008535D01*
X0174003Y0008656D01*
X0174147Y0008780D01*
X0174288Y0008908D01*
X0174426Y0009039D01*
X0174561Y0009174D01*
X0174692Y0009312D01*
X0174820Y0009453D01*
X0174944Y0009597D01*
X0175065Y0009743D01*
X0175183Y0009893D01*
X0175296Y0010046D01*
X0175406Y0010201D01*
X0175512Y0010359D01*
X0175615Y0010519D01*
X0175713Y0010682D01*
X0175808Y0010847D01*
X0175898Y0011015D01*
X0175984Y0011184D01*
X0176067Y0011356D01*
X0176145Y0011529D01*
X0176219Y0011705D01*
X0176288Y0011882D01*
X0176354Y0012061D01*
X0176415Y0012241D01*
X0176471Y0012422D01*
X0176523Y0012605D01*
X0176571Y0012790D01*
X0176614Y0012975D01*
X0176653Y0013161D01*
X0176688Y0013348D01*
X0176717Y0013536D01*
X0176743Y0013725D01*
X0176763Y0013914D01*
X0176779Y0014104D01*
X0176791Y0014294D01*
X0176798Y0014484D01*
X0176800Y0014674D01*
X0176800Y0046170D01*
X0176798Y0046360D01*
X0176791Y0046550D01*
X0176779Y0046740D01*
X0176763Y0046930D01*
X0176743Y0047119D01*
X0176717Y0047308D01*
X0176688Y0047496D01*
X0176653Y0047683D01*
X0176614Y0047869D01*
X0176571Y0048054D01*
X0176523Y0048239D01*
X0176471Y0048422D01*
X0176415Y0048603D01*
X0176354Y0048783D01*
X0176288Y0048962D01*
X0176219Y0049139D01*
X0176145Y0049315D01*
X0176067Y0049488D01*
X0175984Y0049660D01*
X0175898Y0049829D01*
X0175808Y0049997D01*
X0175713Y0050162D01*
X0175615Y0050325D01*
X0175512Y0050485D01*
X0175406Y0050643D01*
X0175296Y0050798D01*
X0175183Y0050951D01*
X0175065Y0051101D01*
X0174944Y0051247D01*
X0174820Y0051391D01*
X0174692Y0051532D01*
X0174561Y0051670D01*
X0174426Y0051805D01*
X0174288Y0051936D01*
X0174147Y0052064D01*
X0174003Y0052188D01*
X0173857Y0052309D01*
X0173707Y0052427D01*
X0173554Y0052540D01*
X0173399Y0052650D01*
X0173241Y0052756D01*
X0173081Y0052859D01*
X0172918Y0052957D01*
X0172753Y0053052D01*
X0172585Y0053142D01*
X0172416Y0053228D01*
X0172244Y0053311D01*
X0172071Y0053389D01*
X0171895Y0053463D01*
X0171718Y0053532D01*
X0171539Y0053598D01*
X0171359Y0053659D01*
X0171178Y0053715D01*
X0170995Y0053767D01*
X0170810Y0053815D01*
X0170625Y0053858D01*
X0170439Y0053897D01*
X0170252Y0053932D01*
X0170064Y0053961D01*
X0169875Y0053987D01*
X0169686Y0054007D01*
X0169496Y0054023D01*
X0169306Y0054035D01*
X0169116Y0054042D01*
X0168926Y0054044D01*
X0011800Y0054044D01*
X0011660Y0054042D01*
X0011520Y0054036D01*
X0011380Y0054026D01*
X0011240Y0054013D01*
X0011101Y0053995D01*
X0010962Y0053973D01*
X0010825Y0053948D01*
X0010687Y0053919D01*
X0010551Y0053886D01*
X0010416Y0053849D01*
X0010282Y0053808D01*
X0010149Y0053763D01*
X0010017Y0053715D01*
X0009887Y0053663D01*
X0009758Y0053608D01*
X0009631Y0053549D01*
X0009505Y0053486D01*
X0009381Y0053420D01*
X0009260Y0053351D01*
X0009140Y0053278D01*
X0009022Y0053201D01*
X0008907Y0053122D01*
X0008793Y0053039D01*
X0008683Y0052953D01*
X0008574Y0052864D01*
X0008468Y0052772D01*
X0008365Y0052677D01*
X0008264Y0052580D01*
X0008167Y0052479D01*
X0008072Y0052376D01*
X0007980Y0052270D01*
X0007891Y0052161D01*
X0007805Y0052051D01*
X0007722Y0051937D01*
X0007643Y0051822D01*
X0007566Y0051704D01*
X0007493Y0051584D01*
X0007424Y0051463D01*
X0007358Y0051339D01*
X0007295Y0051213D01*
X0007236Y0051086D01*
X0007181Y0050957D01*
X0007129Y0050827D01*
X0007081Y0050695D01*
X0007036Y0050562D01*
X0006995Y0050428D01*
X0006958Y0050293D01*
X0006925Y0050157D01*
X0006896Y0050019D01*
X0006871Y0049882D01*
X0006849Y0049743D01*
X0006831Y0049604D01*
X0006818Y0049464D01*
X0006808Y0049324D01*
X0006802Y0049184D01*
X0006800Y0049044D01*
X0006800Y0011800D01*
X0006802Y0011660D01*
X0006808Y0011520D01*
X0006818Y0011380D01*
X0006831Y0011240D01*
X0006849Y0011101D01*
X0006871Y0010962D01*
X0006896Y0010825D01*
X0006925Y0010687D01*
X0006958Y0010551D01*
X0006995Y0010416D01*
X0007036Y0010282D01*
X0007081Y0010149D01*
X0007129Y0010017D01*
X0007181Y0009887D01*
X0007236Y0009758D01*
X0007295Y0009631D01*
X0007358Y0009505D01*
X0007424Y0009381D01*
X0007493Y0009260D01*
X0007566Y0009140D01*
X0007643Y0009022D01*
X0007722Y0008907D01*
X0007805Y0008793D01*
X0007891Y0008683D01*
X0007980Y0008574D01*
X0008072Y0008468D01*
X0008167Y0008365D01*
X0008264Y0008264D01*
X0008365Y0008167D01*
X0008468Y0008072D01*
X0008574Y0007980D01*
X0008683Y0007891D01*
X0008793Y0007805D01*
X0008907Y0007722D01*
X0009022Y0007643D01*
X0009140Y0007566D01*
X0009260Y0007493D01*
X0009381Y0007424D01*
X0009505Y0007358D01*
X0009631Y0007295D01*
X0009758Y0007236D01*
X0009887Y0007181D01*
X0010017Y0007129D01*
X0010149Y0007081D01*
X0010282Y0007036D01*
X0010416Y0006995D01*
X0010551Y0006958D01*
X0010687Y0006925D01*
X0010825Y0006896D01*
X0010962Y0006871D01*
X0011101Y0006849D01*
X0011240Y0006831D01*
X0011380Y0006818D01*
X0011520Y0006808D01*
X0011660Y0006802D01*
X0011800Y0006800D01*
D11*
X0068587Y0024299D02*
X0068587Y0031805D01*
X0073091Y0031805D01*
X0074592Y0030304D01*
X0074592Y0027301D01*
X0073091Y0025800D01*
X0068587Y0025800D01*
X0065384Y0025800D02*
X0065384Y0034808D01*
X0063883Y0031805D02*
X0060880Y0031805D01*
X0059379Y0030304D01*
X0059379Y0025800D01*
X0054675Y0027301D02*
X0053174Y0025800D01*
X0054675Y0027301D02*
X0054675Y0033306D01*
X0056176Y0031805D02*
X0053174Y0031805D01*
X0063883Y0031805D02*
X0065384Y0030304D01*
X0077728Y0025800D02*
X0080731Y0025800D01*
X0079229Y0025800D02*
X0079229Y0031805D01*
X0080731Y0031805D01*
X0079229Y0034808D02*
X0079229Y0036309D01*
X0089939Y0034808D02*
X0089939Y0025800D01*
X0083933Y0025800D01*
X0093141Y0027301D02*
X0093141Y0030304D01*
X0094643Y0031805D01*
X0099146Y0031805D01*
X0102349Y0030304D02*
X0102349Y0028803D01*
X0108354Y0028803D01*
X0108354Y0030304D02*
X0106853Y0031805D01*
X0103850Y0031805D01*
X0102349Y0030304D01*
X0108354Y0030304D02*
X0108354Y0027301D01*
X0106853Y0025800D01*
X0103850Y0025800D01*
X0099146Y0025800D02*
X0094643Y0025800D01*
X0093141Y0027301D01*
X0099146Y0025800D02*
X0099146Y0034808D01*
X0111557Y0034808D02*
X0111557Y0025800D01*
X0114560Y0028803D01*
X0117562Y0025800D01*
X0117562Y0034808D01*
X0071590Y0022797D02*
X0070088Y0022797D01*
X0068587Y0024299D01*
D12*
X0058275Y0011736D02*
X0058275Y0011302D01*
X0058275Y0010435D02*
X0058275Y0008700D01*
X0057842Y0008700D02*
X0058709Y0008700D01*
X0059806Y0008700D02*
X0060673Y0008700D01*
X0060240Y0008700D02*
X0060240Y0011302D01*
X0060673Y0011302D01*
X0061885Y0010001D02*
X0062319Y0010435D01*
X0063620Y0010435D01*
X0063620Y0011302D02*
X0063620Y0008700D01*
X0062319Y0008700D01*
X0061885Y0009134D01*
X0061885Y0010001D01*
X0058709Y0010435D02*
X0058275Y0010435D01*
X0056745Y0010001D02*
X0056745Y0009134D01*
X0056311Y0008700D01*
X0055010Y0008700D01*
X0055010Y0008266D02*
X0055010Y0010435D01*
X0056311Y0010435D01*
X0056745Y0010001D01*
X0053798Y0010001D02*
X0053364Y0010435D01*
X0052497Y0010435D01*
X0052063Y0010001D01*
X0052063Y0008700D01*
X0050418Y0009134D02*
X0049984Y0008700D01*
X0050418Y0009134D02*
X0050418Y0010869D01*
X0050852Y0010435D02*
X0049984Y0010435D01*
X0053798Y0011302D02*
X0053798Y0008700D01*
X0055010Y0008266D02*
X0055444Y0007833D01*
X0055877Y0007833D01*
X0064832Y0009567D02*
X0066566Y0009567D01*
X0066566Y0009134D02*
X0066566Y0010001D01*
X0066133Y0010435D01*
X0065265Y0010435D01*
X0064832Y0010001D01*
X0064832Y0009567D01*
X0066133Y0008700D02*
X0066566Y0009134D01*
X0066133Y0008700D02*
X0065265Y0008700D01*
X0067778Y0009134D02*
X0068212Y0008700D01*
X0068646Y0009134D01*
X0069079Y0008700D01*
X0069513Y0009134D01*
X0069513Y0010435D01*
X0070725Y0011302D02*
X0072459Y0008700D01*
X0073671Y0008700D02*
X0074972Y0008700D01*
X0075406Y0009134D01*
X0075406Y0010001D01*
X0074972Y0010435D01*
X0073671Y0010435D01*
X0073671Y0008266D01*
X0074105Y0007833D01*
X0074539Y0007833D01*
X0076618Y0008700D02*
X0076618Y0010435D01*
X0078353Y0010435D02*
X0078353Y0009134D01*
X0077919Y0008700D01*
X0076618Y0008700D01*
X0079564Y0009134D02*
X0079564Y0010001D01*
X0079998Y0010435D01*
X0081299Y0010435D01*
X0081299Y0011302D02*
X0081299Y0008700D01*
X0079998Y0008700D01*
X0079564Y0009134D01*
X0082511Y0009134D02*
X0082511Y0010435D01*
X0084246Y0010435D02*
X0084246Y0009134D01*
X0083812Y0008700D01*
X0083378Y0009134D01*
X0082944Y0008700D01*
X0082511Y0009134D01*
X0085457Y0009134D02*
X0085891Y0008700D01*
X0086758Y0008700D01*
X0087192Y0009134D01*
X0087192Y0010001D01*
X0086758Y0010435D01*
X0085891Y0010435D01*
X0085457Y0010001D01*
X0085457Y0009134D01*
X0088404Y0009134D02*
X0088837Y0009567D01*
X0089705Y0009567D01*
X0090139Y0010001D01*
X0089705Y0010435D01*
X0088404Y0010435D01*
X0088404Y0009134D02*
X0088837Y0008700D01*
X0090139Y0008700D01*
X0091350Y0011302D02*
X0093085Y0008700D01*
X0094297Y0008700D02*
X0094297Y0010001D01*
X0094731Y0010435D01*
X0095164Y0010001D01*
X0095164Y0008700D01*
X0096032Y0008700D02*
X0096032Y0010435D01*
X0095598Y0010435D01*
X0095164Y0010001D01*
X0097243Y0010001D02*
X0097243Y0009134D01*
X0097677Y0008700D01*
X0098544Y0008700D01*
X0098978Y0009134D01*
X0098978Y0010001D01*
X0098544Y0010435D01*
X0097677Y0010435D01*
X0097243Y0010001D01*
X0100190Y0010435D02*
X0101491Y0010435D01*
X0101925Y0010001D01*
X0101925Y0009134D01*
X0101491Y0008700D01*
X0100190Y0008700D01*
X0102964Y0008700D02*
X0102964Y0009134D01*
X0103398Y0009134D01*
X0103398Y0008700D01*
X0102964Y0008700D01*
X0104610Y0009134D02*
X0104610Y0010001D01*
X0105043Y0010435D01*
X0106344Y0010435D01*
X0106344Y0011302D02*
X0106344Y0008700D01*
X0105043Y0008700D01*
X0104610Y0009134D01*
X0107556Y0008700D02*
X0107556Y0010435D01*
X0109291Y0010435D02*
X0109291Y0009134D01*
X0108857Y0008700D01*
X0107556Y0008700D01*
X0110503Y0008700D02*
X0110503Y0010001D01*
X0110936Y0010435D01*
X0111804Y0010435D01*
X0112237Y0010001D01*
X0113334Y0010435D02*
X0114202Y0010435D01*
X0113768Y0010869D02*
X0113768Y0009134D01*
X0113334Y0008700D01*
X0112237Y0008700D02*
X0112237Y0011302D01*
X0115732Y0011302D02*
X0115732Y0011736D01*
X0115732Y0010435D02*
X0115732Y0008700D01*
X0115299Y0008700D02*
X0116166Y0008700D01*
X0117378Y0008700D02*
X0118679Y0008700D01*
X0119113Y0009134D01*
X0119113Y0010001D01*
X0118679Y0010435D01*
X0117378Y0010435D01*
X0117378Y0008266D01*
X0117812Y0007833D01*
X0118245Y0007833D01*
X0116166Y0010435D02*
X0115732Y0010435D01*
X0067778Y0010435D02*
X0067778Y0009134D01*
D13*
X0077998Y0017567D02*
X0078615Y0016950D01*
X0079850Y0016950D01*
X0080467Y0017567D01*
X0081691Y0017567D02*
X0081691Y0016950D01*
X0082308Y0016950D01*
X0082308Y0017567D01*
X0081691Y0017567D01*
X0083523Y0017567D02*
X0084140Y0016950D01*
X0085374Y0016950D01*
X0085992Y0017567D01*
X0087216Y0017567D02*
X0087216Y0016950D01*
X0087833Y0016950D01*
X0087833Y0017567D01*
X0087216Y0017567D01*
X0089048Y0017567D02*
X0089665Y0016950D01*
X0090899Y0016950D01*
X0091516Y0017567D01*
X0089048Y0020036D01*
X0089048Y0017567D01*
X0091516Y0017567D02*
X0091516Y0020036D01*
X0090899Y0020653D01*
X0089665Y0020653D01*
X0089048Y0020036D01*
X0085992Y0020036D02*
X0085992Y0019419D01*
X0085374Y0018802D01*
X0083523Y0018802D01*
X0083523Y0020036D02*
X0083523Y0017567D01*
X0079232Y0018802D02*
X0078615Y0018802D01*
X0077998Y0018184D01*
X0077998Y0017567D01*
X0078615Y0018802D02*
X0077998Y0019419D01*
X0077998Y0020036D01*
X0078615Y0020653D01*
X0079850Y0020653D01*
X0080467Y0020036D01*
X0083523Y0020036D02*
X0084140Y0020653D01*
X0085374Y0020653D01*
X0085992Y0020036D01*
M02*
