G75*
%MOIN*%
%OFA0B0*%
%FSLAX24Y24*%
%IPPOS*%
%LPD*%
%AMOC8*
5,1,8,0,0,1.08239X$1,22.5*
%
%ADD10R,0.0552X0.0631*%
%ADD11R,0.0571X0.0355*%
%ADD12R,0.0910X0.0280*%
%ADD13R,0.0827X0.0473*%
%ADD14R,0.0390X0.0360*%
%ADD15C,0.0390*%
%ADD16R,0.2993X0.0631*%
%ADD17R,0.2599X0.0434*%
D10*
X005806Y001542D03*
X006554Y001542D03*
X006554Y002542D03*
X005806Y002542D03*
X010056Y002542D03*
X010804Y002542D03*
X010804Y001542D03*
X010056Y001542D03*
X010056Y003542D03*
X010804Y003542D03*
X010804Y004542D03*
X010056Y004542D03*
D11*
X011930Y004542D03*
X012930Y004542D03*
X012930Y003542D03*
X011930Y003542D03*
X011930Y002542D03*
X012930Y002542D03*
X012930Y001542D03*
X011930Y001542D03*
D12*
X008260Y003442D03*
X008260Y003942D03*
X008260Y004442D03*
X008260Y004942D03*
X005610Y004942D03*
X005610Y004442D03*
X005610Y003942D03*
X005610Y003442D03*
D13*
X002393Y001213D03*
X003967Y001213D03*
X003967Y001882D03*
X002393Y001882D03*
X002393Y002551D03*
X003967Y002551D03*
X003967Y003523D03*
X002393Y003523D03*
X002393Y004192D03*
X003967Y004192D03*
X003967Y004861D03*
X002393Y004861D03*
D14*
X001130Y003542D03*
X001130Y003042D03*
X001130Y002542D03*
X001130Y002042D03*
D15*
X001130Y001542D03*
X001130Y004042D03*
D16*
X015759Y004420D03*
X015759Y001664D03*
D17*
X015562Y002648D03*
X015562Y003436D03*
M02*
