G75*
%MOIN*%
%OFA0B0*%
%FSLAX24Y24*%
%IPPOS*%
%LPD*%
%AMOC8*
5,1,8,0,0,1.08239X$1,22.5*
%
%ADD10C,0.0100*%
%ADD11C,0.0060*%
%ADD12C,0.0030*%
D10*
X007009Y002280D02*
X006859Y002430D01*
X006859Y003181D01*
X007309Y003181D01*
X007459Y003030D01*
X007459Y002730D01*
X007309Y002580D01*
X006859Y002580D01*
X006538Y002580D02*
X006538Y003481D01*
X006388Y003181D02*
X006088Y003181D01*
X005938Y003030D01*
X005938Y002580D01*
X005468Y002730D02*
X005317Y002580D01*
X005468Y002730D02*
X005468Y003331D01*
X005618Y003181D02*
X005317Y003181D01*
X006388Y003181D02*
X006538Y003030D01*
X007773Y002580D02*
X008073Y002580D01*
X007923Y002580D02*
X007923Y003181D01*
X008073Y003181D01*
X007923Y003481D02*
X007923Y003631D01*
X008994Y003481D02*
X008994Y002580D01*
X008393Y002580D01*
X009314Y002730D02*
X009314Y003030D01*
X009464Y003181D01*
X009915Y003181D01*
X010235Y003030D02*
X010235Y002880D01*
X010835Y002880D01*
X010835Y002730D02*
X010835Y003030D01*
X010685Y003181D01*
X010385Y003181D01*
X010235Y003030D01*
X010685Y002580D02*
X010835Y002730D01*
X010685Y002580D02*
X010385Y002580D01*
X009915Y002580D02*
X009464Y002580D01*
X009314Y002730D01*
X009915Y002580D02*
X009915Y003481D01*
X011156Y003481D02*
X011156Y002580D01*
X011456Y002880D01*
X011756Y002580D01*
X011756Y003481D01*
X007159Y002280D02*
X007009Y002280D01*
D11*
X005042Y000913D02*
X004998Y000870D01*
X005042Y000913D02*
X005042Y001087D01*
X005085Y001043D02*
X004998Y001043D01*
X005206Y001000D02*
X005206Y000870D01*
X005380Y000870D02*
X005380Y001130D01*
X005336Y001043D02*
X005250Y001043D01*
X005206Y001000D01*
X005336Y001043D02*
X005380Y001000D01*
X005501Y001043D02*
X005631Y001043D01*
X005674Y001000D01*
X005674Y000913D01*
X005631Y000870D01*
X005501Y000870D01*
X005501Y000827D02*
X005501Y001043D01*
X005828Y001043D02*
X005828Y000870D01*
X005871Y000870D02*
X005784Y000870D01*
X005981Y000870D02*
X006067Y000870D01*
X006024Y000870D02*
X006024Y001130D01*
X006067Y001130D01*
X006189Y001000D02*
X006232Y001043D01*
X006362Y001043D01*
X006362Y001130D02*
X006362Y000870D01*
X006232Y000870D01*
X006189Y000913D01*
X006189Y001000D01*
X005871Y001043D02*
X005828Y001043D01*
X005828Y001130D02*
X005828Y001174D01*
X006483Y001000D02*
X006483Y000957D01*
X006657Y000957D01*
X006657Y001000D02*
X006613Y001043D01*
X006527Y001043D01*
X006483Y001000D01*
X006657Y001000D02*
X006657Y000913D01*
X006613Y000870D01*
X006527Y000870D01*
X006778Y000913D02*
X006821Y000870D01*
X006865Y000913D01*
X006908Y000870D01*
X006951Y000913D01*
X006951Y001043D01*
X007072Y001130D02*
X007246Y000870D01*
X007367Y000870D02*
X007497Y000870D01*
X007541Y000913D01*
X007541Y001000D01*
X007497Y001043D01*
X007367Y001043D01*
X007367Y000827D01*
X007410Y000783D01*
X007454Y000783D01*
X007662Y000870D02*
X007662Y001043D01*
X007835Y001043D02*
X007835Y000913D01*
X007792Y000870D01*
X007662Y000870D01*
X007956Y000913D02*
X007956Y001000D01*
X008000Y001043D01*
X008130Y001043D01*
X008130Y001130D02*
X008130Y000870D01*
X008000Y000870D01*
X007956Y000913D01*
X008251Y000913D02*
X008251Y001043D01*
X008425Y001043D02*
X008425Y000913D01*
X008381Y000870D01*
X008338Y000913D01*
X008294Y000870D01*
X008251Y000913D01*
X008546Y000913D02*
X008589Y000870D01*
X008676Y000870D01*
X008719Y000913D01*
X008719Y001000D01*
X008676Y001043D01*
X008589Y001043D01*
X008546Y001000D01*
X008546Y000913D01*
X008840Y000913D02*
X008884Y000957D01*
X008970Y000957D01*
X009014Y001000D01*
X008970Y001043D01*
X008840Y001043D01*
X008840Y000913D02*
X008884Y000870D01*
X009014Y000870D01*
X009135Y001130D02*
X009309Y000870D01*
X009430Y000870D02*
X009430Y001000D01*
X009473Y001043D01*
X009516Y001000D01*
X009516Y000870D01*
X009603Y000870D02*
X009603Y001043D01*
X009560Y001043D01*
X009516Y001000D01*
X009724Y001000D02*
X009724Y000913D01*
X009768Y000870D01*
X009854Y000870D01*
X009898Y000913D01*
X009898Y001000D01*
X009854Y001043D01*
X009768Y001043D01*
X009724Y001000D01*
X010019Y001043D02*
X010149Y001043D01*
X010192Y001000D01*
X010192Y000913D01*
X010149Y000870D01*
X010019Y000870D01*
X010296Y000870D02*
X010296Y000913D01*
X010340Y000913D01*
X010340Y000870D01*
X010296Y000870D01*
X010461Y000913D02*
X010461Y001000D01*
X010504Y001043D01*
X010634Y001043D01*
X010634Y001130D02*
X010634Y000870D01*
X010504Y000870D01*
X010461Y000913D01*
X010756Y000870D02*
X010756Y001043D01*
X010929Y001043D02*
X010929Y000913D01*
X010886Y000870D01*
X010756Y000870D01*
X011050Y000870D02*
X011050Y001000D01*
X011094Y001043D01*
X011180Y001043D01*
X011224Y001000D01*
X011333Y001043D02*
X011420Y001043D01*
X011377Y001087D02*
X011377Y000913D01*
X011333Y000870D01*
X011224Y000870D02*
X011224Y001130D01*
X011573Y001130D02*
X011573Y001174D01*
X011573Y001043D02*
X011573Y000870D01*
X011530Y000870D02*
X011617Y000870D01*
X011738Y000870D02*
X011868Y000870D01*
X011911Y000913D01*
X011911Y001000D01*
X011868Y001043D01*
X011738Y001043D01*
X011738Y000827D01*
X011781Y000783D01*
X011825Y000783D01*
X011617Y001043D02*
X011573Y001043D01*
X006778Y001043D02*
X006778Y000913D01*
X005588Y000783D02*
X005544Y000783D01*
X005501Y000827D01*
D12*
X007800Y001757D02*
X007862Y001695D01*
X007985Y001695D01*
X008047Y001757D01*
X008169Y001757D02*
X008169Y001695D01*
X008231Y001695D01*
X008231Y001757D01*
X008169Y001757D01*
X008352Y001757D02*
X008414Y001695D01*
X008537Y001695D01*
X008599Y001757D01*
X008722Y001757D02*
X008722Y001695D01*
X008783Y001695D01*
X008783Y001757D01*
X008722Y001757D01*
X008905Y001757D02*
X008966Y001695D01*
X009090Y001695D01*
X009152Y001757D01*
X008905Y002004D01*
X008905Y001757D01*
X009152Y001757D02*
X009152Y002004D01*
X009090Y002065D01*
X008966Y002065D01*
X008905Y002004D01*
X008599Y002004D02*
X008599Y001942D01*
X008537Y001880D01*
X008352Y001880D01*
X008352Y001757D02*
X008352Y002004D01*
X008414Y002065D01*
X008537Y002065D01*
X008599Y002004D01*
X008047Y002004D02*
X007985Y002065D01*
X007862Y002065D01*
X007800Y002004D01*
X007800Y001942D01*
X007862Y001880D01*
X007800Y001818D01*
X007800Y001757D01*
X007862Y001880D02*
X007923Y001880D01*
M02*
