G75*
%MOIN*%
%OFA0B0*%
%FSLAX24Y24*%
%IPPOS*%
%LPD*%
%AMOC8*
5,1,8,0,0,1.08239X$1,22.5*
%
%ADD10C,0.0350*%
%ADD11R,0.2953X0.0591*%
%ADD12R,0.2559X0.0394*%
%ADD13C,0.0160*%
%ADD14C,0.0270*%
%ADD15C,0.0240*%
%ADD16C,0.0120*%
D10*
X001130Y001542D03*
X001130Y004042D03*
D11*
X015759Y004420D03*
X015759Y001664D03*
D12*
X015562Y002648D03*
X015562Y003436D03*
D13*
X001110Y000827D02*
X000980Y000881D01*
X000881Y000980D01*
X000827Y001110D01*
X000820Y001180D01*
X000820Y001467D01*
X000863Y001364D01*
X000952Y001275D01*
X001067Y001227D01*
X001193Y001227D01*
X001308Y001275D01*
X001397Y001364D01*
X001445Y001480D01*
X001445Y001605D01*
X001397Y001721D01*
X001308Y001809D01*
X001193Y001857D01*
X001067Y001857D01*
X000952Y001809D01*
X000863Y001721D01*
X000820Y001617D01*
X000820Y003967D01*
X000863Y003864D01*
X000952Y003775D01*
X001067Y003727D01*
X001193Y003727D01*
X001308Y003775D01*
X001397Y003864D01*
X001445Y003980D01*
X001445Y004105D01*
X001397Y004221D01*
X001350Y004268D01*
X001350Y004742D01*
X001355Y004797D01*
X001397Y004898D01*
X001474Y004975D01*
X001575Y005017D01*
X001630Y005022D01*
X006380Y005022D01*
X006435Y005017D01*
X006536Y004975D01*
X006613Y004898D01*
X006655Y004797D01*
X006660Y004742D01*
X006660Y003351D01*
X006789Y003222D01*
X006811Y003222D01*
X006824Y003209D01*
X006925Y003167D01*
X007035Y003167D01*
X007136Y003209D01*
X007213Y003286D01*
X007255Y003387D01*
X007255Y003497D01*
X007213Y003598D01*
X007136Y003675D01*
X007100Y003690D01*
X007100Y004885D01*
X006990Y005150D01*
X006876Y005264D01*
X014080Y005264D01*
X014080Y004098D01*
X014035Y004117D01*
X013925Y004117D01*
X013824Y004075D01*
X013811Y004062D01*
X013137Y004062D01*
X012872Y003953D01*
X012670Y003750D01*
X012560Y003485D01*
X012560Y003211D01*
X012547Y003198D01*
X012505Y003097D01*
X012505Y002987D01*
X012547Y002886D01*
X012624Y002809D01*
X012725Y002767D01*
X012835Y002767D01*
X012936Y002809D01*
X013013Y002886D01*
X013055Y002987D01*
X013055Y003097D01*
X013013Y003198D01*
X013000Y003211D01*
X013000Y003342D01*
X013005Y003397D01*
X013047Y003498D01*
X013124Y003575D01*
X013225Y003617D01*
X013270Y003621D01*
X013247Y003598D01*
X013205Y003497D01*
X013205Y003387D01*
X013247Y003286D01*
X013324Y003209D01*
X013425Y003167D01*
X013535Y003167D01*
X013636Y003209D01*
X013648Y003222D01*
X013715Y003221D01*
X013705Y003197D01*
X013705Y003087D01*
X013747Y002986D01*
X013824Y002909D01*
X013925Y002867D01*
X013930Y002867D01*
X014080Y002699D01*
X014080Y002648D01*
X013835Y002380D01*
X013824Y002375D01*
X013747Y002298D01*
X013705Y002197D01*
X013705Y002087D01*
X013747Y001986D01*
X013809Y001924D01*
X013700Y001924D01*
X013700Y002373D01*
X013713Y002386D01*
X013755Y002487D01*
X013755Y002597D01*
X013713Y002698D01*
X013636Y002775D01*
X013535Y002817D01*
X013425Y002817D01*
X013324Y002775D01*
X013247Y002698D01*
X013205Y002597D01*
X013205Y002487D01*
X013247Y002386D01*
X013260Y002373D01*
X013260Y001812D01*
X013260Y001812D01*
X013220Y001716D01*
X013220Y001613D01*
X013260Y001517D01*
X013333Y001444D01*
X013428Y001404D01*
X014080Y001404D01*
X014080Y000820D01*
X001180Y000820D01*
X001110Y000827D01*
X001082Y000839D02*
X014080Y000839D01*
X013780Y000942D02*
X013753Y000915D01*
X013576Y000842D02*
X007730Y000842D01*
X007700Y000844D01*
X007670Y000849D01*
X007641Y000858D01*
X007614Y000871D01*
X007588Y000886D01*
X007564Y000905D01*
X007543Y000926D01*
X007524Y000950D01*
X007509Y000976D01*
X007496Y001003D01*
X007487Y001032D01*
X007482Y001062D01*
X007480Y001092D01*
X007480Y001342D01*
X009205Y001487D02*
X009247Y001386D01*
X009324Y001309D01*
X009425Y001267D01*
X009535Y001267D01*
X009636Y001309D01*
X009649Y001322D01*
X011211Y001322D01*
X011224Y001309D01*
X011325Y001267D01*
X011435Y001267D01*
X011536Y001309D01*
X011613Y001386D01*
X011655Y001487D01*
X011655Y001597D01*
X011613Y001698D01*
X011600Y001711D01*
X011600Y003373D01*
X011613Y003386D01*
X011655Y003487D01*
X011655Y003597D01*
X011613Y003698D01*
X011536Y003775D01*
X011435Y003817D01*
X011325Y003817D01*
X011224Y003775D01*
X011147Y003698D01*
X011105Y003597D01*
X011105Y003487D01*
X011147Y003386D01*
X011160Y003373D01*
X011160Y001762D01*
X009649Y001762D01*
X009636Y001775D01*
X009535Y001817D01*
X009425Y001817D01*
X009324Y001775D01*
X009247Y001698D01*
X009205Y001597D01*
X009205Y001487D01*
X009211Y001473D02*
X001442Y001473D01*
X001347Y001314D02*
X009319Y001314D01*
X009641Y001314D02*
X011219Y001314D01*
X011541Y001314D02*
X014080Y001314D01*
X014080Y001156D02*
X000822Y001156D01*
X000820Y001314D02*
X000913Y001314D01*
X001580Y001142D02*
X001580Y002042D01*
X001328Y001790D02*
X009358Y001790D01*
X009602Y001790D02*
X011160Y001790D01*
X011160Y001948D02*
X000820Y001948D01*
X000820Y001790D02*
X000932Y001790D01*
X000826Y001631D02*
X000820Y001631D01*
X001434Y001631D02*
X009219Y001631D01*
X009480Y001542D02*
X011380Y001542D01*
X011380Y003542D01*
X011655Y003533D02*
X012580Y003533D01*
X012645Y003692D02*
X011616Y003692D01*
X011144Y003692D02*
X007100Y003692D01*
X007240Y003533D02*
X011105Y003533D01*
X011159Y003375D02*
X007250Y003375D01*
X006980Y003442D02*
X006880Y003442D01*
X006880Y004742D01*
X007100Y004801D02*
X014080Y004801D01*
X014080Y004643D02*
X007100Y004643D01*
X007100Y004484D02*
X014080Y004484D01*
X014080Y004326D02*
X007100Y004326D01*
X006660Y004326D02*
X006629Y004326D01*
X006613Y004286D02*
X006655Y004387D01*
X006655Y004497D01*
X006613Y004598D01*
X006536Y004675D01*
X006435Y004717D01*
X006325Y004717D01*
X006224Y004675D01*
X006211Y004662D01*
X004989Y004662D01*
X004982Y004655D01*
X004846Y004576D01*
X004767Y004441D01*
X004760Y004433D01*
X004760Y004308D01*
X004678Y004355D01*
X004671Y004362D01*
X001949Y004362D01*
X001936Y004375D01*
X001835Y004417D01*
X001725Y004417D01*
X001624Y004375D01*
X001547Y004298D01*
X001505Y004197D01*
X001505Y004087D01*
X001547Y003986D01*
X001624Y003909D01*
X001725Y003867D01*
X001835Y003867D01*
X001936Y003909D01*
X001949Y003922D01*
X004405Y003922D01*
X004405Y003887D01*
X004447Y003786D01*
X004524Y003709D01*
X004625Y003667D01*
X004735Y003667D01*
X004760Y003678D01*
X004760Y003542D01*
X004755Y003488D01*
X004713Y003387D01*
X004636Y003309D01*
X004535Y003268D01*
X004480Y003262D01*
X001299Y003262D01*
X001286Y003275D01*
X001185Y003317D01*
X001075Y003317D01*
X000974Y003275D01*
X000897Y003198D01*
X000855Y003097D01*
X000855Y002987D01*
X000897Y002886D01*
X000974Y002809D01*
X001075Y002767D01*
X001185Y002767D01*
X001286Y002809D01*
X001299Y002822D01*
X004623Y002822D01*
X004888Y002932D01*
X005090Y003134D01*
X005090Y003134D01*
X005200Y003399D01*
X005200Y004222D01*
X006211Y004222D01*
X006224Y004209D01*
X006325Y004167D01*
X006435Y004167D01*
X006536Y004209D01*
X006613Y004286D01*
X006660Y004167D02*
X005200Y004167D01*
X005200Y004009D02*
X006660Y004009D01*
X007100Y004009D02*
X013007Y004009D01*
X012872Y003953D02*
X012872Y003953D01*
X012770Y003850D02*
X007100Y003850D01*
X006660Y003850D02*
X005200Y003850D01*
X005200Y003692D02*
X006660Y003692D01*
X006660Y003533D02*
X005200Y003533D01*
X004980Y003542D02*
X004980Y004342D01*
X004982Y004359D01*
X004986Y004376D01*
X004993Y004392D01*
X005003Y004406D01*
X005016Y004419D01*
X005030Y004429D01*
X005046Y004436D01*
X005063Y004440D01*
X005080Y004442D01*
X006380Y004442D01*
X006655Y004484D02*
X006660Y004484D01*
X006660Y004643D02*
X006569Y004643D01*
X006880Y004742D02*
X006878Y004786D01*
X006872Y004829D01*
X006863Y004871D01*
X006850Y004913D01*
X006833Y004953D01*
X006813Y004992D01*
X006790Y005029D01*
X006763Y005063D01*
X006734Y005096D01*
X006701Y005125D01*
X006667Y005152D01*
X006630Y005175D01*
X006591Y005195D01*
X006551Y005212D01*
X006509Y005225D01*
X006467Y005234D01*
X006424Y005240D01*
X006380Y005242D01*
X001630Y005242D01*
X001459Y004960D02*
X006551Y004960D01*
X006653Y004801D02*
X001357Y004801D01*
X001130Y004742D02*
X001130Y004042D01*
X001445Y004009D02*
X001538Y004009D01*
X001505Y004167D02*
X001419Y004167D01*
X001758Y004142D02*
X001780Y004142D01*
X004580Y004142D01*
X004597Y004140D01*
X004614Y004136D01*
X004630Y004129D01*
X004644Y004119D01*
X004657Y004106D01*
X004667Y004092D01*
X004674Y004076D01*
X004678Y004059D01*
X004680Y004042D01*
X004680Y003942D01*
X004421Y003850D02*
X001383Y003850D01*
X000877Y003850D02*
X000820Y003850D01*
X000820Y003692D02*
X004567Y003692D01*
X004980Y003542D02*
X004978Y003498D01*
X004972Y003455D01*
X004963Y003413D01*
X004950Y003371D01*
X004933Y003331D01*
X004913Y003292D01*
X004890Y003255D01*
X004863Y003221D01*
X004834Y003188D01*
X004801Y003159D01*
X004767Y003132D01*
X004730Y003109D01*
X004691Y003089D01*
X004651Y003072D01*
X004609Y003059D01*
X004567Y003050D01*
X004524Y003044D01*
X004480Y003042D01*
X001130Y003042D01*
X000855Y003058D02*
X000820Y003058D01*
X000820Y003216D02*
X000915Y003216D01*
X000820Y003375D02*
X004701Y003375D01*
X004759Y003533D02*
X000820Y003533D01*
X000820Y002899D02*
X000892Y002899D01*
X000820Y002741D02*
X011160Y002741D01*
X011160Y002582D02*
X000820Y002582D01*
X000820Y002424D02*
X011160Y002424D01*
X011160Y002265D02*
X000820Y002265D01*
X000820Y002107D02*
X011160Y002107D01*
X011600Y002107D02*
X013260Y002107D01*
X013700Y002107D02*
X013705Y002107D01*
X013700Y002265D02*
X013733Y002265D01*
X013835Y002380D02*
X013835Y002380D01*
X013875Y002424D02*
X013728Y002424D01*
X013480Y002542D02*
X013480Y001664D01*
X013220Y001631D02*
X011641Y001631D01*
X011649Y001473D02*
X013304Y001473D01*
X013250Y001790D02*
X011600Y001790D01*
X011600Y001948D02*
X013260Y001948D01*
X013700Y001948D02*
X013785Y001948D01*
X013260Y002265D02*
X011600Y002265D01*
X011600Y002424D02*
X013232Y002424D01*
X013205Y002582D02*
X011600Y002582D01*
X011600Y002741D02*
X013289Y002741D01*
X013671Y002741D02*
X014043Y002741D01*
X014020Y002582D02*
X013755Y002582D01*
X013980Y003142D02*
X014480Y002580D01*
X015562Y002648D01*
X014380Y002680D01*
X014780Y002680D01*
X013849Y002899D02*
X013018Y002899D01*
X013055Y003058D02*
X013717Y003058D01*
X013713Y003216D02*
X013643Y003216D01*
X013317Y003216D02*
X013000Y003216D01*
X012780Y003342D02*
X012780Y003042D01*
X012505Y003058D02*
X011600Y003058D01*
X011600Y003216D02*
X012560Y003216D01*
X012560Y003375D02*
X011601Y003375D01*
X011160Y003216D02*
X007143Y003216D01*
X006817Y003216D02*
X005124Y003216D01*
X005014Y003058D02*
X011160Y003058D01*
X011160Y002899D02*
X004809Y002899D01*
X004888Y002932D02*
X004888Y002932D01*
X005190Y003375D02*
X006660Y003375D01*
X007100Y004167D02*
X014080Y004167D01*
X013980Y003842D02*
X013280Y003842D01*
X012670Y003750D02*
X012670Y003750D01*
X013082Y003533D02*
X013220Y003533D01*
X013480Y003442D02*
X015562Y003436D01*
X013280Y003842D02*
X013236Y003840D01*
X013193Y003834D01*
X013151Y003825D01*
X013109Y003812D01*
X013069Y003795D01*
X013030Y003775D01*
X012993Y003752D01*
X012959Y003725D01*
X012926Y003696D01*
X012897Y003663D01*
X012870Y003629D01*
X012847Y003592D01*
X012827Y003553D01*
X012810Y003513D01*
X012797Y003471D01*
X012788Y003429D01*
X012782Y003386D01*
X012780Y003342D01*
X013003Y003375D02*
X013210Y003375D01*
X012542Y002899D02*
X011600Y002899D01*
X014637Y004480D02*
X015759Y004420D01*
X014637Y004480D02*
X013480Y004542D01*
X014080Y004960D02*
X007069Y004960D01*
X007004Y005118D02*
X014080Y005118D01*
X006990Y005150D02*
X006990Y005150D01*
X004960Y004643D02*
X001350Y004643D01*
X001350Y004484D02*
X004792Y004484D01*
X004846Y004576D02*
X004846Y004576D01*
X004846Y004576D01*
X004760Y004326D02*
X004729Y004326D01*
X001630Y005242D02*
X001586Y005240D01*
X001543Y005234D01*
X001501Y005225D01*
X001459Y005212D01*
X001419Y005195D01*
X001380Y005175D01*
X001343Y005152D01*
X001309Y005125D01*
X001276Y005096D01*
X001247Y005063D01*
X001220Y005029D01*
X001197Y004992D01*
X001177Y004953D01*
X001160Y004913D01*
X001147Y004871D01*
X001138Y004829D01*
X001132Y004786D01*
X001130Y004742D01*
X001350Y004326D02*
X001574Y004326D01*
X000874Y000997D02*
X014080Y000997D01*
X013753Y000915D02*
X013732Y000897D01*
X013709Y000880D01*
X013684Y000867D01*
X013659Y000856D01*
X013632Y000848D01*
X013604Y000844D01*
X013576Y000842D01*
D14*
X013780Y000942D03*
X011380Y001542D03*
X009480Y001542D03*
X007480Y001342D03*
X012780Y003042D03*
X013480Y003442D03*
X013980Y003142D03*
X013480Y002542D03*
X013980Y002142D03*
X011380Y003542D03*
X013980Y003842D03*
X013480Y004542D03*
X006980Y003442D03*
X004680Y003942D03*
X006380Y004442D03*
X001780Y004142D03*
X001130Y003042D03*
X001580Y002042D03*
X001580Y001142D03*
D15*
X013480Y001664D02*
X015759Y001664D01*
X015759Y004420D02*
X013480Y004542D01*
D16*
X014380Y002680D02*
X013980Y002242D01*
X013980Y002142D01*
M02*
