%
M48
METRIC,000.000
T01C0.38
T03C0.38
T05C0.38
T07C0.38
T09C0.38
T11C0.38
T13C0.38
T15C0.38
T17C0.38
T19C0.38
T21C0.38
T32C3.20
T34C0.38
T36C0.38
T38C0.38
T40C0.38
T42C0.38
T44C0.38
T46C0.38
T48C0.38
T50C0.38
T52C0.38
T54C0.38
T56C0.38
T58C0.38
T60C0.38
T62C0.38
T64C0.38
T66C0.38
T68C0.38
T70C0.38
T72C0.50
%
T01
X015013Y085900
X013870Y086916
X015013Y088186
X013870Y090726
X013870Y093266
X015521Y093520
X022887Y093012
X027205Y094282
X028729Y091742
X039905Y091996
X043461Y090726
X045239Y091742
X046509Y090980
X045239Y089456
X046509Y088440
X039905Y086916
X035079Y086916
X029999Y086408
X046001Y085392
X046509Y092758
X045239Y094536
T03
X015013Y113900
X013870Y114916
X015013Y116186
X013870Y118726
X013870Y121266
X015521Y121520
X022887Y121012
X027205Y122282
X028729Y119742
X039905Y119996
X043461Y118726
X045239Y119742
X046509Y118980
X045239Y117456
X046509Y116440
X039905Y114916
X035079Y114916
X029999Y114408
X046001Y113392
X046509Y120758
X045239Y122536
T05
X015013Y057900
X013870Y058916
X015013Y060186
X013870Y062726
X013870Y065266
X015521Y065519
X022887Y065012
X027205Y066282
X028729Y063742
X039905Y063996
X043461Y062726
X045239Y063742
X046509Y062980
X045239Y061456
X046509Y060440
X039905Y058916
X035079Y058916
X029999Y058408
X046001Y057392
X046509Y064757
X045239Y066536
T07
X015013Y127900
X013870Y128916
X015013Y130186
X013870Y132726
X013870Y135266
X015521Y135520
X022887Y135012
X027205Y136282
X028729Y133742
X039905Y133996
X043461Y132726
X045239Y133742
X046509Y132980
X045239Y131456
X046509Y130440
X039905Y128916
X035079Y128916
X029999Y128407
X046001Y127392
X046509Y134758
X045239Y136536
T09
X015013Y071900
X013870Y072916
X015013Y074186
X013870Y076726
X013870Y079266
X015521Y079520
X022887Y079012
X027205Y080282
X028729Y077742
X039905Y077996
X043461Y076726
X045239Y077742
X046509Y076980
X045239Y075456
X046509Y074440
X039905Y072916
X035079Y072916
X029999Y072408
X046001Y071392
X046509Y078758
X045239Y080536
T11
X015013Y099900
X013870Y100916
X015013Y102186
X013870Y104726
X013870Y107266
X015521Y107520
X022887Y107012
X027205Y108282
X028729Y105742
X039905Y105996
X043461Y104726
X045239Y105742
X046509Y104980
X045239Y103456
X046509Y102440
X039905Y100916
X035079Y100916
X029999Y100408
X046001Y099392
X046509Y106758
X045239Y108536
T13
X015013Y013900
X013870Y014916
X015013Y016186
X013870Y018726
X013870Y021266
X015521Y021520
X022887Y021012
X027205Y022282
X028729Y019742
X039905Y019996
X043461Y018726
X045239Y019742
X046509Y018980
X045239Y017456
X046509Y016440
X039905Y014916
X035079Y014916
X029999Y014408
X046001Y013392
X046509Y020758
X045239Y022536
T15
X015013Y027900
X013870Y028916
X015013Y030186
X013870Y032726
X013870Y035266
X015521Y035520
X022887Y035012
X027205Y036282
X028729Y033742
X039905Y033996
X043461Y032726
X045239Y033742
X046509Y032980
X045239Y031456
X046509Y030440
X039905Y028916
X035079Y028916
X029999Y028408
X046001Y027392
X046509Y034758
X045239Y036536
T17
X015013Y141900
X013870Y142916
X015013Y144186
X013870Y146726
X013870Y149266
X015521Y149520
X022887Y149012
X027205Y150282
X028729Y147742
X039905Y147996
X043461Y146726
X045239Y147742
X046509Y146980
X045239Y145456
X046509Y144440
X039905Y142916
X035079Y142916
X029999Y142408
X046001Y141392
X046509Y148758
X045239Y150536
T19
X015013Y042900
X013870Y043916
X015013Y045186
X013870Y047726
X013870Y050266
X015521Y050520
X022887Y050012
X027205Y051282
X028729Y048742
X039905Y048996
X043461Y047726
X045239Y048742
X046509Y047980
X045239Y046456
X046509Y045440
X039905Y043916
X035079Y043916
X029999Y043408
X046001Y042392
X046509Y049758
X045239Y051536
T21
X061013Y013900
X059870Y014916
X061013Y016186
X059870Y018726
X059870Y021266
X061521Y021520
X068887Y021012
X073205Y022282
X074729Y019742
X085905Y019996
X089461Y018726
X091239Y019742
X092509Y018980
X091239Y017456
X092509Y016440
X085905Y014916
X081079Y014916
X075999Y014408
X092001Y013392
X092509Y020758
X091239Y022536
T32
X005000Y005000
X155000Y005000
X155000Y160000
X005000Y160000
T34
X061013Y027900
X059870Y028916
X061013Y030186
X059870Y032726
X059870Y035266
X061521Y035520
X068887Y035012
X073205Y036282
X074729Y033742
X085905Y033996
X089461Y032726
X091239Y033742
X092509Y032980
X091239Y031456
X092509Y030440
X085905Y028916
X081079Y028916
X075999Y028408
X092001Y027392
X092509Y034758
X091239Y036536
T36
X061013Y057900
X059870Y058916
X061013Y060186
X059870Y062726
X059870Y065266
X061521Y065519
X068887Y065012
X073205Y066282
X074729Y063742
X085905Y063996
X089461Y062726
X091239Y063742
X092509Y062980
X091239Y061456
X092509Y060440
X085905Y058916
X081079Y058916
X075999Y058408
X092001Y057392
X092509Y064757
X091239Y066536
T38
X061013Y071900
X059870Y072916
X061013Y074186
X059870Y076726
X059870Y079266
X061521Y079520
X068887Y079012
X073205Y080282
X074729Y077742
X085905Y077996
X089461Y076726
X091239Y077742
X092509Y076980
X091239Y075456
X092509Y074440
X085905Y072916
X081079Y072916
X075999Y072408
X092001Y071392
X092509Y078758
X091239Y080536
T40
X061013Y042900
X059870Y043916
X061013Y045186
X059870Y047726
X059870Y050266
X061521Y050520
X068887Y050012
X073205Y051282
X074729Y048742
X085905Y048996
X089461Y047726
X091239Y048742
X092509Y047980
X091239Y046456
X092509Y045440
X085905Y043916
X081079Y043916
X075999Y043408
X092001Y042392
X092509Y049758
X091239Y051536
T42
X061013Y141900
X059870Y142916
X061013Y144186
X059870Y146726
X059870Y149266
X061521Y149520
X068887Y149012
X073205Y150282
X074729Y147742
X085905Y147996
X089461Y146726
X091239Y147742
X092509Y146980
X091239Y145456
X092509Y144440
X085905Y142916
X081079Y142916
X075999Y142408
X092001Y141392
X092509Y148758
X091239Y150536
T44
X061013Y127900
X059870Y128916
X061013Y130186
X059870Y132726
X059870Y135266
X061521Y135520
X068887Y135012
X073205Y136282
X074729Y133742
X085905Y133996
X089461Y132726
X091239Y133742
X092509Y132980
X091239Y131456
X092509Y130440
X085905Y128916
X081079Y128916
X075999Y128407
X092001Y127392
X092509Y134758
X091239Y136536
T46
X061013Y085900
X059870Y086916
X061013Y088186
X059870Y090726
X059870Y093266
X061521Y093520
X068887Y093012
X073205Y094282
X074729Y091742
X085905Y091996
X089461Y090726
X091239Y091742
X092509Y090980
X091239Y089456
X092509Y088440
X085905Y086916
X081079Y086916
X075999Y086408
X092001Y085392
X092509Y092758
X091239Y094536
T48
X061013Y113900
X059870Y114916
X061013Y116186
X059870Y118726
X059870Y121266
X061521Y121520
X068887Y121012
X073205Y122282
X074729Y119742
X085905Y119996
X089461Y118726
X091239Y119742
X092509Y118980
X091239Y117456
X092509Y116440
X085905Y114916
X081079Y114916
X075999Y114408
X092001Y113392
X092509Y120758
X091239Y122536
T50
X061013Y099900
X059870Y100916
X061013Y102186
X059870Y104726
X059870Y107266
X061521Y107520
X068887Y107012
X073205Y108282
X074729Y105742
X085905Y105996
X089461Y104726
X091239Y105742
X092509Y104980
X091239Y103456
X092509Y102440
X085905Y100916
X081079Y100916
X075999Y100408
X092001Y099392
X092509Y106758
X091239Y108536
T52
X107013Y013900
X105870Y014916
X107013Y016186
X105870Y018726
X105870Y021266
X107521Y021520
X114887Y021012
X119205Y022282
X120729Y019742
X131905Y019996
X135461Y018726
X137239Y019742
X138509Y018980
X137239Y017456
X138509Y016440
X131905Y014916
X127079Y014916
X121999Y014408
X138001Y013392
X138509Y020758
X137239Y022536
T54
X107013Y085900
X105870Y086916
X107013Y088186
X105870Y090726
X105870Y093266
X107521Y093520
X114887Y093012
X119205Y094282
X120729Y091742
X131905Y091996
X135461Y090726
X137239Y091742
X138509Y090980
X137239Y089456
X138509Y088440
X131905Y086916
X127079Y086916
X121999Y086408
X138001Y085392
X138509Y092758
X137239Y094536
T56
X107013Y113900
X105870Y114916
X107013Y116186
X105870Y118726
X105870Y121266
X107521Y121520
X114887Y121012
X119205Y122282
X120729Y119742
X131905Y119996
X135461Y118726
X137239Y119742
X138509Y118980
X137239Y117456
X138509Y116440
X131905Y114916
X127079Y114916
X121999Y114408
X138001Y113392
X138509Y120758
X137239Y122536
T58
X107013Y042900
X105870Y043916
X107013Y045186
X105870Y047726
X105870Y050266
X107521Y050520
X114887Y050012
X119205Y051282
X120729Y048742
X131905Y048996
X135461Y047726
X137239Y048742
X138509Y047980
X137239Y046456
X138509Y045440
X131905Y043916
X127079Y043916
X121999Y043408
X138001Y042392
X138509Y049758
X137239Y051536
T60
X107013Y027900
X105870Y028916
X107013Y030186
X105870Y032726
X105870Y035266
X107521Y035520
X114887Y035012
X119205Y036282
X120729Y033742
X131905Y033996
X135461Y032726
X137239Y033742
X138509Y032980
X137239Y031456
X138509Y030440
X131905Y028916
X127079Y028916
X121999Y028408
X138001Y027392
X138509Y034758
X137239Y036536
T62
X107013Y141900
X105870Y142916
X107013Y144186
X105870Y146726
X105870Y149266
X107521Y149520
X114887Y149012
X119205Y150282
X120729Y147742
X131905Y147996
X135461Y146726
X137239Y147742
X138509Y146980
X137239Y145456
X138509Y144440
X131905Y142916
X127079Y142916
X121999Y142408
X138001Y141392
X138509Y148758
X137239Y150536
T64
X107013Y071900
X105870Y072916
X107013Y074186
X105870Y076726
X105870Y079266
X107521Y079520
X114887Y079012
X119205Y080282
X120729Y077742
X131905Y077996
X135461Y076726
X137239Y077742
X138509Y076980
X137239Y075456
X138509Y074440
X131905Y072916
X127079Y072916
X121999Y072408
X138001Y071392
X138509Y078758
X137239Y080536
T66
X107013Y057900
X105870Y058916
X107013Y060186
X105870Y062726
X105870Y065266
X107521Y065519
X114887Y065012
X119205Y066282
X120729Y063742
X131905Y063996
X135461Y062726
X137239Y063742
X138509Y062980
X137239Y061456
X138509Y060440
X131905Y058916
X127079Y058916
X121999Y058408
X138001Y057392
X138509Y064757
X137239Y066536
T68
X107013Y127900
X105870Y128916
X107013Y130186
X105870Y132726
X105870Y135266
X107521Y135520
X114887Y135012
X119205Y136282
X120729Y133742
X131905Y133996
X135461Y132726
X137239Y133742
X138509Y132980
X137239Y131456
X138509Y130440
X131905Y128916
X127079Y128916
X121999Y128407
X138001Y127392
X138509Y134758
X137239Y136536
T70
X107013Y099900
X105870Y100916
X107013Y102186
X105870Y104726
X105870Y107266
X107521Y107520
X114887Y107012
X119205Y108282
X120729Y105742
X131905Y105996
X135461Y104726
X137239Y105742
X138509Y104980
X137239Y103456
X138509Y102440
X131905Y100916
X127079Y100916
X121999Y100408
X138001Y099392
X138509Y106758
X137239Y108536
T72
X012477Y094823
X012477Y093823
X012477Y092823
X012477Y091823
X012477Y090823
X012477Y089823
X012477Y088823
X012477Y087823
X012477Y086823
X010249Y095349
X010249Y094349
X010249Y093349
X010249Y092349
X010249Y091349
X010249Y090349
X010249Y089349
X010249Y088349
X010249Y087349
X010249Y086349
X019783Y084477
X020783Y084477
X021783Y084477
X022783Y084477
X023783Y084477
X024783Y084477
X025783Y084477
X026783Y084477
X027783Y084477
X028783Y084477
X027975Y082977
X026975Y082977
X025975Y082977
X024975Y082977
X023975Y082977
X022975Y082977
X021975Y082977
X020975Y082977
X019975Y082977
X039783Y084477
X040783Y084477
X041783Y084477
X042783Y084477
X043783Y084477
X044783Y084477
X045783Y084477
X046783Y084477
X047783Y084477
X048783Y084477
X047975Y082977
X046975Y082977
X045975Y082977
X044975Y082977
X043975Y082977
X042975Y082977
X041975Y082977
X040975Y082977
X039975Y082977
X056093Y086198
X056157Y087192
X056157Y088192
X056157Y089192
X056157Y090192
X056157Y091192
X056157Y092192
X056157Y093192
X056157Y094192
X056108Y095189
X058477Y094823
X058477Y093823
X058477Y092823
X058477Y091823
X058477Y090823
X058477Y089823
X058477Y088823
X058477Y087823
X058477Y086823
X047975Y096977
X046975Y096977
X045975Y096977
X044975Y096977
X043975Y096977
X042975Y096977
X041975Y096977
X040975Y096977
X039975Y096977
X039783Y098477
X040783Y098477
X041783Y098477
X042783Y098477
X043783Y098477
X044783Y098477
X045783Y098477
X046783Y098477
X047783Y098477
X048783Y098477
X027975Y096977
X026975Y096977
X025975Y096977
X024975Y096977
X023975Y096977
X022975Y096977
X021975Y096977
X020975Y096977
X019975Y096977
X019783Y098477
X020783Y098477
X021783Y098477
X022783Y098477
X023783Y098477
X024783Y098477
X025783Y098477
X026783Y098477
X027783Y098477
X028783Y098477
X012477Y122823
X012477Y121823
X012477Y120823
X012477Y119823
X012477Y118823
X012477Y117823
X012477Y116823
X012477Y115823
X012477Y114823
X010249Y123349
X010249Y122349
X010249Y121349
X010249Y120349
X010249Y119349
X010249Y118349
X010249Y117349
X010249Y116349
X010249Y115349
X010249Y114349
X019783Y112477
X020783Y112477
X021783Y112477
X022783Y112477
X023783Y112477
X024783Y112477
X025783Y112477
X026783Y112477
X027783Y112477
X028783Y112477
X027975Y110977
X026975Y110977
X025975Y110977
X024975Y110977
X023975Y110977
X022975Y110977
X021975Y110977
X020975Y110977
X019975Y110977
X039783Y112477
X040783Y112477
X041783Y112477
X042783Y112477
X043783Y112477
X044783Y112477
X045783Y112477
X046783Y112477
X047783Y112477
X048783Y112477
X047975Y110977
X046975Y110977
X045975Y110977
X044975Y110977
X043975Y110977
X042975Y110977
X041975Y110977
X040975Y110977
X039975Y110977
X056093Y114198
X056157Y115192
X056157Y116192
X056157Y117192
X056157Y118192
X056157Y119192
X056157Y120192
X056157Y121192
X056157Y122192
X056108Y123189
X058477Y122823
X058477Y121823
X058477Y120823
X058477Y119823
X058477Y118823
X058477Y117823
X058477Y116823
X058477Y115823
X058477Y114823
X047975Y124977
X046975Y124977
X045975Y124977
X044975Y124977
X043975Y124977
X042975Y124977
X041975Y124977
X040975Y124977
X039975Y124977
X039783Y126477
X040783Y126477
X041783Y126477
X042783Y126477
X043783Y126477
X044783Y126477
X045783Y126477
X046783Y126477
X047783Y126477
X048783Y126477
X027975Y124977
X026975Y124977
X025975Y124977
X024975Y124977
X023975Y124977
X022975Y124977
X021975Y124977
X020975Y124977
X019975Y124977
X019783Y126477
X020783Y126477
X021783Y126477
X022783Y126477
X023783Y126477
X024783Y126477
X025783Y126477
X026783Y126477
X027783Y126477
X028783Y126477
X012477Y066823
X012477Y065823
X012477Y064822
X012477Y063823
X012477Y062823
X012477Y061823
X012477Y060823
X012477Y059823
X012477Y058823
X010249Y067349
X010249Y066349
X010249Y065349
X010249Y064349
X010249Y063349
X010249Y062349
X010249Y061349
X010249Y060349
X010249Y059349
X010249Y058349
X019783Y056477
X020783Y056477
X021783Y056477
X022783Y056477
X023783Y056477
X024783Y056477
X025783Y056477
X026783Y056477
X027783Y056477
X028783Y056477
X027975Y053977
X026975Y053977
X025975Y053977
X024975Y053977
X023975Y053977
X022975Y053977
X021975Y053977
X020975Y053977
X019975Y053977
X039783Y056477
X040783Y056477
X041783Y056477
X042783Y056477
X043783Y056477
X044783Y056477
X045783Y056477
X046783Y056477
X047783Y056477
X047975Y053977
X046975Y053977
X045975Y053977
X044975Y053977
X043975Y053977
X042975Y053977
X041975Y053977
X040975Y053977
X039975Y053977
X056093Y058198
X056157Y059192
X056157Y060192
X056157Y061192
X056157Y062192
X056157Y063192
X056157Y064191
X056157Y065191
X056157Y066192
X056108Y067189
X058477Y066823
X058477Y065823
X058477Y064822
X058477Y063823
X058477Y062823
X058477Y061823
X058477Y060823
X058477Y059823
X058477Y058823
X047975Y068977
X046975Y068977
X045975Y068977
X044975Y068977
X043975Y068977
X042975Y068977
X041975Y068977
X040975Y068977
X039975Y068977
X039783Y070477
X040783Y070477
X041783Y070477
X042783Y070477
X043783Y070477
X044783Y070477
X045783Y070477
X046783Y070477
X047783Y070477
X048783Y070477
X027975Y068977
X026975Y068977
X025975Y068977
X024975Y068977
X023975Y068977
X022975Y068977
X021975Y068977
X020975Y068977
X019975Y068977
X019783Y070477
X020783Y070477
X021783Y070477
X022783Y070477
X023783Y070477
X024783Y070477
X025783Y070477
X026783Y070477
X027783Y070477
X028783Y070477
X012477Y136823
X012477Y135823
X012477Y134823
X012477Y133823
X012477Y132823
X012477Y131823
X012477Y130823
X012477Y129823
X012477Y128823
X010249Y137349
X010249Y136349
X010249Y135349
X010249Y134349
X010249Y133349
X010249Y132349
X010249Y131349
X010249Y130348
X010249Y129348
X010249Y128348
X056093Y128198
X056157Y129192
X056157Y130192
X056157Y131192
X056157Y132192
X056157Y133192
X056157Y134192
X056157Y135192
X056157Y136192
X056108Y137189
X058477Y136823
X058477Y135823
X058477Y134823
X058477Y133823
X058477Y132823
X058477Y131823
X058477Y130823
X058477Y129823
X058477Y128823
X047975Y138977
X046975Y138977
X045975Y138977
X044975Y138977
X043975Y138977
X042975Y138977
X041975Y138977
X040975Y138977
X039975Y138977
X039783Y140477
X040783Y140477
X041783Y140477
X042783Y140477
X043783Y140477
X044783Y140477
X045783Y140477
X046783Y140477
X047783Y140477
X048783Y140477
X027975Y138977
X026975Y138977
X025975Y138977
X024975Y138977
X023975Y138977
X022975Y138977
X021975Y138977
X020975Y138977
X019975Y138977
X019783Y140477
X020783Y140477
X021783Y140477
X022783Y140477
X023783Y140477
X024783Y140477
X025783Y140477
X026783Y140477
X027783Y140477
X028783Y140477
X012477Y080823
X012477Y079823
X012477Y078823
X012477Y077823
X012477Y076823
X012477Y075823
X012477Y074823
X012477Y073823
X012477Y072823
X010249Y081349
X010249Y080349
X010249Y079349
X010249Y078349
X010249Y077349
X010249Y076349
X010249Y075349
X010249Y074349
X010249Y073349
X010249Y072349
X056093Y072198
X056157Y073192
X056157Y074192
X056157Y075192
X056157Y076192
X056157Y077192
X056157Y078192
X056157Y079192
X056157Y080192
X056108Y081189
X058477Y080823
X058477Y079823
X058477Y078823
X058477Y077823
X058477Y076823
X058477Y075823
X058477Y074823
X058477Y073823
X058477Y072823
X012477Y108823
X012477Y107823
X012477Y106823
X012477Y105823
X012477Y104823
X012477Y103823
X012477Y102823
X012477Y101823
X012477Y100823
X010249Y109349
X010249Y108349
X010249Y107349
X010249Y106349
X010249Y105349
X010249Y104349
X010249Y103349
X010249Y102349
X010249Y101349
X010249Y100349
X056093Y100198
X056157Y101192
X056157Y102192
X056157Y103192
X056157Y104192
X056157Y105192
X056157Y106192
X056157Y107192
X056157Y108192
X056108Y109189
X058477Y108823
X058477Y107823
X058477Y106823
X058477Y105823
X058477Y104823
X058477Y103823
X058477Y102823
X058477Y101823
X058477Y100823
X012477Y022823
X012477Y021823
X012477Y020823
X012477Y019823
X012477Y018823
X012477Y017823
X012477Y016823
X012477Y015823
X012477Y014823
X010249Y023349
X010249Y022349
X010249Y021349
X010249Y020349
X010249Y019349
X010249Y018349
X010249Y017349
X010249Y016349
X010249Y015349
X010249Y014349
X019783Y012477
X020783Y012477
X021783Y012477
X022783Y012477
X023783Y012477
X024783Y012477
X025783Y012477
X026783Y012477
X027783Y012477
X028783Y012477
X019473Y010249
X020473Y010249
X021473Y010249
X022473Y010249
X023473Y010249
X024473Y010249
X025473Y010249
X026473Y010249
X027473Y010249
X028473Y010249
X039783Y012477
X040783Y012477
X041783Y012477
X042783Y012477
X043783Y012477
X044783Y012477
X045783Y012477
X046783Y012477
X047783Y012477
X039473Y010249
X040473Y010249
X041473Y010249
X042473Y010249
X043473Y010249
X044473Y010249
X045473Y010249
X046473Y010249
X047473Y010249
X048473Y010249
X047975Y024977
X046975Y024977
X045975Y024977
X044975Y024977
X043975Y024977
X042975Y024977
X041975Y024977
X040975Y024977
X039975Y024977
X039783Y026477
X040783Y026477
X041783Y026477
X042783Y026477
X043783Y026477
X044783Y026477
X045783Y026477
X046783Y026477
X047783Y026477
X048783Y026477
X027975Y024977
X026975Y024977
X025975Y024977
X024975Y024977
X023975Y024977
X022975Y024977
X021975Y024977
X020975Y024977
X019975Y024977
X019783Y026477
X020783Y026477
X021783Y026477
X022783Y026477
X023783Y026477
X024783Y026477
X025783Y026477
X026783Y026477
X027783Y026477
X028783Y026477
X012477Y036823
X012477Y035823
X012477Y034823
X012477Y033823
X012477Y032823
X012477Y031823
X012477Y030823
X012477Y029823
X012477Y028823
X010249Y037349
X010249Y036349
X010249Y035349
X010249Y034349
X010249Y033349
X010249Y032348
X010249Y031349
X010249Y030349
X010249Y029349
X010249Y028349
X056093Y028198
X056157Y029192
X056157Y030192
X056157Y031192
X056157Y032192
X056157Y033192
X056157Y034192
X056157Y035192
X056157Y036192
X056108Y037189
X058477Y036823
X058477Y035823
X058477Y034823
X058477Y033823
X058477Y032823
X058477Y031823
X058477Y030823
X058477Y029823
X058477Y028823
X047975Y038977
X046975Y038977
X045975Y038977
X044975Y038977
X043975Y038977
X042975Y038977
X041975Y038977
X040975Y038977
X039975Y038977
X039783Y041477
X040783Y041477
X041783Y041477
X042783Y041477
X043783Y041477
X044783Y041477
X045783Y041477
X046783Y041477
X047783Y041477
X027975Y038977
X026975Y038977
X025975Y038977
X024975Y038977
X023975Y038977
X022975Y038977
X021975Y038977
X020975Y038977
X019975Y038977
X019783Y041477
X020783Y041477
X021783Y041477
X022783Y041477
X023783Y041477
X024783Y041477
X025783Y041477
X026783Y041477
X027783Y041477
X028783Y041477
X012477Y150823
X012477Y149823
X012477Y148823
X012477Y147823
X012477Y146823
X012477Y145823
X012477Y144823
X012477Y143823
X012477Y142823
X010249Y151349
X010249Y150349
X010249Y149349
X010249Y148349
X010249Y147349
X010249Y146349
X010249Y145349
X010249Y144349
X010249Y143349
X010249Y142349
X056093Y142198
X056157Y143192
X056157Y144192
X056157Y145192
X056157Y146192
X056157Y147192
X056157Y148192
X056157Y149192
X056157Y150192
X056108Y151189
X058477Y150823
X058477Y149823
X058477Y148823
X058477Y147823
X058477Y146823
X058477Y145823
X058477Y144823
X058477Y143823
X058477Y142823
X047975Y152977
X046975Y152977
X045975Y152977
X044975Y152977
X043975Y152977
X042975Y152977
X041975Y152977
X040975Y152977
X039975Y152977
X048176Y154748
X047176Y154748
X046176Y154748
X045176Y154748
X044176Y154748
X043176Y154748
X042176Y154748
X041176Y154748
X040176Y154748
X039176Y154748
X027975Y152977
X026975Y152977
X025975Y152977
X024975Y152977
X023975Y152977
X022975Y152977
X021975Y152977
X020975Y152977
X019975Y152977
X028176Y154748
X027176Y154748
X026176Y154748
X025176Y154748
X024176Y154748
X023176Y154748
X022176Y154748
X021176Y154748
X020176Y154748
X019176Y154748
X012477Y051823
X012477Y050823
X012477Y049823
X012477Y048823
X012477Y047823
X012477Y046823
X012477Y045823
X012477Y044823
X012477Y043823
X010249Y052349
X010249Y051349
X010249Y050349
X010249Y049349
X010249Y048349
X010249Y047349
X010249Y046349
X010249Y045349
X010249Y044349
X010249Y043349
X056093Y043198
X056157Y044192
X056157Y045192
X056157Y046192
X056157Y047192
X056157Y048192
X056157Y049192
X056157Y050192
X056157Y051192
X056108Y052189
X058477Y051823
X058477Y050823
X058477Y049823
X058477Y048823
X058477Y047823
X058477Y046823
X058477Y045823
X058477Y044823
X058477Y043823
X102093Y014198
X102157Y015192
X102157Y016192
X102157Y017192
X102157Y018192
X102157Y019192
X102157Y020192
X102157Y021192
X102157Y022192
X102108Y023189
X104477Y022823
X104477Y021823
X104477Y020823
X104477Y019823
X104477Y018823
X104477Y017823
X104477Y016823
X104477Y015823
X104477Y014823
X093975Y024977
X092975Y024977
X091975Y024977
X090975Y024977
X089975Y024977
X088975Y024977
X087975Y024977
X086975Y024977
X085975Y024977
X085783Y026477
X086783Y026477
X087783Y026477
X088783Y026477
X089783Y026477
X090783Y026477
X091783Y026477
X092783Y026477
X093783Y026477
X094783Y026477
X073975Y024977
X072975Y024977
X071975Y024977
X070975Y024977
X069975Y024977
X068975Y024977
X067975Y024977
X066975Y024977
X065975Y024977
X065783Y026477
X066783Y026477
X067783Y026477
X068783Y026477
X069783Y026477
X070783Y026477
X071783Y026477
X072783Y026477
X073783Y026477
X074783Y026477
X102093Y028198
X102157Y029192
X102157Y030192
X102157Y031192
X102157Y032192
X102157Y033192
X102157Y034192
X102157Y035192
X102157Y036192
X102108Y037189
X104477Y036823
X104477Y035823
X104477Y034823
X104477Y033823
X104477Y032823
X104477Y031823
X104477Y030823
X104477Y029823
X104477Y028823
X093975Y038977
X092975Y038977
X091975Y038977
X090975Y038977
X089975Y038977
X088975Y038977
X087975Y038977
X086975Y038977
X085975Y038977
X085783Y041477
X086783Y041477
X087783Y041477
X088783Y041477
X089783Y041477
X090783Y041477
X091783Y041477
X092783Y041477
X093783Y041477
X073975Y038977
X072975Y038977
X071975Y038977
X070975Y038977
X069975Y038977
X068975Y038977
X067975Y038977
X066975Y038977
X065975Y038977
X065783Y041477
X066783Y041477
X067783Y041477
X068783Y041477
X069783Y041477
X070783Y041477
X071783Y041477
X072783Y041477
X073783Y041477
X074783Y041477
X065783Y056477
X066783Y056477
X067783Y056477
X068783Y056477
X069783Y056477
X070783Y056477
X071783Y056477
X072783Y056477
X073783Y056477
X074783Y056477
X073975Y053977
X072975Y053977
X071975Y053977
X070975Y053977
X069975Y053977
X068975Y053977
X067975Y053977
X066975Y053977
X065975Y053977
X085783Y056477
X086783Y056477
X087783Y056477
X088783Y056477
X089783Y056477
X090783Y056477
X091783Y056477
X092783Y056477
X093783Y056477
X093975Y053977
X092975Y053977
X091975Y053977
X090975Y053977
X089975Y053977
X088975Y053977
X087975Y053977
X086975Y053977
X085975Y053977
X102093Y058198
X102157Y059192
X102157Y060192
X102157Y061192
X102157Y062192
X102157Y063192
X102157Y064191
X102157Y065191
X102157Y066192
X102108Y067189
X104477Y066823
X104477Y065823
X104477Y064822
X104477Y063823
X104477Y062823
X104477Y061823
X104477Y060823
X104477Y059823
X104477Y058823
X093975Y068977
X092975Y068977
X091975Y068977
X090975Y068977
X089975Y068977
X088975Y068977
X087975Y068977
X086975Y068977
X085975Y068977
X085783Y070477
X086783Y070477
X087783Y070477
X088783Y070477
X089783Y070477
X090783Y070477
X091783Y070477
X092783Y070477
X093783Y070477
X094783Y070477
X073975Y068977
X072975Y068977
X071975Y068977
X070975Y068977
X069975Y068977
X068975Y068977
X067975Y068977
X066975Y068977
X065975Y068977
X065783Y070477
X066783Y070477
X067783Y070477
X068783Y070477
X069783Y070477
X070783Y070477
X071783Y070477
X072783Y070477
X073783Y070477
X074783Y070477
X102093Y072198
X102157Y073192
X102157Y074192
X102157Y075192
X102157Y076192
X102157Y077192
X102157Y078192
X102157Y079192
X102157Y080192
X102108Y081189
X104477Y080823
X104477Y079823
X104477Y078823
X104477Y077823
X104477Y076823
X104477Y075823
X104477Y074823
X104477Y073823
X104477Y072823
X093975Y082977
X092975Y082977
X091975Y082977
X090975Y082977
X089975Y082977
X088975Y082977
X087975Y082977
X086975Y082977
X085975Y082977
X085783Y084477
X086783Y084477
X087783Y084477
X088783Y084477
X089783Y084477
X090783Y084477
X091783Y084477
X092783Y084477
X093783Y084477
X094783Y084477
X073975Y082977
X072975Y082977
X071975Y082977
X070975Y082977
X069975Y082977
X068975Y082977
X067975Y082977
X066975Y082977
X065975Y082977
X065783Y084477
X066783Y084477
X067783Y084477
X068783Y084477
X069783Y084477
X070783Y084477
X071783Y084477
X072783Y084477
X073783Y084477
X074783Y084477
X102093Y043198
X102157Y044192
X102157Y045192
X102157Y046192
X102157Y047192
X102157Y048192
X102157Y049192
X102157Y050192
X102157Y051192
X102108Y052189
X104477Y051823
X104477Y050823
X104477Y049823
X104477Y048823
X104477Y047823
X104477Y046823
X104477Y045823
X104477Y044823
X104477Y043823
X065783Y140477
X066783Y140477
X067783Y140477
X068783Y140477
X069783Y140477
X070783Y140477
X071783Y140477
X072783Y140477
X073783Y140477
X074783Y140477
X073975Y138977
X072975Y138977
X071975Y138977
X070975Y138977
X069975Y138977
X068975Y138977
X067975Y138977
X066975Y138977
X065975Y138977
X085783Y140477
X086783Y140477
X087783Y140477
X088783Y140477
X089783Y140477
X090783Y140477
X091783Y140477
X092783Y140477
X093783Y140477
X094783Y140477
X093975Y138977
X092975Y138977
X091975Y138977
X090975Y138977
X089975Y138977
X088975Y138977
X087975Y138977
X086975Y138977
X085975Y138977
X102093Y142198
X102157Y143192
X102157Y144192
X102157Y145192
X102157Y146192
X102157Y147192
X102157Y148192
X102157Y149192
X102157Y150192
X102108Y151189
X104477Y150823
X104477Y149823
X104477Y148823
X104477Y147823
X104477Y146823
X104477Y145823
X104477Y144823
X104477Y143823
X104477Y142823
X094176Y154748
X093176Y154748
X092176Y154748
X091176Y154748
X090176Y154748
X089176Y154748
X088176Y154748
X087176Y154748
X086176Y154748
X085176Y154748
X093975Y152977
X092975Y152977
X091975Y152977
X090975Y152977
X089975Y152977
X088975Y152977
X087975Y152977
X086975Y152977
X085975Y152977
X074176Y154748
X073176Y154748
X072176Y154748
X071176Y154748
X070176Y154748
X069176Y154748
X068176Y154748
X067176Y154748
X066176Y154748
X065176Y154748
X073975Y152977
X072975Y152977
X071975Y152977
X070975Y152977
X069975Y152977
X068975Y152977
X067975Y152977
X066975Y152977
X065975Y152977
X065783Y126477
X066783Y126477
X067783Y126477
X068783Y126477
X069783Y126477
X070783Y126477
X071783Y126477
X072783Y126477
X073783Y126477
X074783Y126477
X073975Y124977
X072975Y124977
X071975Y124977
X070975Y124977
X069975Y124977
X068975Y124977
X067975Y124977
X066975Y124977
X065975Y124977
X085783Y126477
X086783Y126477
X087783Y126477
X088783Y126477
X089783Y126477
X090783Y126477
X091783Y126477
X092783Y126477
X093783Y126477
X094783Y126477
X093975Y124977
X092975Y124977
X091975Y124977
X090975Y124977
X089975Y124977
X088975Y124977
X087975Y124977
X086975Y124977
X085975Y124977
X102093Y128198
X102157Y129192
X102157Y130192
X102157Y131192
X102157Y132192
X102157Y133192
X102157Y134192
X102157Y135192
X102157Y136192
X102108Y137189
X104477Y136823
X104477Y135823
X104477Y134823
X104477Y133823
X104477Y132823
X104477Y131823
X104477Y130823
X104477Y129823
X104477Y128823
X102093Y086198
X102157Y087192
X102157Y088192
X102157Y089192
X102157Y090192
X102157Y091192
X102157Y092192
X102157Y093192
X102157Y094192
X102108Y095189
X104477Y094823
X104477Y093823
X104477Y092823
X104477Y091823
X104477Y090823
X104477Y089823
X104477Y088823
X104477Y087823
X104477Y086823
X093975Y096977
X092975Y096977
X091975Y096977
X090975Y096977
X089975Y096977
X088975Y096977
X087975Y096977
X086975Y096977
X085975Y096977
X085783Y098477
X086783Y098477
X087783Y098477
X088783Y098477
X089783Y098477
X090783Y098477
X091783Y098477
X092783Y098477
X093783Y098477
X094783Y098477
X073975Y096977
X072975Y096977
X071975Y096977
X070975Y096977
X069975Y096977
X068975Y096977
X067975Y096977
X066975Y096977
X065975Y096977
X065783Y098477
X066783Y098477
X067783Y098477
X068783Y098477
X069783Y098477
X070783Y098477
X071783Y098477
X072783Y098477
X073783Y098477
X074783Y098477
X065783Y112477
X066783Y112477
X067783Y112477
X068783Y112477
X069783Y112477
X070783Y112477
X071783Y112477
X072783Y112477
X073783Y112477
X074783Y112477
X073975Y110977
X072975Y110977
X071975Y110977
X070975Y110977
X069975Y110977
X068975Y110977
X067975Y110977
X066975Y110977
X065975Y110977
X085783Y112477
X086783Y112477
X087783Y112477
X088783Y112477
X089783Y112477
X090783Y112477
X091783Y112477
X092783Y112477
X093783Y112477
X094783Y112477
X093975Y110977
X092975Y110977
X091975Y110977
X090975Y110977
X089975Y110977
X088975Y110977
X087975Y110977
X086975Y110977
X085975Y110977
X102093Y114198
X102157Y115192
X102157Y116192
X102157Y117192
X102157Y118192
X102157Y119192
X102157Y120192
X102157Y121192
X102157Y122192
X102108Y123189
X104477Y122823
X104477Y121823
X104477Y120823
X104477Y119823
X104477Y118823
X104477Y117823
X104477Y116823
X104477Y115823
X104477Y114823
X102093Y100198
X102157Y101192
X102157Y102192
X102157Y103192
X102157Y104192
X102157Y105192
X102157Y106192
X102157Y107192
X102157Y108192
X102108Y109189
X104477Y108823
X104477Y107823
X104477Y106823
X104477Y105823
X104477Y104823
X104477Y103823
X104477Y102823
X104477Y101823
X104477Y100823
X111473Y010249
X112473Y010249
X113473Y010249
X114473Y010249
X115473Y010249
X116473Y010249
X117473Y010249
X118473Y010249
X119473Y010249
X120473Y010249
X111783Y012477
X112783Y012477
X113783Y012477
X114783Y012477
X115783Y012477
X116783Y012477
X117783Y012477
X118783Y012477
X119783Y012477
X120783Y012477
X131473Y010249
X132473Y010249
X133473Y010249
X134473Y010249
X135473Y010249
X136473Y010249
X137473Y010249
X138473Y010249
X139473Y010249
X140473Y010249
X131783Y012477
X132783Y012477
X133783Y012477
X134783Y012477
X135783Y012477
X136783Y012477
X137783Y012477
X138783Y012477
X139783Y012477
X149749Y013994
X149749Y014994
X149749Y015994
X149749Y016994
X149749Y017994
X149749Y018994
X149749Y019994
X149749Y020994
X149749Y021994
X149749Y022994
X148093Y014198
X148157Y015192
X148157Y016192
X148157Y017192
X148157Y018192
X148157Y019192
X148157Y020192
X148157Y021192
X148157Y022192
X148108Y023189
X139975Y024977
X138975Y024977
X137975Y024977
X136975Y024977
X135975Y024977
X134975Y024977
X133975Y024977
X132975Y024977
X131975Y024977
X131783Y026477
X132783Y026477
X133783Y026477
X134783Y026477
X135783Y026477
X136783Y026477
X137783Y026477
X138783Y026477
X139783Y026477
X140783Y026477
X119975Y024977
X118975Y024977
X117975Y024977
X116975Y024977
X115975Y024977
X114975Y024977
X113975Y024977
X112975Y024977
X111975Y024977
X111783Y026477
X112783Y026477
X113783Y026477
X114783Y026477
X115783Y026477
X116783Y026477
X117783Y026477
X118783Y026477
X119783Y026477
X120783Y026477
X111783Y084477
X112783Y084477
X113783Y084477
X114783Y084477
X115783Y084477
X116783Y084477
X117783Y084477
X118783Y084477
X119783Y084477
X120783Y084477
X119975Y082977
X118975Y082977
X117975Y082977
X116975Y082977
X115975Y082977
X114975Y082977
X113975Y082977
X112975Y082977
X111975Y082977
X131783Y084477
X132783Y084477
X133783Y084477
X134783Y084477
X135783Y084477
X136783Y084477
X137783Y084477
X138783Y084477
X139783Y084477
X140783Y084477
X139975Y082977
X138975Y082977
X137975Y082977
X136975Y082977
X135975Y082977
X134975Y082977
X133975Y082977
X132975Y082977
X131975Y082977
X149749Y085994
X149749Y086994
X149749Y087994
X149749Y088994
X149749Y089994
X149749Y090994
X149749Y091994
X149749Y092994
X149749Y093994
X149749Y094994
X148093Y086198
X148157Y087192
X148157Y088192
X148157Y089192
X148157Y090192
X148157Y091192
X148157Y092192
X148157Y093192
X148157Y094192
X148108Y095189
X139975Y096977
X138975Y096977
X137975Y096977
X136975Y096977
X135975Y096977
X134975Y096977
X133975Y096977
X132975Y096977
X131975Y096977
X131783Y098477
X132783Y098477
X133783Y098477
X134783Y098477
X135783Y098477
X136783Y098477
X137783Y098477
X138783Y098477
X139783Y098477
X140783Y098477
X119975Y096977
X118975Y096977
X117975Y096977
X116975Y096977
X115975Y096977
X114975Y096977
X113975Y096977
X112975Y096977
X111975Y096977
X111783Y098477
X112783Y098477
X113783Y098477
X114783Y098477
X115783Y098477
X116783Y098477
X117783Y098477
X118783Y098477
X119783Y098477
X120783Y098477
X111783Y112477
X112783Y112477
X113783Y112477
X114783Y112477
X115783Y112477
X116783Y112477
X117783Y112477
X118783Y112477
X119783Y112477
X120783Y112477
X119975Y110977
X118975Y110977
X117975Y110977
X116975Y110977
X115975Y110977
X114975Y110977
X113975Y110977
X112975Y110977
X111975Y110977
X131783Y112477
X132783Y112477
X133783Y112477
X134783Y112477
X135783Y112477
X136783Y112477
X137783Y112477
X138783Y112477
X139783Y112477
X140783Y112477
X139975Y110977
X138975Y110977
X137975Y110977
X136975Y110977
X135975Y110977
X134975Y110977
X133975Y110977
X132975Y110977
X131975Y110977
X149749Y113994
X149749Y114994
X149749Y115994
X149749Y116994
X149749Y117994
X149749Y118994
X149749Y119994
X149749Y120994
X149749Y121994
X149749Y122994
X148093Y114198
X148157Y115192
X148157Y116192
X148157Y117192
X148157Y118192
X148157Y119192
X148157Y120192
X148157Y121192
X148157Y122192
X148108Y123189
X139975Y124977
X138975Y124977
X137975Y124977
X136975Y124977
X135975Y124977
X134975Y124977
X133975Y124977
X132975Y124977
X131975Y124977
X131783Y126477
X132783Y126477
X133783Y126477
X134783Y126477
X135783Y126477
X136783Y126477
X137783Y126477
X138783Y126477
X139783Y126477
X140783Y126477
X119975Y124977
X118975Y124977
X117975Y124977
X116975Y124977
X115975Y124977
X114975Y124977
X113975Y124977
X112975Y124977
X111975Y124977
X111783Y126477
X112783Y126477
X113783Y126477
X114783Y126477
X115783Y126477
X116783Y126477
X117783Y126477
X118783Y126477
X119783Y126477
X120783Y126477
X111783Y041477
X112783Y041477
X113783Y041477
X114783Y041477
X115783Y041477
X116783Y041477
X117783Y041477
X118783Y041477
X119783Y041477
X120783Y041477
X119975Y038977
X118975Y038977
X117975Y038977
X116975Y038977
X115975Y038977
X114975Y038977
X113975Y038977
X112975Y038977
X111975Y038977
X131783Y041477
X132783Y041477
X133783Y041477
X134783Y041477
X135783Y041477
X136783Y041477
X137783Y041477
X138783Y041477
X139783Y041477
X139975Y038977
X138975Y038977
X137975Y038977
X136975Y038977
X135975Y038977
X134975Y038977
X133975Y038977
X132975Y038977
X131975Y038977
X149749Y042994
X149749Y043994
X149749Y044994
X149749Y045994
X149749Y046994
X149749Y047994
X149749Y048994
X149749Y049994
X149749Y050994
X149749Y051994
X148093Y043198
X148157Y044192
X148157Y045192
X148157Y046192
X148157Y047192
X148157Y048192
X148157Y049192
X148157Y050192
X148157Y051192
X148108Y052189
X139975Y053977
X138975Y053977
X137975Y053977
X136975Y053977
X135975Y053977
X134975Y053977
X133975Y053977
X132975Y053977
X131975Y053977
X131783Y056477
X132783Y056477
X133783Y056477
X134783Y056477
X135783Y056477
X136783Y056477
X137783Y056477
X138783Y056477
X139783Y056477
X119975Y053977
X118975Y053977
X117975Y053977
X116975Y053977
X115975Y053977
X114975Y053977
X113975Y053977
X112975Y053977
X111975Y053977
X111783Y056477
X112783Y056477
X113783Y056477
X114783Y056477
X115783Y056477
X116783Y056477
X117783Y056477
X118783Y056477
X119783Y056477
X120783Y056477
X149749Y027994
X149749Y028994
X149749Y029994
X149749Y030994
X149749Y031994
X149749Y032994
X149749Y033994
X149749Y034994
X149749Y035994
X149749Y036994
X148093Y028198
X148157Y029192
X148157Y030192
X148157Y031192
X148157Y032192
X148157Y033192
X148157Y034192
X148157Y035192
X148157Y036192
X148108Y037189
X111783Y140477
X112783Y140477
X113783Y140477
X114783Y140477
X115783Y140477
X116783Y140477
X117783Y140477
X118783Y140477
X119783Y140477
X120783Y140477
X119975Y138977
X118975Y138977
X117975Y138977
X116975Y138977
X115975Y138977
X114975Y138977
X113975Y138977
X112975Y138977
X111975Y138977
X131783Y140477
X132783Y140477
X133783Y140477
X134783Y140477
X135783Y140477
X136783Y140477
X137783Y140477
X138783Y140477
X139783Y140477
X140783Y140477
X139975Y138977
X138975Y138977
X137975Y138977
X136975Y138977
X135975Y138977
X134975Y138977
X133975Y138977
X132975Y138977
X131975Y138977
X149749Y141994
X149749Y142994
X149749Y143994
X149749Y144994
X149749Y145994
X149749Y146994
X149749Y147994
X149749Y148994
X149749Y149994
X149749Y150994
X148093Y142198
X148157Y143192
X148157Y144192
X148157Y145192
X148157Y146192
X148157Y147192
X148157Y148192
X148157Y149192
X148157Y150192
X148108Y151189
X140176Y154748
X139176Y154748
X138176Y154748
X137176Y154748
X136176Y154748
X135176Y154748
X134176Y154748
X133176Y154748
X132176Y154748
X131176Y154748
X139975Y152977
X138975Y152977
X137975Y152977
X136975Y152977
X135975Y152977
X134975Y152977
X133975Y152977
X132975Y152977
X131975Y152977
X120176Y154748
X119176Y154748
X118176Y154748
X117176Y154748
X116176Y154748
X115176Y154748
X114176Y154748
X113176Y154748
X112176Y154748
X111176Y154748
X119975Y152977
X118975Y152977
X117975Y152977
X116975Y152977
X115975Y152977
X114975Y152977
X113975Y152977
X112975Y152977
X111975Y152977
X111783Y070477
X112783Y070477
X113783Y070477
X114783Y070477
X115783Y070477
X116783Y070477
X117783Y070477
X118783Y070477
X119783Y070477
X120783Y070477
X119975Y068977
X118975Y068977
X117975Y068977
X116975Y068977
X115975Y068977
X114975Y068977
X113975Y068977
X112975Y068977
X111975Y068977
X131783Y070477
X132783Y070477
X133783Y070477
X134783Y070477
X135783Y070477
X136783Y070477
X137783Y070477
X138783Y070477
X139783Y070477
X140783Y070477
X139975Y068977
X138975Y068977
X137975Y068977
X136975Y068977
X135975Y068977
X134975Y068977
X133975Y068977
X132975Y068977
X131975Y068977
X149749Y071994
X149749Y072994
X149749Y073994
X149749Y074994
X149749Y075994
X149749Y076994
X149749Y077994
X149749Y078994
X149749Y079994
X149749Y080994
X148093Y072198
X148157Y073192
X148157Y074192
X148157Y075192
X148157Y076192
X148157Y077192
X148157Y078192
X148157Y079192
X148157Y080192
X148108Y081189
X149749Y057994
X149749Y058994
X149749Y059994
X149749Y060994
X149749Y061994
X149749Y062994
X149749Y063994
X149749Y064994
X149749Y065994
X149749Y066994
X148093Y058198
X148157Y059192
X148157Y060192
X148157Y061192
X148157Y062192
X148157Y063192
X148157Y064191
X148157Y065191
X148157Y066192
X148108Y067189
X149749Y127994
X149749Y128994
X149749Y129994
X149749Y130994
X149749Y131994
X149749Y132994
X149749Y133994
X149749Y134994
X149749Y135994
X149749Y136994
X148093Y128198
X148157Y129192
X148157Y130192
X148157Y131192
X148157Y132192
X148157Y133192
X148157Y134192
X148157Y135192
X148157Y136192
X148108Y137189
X149749Y099994
X149749Y100994
X149749Y101994
X149749Y102994
X149749Y103994
X149749Y104994
X149749Y105994
X149749Y106994
X149749Y107994
X149749Y108994
X148093Y100198
X148157Y101192
X148157Y102192
X148157Y103192
X148157Y104192
X148157Y105192
X148157Y106192
X148157Y107192
X148157Y108192
X148108Y109189
X064783Y012477
X065783Y012477
X066783Y012477
X067783Y012477
X068783Y012477
X069783Y012477
X070783Y012477
X071783Y012477
X065473Y010249
X066473Y010249
X067473Y010249
X068473Y010249
X069473Y010249
X070473Y010249
X071473Y010249
X086783Y012477
X087783Y012477
X088783Y012477
X089783Y012477
X090783Y012477
X091783Y012477
X092783Y012477
X093783Y012477
X087473Y010249
X088473Y010249
X089473Y010249
X090473Y010249
X091473Y010249
X092473Y010249
X093473Y010249
X056157Y015192
X056157Y016192
X056157Y017192
X056157Y018192
X056157Y019192
X056157Y020192
X056157Y021192
X056157Y022192
X058477Y021823
X058477Y020823
X058477Y019823
X058477Y018823
X058477Y017823
X058477Y016823
X058477Y015823
M30