%MOIN*%
%OFA0B0*%
%FSLAX25Y25*%
%IPPOS*%
%LPD*%
%AMOC8*
5,1,8,0,0,1.08239X$1,22.5*%
%AMOC80*
5,1,8,0,0,1.08239X$1,22.5*%
%AMOC81*
5,1,8,0,0,1.08239X$1,22.5*%
%AMOC800*
5,1,8,0,0,1.08239X$1,22.5*%
%AMOC810*
5,1,8,0,0,1.08239X$1,22.5*%
%AMOC8000*
5,1,8,0,0,1.08239X$1,22.5*%
%AMOC82*
5,1,8,0,0,1.08239X$1,22.5*%
%AMOC801*
5,1,8,0,0,1.08239X$1,22.5*%
%AMOC811*
5,1,8,0,0,1.08239X$1,22.5*%
%AMOC8001*
5,1,8,0,0,1.08239X$1,22.5*%
%AMOC820*
5,1,8,0,0,1.08239X$1,22.5*%
%AMOC8010*
5,1,8,0,0,1.08239X$1,22.5*%
%AMOC8100*
5,1,8,0,0,1.08239X$1,22.5*%
%AMOC80000*
5,1,8,0,0,1.08239X$1,22.5*%
%AMOC83*
5,1,8,0,0,1.08239X$1,22.5*%
%AMOC802*
5,1,8,0,0,1.08239X$1,22.5*%
%AMOC812*
5,1,8,0,0,1.08239X$1,22.5*%
%AMOC8002*
5,1,8,0,0,1.08239X$1,22.5*%
%AMOC821*
5,1,8,0,0,1.08239X$1,22.5*%
%AMOC8011*
5,1,8,0,0,1.08239X$1,22.5*%
%AMOC8101*
5,1,8,0,0,1.08239X$1,22.5*%
%AMOC80001*
5,1,8,0,0,1.08239X$1,22.5*%
%AMOC830*
5,1,8,0,0,1.08239X$1,22.5*%
%AMOC8020*
5,1,8,0,0,1.08239X$1,22.5*%
%AMOC8110*
5,1,8,0,0,1.08239X$1,22.5*%
%AMOC80010*
5,1,8,0,0,1.08239X$1,22.5*%
%AMOC8200*
5,1,8,0,0,1.08239X$1,22.5*%
%AMOC80100*
5,1,8,0,0,1.08239X$1,22.5*%
%AMOC81000*
5,1,8,0,0,1.08239X$1,22.5*%
%AMOC800000*
5,1,8,0,0,1.08239X$1,22.5*%
%ADD10C,0*%
%ADD11R,0.051179999999999996X0.05906*%
%ADD12R,0.05315X0.0315*%
%ADD13R,0.08699999999999998X0.024000000000000004*%
%ADD14R,0.07874X0.04331*%
%ADD25C,0*%
%ADD26R,0.051179999999999996X0.05906*%
%ADD27R,0.05315X0.0315*%
%ADD28R,0.08699999999999998X0.024000000000000004*%
%ADD29R,0.07874X0.04331*%
%ADD40C,0*%
%ADD41R,0.051179999999999996X0.05906*%
%ADD42R,0.05315X0.0315*%
%ADD43R,0.08699999999999998X0.024000000000000004*%
%ADD44R,0.07874X0.04331*%
%ADD55C,0*%
%ADD56R,0.051179999999999996X0.05906*%
%ADD57R,0.05315X0.0315*%
%ADD58R,0.08699999999999998X0.024000000000000004*%
%ADD59R,0.07874X0.04331*%
%ADD70C,0*%
%ADD71R,0.051179999999999996X0.05906*%
%ADD72R,0.05315X0.0315*%
%ADD73R,0.08699999999999998X0.024000000000000004*%
%ADD74R,0.07874X0.04331*%
%ADD85C,0*%
%ADD86R,0.051179999999999996X0.05906*%
%ADD87R,0.05315X0.0315*%
%ADD88R,0.08699999999999998X0.024000000000000004*%
%ADD89R,0.07874X0.04331*%
%ADD100C,0*%
%ADD101R,0.051179999999999996X0.05906*%
%ADD102R,0.05315X0.0315*%
%ADD103R,0.08699999999999998X0.024000000000000004*%
%ADD104R,0.07874X0.04331*%
%ADD115C,0*%
%ADD116R,0.051179999999999996X0.05906*%
%ADD117R,0.05315X0.0315*%
%ADD118R,0.08699999999999998X0.024000000000000004*%
%ADD119R,0.07874X0.04331*%
%ADD130C,0*%
%ADD131R,0.051179999999999996X0.05906*%
%ADD132R,0.05315X0.0315*%
%ADD133R,0.08699999999999998X0.024000000000000004*%
%ADD134R,0.07874X0.04331*%
%ADD145C,0*%
%ADD146R,0.051179999999999996X0.05906*%
%ADD147R,0.05315X0.0315*%
%ADD148R,0.08699999999999998X0.024000000000000004*%
%ADD149R,0.07874X0.04331*%
%ADD160C,0*%
%ADD161R,0.051179999999999996X0.05906*%
%ADD162R,0.05315X0.0315*%
%ADD163R,0.08699999999999998X0.024000000000000004*%
%ADD164R,0.07874X0.04331*%
%ADD175C,0*%
%ADD176R,0.051179999999999996X0.05906*%
%ADD177R,0.05315X0.0315*%
%ADD178R,0.08699999999999998X0.024000000000000004*%
%ADD179R,0.07874X0.04331*%
%ADD190C,0*%
%ADD191R,0.051179999999999996X0.05906*%
%ADD192R,0.05315X0.0315*%
%ADD193R,0.08699999999999998X0.024000000000000004*%
%ADD194R,0.07874X0.04331*%
%ADD205C,0*%
%ADD206R,0.051179999999999996X0.05906*%
%ADD207R,0.05315X0.0315*%
%ADD208R,0.08699999999999998X0.024000000000000004*%
%ADD209R,0.07874X0.04331*%
%ADD220C,0*%
%ADD221R,0.051179999999999996X0.05906*%
%ADD222R,0.05315X0.0315*%
%ADD223R,0.08699999999999998X0.024000000000000004*%
%ADD224R,0.07874X0.04331*%
%ADD235C,0*%
%ADD236R,0.051179999999999996X0.05906*%
%ADD237R,0.05315X0.0315*%
%ADD238R,0.08699999999999998X0.024000000000000004*%
%ADD239R,0.07874X0.04331*%
%ADD250C,0*%
%ADD251R,0.051179999999999996X0.05906*%
%ADD252R,0.05315X0.0315*%
%ADD253R,0.08699999999999998X0.024000000000000004*%
%ADD254R,0.07874X0.04331*%
%ADD265C,0*%
%ADD266R,0.051179999999999996X0.05906*%
%ADD267R,0.05315X0.0315*%
%ADD268R,0.08699999999999998X0.024000000000000004*%
%ADD269R,0.07874X0.04331*%
%ADD280C,0*%
%ADD281R,0.051179999999999996X0.05906*%
%ADD282R,0.05315X0.0315*%
%ADD283R,0.08699999999999998X0.024000000000000004*%
%ADD284R,0.07874X0.04331*%
%ADD295C,0*%
%ADD296R,0.051179999999999996X0.05906*%
%ADD297R,0.05315X0.0315*%
%ADD298R,0.08699999999999998X0.024000000000000004*%
%ADD299R,0.07874X0.04331*%
%ADD310C,0*%
%ADD311R,0.051179999999999996X0.05906*%
%ADD312R,0.05315X0.0315*%
%ADD313R,0.08699999999999998X0.024000000000000004*%
%ADD314R,0.07874X0.04331*%
%ADD325C,0*%
%ADD326R,0.051179999999999996X0.05906*%
%ADD327R,0.05315X0.0315*%
%ADD328R,0.08699999999999998X0.024000000000000004*%
%ADD329R,0.07874X0.04331*%
%ADD340C,0*%
%ADD341R,0.051179999999999996X0.05906*%
%ADD342R,0.05315X0.0315*%
%ADD343R,0.08699999999999998X0.024000000000000004*%
%ADD344R,0.07874X0.04331*%
%ADD355C,0*%
%ADD356R,0.051179999999999996X0.05906*%
%ADD357R,0.05315X0.0315*%
%ADD358R,0.08699999999999998X0.024000000000000004*%
%ADD359R,0.07874X0.04331*%
%ADD370C,0*%
%ADD371R,0.051179999999999996X0.05906*%
%ADD372R,0.05315X0.0315*%
%ADD373R,0.08699999999999998X0.024000000000000004*%
%ADD374R,0.07874X0.04331*%
%ADD385C,0*%
%ADD386R,0.051179999999999996X0.05906*%
%ADD387R,0.05315X0.0315*%
%ADD388R,0.08699999999999998X0.024000000000000004*%
%ADD389R,0.07874X0.04331*%
%ADD400C,0*%
%ADD401R,0.051179999999999996X0.05906*%
%ADD402R,0.05315X0.0315*%
%ADD403R,0.08699999999999998X0.024000000000000004*%
%ADD404R,0.07874X0.04331*%
%ADD415C,0*%
%ADD416R,0.051179999999999996X0.05906*%
%ADD417R,0.05315X0.0315*%
%ADD418R,0.08699999999999998X0.024000000000000004*%
%ADD419R,0.07874X0.04331*%
%ADD430C,0*%
%ADD431R,0.051179999999999996X0.05906*%
%ADD432R,0.05315X0.0315*%
%ADD433R,0.08699999999999998X0.024000000000000004*%
%ADD434R,0.07874X0.04331*%
%ADD445C,0*%
%ADD446R,0.051179999999999996X0.05906*%
%ADD447R,0.05315X0.0315*%
%ADD448R,0.08699999999999998X0.024000000000000004*%
%ADD449R,0.07874X0.04331*%
%LPD*%
G75*
D10*
X0417311Y0498925D02*
X0574437Y0498925D01*
X0574627Y0498927D01*
X0574817Y0498934D01*
X0575007Y0498946D01*
X0575197Y0498962D01*
X0575386Y0498982D01*
X0575575Y0499008D01*
X0575763Y0499037D01*
X0575950Y0499071D01*
X0576136Y0499111D01*
X0576320Y0499153D01*
X0576506Y0499202D01*
X0576689Y0499254D01*
X0576870Y0499310D01*
X0577050Y0499371D01*
X0577229Y0499437D01*
X0577406Y0499505D01*
X0577582Y0499580D01*
X0577755Y0499658D01*
X0577927Y0499741D01*
X0578096Y0499827D01*
X0578264Y0499917D01*
X0578429Y0500012D01*
X0578592Y0500110D01*
X0578752Y0500213D01*
X0578910Y0500319D01*
X0579065Y0500429D01*
X0579218Y0500542D01*
X0579368Y0500660D01*
X0579514Y0500781D01*
X0579658Y0500905D01*
X0579799Y0501033D01*
X0579937Y0501164D01*
X0580072Y0501299D01*
X0580203Y0501437D01*
X0580331Y0501578D01*
X0580455Y0501722D01*
X0580576Y0501868D01*
X0580694Y0502018D01*
X0580806Y0502170D01*
X0580916Y0502325D01*
X0581023Y0502484D01*
X0581126Y0502644D01*
X0581224Y0502806D01*
X0581319Y0502972D01*
X0581409Y0503139D01*
X0581495Y0503308D01*
X0581578Y0503481D01*
X0581656Y0503653D01*
X0581730Y0503829D01*
X0581799Y0504007D01*
X0581864Y0504186D01*
X0581926Y0504366D01*
X0581981Y0504547D01*
X0582034Y0504730D01*
X0582082Y0504915D01*
X0582125Y0505100D01*
X0582164Y0505285D01*
X0582199Y0505473D01*
X0582228Y0505661D01*
X0582254Y0505850D01*
X0582274Y0506039D01*
X0582290Y0506229D01*
X0582301Y0506419D01*
X0582309Y0506609D01*
X0582311Y0506799D01*
X0582311Y0538293D01*
X0582309Y0538485D01*
X0582301Y0538675D01*
X0582290Y0538865D01*
X0582274Y0539055D01*
X0582254Y0539244D01*
X0582228Y0539433D01*
X0582199Y0539621D01*
X0582164Y0539808D01*
X0582125Y0539993D01*
X0582082Y0540179D01*
X0582034Y0540364D01*
X0581981Y0540547D01*
X0581926Y0540728D01*
X0581864Y0540908D01*
X0581799Y0541087D01*
X0581730Y0541264D01*
X0581656Y0541440D01*
X0581578Y0541612D01*
X0581495Y0541785D01*
X0581409Y0541954D01*
X0581319Y0542122D01*
X0581224Y0542287D01*
X0581126Y0542450D01*
X0581023Y0542610D01*
X0580916Y0542768D01*
X0580806Y0542923D01*
X0580694Y0543076D01*
X0580576Y0543226D01*
X0580455Y0543370D01*
X0580331Y0543516D01*
X0580203Y0543657D01*
X0580072Y0543795D01*
X0579937Y0543930D01*
X0579799Y0544061D01*
X0579658Y0544189D01*
X0579514Y0544313D01*
X0579368Y0544434D01*
X0579218Y0544552D01*
X0579065Y0544665D01*
X0578910Y0544775D01*
X0578752Y0544881D01*
X0578592Y0544983D01*
X0578429Y0545082D01*
X0578264Y0545177D01*
X0578096Y0545267D01*
X0577927Y0545353D01*
X0577755Y0545436D01*
X0577582Y0545514D01*
X0577406Y0545588D01*
X0577229Y0545657D01*
X0577050Y0545723D01*
X0576870Y0545784D01*
X0576689Y0545840D01*
X0576506Y0545892D01*
X0576320Y0545940D01*
X0576136Y0545982D01*
X0575950Y0546022D01*
X0575763Y0546057D01*
X0575575Y0546086D01*
X0575386Y0546112D01*
X0575197Y0546132D01*
X0575007Y0546148D01*
X0574817Y0546160D01*
X0574627Y0546167D01*
X0574437Y0546169D01*
X0417311Y0546169D01*
X0417171Y0546167D01*
X0417031Y0546161D01*
X0416891Y0546151D01*
X0416751Y0546138D01*
X0416612Y0546120D01*
X0416472Y0546098D01*
X0416336Y0546073D01*
X0416198Y0546044D01*
X0416062Y0546011D01*
X0415927Y0545974D01*
X0415793Y0545933D01*
X0415660Y0545887D01*
X0415528Y0545840D01*
X0415398Y0545788D01*
X0415269Y0545733D01*
X0415142Y0545674D01*
X0415015Y0545610D01*
X0414892Y0545544D01*
X0414771Y0545476D01*
X0414651Y0545403D01*
X0414533Y0545326D01*
X0414418Y0545247D01*
X0414304Y0545164D01*
X0414194Y0545078D01*
X0414085Y0544989D01*
X0413978Y0544897D01*
X0413876Y0544802D01*
X0413774Y0544705D01*
X0413678Y0544603D01*
X0413583Y0544501D01*
X0413490Y0544395D01*
X0413401Y0544286D01*
X0413316Y0544176D01*
X0413232Y0544062D01*
X0413154Y0543947D01*
X0413077Y0543829D01*
X0413004Y0543709D01*
X0412934Y0543588D01*
X0412869Y0543464D01*
X0412805Y0543338D01*
X0412747Y0543210D01*
X0412692Y0543082D01*
X0412640Y0542952D01*
X0412592Y0542820D01*
X0412547Y0542687D01*
X0412506Y0542553D01*
X0412469Y0542418D01*
X0412436Y0542282D01*
X0412406Y0542144D01*
X0412382Y0542006D01*
X0412360Y0541868D01*
X0412342Y0541729D01*
X0412329Y0541589D01*
X0412319Y0541449D01*
X0412313Y0541309D01*
X0412310Y0541167D01*
X0412310Y0503925D01*
X0412313Y0503785D01*
X0412319Y0503645D01*
X0412329Y0503505D01*
X0412342Y0503365D01*
X0412360Y0503226D01*
X0412382Y0503087D01*
X0412406Y0502949D01*
X0412436Y0502812D01*
X0412469Y0502676D01*
X0412506Y0502541D01*
X0412547Y0502407D01*
X0412592Y0502274D01*
X0412640Y0502142D01*
X0412692Y0502012D01*
X0412747Y0501883D01*
X0412805Y0501755D01*
X0412869Y0501630D01*
X0412934Y0501506D01*
X0413004Y0501384D01*
X0413077Y0501265D01*
X0413154Y0501147D01*
X0413232Y0501032D01*
X0413316Y0500918D01*
X0413401Y0500807D01*
X0413490Y0500699D01*
X0413583Y0500593D01*
X0413678Y0500490D01*
X0413774Y0500389D01*
X0413876Y0500291D01*
X0413978Y0500197D01*
X0414085Y0500105D01*
X0414194Y0500016D01*
X0414304Y0499930D01*
X0414418Y0499847D01*
X0414533Y0499768D01*
X0414651Y0499691D01*
X0414771Y0499618D01*
X0414892Y0499549D01*
X0415015Y0499483D01*
X0415142Y0499420D01*
X0415269Y0499361D01*
X0415398Y0499306D01*
X0415528Y0499254D01*
X0415660Y0499206D01*
X0415793Y0499160D01*
X0415927Y0499120D01*
X0416062Y0499083D01*
X0416198Y0499050D01*
X0416336Y0499021D01*
X0416472Y0498996D01*
X0416612Y0498974D01*
X0416751Y0498956D01*
X0416891Y0498942D01*
X0417031Y0498933D01*
X0417171Y0498927D01*
X0417311Y0498925D01*
D11*
X0463571Y0507547D03*
X0471051Y0507547D03*
X0471051Y0517547D03*
X0463571Y0517547D03*
X0506071Y0517547D03*
X0513550Y0517547D03*
X0513550Y0507547D03*
X0506071Y0507547D03*
X0506071Y0527547D03*
X0513550Y0527547D03*
X0513550Y0537547D03*
X0506071Y0537547D03*
D12*
X0524811Y0537547D03*
X0534811Y0537547D03*
X0534811Y0527547D03*
X0524811Y0527547D03*
X0524811Y0517547D03*
X0534811Y0517547D03*
X0534811Y0507547D03*
X0524811Y0507547D03*
D13*
X0488110Y0526547D03*
X0488110Y0531547D03*
X0488110Y0536547D03*
X0488110Y0541547D03*
X0461611Y0541547D03*
X0461611Y0536547D03*
X0461611Y0531547D03*
X0461611Y0526547D03*
D14*
X0445185Y0527354D03*
X0429437Y0527354D03*
X0429437Y0534047D03*
X0445185Y0534047D03*
X0445185Y0540740D03*
X0429437Y0540740D03*
X0429437Y0517640D03*
X0445185Y0517640D03*
X0445185Y0510946D03*
X0429437Y0510946D03*
X0429437Y0504254D03*
X0445185Y0504254D03*
G75*
D25*
X0417311Y0388689D02*
X0574437Y0388689D01*
X0574627Y0388690D01*
X0574817Y0388698D01*
X0575007Y0388710D01*
X0575197Y0388726D01*
X0575386Y0388745D01*
X0575575Y0388772D01*
X0575763Y0388801D01*
X0575950Y0388836D01*
X0576136Y0388875D01*
X0576320Y0388918D01*
X0576506Y0388966D01*
X0576689Y0389018D01*
X0576870Y0389074D01*
X0577050Y0389135D01*
X0577229Y0389201D01*
X0577406Y0389270D01*
X0577582Y0389344D01*
X0577755Y0389422D01*
X0577927Y0389505D01*
X0578096Y0389591D01*
X0578264Y0389681D01*
X0578429Y0389776D01*
X0578592Y0389874D01*
X0578752Y0389977D01*
X0578910Y0390083D01*
X0579065Y0390193D01*
X0579218Y0390306D01*
X0579368Y0390424D01*
X0579514Y0390545D01*
X0579658Y0390669D01*
X0579799Y0390797D01*
X0579937Y0390928D01*
X0580072Y0391063D01*
X0580203Y0391201D01*
X0580331Y0391342D01*
X0580455Y0391486D01*
X0580576Y0391632D01*
X0580694Y0391782D01*
X0580806Y0391935D01*
X0580916Y0392090D01*
X0581023Y0392248D01*
X0581126Y0392407D01*
X0581224Y0392571D01*
X0581319Y0392736D01*
X0581409Y0392903D01*
X0581495Y0393073D01*
X0581578Y0393245D01*
X0581656Y0393418D01*
X0581730Y0393594D01*
X0581799Y0393771D01*
X0581864Y0393950D01*
X0581926Y0394130D01*
X0581981Y0394311D01*
X0582034Y0394493D01*
X0582082Y0394679D01*
X0582125Y0394864D01*
X0582164Y0395050D01*
X0582199Y0395237D01*
X0582228Y0395425D01*
X0582254Y0395613D01*
X0582274Y0395803D01*
X0582290Y0395992D01*
X0582301Y0396182D01*
X0582309Y0396373D01*
X0582311Y0396563D01*
X0582311Y0428059D01*
X0582309Y0428249D01*
X0582301Y0428439D01*
X0582290Y0428629D01*
X0582274Y0428819D01*
X0582254Y0429007D01*
X0582228Y0429197D01*
X0582199Y0429385D01*
X0582164Y0429572D01*
X0582125Y0429758D01*
X0582082Y0429943D01*
X0582034Y0430128D01*
X0581981Y0430311D01*
X0581926Y0430492D01*
X0581864Y0430672D01*
X0581799Y0430851D01*
X0581730Y0431027D01*
X0581656Y0431203D01*
X0581578Y0431377D01*
X0581495Y0431548D01*
X0581409Y0431717D01*
X0581319Y0431886D01*
X0581224Y0432050D01*
X0581126Y0432214D01*
X0581023Y0432374D01*
X0580916Y0432531D01*
X0580806Y0432687D01*
X0580694Y0432840D01*
X0580576Y0432990D01*
X0580455Y0433136D01*
X0580331Y0433280D01*
X0580203Y0433420D01*
X0580072Y0433559D01*
X0579937Y0433694D01*
X0579799Y0433825D01*
X0579658Y0433953D01*
X0579514Y0434077D01*
X0579368Y0434198D01*
X0579218Y0434316D01*
X0579065Y0434429D01*
X0578910Y0434539D01*
X0578752Y0434645D01*
X0578592Y0434748D01*
X0578429Y0434846D01*
X0578264Y0434941D01*
X0578096Y0435031D01*
X0577927Y0435117D01*
X0577755Y0435200D01*
X0577582Y0435278D01*
X0577406Y0435351D01*
X0577229Y0435421D01*
X0577050Y0435487D01*
X0576870Y0435548D01*
X0576689Y0435604D01*
X0576506Y0435656D01*
X0576320Y0435703D01*
X0576136Y0435747D01*
X0575950Y0435785D01*
X0575763Y0435820D01*
X0575575Y0435850D01*
X0575386Y0435876D01*
X0575197Y0435896D01*
X0575007Y0435912D01*
X0574817Y0435924D01*
X0574627Y0435931D01*
X0574437Y0435933D01*
X0417311Y0435933D01*
X0417171Y0435931D01*
X0417031Y0435925D01*
X0416891Y0435914D01*
X0416751Y0435902D01*
X0416612Y0435884D01*
X0416472Y0435862D01*
X0416336Y0435837D01*
X0416198Y0435808D01*
X0416062Y0435775D01*
X0415927Y0435738D01*
X0415793Y0435696D01*
X0415660Y0435652D01*
X0415528Y0435604D01*
X0415398Y0435552D01*
X0415269Y0435497D01*
X0415142Y0435438D01*
X0415015Y0435375D01*
X0414892Y0435309D01*
X0414771Y0435240D01*
X0414651Y0435167D01*
X0414533Y0435090D01*
X0414418Y0435011D01*
X0414304Y0434928D01*
X0414194Y0434842D01*
X0414085Y0434753D01*
X0413978Y0434661D01*
X0413876Y0434565D01*
X0413774Y0434469D01*
X0413678Y0434368D01*
X0413583Y0434265D01*
X0413490Y0434159D01*
X0413401Y0434049D01*
X0413316Y0433940D01*
X0413232Y0433826D01*
X0413154Y0433711D01*
X0413077Y0433593D01*
X0413004Y0433473D01*
X0412934Y0433352D01*
X0412869Y0433228D01*
X0412805Y0433101D01*
X0412747Y0432975D01*
X0412692Y0432846D01*
X0412640Y0432716D01*
X0412592Y0432584D01*
X0412547Y0432451D01*
X0412506Y0432317D01*
X0412469Y0432182D01*
X0412436Y0432046D01*
X0412406Y0431907D01*
X0412382Y0431771D01*
X0412360Y0431632D01*
X0412342Y0431493D01*
X0412329Y0431353D01*
X0412319Y0431213D01*
X0412313Y0431073D01*
X0412310Y0430933D01*
X0412310Y0393689D01*
X0412313Y0393549D01*
X0412319Y0393409D01*
X0412329Y0393269D01*
X0412342Y0393129D01*
X0412360Y0392990D01*
X0412382Y0392851D01*
X0412406Y0392714D01*
X0412436Y0392576D01*
X0412469Y0392440D01*
X0412506Y0392305D01*
X0412547Y0392170D01*
X0412592Y0392038D01*
X0412640Y0391906D01*
X0412692Y0391776D01*
X0412747Y0391647D01*
X0412805Y0391520D01*
X0412869Y0391394D01*
X0412934Y0391269D01*
X0413004Y0391149D01*
X0413077Y0391028D01*
X0413154Y0390911D01*
X0413232Y0390795D01*
X0413316Y0390682D01*
X0413401Y0390572D01*
X0413490Y0390463D01*
X0413583Y0390357D01*
X0413678Y0390254D01*
X0413774Y0390153D01*
X0413876Y0390056D01*
X0413978Y0389961D01*
X0414085Y0389869D01*
X0414194Y0389780D01*
X0414304Y0389693D01*
X0414418Y0389611D01*
X0414533Y0389532D01*
X0414651Y0389455D01*
X0414771Y0389382D01*
X0414892Y0389313D01*
X0415015Y0389247D01*
X0415142Y0389184D01*
X0415269Y0389124D01*
X0415398Y0389070D01*
X0415528Y0389018D01*
X0415660Y0388970D01*
X0415793Y0388924D01*
X0415927Y0388884D01*
X0416062Y0388847D01*
X0416198Y0388814D01*
X0416336Y0388785D01*
X0416472Y0388760D01*
X0416612Y0388738D01*
X0416751Y0388720D01*
X0416891Y0388707D01*
X0417031Y0388697D01*
X0417171Y0388690D01*
X0417311Y0388689D01*
D26*
X0463571Y0397311D03*
X0471051Y0397311D03*
X0471051Y0407311D03*
X0463571Y0407311D03*
X0506071Y0407311D03*
X0513550Y0407311D03*
X0513550Y0397311D03*
X0506071Y0397311D03*
X0506071Y0417311D03*
X0513550Y0417311D03*
X0513550Y0427311D03*
X0506071Y0427311D03*
D27*
X0524811Y0427311D03*
X0534811Y0427311D03*
X0534811Y0417311D03*
X0524811Y0417311D03*
X0524811Y0407311D03*
X0534811Y0407311D03*
X0534811Y0397311D03*
X0524811Y0397311D03*
D28*
X0488110Y0416310D03*
X0488110Y0421311D03*
X0488110Y0426311D03*
X0488110Y0431311D03*
X0461611Y0431311D03*
X0461611Y0426311D03*
X0461611Y0421311D03*
X0461611Y0416310D03*
D29*
X0445185Y0417117D03*
X0429437Y0417117D03*
X0429437Y0423811D03*
X0445185Y0423811D03*
X0445185Y0430504D03*
X0429437Y0430504D03*
X0429437Y0407404D03*
X0445185Y0407404D03*
X0445185Y0400711D03*
X0429437Y0400711D03*
X0429437Y0394018D03*
X0445185Y0394018D03*
G75*
D40*
X0055106Y0333571D02*
X0212232Y0333571D01*
X0212422Y0333572D01*
X0212611Y0333580D01*
X0212803Y0333592D01*
X0212993Y0333608D01*
X0213181Y0333627D01*
X0213371Y0333654D01*
X0213559Y0333683D01*
X0213746Y0333718D01*
X0213932Y0333757D01*
X0214116Y0333800D01*
X0214302Y0333848D01*
X0214485Y0333900D01*
X0214665Y0333956D01*
X0214846Y0334017D01*
X0215025Y0334083D01*
X0215201Y0334152D01*
X0215377Y0334225D01*
X0215551Y0334304D01*
X0215723Y0334387D01*
X0215892Y0334473D01*
X0216060Y0334563D01*
X0216224Y0334658D01*
X0216387Y0334756D01*
X0216548Y0334859D01*
X0216706Y0334965D01*
X0216861Y0335075D01*
X0217014Y0335188D01*
X0217164Y0335305D01*
X0217309Y0335427D01*
X0217454Y0335551D01*
X0217594Y0335679D01*
X0217733Y0335810D01*
X0217868Y0335945D01*
X0217999Y0336083D01*
X0218127Y0336224D01*
X0218251Y0336368D01*
X0218372Y0336514D01*
X0218489Y0336664D01*
X0218603Y0336817D01*
X0218712Y0336972D01*
X0218819Y0337130D01*
X0218922Y0337289D01*
X0219020Y0337453D01*
X0219115Y0337618D01*
X0219205Y0337785D01*
X0219291Y0337955D01*
X0219374Y0338127D01*
X0219451Y0338299D01*
X0219526Y0338476D01*
X0219593Y0338653D01*
X0219661Y0338832D01*
X0219722Y0339012D01*
X0219776Y0339193D01*
X0219830Y0339375D01*
X0219878Y0339561D01*
X0219921Y0339746D01*
X0219960Y0339932D01*
X0219993Y0340119D01*
X0220024Y0340307D01*
X0220050Y0340495D01*
X0220070Y0340685D01*
X0220086Y0340874D01*
X0220098Y0341065D01*
X0220105Y0341255D01*
X0220107Y0341445D01*
X0220107Y0372941D01*
X0220105Y0373131D01*
X0220098Y0373321D01*
X0220086Y0373511D01*
X0220070Y0373701D01*
X0220050Y0373890D01*
X0220024Y0374079D01*
X0219993Y0374267D01*
X0219960Y0374454D01*
X0219921Y0374640D01*
X0219878Y0374825D01*
X0219830Y0375010D01*
X0219776Y0375193D01*
X0219722Y0375374D01*
X0219661Y0375554D01*
X0219593Y0375733D01*
X0219526Y0375910D01*
X0219451Y0376086D01*
X0219374Y0376259D01*
X0219291Y0376431D01*
X0219205Y0376600D01*
X0219115Y0376767D01*
X0219020Y0376933D01*
X0218922Y0377096D01*
X0218819Y0377256D01*
X0218712Y0377413D01*
X0218603Y0377569D01*
X0218489Y0377722D01*
X0218372Y0377872D01*
X0218251Y0378018D01*
X0218127Y0378162D01*
X0217999Y0378303D01*
X0217868Y0378441D01*
X0217733Y0378576D01*
X0217594Y0378707D01*
X0217454Y0378835D01*
X0217309Y0378959D01*
X0217164Y0379080D01*
X0217014Y0379198D01*
X0216861Y0379311D01*
X0216706Y0379421D01*
X0216548Y0379527D01*
X0216387Y0379630D01*
X0216224Y0379728D01*
X0216060Y0379823D01*
X0215892Y0379913D01*
X0215723Y0379999D01*
X0215551Y0380082D01*
X0215377Y0380160D01*
X0215201Y0380234D01*
X0215025Y0380303D01*
X0214846Y0380369D01*
X0214665Y0380430D01*
X0214485Y0380486D01*
X0214302Y0380538D01*
X0214116Y0380586D01*
X0213932Y0380629D01*
X0213746Y0380668D01*
X0213559Y0380703D01*
X0213371Y0380732D01*
X0213181Y0380758D01*
X0212993Y0380778D01*
X0212803Y0380794D01*
X0212611Y0380806D01*
X0212422Y0380813D01*
X0212232Y0380815D01*
X0055106Y0380815D01*
X0054967Y0380813D01*
X0054827Y0380807D01*
X0054687Y0380797D01*
X0054547Y0380783D01*
X0054408Y0380766D01*
X0054269Y0380744D01*
X0054132Y0380719D01*
X0053994Y0380690D01*
X0053857Y0380657D01*
X0053723Y0380619D01*
X0053589Y0380579D01*
X0053456Y0380534D01*
X0053324Y0380486D01*
X0053194Y0380434D01*
X0053064Y0380379D01*
X0052937Y0380320D01*
X0052812Y0380257D01*
X0052688Y0380191D01*
X0052567Y0380122D01*
X0052447Y0380049D01*
X0052329Y0379972D01*
X0052214Y0379893D01*
X0052100Y0379809D01*
X0051990Y0379724D01*
X0051881Y0379634D01*
X0051775Y0379543D01*
X0051671Y0379448D01*
X0051571Y0379351D01*
X0051474Y0379250D01*
X0051379Y0379147D01*
X0051287Y0379041D01*
X0051198Y0378932D01*
X0051112Y0378822D01*
X0051029Y0378708D01*
X0050949Y0378593D01*
X0050873Y0378474D01*
X0050800Y0378354D01*
X0050731Y0378234D01*
X0050665Y0378110D01*
X0050602Y0377984D01*
X0050543Y0377857D01*
X0050488Y0377728D01*
X0050436Y0377598D01*
X0050388Y0377466D01*
X0050343Y0377333D01*
X0050302Y0377199D01*
X0050265Y0377064D01*
X0050232Y0376928D01*
X0050203Y0376790D01*
X0050178Y0376653D01*
X0050156Y0376514D01*
X0050138Y0376375D01*
X0050125Y0376235D01*
X0050115Y0376095D01*
X0050109Y0375954D01*
X0050107Y0375815D01*
X0050107Y0338571D01*
X0050109Y0338431D01*
X0050115Y0338291D01*
X0050125Y0338151D01*
X0050138Y0338011D01*
X0050156Y0337872D01*
X0050178Y0337733D01*
X0050203Y0337596D01*
X0050232Y0337458D01*
X0050265Y0337322D01*
X0050302Y0337187D01*
X0050343Y0337052D01*
X0050388Y0336920D01*
X0050436Y0336788D01*
X0050488Y0336658D01*
X0050543Y0336529D01*
X0050602Y0336402D01*
X0050665Y0336276D01*
X0050731Y0336151D01*
X0050800Y0336031D01*
X0050873Y0335910D01*
X0050949Y0335793D01*
X0051029Y0335677D01*
X0051112Y0335564D01*
X0051198Y0335454D01*
X0051287Y0335345D01*
X0051379Y0335239D01*
X0051474Y0335136D01*
X0051571Y0335035D01*
X0051671Y0334938D01*
X0051775Y0334843D01*
X0051881Y0334751D01*
X0051990Y0334662D01*
X0052100Y0334575D01*
X0052214Y0334493D01*
X0052329Y0334414D01*
X0052447Y0334337D01*
X0052567Y0334264D01*
X0052688Y0334195D01*
X0052812Y0334129D01*
X0052937Y0334066D01*
X0053064Y0334006D01*
X0053194Y0333952D01*
X0053324Y0333900D01*
X0053456Y0333852D01*
X0053589Y0333806D01*
X0053723Y0333766D01*
X0053857Y0333729D01*
X0053994Y0333696D01*
X0054132Y0333667D01*
X0054269Y0333642D01*
X0054408Y0333620D01*
X0054547Y0333602D01*
X0054687Y0333589D01*
X0054827Y0333579D01*
X0054967Y0333572D01*
X0055106Y0333571D01*
D41*
X0101367Y0342193D03*
X0108847Y0342193D03*
X0108847Y0352193D03*
X0101367Y0352193D03*
X0143867Y0352193D03*
X0151347Y0352193D03*
X0151347Y0342193D03*
X0143867Y0342193D03*
X0143867Y0362193D03*
X0151347Y0362193D03*
X0151347Y0372193D03*
X0143867Y0372193D03*
D42*
X0162607Y0372193D03*
X0172607Y0372193D03*
X0172607Y0362193D03*
X0162607Y0362193D03*
X0162607Y0352193D03*
X0172607Y0352193D03*
X0172607Y0342193D03*
X0162607Y0342193D03*
D43*
X0125906Y0361193D03*
X0125906Y0366193D03*
X0125906Y0371193D03*
X0125906Y0376193D03*
X0099407Y0376193D03*
X0099407Y0371193D03*
X0099407Y0366193D03*
X0099407Y0361193D03*
D44*
X0082981Y0362000D03*
X0067232Y0362000D03*
X0067232Y0368692D03*
X0082981Y0368692D03*
X0082981Y0375385D03*
X0067232Y0375385D03*
X0067232Y0352286D03*
X0082981Y0352286D03*
X0082981Y0345593D03*
X0067232Y0345593D03*
X0067232Y0338900D03*
X0082981Y0338900D03*
G75*
D55*
X0055106Y0443807D02*
X0212232Y0443807D01*
X0212422Y0443809D01*
X0212611Y0443816D01*
X0212803Y0443828D01*
X0212993Y0443844D01*
X0213181Y0443864D01*
X0213371Y0443890D01*
X0213559Y0443919D01*
X0213746Y0443954D01*
X0213932Y0443993D01*
X0214116Y0444036D01*
X0214302Y0444083D01*
X0214485Y0444136D01*
X0214665Y0444191D01*
X0214846Y0444252D01*
X0215025Y0444319D01*
X0215201Y0444388D01*
X0215377Y0444461D01*
X0215551Y0444540D01*
X0215723Y0444623D01*
X0215892Y0444709D01*
X0216060Y0444799D01*
X0216224Y0444894D01*
X0216387Y0444991D01*
X0216548Y0445095D01*
X0216706Y0445200D01*
X0216861Y0445310D01*
X0217014Y0445424D01*
X0217164Y0445542D01*
X0217309Y0445662D01*
X0217454Y0445787D01*
X0217594Y0445915D01*
X0217733Y0446046D01*
X0217868Y0446181D01*
X0217999Y0446319D01*
X0218127Y0446460D01*
X0218251Y0446603D01*
X0218372Y0446750D01*
X0218489Y0446900D01*
X0218603Y0447053D01*
X0218712Y0447208D01*
X0218819Y0447366D01*
X0218922Y0447525D01*
X0219020Y0447689D01*
X0219115Y0447854D01*
X0219205Y0448022D01*
X0219291Y0448191D01*
X0219374Y0448363D01*
X0219451Y0448536D01*
X0219526Y0448712D01*
X0219593Y0448888D01*
X0219661Y0449068D01*
X0219722Y0449247D01*
X0219776Y0449429D01*
X0219830Y0449612D01*
X0219878Y0449796D01*
X0219921Y0449982D01*
X0219960Y0450168D01*
X0219993Y0450355D01*
X0220024Y0450542D01*
X0220050Y0450732D01*
X0220070Y0450921D01*
X0220086Y0451111D01*
X0220098Y0451301D01*
X0220105Y0451491D01*
X0220107Y0451681D01*
X0220107Y0483176D01*
X0220105Y0483366D01*
X0220098Y0483556D01*
X0220086Y0483747D01*
X0220070Y0483937D01*
X0220050Y0484126D01*
X0220024Y0484314D01*
X0219993Y0484503D01*
X0219960Y0484690D01*
X0219921Y0484876D01*
X0219878Y0485060D01*
X0219830Y0485246D01*
X0219776Y0485429D01*
X0219722Y0485609D01*
X0219661Y0485790D01*
X0219593Y0485968D01*
X0219526Y0486146D01*
X0219451Y0486322D01*
X0219374Y0486495D01*
X0219291Y0486667D01*
X0219205Y0486836D01*
X0219115Y0487004D01*
X0219020Y0487169D01*
X0218922Y0487331D01*
X0218819Y0487492D01*
X0218712Y0487650D01*
X0218603Y0487805D01*
X0218489Y0487958D01*
X0218372Y0488108D01*
X0218251Y0488253D01*
X0218127Y0488398D01*
X0217999Y0488539D01*
X0217868Y0488677D01*
X0217733Y0488812D01*
X0217594Y0488943D01*
X0217454Y0489071D01*
X0217309Y0489194D01*
X0217164Y0489316D01*
X0217014Y0489433D01*
X0216861Y0489547D01*
X0216706Y0489656D01*
X0216548Y0489763D01*
X0216387Y0489865D01*
X0216224Y0489964D01*
X0216060Y0490059D01*
X0215892Y0490149D01*
X0215723Y0490235D01*
X0215551Y0490318D01*
X0215377Y0490395D01*
X0215201Y0490470D01*
X0215025Y0490538D01*
X0214846Y0490604D01*
X0214665Y0490665D01*
X0214485Y0490721D01*
X0214302Y0490774D01*
X0214116Y0490822D01*
X0213932Y0490865D01*
X0213746Y0490904D01*
X0213559Y0490939D01*
X0213371Y0490968D01*
X0213181Y0490994D01*
X0212993Y0491014D01*
X0212803Y0491030D01*
X0212611Y0491042D01*
X0212422Y0491049D01*
X0212232Y0491051D01*
X0055106Y0491051D01*
X0054967Y0491049D01*
X0054827Y0491043D01*
X0054687Y0491033D01*
X0054547Y0491019D01*
X0054408Y0491002D01*
X0054269Y0490980D01*
X0054132Y0490955D01*
X0053994Y0490926D01*
X0053857Y0490893D01*
X0053723Y0490855D01*
X0053589Y0490815D01*
X0053456Y0490770D01*
X0053324Y0490721D01*
X0053194Y0490670D01*
X0053064Y0490615D01*
X0052937Y0490556D01*
X0052812Y0490493D01*
X0052688Y0490427D01*
X0052567Y0490358D01*
X0052447Y0490285D01*
X0052329Y0490208D01*
X0052214Y0490129D01*
X0052100Y0490046D01*
X0051990Y0489960D01*
X0051881Y0489871D01*
X0051775Y0489778D01*
X0051671Y0489684D01*
X0051571Y0489587D01*
X0051474Y0489486D01*
X0051379Y0489383D01*
X0051287Y0489276D01*
X0051198Y0489168D01*
X0051112Y0489058D01*
X0051029Y0488943D01*
X0050949Y0488828D01*
X0050873Y0488711D01*
X0050800Y0488591D01*
X0050731Y0488469D01*
X0050665Y0488346D01*
X0050602Y0488220D01*
X0050543Y0488093D01*
X0050488Y0487964D01*
X0050436Y0487833D01*
X0050388Y0487702D01*
X0050343Y0487568D01*
X0050302Y0487435D01*
X0050265Y0487300D01*
X0050232Y0487164D01*
X0050203Y0487026D01*
X0050178Y0486889D01*
X0050156Y0486750D01*
X0050138Y0486611D01*
X0050125Y0486470D01*
X0050115Y0486331D01*
X0050109Y0486191D01*
X0050107Y0486050D01*
X0050107Y0448806D01*
X0050109Y0448667D01*
X0050115Y0448527D01*
X0050125Y0448386D01*
X0050138Y0448247D01*
X0050156Y0448108D01*
X0050178Y0447969D01*
X0050203Y0447832D01*
X0050232Y0447694D01*
X0050265Y0447558D01*
X0050302Y0447423D01*
X0050343Y0447288D01*
X0050388Y0447156D01*
X0050436Y0447024D01*
X0050488Y0446894D01*
X0050543Y0446765D01*
X0050602Y0446638D01*
X0050665Y0446512D01*
X0050731Y0446387D01*
X0050800Y0446267D01*
X0050873Y0446147D01*
X0050949Y0446028D01*
X0051029Y0445913D01*
X0051112Y0445800D01*
X0051198Y0445690D01*
X0051287Y0445580D01*
X0051379Y0445475D01*
X0051474Y0445371D01*
X0051571Y0445271D01*
X0051671Y0445174D01*
X0051775Y0445078D01*
X0051881Y0444987D01*
X0051990Y0444898D01*
X0052100Y0444812D01*
X0052214Y0444729D01*
X0052329Y0444650D01*
X0052447Y0444573D01*
X0052567Y0444500D01*
X0052688Y0444431D01*
X0052812Y0444365D01*
X0052937Y0444302D01*
X0053064Y0444243D01*
X0053194Y0444188D01*
X0053324Y0444136D01*
X0053456Y0444088D01*
X0053589Y0444043D01*
X0053723Y0444001D01*
X0053857Y0443965D01*
X0053994Y0443932D01*
X0054132Y0443903D01*
X0054269Y0443878D01*
X0054408Y0443856D01*
X0054547Y0443838D01*
X0054687Y0443825D01*
X0054827Y0443815D01*
X0054967Y0443809D01*
X0055106Y0443807D01*
D56*
X0101367Y0452428D03*
X0108847Y0452428D03*
X0108847Y0462429D03*
X0101367Y0462429D03*
X0143867Y0462429D03*
X0151347Y0462429D03*
X0151347Y0452428D03*
X0143867Y0452428D03*
X0143867Y0472429D03*
X0151347Y0472429D03*
X0151347Y0482429D03*
X0143867Y0482429D03*
D57*
X0162607Y0482429D03*
X0172607Y0482429D03*
X0172607Y0472429D03*
X0162607Y0472429D03*
X0162607Y0462429D03*
X0172607Y0462429D03*
X0172607Y0452428D03*
X0162607Y0452428D03*
D58*
X0125906Y0471429D03*
X0125906Y0476429D03*
X0125906Y0481429D03*
X0125906Y0486428D03*
X0099407Y0486428D03*
X0099407Y0481429D03*
X0099407Y0476429D03*
X0099407Y0471429D03*
D59*
X0082981Y0472236D03*
X0067232Y0472236D03*
X0067232Y0478929D03*
X0082981Y0478929D03*
X0082981Y0485622D03*
X0067232Y0485622D03*
X0067232Y0462521D03*
X0082981Y0462521D03*
X0082981Y0455829D03*
X0067232Y0455829D03*
X0067232Y0449136D03*
X0082981Y0449136D03*
G75*
D70*
X0055106Y0223335D02*
X0212232Y0223335D01*
X0212422Y0223337D01*
X0212611Y0223344D01*
X0212803Y0223356D01*
X0212993Y0223372D01*
X0213181Y0223392D01*
X0213371Y0223417D01*
X0213559Y0223447D01*
X0213746Y0223482D01*
X0213932Y0223521D01*
X0214116Y0223564D01*
X0214302Y0223612D01*
X0214485Y0223664D01*
X0214665Y0223720D01*
X0214846Y0223781D01*
X0215025Y0223847D01*
X0215201Y0223916D01*
X0215377Y0223990D01*
X0215551Y0224067D01*
X0215723Y0224151D01*
X0215892Y0224237D01*
X0216060Y0224327D01*
X0216224Y0224422D01*
X0216387Y0224520D01*
X0216548Y0224623D01*
X0216706Y0224729D01*
X0216861Y0224839D01*
X0217014Y0224952D01*
X0217164Y0225070D01*
X0217309Y0225191D01*
X0217454Y0225315D01*
X0217594Y0225443D01*
X0217733Y0225574D01*
X0217868Y0225708D01*
X0217999Y0225847D01*
X0218127Y0225988D01*
X0218251Y0226132D01*
X0218372Y0226277D01*
X0218489Y0226426D01*
X0218603Y0226581D01*
X0218712Y0226736D01*
X0218819Y0226894D01*
X0218922Y0227054D01*
X0219020Y0227217D01*
X0219115Y0227382D01*
X0219205Y0227550D01*
X0219291Y0227719D01*
X0219374Y0227891D01*
X0219451Y0228064D01*
X0219526Y0228240D01*
X0219593Y0228417D01*
X0219661Y0228596D01*
X0219722Y0228776D01*
X0219776Y0228957D01*
X0219830Y0229140D01*
X0219878Y0229325D01*
X0219921Y0229510D01*
X0219960Y0229696D01*
X0219993Y0229883D01*
X0220024Y0230071D01*
X0220050Y0230260D01*
X0220070Y0230449D01*
X0220086Y0230639D01*
X0220098Y0230829D01*
X0220105Y0231019D01*
X0220107Y0231209D01*
X0220107Y0262705D01*
X0220105Y0262895D01*
X0220098Y0263085D01*
X0220086Y0263275D01*
X0220070Y0263465D01*
X0220050Y0263654D01*
X0220024Y0263843D01*
X0219993Y0264031D01*
X0219960Y0264218D01*
X0219921Y0264404D01*
X0219878Y0264589D01*
X0219830Y0264774D01*
X0219776Y0264957D01*
X0219722Y0265138D01*
X0219661Y0265318D01*
X0219593Y0265497D01*
X0219526Y0265674D01*
X0219451Y0265850D01*
X0219374Y0266023D01*
X0219291Y0266195D01*
X0219205Y0266364D01*
X0219115Y0266531D01*
X0219020Y0266697D01*
X0218922Y0266860D01*
X0218819Y0267020D01*
X0218712Y0267178D01*
X0218603Y0267333D01*
X0218489Y0267486D01*
X0218372Y0267636D01*
X0218251Y0267782D01*
X0218127Y0267926D01*
X0217999Y0268067D01*
X0217868Y0268205D01*
X0217733Y0268340D01*
X0217594Y0268471D01*
X0217454Y0268599D01*
X0217309Y0268723D01*
X0217164Y0268844D01*
X0217014Y0268962D01*
X0216861Y0269075D01*
X0216706Y0269185D01*
X0216548Y0269291D01*
X0216387Y0269394D01*
X0216224Y0269492D01*
X0216060Y0269587D01*
X0215892Y0269677D01*
X0215723Y0269763D01*
X0215551Y0269846D01*
X0215377Y0269924D01*
X0215201Y0269998D01*
X0215025Y0270067D01*
X0214846Y0270133D01*
X0214665Y0270193D01*
X0214485Y0270250D01*
X0214302Y0270302D01*
X0214116Y0270350D01*
X0213932Y0270393D01*
X0213746Y0270432D01*
X0213559Y0270467D01*
X0213371Y0270496D01*
X0213181Y0270522D01*
X0212993Y0270542D01*
X0212803Y0270558D01*
X0212611Y0270570D01*
X0212422Y0270577D01*
X0212232Y0270579D01*
X0055106Y0270579D01*
X0054967Y0270577D01*
X0054827Y0270571D01*
X0054687Y0270561D01*
X0054547Y0270547D01*
X0054408Y0270530D01*
X0054269Y0270507D01*
X0054132Y0270483D01*
X0053994Y0270454D01*
X0053857Y0270421D01*
X0053723Y0270384D01*
X0053589Y0270343D01*
X0053456Y0270298D01*
X0053324Y0270250D01*
X0053194Y0270198D01*
X0053064Y0270143D01*
X0052937Y0270084D01*
X0052812Y0270021D01*
X0052688Y0269955D01*
X0052567Y0269886D01*
X0052447Y0269813D01*
X0052329Y0269736D01*
X0052214Y0269657D01*
X0052100Y0269574D01*
X0051990Y0269488D01*
X0051881Y0269399D01*
X0051775Y0269307D01*
X0051671Y0269212D01*
X0051571Y0269115D01*
X0051474Y0269014D01*
X0051379Y0268911D01*
X0051287Y0268805D01*
X0051198Y0268696D01*
X0051112Y0268586D01*
X0051029Y0268472D01*
X0050949Y0268357D01*
X0050873Y0268239D01*
X0050800Y0268119D01*
X0050731Y0267998D01*
X0050665Y0267873D01*
X0050602Y0267748D01*
X0050543Y0267621D01*
X0050488Y0267492D01*
X0050436Y0267362D01*
X0050388Y0267230D01*
X0050343Y0267097D01*
X0050302Y0266963D01*
X0050265Y0266828D01*
X0050232Y0266692D01*
X0050203Y0266553D01*
X0050178Y0266417D01*
X0050156Y0266278D01*
X0050138Y0266139D01*
X0050125Y0265999D01*
X0050115Y0265859D01*
X0050109Y0265719D01*
X0050107Y0265579D01*
X0050107Y0228335D01*
X0050109Y0228195D01*
X0050115Y0228055D01*
X0050125Y0227915D01*
X0050138Y0227775D01*
X0050156Y0227636D01*
X0050178Y0227497D01*
X0050203Y0227360D01*
X0050232Y0227222D01*
X0050265Y0227086D01*
X0050302Y0226951D01*
X0050343Y0226817D01*
X0050388Y0226684D01*
X0050436Y0226552D01*
X0050488Y0226422D01*
X0050543Y0226293D01*
X0050602Y0226166D01*
X0050665Y0226040D01*
X0050731Y0225916D01*
X0050800Y0225795D01*
X0050873Y0225674D01*
X0050949Y0225557D01*
X0051029Y0225442D01*
X0051112Y0225328D01*
X0051198Y0225218D01*
X0051287Y0225109D01*
X0051379Y0225003D01*
X0051474Y0224900D01*
X0051571Y0224799D01*
X0051671Y0224702D01*
X0051775Y0224607D01*
X0051881Y0224515D01*
X0051990Y0224426D01*
X0052100Y0224339D01*
X0052214Y0224257D01*
X0052329Y0224178D01*
X0052447Y0224101D01*
X0052567Y0224027D01*
X0052688Y0223959D01*
X0052812Y0223893D01*
X0052937Y0223830D01*
X0053064Y0223771D01*
X0053194Y0223715D01*
X0053324Y0223664D01*
X0053456Y0223616D01*
X0053589Y0223571D01*
X0053723Y0223530D01*
X0053857Y0223493D01*
X0053994Y0223460D01*
X0054132Y0223430D01*
X0054269Y0223406D01*
X0054408Y0223383D01*
X0054547Y0223366D01*
X0054687Y0223353D01*
X0054827Y0223342D01*
X0054967Y0223337D01*
X0055106Y0223335D01*
D71*
X0101367Y0231957D03*
X0108847Y0231957D03*
X0108847Y0241957D03*
X0101367Y0241957D03*
X0143867Y0241957D03*
X0151347Y0241957D03*
X0151347Y0231957D03*
X0143867Y0231957D03*
X0143867Y0251957D03*
X0151347Y0251957D03*
X0151347Y0261957D03*
X0143867Y0261957D03*
D72*
X0162607Y0261957D03*
X0172607Y0261957D03*
X0172607Y0251957D03*
X0162607Y0251957D03*
X0162607Y0241957D03*
X0172607Y0241957D03*
X0172607Y0231957D03*
X0162607Y0231957D03*
D73*
X0125906Y0250957D03*
X0125906Y0255957D03*
X0125906Y0260957D03*
X0125906Y0265957D03*
X0099407Y0265957D03*
X0099407Y0260957D03*
X0099407Y0255957D03*
X0099407Y0250957D03*
D74*
X0082981Y0251764D03*
X0067232Y0251764D03*
X0067232Y0258457D03*
X0082981Y0258457D03*
X0082981Y0265150D03*
X0067232Y0265150D03*
X0067232Y0242050D03*
X0082981Y0242050D03*
X0082981Y0235357D03*
X0067232Y0235357D03*
X0067232Y0228663D03*
X0082981Y0228663D03*
G75*
D85*
X0055106Y0498925D02*
X0212232Y0498925D01*
X0212422Y0498927D01*
X0212611Y0498934D01*
X0212803Y0498946D01*
X0212993Y0498962D01*
X0213181Y0498982D01*
X0213371Y0499008D01*
X0213559Y0499037D01*
X0213746Y0499071D01*
X0213932Y0499111D01*
X0214116Y0499153D01*
X0214302Y0499202D01*
X0214485Y0499254D01*
X0214665Y0499310D01*
X0214846Y0499371D01*
X0215025Y0499437D01*
X0215201Y0499505D01*
X0215377Y0499580D01*
X0215551Y0499658D01*
X0215723Y0499741D01*
X0215892Y0499827D01*
X0216060Y0499917D01*
X0216224Y0500012D01*
X0216387Y0500110D01*
X0216548Y0500213D01*
X0216706Y0500319D01*
X0216861Y0500429D01*
X0217014Y0500542D01*
X0217164Y0500660D01*
X0217309Y0500781D01*
X0217454Y0500905D01*
X0217594Y0501033D01*
X0217733Y0501164D01*
X0217868Y0501299D01*
X0217999Y0501437D01*
X0218127Y0501578D01*
X0218251Y0501722D01*
X0218372Y0501868D01*
X0218489Y0502018D01*
X0218603Y0502170D01*
X0218712Y0502325D01*
X0218819Y0502484D01*
X0218922Y0502644D01*
X0219020Y0502806D01*
X0219115Y0502972D01*
X0219205Y0503139D01*
X0219291Y0503308D01*
X0219374Y0503481D01*
X0219451Y0503653D01*
X0219526Y0503829D01*
X0219593Y0504007D01*
X0219661Y0504186D01*
X0219722Y0504366D01*
X0219776Y0504547D01*
X0219830Y0504730D01*
X0219878Y0504915D01*
X0219921Y0505100D01*
X0219960Y0505285D01*
X0219993Y0505473D01*
X0220024Y0505661D01*
X0220050Y0505850D01*
X0220070Y0506039D01*
X0220086Y0506229D01*
X0220098Y0506419D01*
X0220105Y0506609D01*
X0220107Y0506799D01*
X0220107Y0538293D01*
X0220105Y0538485D01*
X0220098Y0538675D01*
X0220086Y0538865D01*
X0220070Y0539055D01*
X0220050Y0539244D01*
X0220024Y0539433D01*
X0219993Y0539621D01*
X0219960Y0539808D01*
X0219921Y0539993D01*
X0219878Y0540179D01*
X0219830Y0540364D01*
X0219776Y0540547D01*
X0219722Y0540728D01*
X0219661Y0540908D01*
X0219593Y0541087D01*
X0219526Y0541264D01*
X0219451Y0541440D01*
X0219374Y0541612D01*
X0219291Y0541785D01*
X0219205Y0541954D01*
X0219115Y0542122D01*
X0219020Y0542287D01*
X0218922Y0542450D01*
X0218819Y0542610D01*
X0218712Y0542768D01*
X0218603Y0542923D01*
X0218489Y0543076D01*
X0218372Y0543226D01*
X0218251Y0543370D01*
X0218127Y0543516D01*
X0217999Y0543657D01*
X0217868Y0543795D01*
X0217733Y0543930D01*
X0217594Y0544061D01*
X0217454Y0544189D01*
X0217309Y0544313D01*
X0217164Y0544434D01*
X0217014Y0544552D01*
X0216861Y0544665D01*
X0216706Y0544775D01*
X0216548Y0544881D01*
X0216387Y0544983D01*
X0216224Y0545082D01*
X0216060Y0545177D01*
X0215892Y0545267D01*
X0215723Y0545353D01*
X0215551Y0545436D01*
X0215377Y0545514D01*
X0215201Y0545588D01*
X0215025Y0545657D01*
X0214846Y0545723D01*
X0214665Y0545784D01*
X0214485Y0545840D01*
X0214302Y0545892D01*
X0214116Y0545940D01*
X0213932Y0545982D01*
X0213746Y0546022D01*
X0213559Y0546057D01*
X0213371Y0546086D01*
X0213181Y0546112D01*
X0212993Y0546132D01*
X0212803Y0546148D01*
X0212611Y0546160D01*
X0212422Y0546167D01*
X0212232Y0546169D01*
X0055106Y0546169D01*
X0054967Y0546167D01*
X0054827Y0546161D01*
X0054687Y0546151D01*
X0054547Y0546138D01*
X0054408Y0546120D01*
X0054269Y0546098D01*
X0054132Y0546073D01*
X0053994Y0546044D01*
X0053857Y0546011D01*
X0053723Y0545974D01*
X0053589Y0545933D01*
X0053456Y0545887D01*
X0053324Y0545840D01*
X0053194Y0545788D01*
X0053064Y0545733D01*
X0052937Y0545674D01*
X0052812Y0545610D01*
X0052688Y0545544D01*
X0052567Y0545476D01*
X0052447Y0545403D01*
X0052329Y0545326D01*
X0052214Y0545247D01*
X0052100Y0545164D01*
X0051990Y0545078D01*
X0051881Y0544989D01*
X0051775Y0544897D01*
X0051671Y0544802D01*
X0051571Y0544705D01*
X0051474Y0544603D01*
X0051379Y0544501D01*
X0051287Y0544395D01*
X0051198Y0544286D01*
X0051112Y0544176D01*
X0051029Y0544062D01*
X0050949Y0543947D01*
X0050873Y0543829D01*
X0050800Y0543709D01*
X0050731Y0543588D01*
X0050665Y0543464D01*
X0050602Y0543338D01*
X0050543Y0543210D01*
X0050488Y0543082D01*
X0050436Y0542952D01*
X0050388Y0542820D01*
X0050343Y0542687D01*
X0050302Y0542553D01*
X0050265Y0542418D01*
X0050232Y0542282D01*
X0050203Y0542144D01*
X0050178Y0542006D01*
X0050156Y0541868D01*
X0050138Y0541729D01*
X0050125Y0541589D01*
X0050115Y0541449D01*
X0050109Y0541309D01*
X0050107Y0541167D01*
X0050107Y0503925D01*
X0050109Y0503785D01*
X0050115Y0503645D01*
X0050125Y0503505D01*
X0050138Y0503365D01*
X0050156Y0503226D01*
X0050178Y0503087D01*
X0050203Y0502949D01*
X0050232Y0502812D01*
X0050265Y0502676D01*
X0050302Y0502541D01*
X0050343Y0502407D01*
X0050388Y0502274D01*
X0050436Y0502142D01*
X0050488Y0502012D01*
X0050543Y0501883D01*
X0050602Y0501755D01*
X0050665Y0501630D01*
X0050731Y0501506D01*
X0050800Y0501384D01*
X0050873Y0501265D01*
X0050949Y0501147D01*
X0051029Y0501032D01*
X0051112Y0500918D01*
X0051198Y0500807D01*
X0051287Y0500699D01*
X0051379Y0500593D01*
X0051474Y0500490D01*
X0051571Y0500389D01*
X0051671Y0500291D01*
X0051775Y0500197D01*
X0051881Y0500105D01*
X0051990Y0500016D01*
X0052100Y0499930D01*
X0052214Y0499847D01*
X0052329Y0499768D01*
X0052447Y0499691D01*
X0052567Y0499618D01*
X0052688Y0499549D01*
X0052812Y0499483D01*
X0052937Y0499420D01*
X0053064Y0499361D01*
X0053194Y0499306D01*
X0053324Y0499254D01*
X0053456Y0499206D01*
X0053589Y0499160D01*
X0053723Y0499120D01*
X0053857Y0499083D01*
X0053994Y0499050D01*
X0054132Y0499021D01*
X0054269Y0498996D01*
X0054408Y0498974D01*
X0054547Y0498956D01*
X0054687Y0498942D01*
X0054827Y0498933D01*
X0054967Y0498927D01*
X0055106Y0498925D01*
D86*
X0101367Y0507547D03*
X0108847Y0507547D03*
X0108847Y0517547D03*
X0101367Y0517547D03*
X0143867Y0517547D03*
X0151347Y0517547D03*
X0151347Y0507547D03*
X0143867Y0507547D03*
X0143867Y0527547D03*
X0151347Y0527547D03*
X0151347Y0537547D03*
X0143867Y0537547D03*
D87*
X0162607Y0537547D03*
X0172607Y0537547D03*
X0172607Y0527547D03*
X0162607Y0527547D03*
X0162607Y0517547D03*
X0172607Y0517547D03*
X0172607Y0507547D03*
X0162607Y0507547D03*
D88*
X0125906Y0526547D03*
X0125906Y0531547D03*
X0125906Y0536547D03*
X0125906Y0541547D03*
X0099407Y0541547D03*
X0099407Y0536547D03*
X0099407Y0531547D03*
X0099407Y0526547D03*
D89*
X0082981Y0527354D03*
X0067232Y0527354D03*
X0067232Y0534047D03*
X0082981Y0534047D03*
X0082981Y0540740D03*
X0067232Y0540740D03*
X0067232Y0517640D03*
X0082981Y0517640D03*
X0082981Y0510946D03*
X0067232Y0510946D03*
X0067232Y0504254D03*
X0082981Y0504254D03*
G75*
D100*
X0055106Y0278453D02*
X0212232Y0278453D01*
X0212422Y0278454D01*
X0212611Y0278462D01*
X0212803Y0278474D01*
X0212993Y0278490D01*
X0213181Y0278510D01*
X0213371Y0278536D01*
X0213559Y0278565D01*
X0213746Y0278600D01*
X0213932Y0278639D01*
X0214116Y0278682D01*
X0214302Y0278730D01*
X0214485Y0278782D01*
X0214665Y0278838D01*
X0214846Y0278899D01*
X0215025Y0278965D01*
X0215201Y0279034D01*
X0215377Y0279107D01*
X0215551Y0279186D01*
X0215723Y0279269D01*
X0215892Y0279355D01*
X0216060Y0279445D01*
X0216224Y0279540D01*
X0216387Y0279638D01*
X0216548Y0279741D01*
X0216706Y0279847D01*
X0216861Y0279957D01*
X0217014Y0280070D01*
X0217164Y0280187D01*
X0217309Y0280309D01*
X0217454Y0280433D01*
X0217594Y0280561D01*
X0217733Y0280692D01*
X0217868Y0280827D01*
X0217999Y0280965D01*
X0218127Y0281106D01*
X0218251Y0281250D01*
X0218372Y0281396D01*
X0218489Y0281546D01*
X0218603Y0281699D01*
X0218712Y0281854D01*
X0218819Y0282012D01*
X0218922Y0282172D01*
X0219020Y0282335D01*
X0219115Y0282500D01*
X0219205Y0282667D01*
X0219291Y0282837D01*
X0219374Y0283009D01*
X0219451Y0283181D01*
X0219526Y0283358D01*
X0219593Y0283535D01*
X0219661Y0283714D01*
X0219722Y0283894D01*
X0219776Y0284075D01*
X0219830Y0284257D01*
X0219878Y0284443D01*
X0219921Y0284628D01*
X0219960Y0284814D01*
X0219993Y0285001D01*
X0220024Y0285189D01*
X0220050Y0285378D01*
X0220070Y0285567D01*
X0220086Y0285756D01*
X0220098Y0285947D01*
X0220105Y0286137D01*
X0220107Y0286327D01*
X0220107Y0317823D01*
X0220105Y0318013D01*
X0220098Y0318203D01*
X0220086Y0318393D01*
X0220070Y0318583D01*
X0220050Y0318772D01*
X0220024Y0318961D01*
X0219993Y0319149D01*
X0219960Y0319336D01*
X0219921Y0319522D01*
X0219878Y0319707D01*
X0219830Y0319892D01*
X0219776Y0320075D01*
X0219722Y0320256D01*
X0219661Y0320436D01*
X0219593Y0320615D01*
X0219526Y0320792D01*
X0219451Y0320968D01*
X0219374Y0321141D01*
X0219291Y0321313D01*
X0219205Y0321482D01*
X0219115Y0321649D01*
X0219020Y0321815D01*
X0218922Y0321978D01*
X0218819Y0322138D01*
X0218712Y0322295D01*
X0218603Y0322451D01*
X0218489Y0322604D01*
X0218372Y0322754D01*
X0218251Y0322900D01*
X0218127Y0323044D01*
X0217999Y0323185D01*
X0217868Y0323323D01*
X0217733Y0323458D01*
X0217594Y0323589D01*
X0217454Y0323717D01*
X0217309Y0323841D01*
X0217164Y0323962D01*
X0217014Y0324080D01*
X0216861Y0324193D01*
X0216706Y0324303D01*
X0216548Y0324409D01*
X0216387Y0324512D01*
X0216224Y0324610D01*
X0216060Y0324705D01*
X0215892Y0324795D01*
X0215723Y0324881D01*
X0215551Y0324964D01*
X0215377Y0325042D01*
X0215201Y0325116D01*
X0215025Y0325185D01*
X0214846Y0325251D01*
X0214665Y0325311D01*
X0214485Y0325368D01*
X0214302Y0325420D01*
X0214116Y0325468D01*
X0213932Y0325511D01*
X0213746Y0325550D01*
X0213559Y0325585D01*
X0213371Y0325614D01*
X0213181Y0325640D01*
X0212993Y0325660D01*
X0212803Y0325676D01*
X0212611Y0325688D01*
X0212422Y0325695D01*
X0212232Y0325697D01*
X0055106Y0325697D01*
X0054967Y0325695D01*
X0054827Y0325689D01*
X0054687Y0325679D01*
X0054547Y0325665D01*
X0054408Y0325648D01*
X0054269Y0325626D01*
X0054132Y0325601D01*
X0053994Y0325572D01*
X0053857Y0325539D01*
X0053723Y0325501D01*
X0053589Y0325461D01*
X0053456Y0325416D01*
X0053324Y0325368D01*
X0053194Y0325316D01*
X0053064Y0325261D01*
X0052937Y0325202D01*
X0052812Y0325139D01*
X0052688Y0325073D01*
X0052567Y0325004D01*
X0052447Y0324931D01*
X0052329Y0324854D01*
X0052214Y0324775D01*
X0052100Y0324692D01*
X0051990Y0324606D01*
X0051881Y0324517D01*
X0051775Y0324425D01*
X0051671Y0324330D01*
X0051571Y0324233D01*
X0051474Y0324132D01*
X0051379Y0324029D01*
X0051287Y0323923D01*
X0051198Y0323814D01*
X0051112Y0323704D01*
X0051029Y0323590D01*
X0050949Y0323475D01*
X0050873Y0323356D01*
X0050800Y0323237D01*
X0050731Y0323116D01*
X0050665Y0322992D01*
X0050602Y0322866D01*
X0050543Y0322739D01*
X0050488Y0322610D01*
X0050436Y0322480D01*
X0050388Y0322348D01*
X0050343Y0322215D01*
X0050302Y0322081D01*
X0050265Y0321946D01*
X0050232Y0321810D01*
X0050203Y0321671D01*
X0050178Y0321535D01*
X0050156Y0321396D01*
X0050138Y0321257D01*
X0050125Y0321117D01*
X0050115Y0320977D01*
X0050109Y0320837D01*
X0050107Y0320697D01*
X0050107Y0283453D01*
X0050109Y0283313D01*
X0050115Y0283173D01*
X0050125Y0283033D01*
X0050138Y0282893D01*
X0050156Y0282754D01*
X0050178Y0282615D01*
X0050203Y0282478D01*
X0050232Y0282340D01*
X0050265Y0282204D01*
X0050302Y0282069D01*
X0050343Y0281935D01*
X0050388Y0281802D01*
X0050436Y0281670D01*
X0050488Y0281540D01*
X0050543Y0281411D01*
X0050602Y0281284D01*
X0050665Y0281158D01*
X0050731Y0281033D01*
X0050800Y0280913D01*
X0050873Y0280793D01*
X0050949Y0280675D01*
X0051029Y0280559D01*
X0051112Y0280446D01*
X0051198Y0280336D01*
X0051287Y0280227D01*
X0051379Y0280121D01*
X0051474Y0280018D01*
X0051571Y0279917D01*
X0051671Y0279820D01*
X0051775Y0279725D01*
X0051881Y0279633D01*
X0051990Y0279544D01*
X0052100Y0279457D01*
X0052214Y0279375D01*
X0052329Y0279296D01*
X0052447Y0279219D01*
X0052567Y0279146D01*
X0052688Y0279077D01*
X0052812Y0279011D01*
X0052937Y0278948D01*
X0053064Y0278888D01*
X0053194Y0278834D01*
X0053324Y0278782D01*
X0053456Y0278734D01*
X0053589Y0278689D01*
X0053723Y0278648D01*
X0053857Y0278611D01*
X0053994Y0278578D01*
X0054132Y0278549D01*
X0054269Y0278524D01*
X0054408Y0278502D01*
X0054547Y0278484D01*
X0054687Y0278471D01*
X0054827Y0278461D01*
X0054967Y0278454D01*
X0055106Y0278453D01*
D101*
X0101367Y0287075D03*
X0108847Y0287075D03*
X0108847Y0297075D03*
X0101367Y0297075D03*
X0143867Y0297075D03*
X0151347Y0297075D03*
X0151347Y0287075D03*
X0143867Y0287075D03*
X0143867Y0307075D03*
X0151347Y0307075D03*
X0151347Y0317075D03*
X0143867Y0317075D03*
D102*
X0162607Y0317075D03*
X0172607Y0317075D03*
X0172607Y0307075D03*
X0162607Y0307075D03*
X0162607Y0297075D03*
X0172607Y0297075D03*
X0172607Y0287075D03*
X0162607Y0287075D03*
D103*
X0125906Y0306075D03*
X0125906Y0311075D03*
X0125906Y0316075D03*
X0125906Y0321075D03*
X0099407Y0321075D03*
X0099407Y0316075D03*
X0099407Y0311075D03*
X0099407Y0306075D03*
D104*
X0082981Y0306882D03*
X0067232Y0306882D03*
X0067232Y0313575D03*
X0082981Y0313575D03*
X0082981Y0320267D03*
X0067232Y0320267D03*
X0067232Y0297168D03*
X0082981Y0297168D03*
X0082981Y0290475D03*
X0067232Y0290475D03*
X0067232Y0283782D03*
X0082981Y0283782D03*
G75*
D115*
X0055106Y0388689D02*
X0212232Y0388689D01*
X0212422Y0388690D01*
X0212611Y0388698D01*
X0212803Y0388710D01*
X0212993Y0388726D01*
X0213181Y0388745D01*
X0213371Y0388772D01*
X0213559Y0388801D01*
X0213746Y0388836D01*
X0213932Y0388875D01*
X0214116Y0388918D01*
X0214302Y0388966D01*
X0214485Y0389018D01*
X0214665Y0389074D01*
X0214846Y0389135D01*
X0215025Y0389201D01*
X0215201Y0389270D01*
X0215377Y0389344D01*
X0215551Y0389422D01*
X0215723Y0389505D01*
X0215892Y0389591D01*
X0216060Y0389681D01*
X0216224Y0389776D01*
X0216387Y0389874D01*
X0216548Y0389977D01*
X0216706Y0390083D01*
X0216861Y0390193D01*
X0217014Y0390306D01*
X0217164Y0390424D01*
X0217309Y0390545D01*
X0217454Y0390669D01*
X0217594Y0390797D01*
X0217733Y0390928D01*
X0217868Y0391063D01*
X0217999Y0391201D01*
X0218127Y0391342D01*
X0218251Y0391486D01*
X0218372Y0391632D01*
X0218489Y0391782D01*
X0218603Y0391935D01*
X0218712Y0392090D01*
X0218819Y0392248D01*
X0218922Y0392407D01*
X0219020Y0392571D01*
X0219115Y0392736D01*
X0219205Y0392903D01*
X0219291Y0393073D01*
X0219374Y0393245D01*
X0219451Y0393418D01*
X0219526Y0393594D01*
X0219593Y0393771D01*
X0219661Y0393950D01*
X0219722Y0394130D01*
X0219776Y0394311D01*
X0219830Y0394493D01*
X0219878Y0394679D01*
X0219921Y0394864D01*
X0219960Y0395050D01*
X0219993Y0395237D01*
X0220024Y0395425D01*
X0220050Y0395613D01*
X0220070Y0395803D01*
X0220086Y0395992D01*
X0220098Y0396182D01*
X0220105Y0396373D01*
X0220107Y0396563D01*
X0220107Y0428059D01*
X0220105Y0428249D01*
X0220098Y0428439D01*
X0220086Y0428629D01*
X0220070Y0428819D01*
X0220050Y0429007D01*
X0220024Y0429197D01*
X0219993Y0429385D01*
X0219960Y0429572D01*
X0219921Y0429758D01*
X0219878Y0429943D01*
X0219830Y0430128D01*
X0219776Y0430311D01*
X0219722Y0430492D01*
X0219661Y0430672D01*
X0219593Y0430851D01*
X0219526Y0431027D01*
X0219451Y0431203D01*
X0219374Y0431377D01*
X0219291Y0431548D01*
X0219205Y0431717D01*
X0219115Y0431886D01*
X0219020Y0432050D01*
X0218922Y0432214D01*
X0218819Y0432374D01*
X0218712Y0432531D01*
X0218603Y0432687D01*
X0218489Y0432840D01*
X0218372Y0432990D01*
X0218251Y0433136D01*
X0218127Y0433280D01*
X0217999Y0433420D01*
X0217868Y0433559D01*
X0217733Y0433694D01*
X0217594Y0433825D01*
X0217454Y0433953D01*
X0217309Y0434077D01*
X0217164Y0434198D01*
X0217014Y0434316D01*
X0216861Y0434429D01*
X0216706Y0434539D01*
X0216548Y0434645D01*
X0216387Y0434748D01*
X0216224Y0434846D01*
X0216060Y0434941D01*
X0215892Y0435031D01*
X0215723Y0435117D01*
X0215551Y0435200D01*
X0215377Y0435278D01*
X0215201Y0435351D01*
X0215025Y0435421D01*
X0214846Y0435487D01*
X0214665Y0435548D01*
X0214485Y0435604D01*
X0214302Y0435656D01*
X0214116Y0435703D01*
X0213932Y0435747D01*
X0213746Y0435785D01*
X0213559Y0435820D01*
X0213371Y0435850D01*
X0213181Y0435876D01*
X0212993Y0435896D01*
X0212803Y0435912D01*
X0212611Y0435924D01*
X0212422Y0435931D01*
X0212232Y0435933D01*
X0055106Y0435933D01*
X0054967Y0435931D01*
X0054827Y0435925D01*
X0054687Y0435914D01*
X0054547Y0435902D01*
X0054408Y0435884D01*
X0054269Y0435862D01*
X0054132Y0435837D01*
X0053994Y0435808D01*
X0053857Y0435775D01*
X0053723Y0435738D01*
X0053589Y0435696D01*
X0053456Y0435652D01*
X0053324Y0435604D01*
X0053194Y0435552D01*
X0053064Y0435497D01*
X0052937Y0435438D01*
X0052812Y0435375D01*
X0052688Y0435309D01*
X0052567Y0435240D01*
X0052447Y0435167D01*
X0052329Y0435090D01*
X0052214Y0435011D01*
X0052100Y0434928D01*
X0051990Y0434842D01*
X0051881Y0434753D01*
X0051775Y0434661D01*
X0051671Y0434565D01*
X0051571Y0434469D01*
X0051474Y0434368D01*
X0051379Y0434265D01*
X0051287Y0434159D01*
X0051198Y0434049D01*
X0051112Y0433940D01*
X0051029Y0433826D01*
X0050949Y0433711D01*
X0050873Y0433593D01*
X0050800Y0433473D01*
X0050731Y0433352D01*
X0050665Y0433228D01*
X0050602Y0433101D01*
X0050543Y0432975D01*
X0050488Y0432846D01*
X0050436Y0432716D01*
X0050388Y0432584D01*
X0050343Y0432451D01*
X0050302Y0432317D01*
X0050265Y0432182D01*
X0050232Y0432046D01*
X0050203Y0431907D01*
X0050178Y0431771D01*
X0050156Y0431632D01*
X0050138Y0431493D01*
X0050125Y0431353D01*
X0050115Y0431213D01*
X0050109Y0431073D01*
X0050107Y0430933D01*
X0050107Y0393689D01*
X0050109Y0393549D01*
X0050115Y0393409D01*
X0050125Y0393269D01*
X0050138Y0393129D01*
X0050156Y0392990D01*
X0050178Y0392851D01*
X0050203Y0392714D01*
X0050232Y0392576D01*
X0050265Y0392440D01*
X0050302Y0392305D01*
X0050343Y0392170D01*
X0050388Y0392038D01*
X0050436Y0391906D01*
X0050488Y0391776D01*
X0050543Y0391647D01*
X0050602Y0391520D01*
X0050665Y0391394D01*
X0050731Y0391269D01*
X0050800Y0391149D01*
X0050873Y0391028D01*
X0050949Y0390911D01*
X0051029Y0390795D01*
X0051112Y0390682D01*
X0051198Y0390572D01*
X0051287Y0390463D01*
X0051379Y0390357D01*
X0051474Y0390254D01*
X0051571Y0390153D01*
X0051671Y0390056D01*
X0051775Y0389961D01*
X0051881Y0389869D01*
X0051990Y0389780D01*
X0052100Y0389693D01*
X0052214Y0389611D01*
X0052329Y0389532D01*
X0052447Y0389455D01*
X0052567Y0389382D01*
X0052688Y0389313D01*
X0052812Y0389247D01*
X0052937Y0389184D01*
X0053064Y0389124D01*
X0053194Y0389070D01*
X0053324Y0389018D01*
X0053456Y0388970D01*
X0053589Y0388924D01*
X0053723Y0388884D01*
X0053857Y0388847D01*
X0053994Y0388814D01*
X0054132Y0388785D01*
X0054269Y0388760D01*
X0054408Y0388738D01*
X0054547Y0388720D01*
X0054687Y0388707D01*
X0054827Y0388697D01*
X0054967Y0388690D01*
X0055106Y0388689D01*
D116*
X0101367Y0397311D03*
X0108847Y0397311D03*
X0108847Y0407311D03*
X0101367Y0407311D03*
X0143867Y0407311D03*
X0151347Y0407311D03*
X0151347Y0397311D03*
X0143867Y0397311D03*
X0143867Y0417311D03*
X0151347Y0417311D03*
X0151347Y0427311D03*
X0143867Y0427311D03*
D117*
X0162607Y0427311D03*
X0172607Y0427311D03*
X0172607Y0417311D03*
X0162607Y0417311D03*
X0162607Y0407311D03*
X0172607Y0407311D03*
X0172607Y0397311D03*
X0162607Y0397311D03*
D118*
X0125906Y0416310D03*
X0125906Y0421311D03*
X0125906Y0426311D03*
X0125906Y0431311D03*
X0099407Y0431311D03*
X0099407Y0426311D03*
X0099407Y0421311D03*
X0099407Y0416310D03*
D119*
X0082981Y0417117D03*
X0067232Y0417117D03*
X0067232Y0423811D03*
X0082981Y0423811D03*
X0082981Y0430504D03*
X0067232Y0430504D03*
X0067232Y0407404D03*
X0082981Y0407404D03*
X0082981Y0400711D03*
X0067232Y0400711D03*
X0067232Y0394018D03*
X0082981Y0394018D03*
G75*
D130*
X0055106Y0050107D02*
X0212232Y0050107D01*
X0212422Y0050109D01*
X0212611Y0050116D01*
X0212803Y0050127D01*
X0212993Y0050144D01*
X0213181Y0050164D01*
X0213371Y0050190D01*
X0213559Y0050219D01*
X0213746Y0050254D01*
X0213932Y0050293D01*
X0214116Y0050336D01*
X0214302Y0050383D01*
X0214485Y0050436D01*
X0214665Y0050492D01*
X0214846Y0050553D01*
X0215025Y0050619D01*
X0215201Y0050688D01*
X0215377Y0050761D01*
X0215551Y0050839D01*
X0215723Y0050922D01*
X0215892Y0051009D01*
X0216060Y0051099D01*
X0216224Y0051193D01*
X0216387Y0051292D01*
X0216548Y0051395D01*
X0216706Y0051501D01*
X0216861Y0051610D01*
X0217014Y0051724D01*
X0217164Y0051842D01*
X0217309Y0051963D01*
X0217454Y0052087D01*
X0217594Y0052215D01*
X0217733Y0052346D01*
X0217868Y0052481D01*
X0217999Y0052619D01*
X0218127Y0052759D01*
X0218251Y0052903D01*
X0218372Y0053050D01*
X0218489Y0053200D01*
X0218603Y0053352D01*
X0218712Y0053508D01*
X0218819Y0053666D01*
X0218922Y0053825D01*
X0219020Y0053989D01*
X0219115Y0054154D01*
X0219205Y0054322D01*
X0219291Y0054491D01*
X0219374Y0054662D01*
X0219451Y0054835D01*
X0219526Y0055012D01*
X0219593Y0055189D01*
X0219661Y0055367D01*
X0219722Y0055548D01*
X0219776Y0055728D01*
X0219830Y0055911D01*
X0219878Y0056097D01*
X0219921Y0056282D01*
X0219960Y0056467D01*
X0219993Y0056655D01*
X0220024Y0056843D01*
X0220050Y0057032D01*
X0220070Y0057221D01*
X0220086Y0057411D01*
X0220098Y0057601D01*
X0220105Y0057791D01*
X0220107Y0057981D01*
X0220107Y0089477D01*
X0220105Y0089667D01*
X0220098Y0089857D01*
X0220086Y0090047D01*
X0220070Y0090237D01*
X0220050Y0090426D01*
X0220024Y0090613D01*
X0219993Y0090803D01*
X0219960Y0090990D01*
X0219921Y0091176D01*
X0219878Y0091361D01*
X0219830Y0091546D01*
X0219776Y0091729D01*
X0219722Y0091910D01*
X0219661Y0092090D01*
X0219593Y0092269D01*
X0219526Y0092446D01*
X0219451Y0092622D01*
X0219374Y0092795D01*
X0219291Y0092967D01*
X0219205Y0093136D01*
X0219115Y0093304D01*
X0219020Y0093467D01*
X0218922Y0093632D01*
X0218819Y0093792D01*
X0218712Y0093950D01*
X0218603Y0094105D01*
X0218489Y0094258D01*
X0218372Y0094408D01*
X0218251Y0094554D01*
X0218127Y0094698D01*
X0217999Y0094839D01*
X0217868Y0094977D01*
X0217733Y0095112D01*
X0217594Y0095243D01*
X0217454Y0095370D01*
X0217309Y0095494D01*
X0217164Y0095616D01*
X0217014Y0095734D01*
X0216861Y0095847D01*
X0216706Y0095957D01*
X0216548Y0096063D01*
X0216387Y0096166D01*
X0216224Y0096264D01*
X0216060Y0096359D01*
X0215892Y0096449D01*
X0215723Y0096535D01*
X0215551Y0096618D01*
X0215377Y0096696D01*
X0215201Y0096770D01*
X0215025Y0096839D01*
X0214846Y0096905D01*
X0214665Y0096966D01*
X0214485Y0097022D01*
X0214302Y0097074D01*
X0214116Y0097122D01*
X0213932Y0097165D01*
X0213746Y0097204D01*
X0213559Y0097239D01*
X0213371Y0097268D01*
X0213181Y0097294D01*
X0212993Y0097314D01*
X0212803Y0097330D01*
X0212611Y0097342D01*
X0212422Y0097349D01*
X0212232Y0097351D01*
X0055106Y0097351D01*
X0054967Y0097349D01*
X0054827Y0097343D01*
X0054687Y0097333D01*
X0054547Y0097320D01*
X0054408Y0097302D01*
X0054269Y0097280D01*
X0054132Y0097255D01*
X0053994Y0097226D01*
X0053857Y0097193D01*
X0053723Y0097156D01*
X0053589Y0097115D01*
X0053456Y0097070D01*
X0053324Y0097022D01*
X0053194Y0096970D01*
X0053064Y0096915D01*
X0052937Y0096856D01*
X0052812Y0096793D01*
X0052688Y0096727D01*
X0052567Y0096658D01*
X0052447Y0096585D01*
X0052329Y0096508D01*
X0052214Y0096429D01*
X0052100Y0096346D01*
X0051990Y0096260D01*
X0051881Y0096171D01*
X0051775Y0096079D01*
X0051671Y0095984D01*
X0051571Y0095887D01*
X0051474Y0095786D01*
X0051379Y0095683D01*
X0051287Y0095577D01*
X0051198Y0095468D01*
X0051112Y0095358D01*
X0051029Y0095244D01*
X0050949Y0095129D01*
X0050873Y0095011D01*
X0050800Y0094891D01*
X0050731Y0094770D01*
X0050665Y0094646D01*
X0050602Y0094520D01*
X0050543Y0094393D01*
X0050488Y0094264D01*
X0050436Y0094134D01*
X0050388Y0094002D01*
X0050343Y0093869D01*
X0050302Y0093735D01*
X0050265Y0093600D01*
X0050232Y0093464D01*
X0050203Y0093326D01*
X0050178Y0093189D01*
X0050156Y0093050D01*
X0050138Y0092911D01*
X0050125Y0092771D01*
X0050115Y0092630D01*
X0050109Y0092491D01*
X0050107Y0092351D01*
X0050107Y0055106D01*
X0050109Y0054967D01*
X0050115Y0054827D01*
X0050125Y0054687D01*
X0050138Y0054547D01*
X0050156Y0054408D01*
X0050178Y0054269D01*
X0050203Y0054132D01*
X0050232Y0053994D01*
X0050265Y0053857D01*
X0050302Y0053723D01*
X0050343Y0053589D01*
X0050388Y0053456D01*
X0050436Y0053324D01*
X0050488Y0053194D01*
X0050543Y0053064D01*
X0050602Y0052937D01*
X0050665Y0052812D01*
X0050731Y0052688D01*
X0050800Y0052567D01*
X0050873Y0052447D01*
X0050949Y0052329D01*
X0051029Y0052214D01*
X0051112Y0052100D01*
X0051198Y0051990D01*
X0051287Y0051881D01*
X0051379Y0051775D01*
X0051474Y0051671D01*
X0051571Y0051571D01*
X0051671Y0051474D01*
X0051775Y0051379D01*
X0051881Y0051287D01*
X0051990Y0051198D01*
X0052100Y0051112D01*
X0052214Y0051029D01*
X0052329Y0050949D01*
X0052447Y0050873D01*
X0052567Y0050800D01*
X0052688Y0050731D01*
X0052812Y0050665D01*
X0052937Y0050602D01*
X0053064Y0050543D01*
X0053194Y0050488D01*
X0053324Y0050436D01*
X0053456Y0050388D01*
X0053589Y0050343D01*
X0053723Y0050302D01*
X0053857Y0050265D01*
X0053994Y0050232D01*
X0054132Y0050203D01*
X0054269Y0050178D01*
X0054408Y0050156D01*
X0054547Y0050138D01*
X0054687Y0050125D01*
X0054827Y0050115D01*
X0054967Y0050109D01*
X0055106Y0050107D01*
D131*
X0101367Y0058729D03*
X0108847Y0058729D03*
X0108847Y0068729D03*
X0101367Y0068729D03*
X0143867Y0068729D03*
X0151347Y0068729D03*
X0151347Y0058729D03*
X0143867Y0058729D03*
X0143867Y0078729D03*
X0151347Y0078729D03*
X0151347Y0088729D03*
X0143867Y0088729D03*
D132*
X0162607Y0088729D03*
X0172607Y0088729D03*
X0172607Y0078729D03*
X0162607Y0078729D03*
X0162607Y0068729D03*
X0172607Y0068729D03*
X0172607Y0058729D03*
X0162607Y0058729D03*
D133*
X0125906Y0077729D03*
X0125906Y0082729D03*
X0125906Y0087729D03*
X0125906Y0092729D03*
X0099407Y0092729D03*
X0099407Y0087729D03*
X0099407Y0082729D03*
X0099407Y0077729D03*
D134*
X0082981Y0078536D03*
X0067232Y0078536D03*
X0067232Y0085229D03*
X0082981Y0085229D03*
X0082981Y0091922D03*
X0067232Y0091922D03*
X0067232Y0068822D03*
X0082981Y0068822D03*
X0082981Y0062129D03*
X0067232Y0062129D03*
X0067232Y0055436D03*
X0082981Y0055436D03*
G75*
D145*
X0055106Y0105224D02*
X0212232Y0105224D01*
X0212422Y0105227D01*
X0212611Y0105234D01*
X0212803Y0105246D01*
X0212993Y0105261D01*
X0213181Y0105282D01*
X0213371Y0105308D01*
X0213559Y0105336D01*
X0213746Y0105372D01*
X0213932Y0105411D01*
X0214116Y0105454D01*
X0214302Y0105502D01*
X0214485Y0105553D01*
X0214665Y0105610D01*
X0214846Y0105671D01*
X0215025Y0105736D01*
X0215201Y0105806D01*
X0215377Y0105880D01*
X0215551Y0105958D01*
X0215723Y0106041D01*
X0215892Y0106127D01*
X0216060Y0106217D01*
X0216224Y0106312D01*
X0216387Y0106410D01*
X0216548Y0106512D01*
X0216706Y0106619D01*
X0216861Y0106729D01*
X0217014Y0106841D01*
X0217164Y0106960D01*
X0217309Y0107081D01*
X0217454Y0107205D01*
X0217594Y0107332D01*
X0217733Y0107464D01*
X0217868Y0107599D01*
X0217999Y0107737D01*
X0218127Y0107878D01*
X0218251Y0108022D01*
X0218372Y0108168D01*
X0218489Y0108318D01*
X0218603Y0108471D01*
X0218712Y0108626D01*
X0218819Y0108783D01*
X0218922Y0108944D01*
X0219020Y0109107D01*
X0219115Y0109271D01*
X0219205Y0109440D01*
X0219291Y0109609D01*
X0219374Y0109781D01*
X0219451Y0109954D01*
X0219526Y0110130D01*
X0219593Y0110307D01*
X0219661Y0110486D01*
X0219722Y0110666D01*
X0219776Y0110847D01*
X0219830Y0111030D01*
X0219878Y0111215D01*
X0219921Y0111400D01*
X0219960Y0111586D01*
X0219993Y0111772D01*
X0220024Y0111961D01*
X0220050Y0112150D01*
X0220070Y0112339D01*
X0220086Y0112528D01*
X0220098Y0112718D01*
X0220105Y0112908D01*
X0220107Y0113099D01*
X0220107Y0144595D01*
X0220105Y0144785D01*
X0220098Y0144975D01*
X0220086Y0145165D01*
X0220070Y0145355D01*
X0220050Y0145544D01*
X0220024Y0145733D01*
X0219993Y0145921D01*
X0219960Y0146108D01*
X0219921Y0146293D01*
X0219878Y0146479D01*
X0219830Y0146664D01*
X0219776Y0146847D01*
X0219722Y0147028D01*
X0219661Y0147207D01*
X0219593Y0147387D01*
X0219526Y0147564D01*
X0219451Y0147740D01*
X0219374Y0147913D01*
X0219291Y0148084D01*
X0219205Y0148254D01*
X0219115Y0148422D01*
X0219020Y0148587D01*
X0218922Y0148750D01*
X0218819Y0148910D01*
X0218712Y0149067D01*
X0218603Y0149222D01*
X0218489Y0149376D01*
X0218372Y0149526D01*
X0218251Y0149672D01*
X0218127Y0149816D01*
X0217999Y0149957D01*
X0217868Y0150095D01*
X0217733Y0150230D01*
X0217594Y0150361D01*
X0217454Y0150489D01*
X0217309Y0150613D01*
X0217164Y0150734D01*
X0217014Y0150852D01*
X0216861Y0150965D01*
X0216706Y0151075D01*
X0216548Y0151181D01*
X0216387Y0151284D01*
X0216224Y0151382D01*
X0216060Y0151476D01*
X0215892Y0151567D01*
X0215723Y0151653D01*
X0215551Y0151736D01*
X0215377Y0151814D01*
X0215201Y0151888D01*
X0215025Y0151957D01*
X0214846Y0152023D01*
X0214665Y0152084D01*
X0214485Y0152140D01*
X0214302Y0152192D01*
X0214116Y0152240D01*
X0213932Y0152282D01*
X0213746Y0152322D01*
X0213559Y0152357D01*
X0213371Y0152386D01*
X0213181Y0152412D01*
X0212993Y0152432D01*
X0212803Y0152448D01*
X0212611Y0152459D01*
X0212422Y0152467D01*
X0212232Y0152469D01*
X0055106Y0152469D01*
X0054967Y0152467D01*
X0054827Y0152461D01*
X0054687Y0152450D01*
X0054547Y0152438D01*
X0054408Y0152420D01*
X0054269Y0152398D01*
X0054132Y0152373D01*
X0053994Y0152344D01*
X0053857Y0152311D01*
X0053723Y0152273D01*
X0053589Y0152233D01*
X0053456Y0152188D01*
X0053324Y0152140D01*
X0053194Y0152087D01*
X0053064Y0152033D01*
X0052937Y0151974D01*
X0052812Y0151910D01*
X0052688Y0151845D01*
X0052567Y0151776D01*
X0052447Y0151703D01*
X0052329Y0151626D01*
X0052214Y0151547D01*
X0052100Y0151464D01*
X0051990Y0151378D01*
X0051881Y0151289D01*
X0051775Y0151197D01*
X0051671Y0151102D01*
X0051571Y0151005D01*
X0051474Y0150904D01*
X0051379Y0150801D01*
X0051287Y0150695D01*
X0051198Y0150586D01*
X0051112Y0150476D01*
X0051029Y0150362D01*
X0050949Y0150247D01*
X0050873Y0150129D01*
X0050800Y0150009D01*
X0050731Y0149888D01*
X0050665Y0149764D01*
X0050602Y0149638D01*
X0050543Y0149510D01*
X0050488Y0149382D01*
X0050436Y0149252D01*
X0050388Y0149120D01*
X0050343Y0148987D01*
X0050302Y0148853D01*
X0050265Y0148718D01*
X0050232Y0148582D01*
X0050203Y0148444D01*
X0050178Y0148307D01*
X0050156Y0148168D01*
X0050138Y0148029D01*
X0050125Y0147889D01*
X0050115Y0147749D01*
X0050109Y0147608D01*
X0050107Y0147469D01*
X0050107Y0110225D01*
X0050109Y0110085D01*
X0050115Y0109945D01*
X0050125Y0109805D01*
X0050138Y0109664D01*
X0050156Y0109525D01*
X0050178Y0109386D01*
X0050203Y0109250D01*
X0050232Y0109112D01*
X0050265Y0108976D01*
X0050302Y0108841D01*
X0050343Y0108707D01*
X0050388Y0108574D01*
X0050436Y0108442D01*
X0050488Y0108312D01*
X0050543Y0108183D01*
X0050602Y0108056D01*
X0050665Y0107929D01*
X0050731Y0107806D01*
X0050800Y0107685D01*
X0050873Y0107565D01*
X0050949Y0107447D01*
X0051029Y0107332D01*
X0051112Y0107217D01*
X0051198Y0107108D01*
X0051287Y0106999D01*
X0051379Y0106893D01*
X0051474Y0106790D01*
X0051571Y0106688D01*
X0051671Y0106592D01*
X0051775Y0106497D01*
X0051881Y0106405D01*
X0051990Y0106316D01*
X0052100Y0106230D01*
X0052214Y0106146D01*
X0052329Y0106068D01*
X0052447Y0105990D01*
X0052567Y0105918D01*
X0052688Y0105849D01*
X0052812Y0105783D01*
X0052937Y0105719D01*
X0053064Y0105661D01*
X0053194Y0105606D01*
X0053324Y0105553D01*
X0053456Y0105506D01*
X0053589Y0105461D01*
X0053723Y0105420D01*
X0053857Y0105383D01*
X0053994Y0105350D01*
X0054132Y0105321D01*
X0054269Y0105295D01*
X0054408Y0105274D01*
X0054547Y0105256D01*
X0054687Y0105243D01*
X0054827Y0105233D01*
X0054967Y0105227D01*
X0055106Y0105224D01*
D146*
X0101367Y0113847D03*
X0108847Y0113847D03*
X0108847Y0123847D03*
X0101367Y0123847D03*
X0143867Y0123847D03*
X0151347Y0123847D03*
X0151347Y0113847D03*
X0143867Y0113847D03*
X0143867Y0133847D03*
X0151347Y0133847D03*
X0151347Y0143847D03*
X0143867Y0143847D03*
D147*
X0162607Y0143847D03*
X0172607Y0143847D03*
X0172607Y0133847D03*
X0162607Y0133847D03*
X0162607Y0123847D03*
X0172607Y0123847D03*
X0172607Y0113847D03*
X0162607Y0113847D03*
D148*
X0125906Y0132847D03*
X0125906Y0137847D03*
X0125906Y0142847D03*
X0125906Y0147847D03*
X0099407Y0147847D03*
X0099407Y0142847D03*
X0099407Y0137847D03*
X0099407Y0132847D03*
D149*
X0082981Y0133654D03*
X0067232Y0133654D03*
X0067232Y0140347D03*
X0082981Y0140347D03*
X0082981Y0147039D03*
X0067232Y0147039D03*
X0067232Y0123940D03*
X0082981Y0123940D03*
X0082981Y0117246D03*
X0067232Y0117246D03*
X0067232Y0110554D03*
X0082981Y0110554D03*
G75*
D160*
X0055106Y0554042D02*
X0212232Y0554042D01*
X0212422Y0554046D01*
X0212611Y0554053D01*
X0212803Y0554065D01*
X0212993Y0554081D01*
X0213181Y0554101D01*
X0213371Y0554127D01*
X0213559Y0554156D01*
X0213746Y0554191D01*
X0213932Y0554230D01*
X0214116Y0554273D01*
X0214302Y0554319D01*
X0214485Y0554373D01*
X0214665Y0554429D01*
X0214846Y0554490D01*
X0215025Y0554556D01*
X0215201Y0554625D01*
X0215377Y0554699D01*
X0215551Y0554777D01*
X0215723Y0554860D01*
X0215892Y0554946D01*
X0216060Y0555036D01*
X0216224Y0555131D01*
X0216387Y0555229D01*
X0216548Y0555332D01*
X0216706Y0555438D01*
X0216861Y0555548D01*
X0217014Y0555661D01*
X0217164Y0555778D01*
X0217309Y0555900D01*
X0217454Y0556024D01*
X0217594Y0556152D01*
X0217733Y0556282D01*
X0217868Y0556418D01*
X0217999Y0556556D01*
X0218127Y0556697D01*
X0218251Y0556841D01*
X0218372Y0556987D01*
X0218489Y0557137D01*
X0218603Y0557290D01*
X0218712Y0557445D01*
X0218819Y0557603D01*
X0218922Y0557763D01*
X0219020Y0557926D01*
X0219115Y0558091D01*
X0219205Y0558259D01*
X0219291Y0558428D01*
X0219374Y0558600D01*
X0219451Y0558773D01*
X0219526Y0558949D01*
X0219593Y0559126D01*
X0219661Y0559305D01*
X0219722Y0559485D01*
X0219776Y0559666D01*
X0219830Y0559849D01*
X0219878Y0560034D01*
X0219921Y0560219D01*
X0219960Y0560405D01*
X0219993Y0560592D01*
X0220024Y0560780D01*
X0220050Y0560969D01*
X0220070Y0561158D01*
X0220086Y0561348D01*
X0220098Y0561538D01*
X0220105Y0561728D01*
X0220107Y0561918D01*
X0220107Y0593414D01*
X0220105Y0593604D01*
X0220098Y0593794D01*
X0220086Y0593984D01*
X0220070Y0594174D01*
X0220050Y0594363D01*
X0220024Y0594552D01*
X0219993Y0594739D01*
X0219960Y0594927D01*
X0219921Y0595113D01*
X0219878Y0595298D01*
X0219830Y0595483D01*
X0219776Y0595666D01*
X0219722Y0595847D01*
X0219661Y0596027D01*
X0219593Y0596206D01*
X0219526Y0596383D01*
X0219451Y0596559D01*
X0219374Y0596732D01*
X0219291Y0596904D01*
X0219205Y0597073D01*
X0219115Y0597241D01*
X0219020Y0597406D01*
X0218922Y0597569D01*
X0218819Y0597729D01*
X0218712Y0597887D01*
X0218603Y0598042D01*
X0218489Y0598195D01*
X0218372Y0598345D01*
X0218251Y0598491D01*
X0218127Y0598634D01*
X0217999Y0598776D01*
X0217868Y0598914D01*
X0217733Y0599049D01*
X0217594Y0599180D01*
X0217454Y0599308D01*
X0217309Y0599432D01*
X0217164Y0599553D01*
X0217014Y0599671D01*
X0216861Y0599784D01*
X0216706Y0599894D01*
X0216548Y0599999D01*
X0216387Y0600103D01*
X0216224Y0600201D01*
X0216060Y0600296D01*
X0215892Y0600386D01*
X0215723Y0600472D01*
X0215551Y0600555D01*
X0215377Y0600633D01*
X0215201Y0600706D01*
X0215025Y0600776D01*
X0214846Y0600842D01*
X0214665Y0600903D01*
X0214485Y0600959D01*
X0214302Y0601011D01*
X0214116Y0601059D01*
X0213932Y0601102D01*
X0213746Y0601141D01*
X0213559Y0601176D01*
X0213371Y0601205D01*
X0213181Y0601231D01*
X0212993Y0601251D01*
X0212803Y0601267D01*
X0212611Y0601279D01*
X0212422Y0601286D01*
X0212232Y0601288D01*
X0055106Y0601288D01*
X0054967Y0601286D01*
X0054827Y0601280D01*
X0054687Y0601270D01*
X0054547Y0601257D01*
X0054408Y0601239D01*
X0054269Y0601217D01*
X0054132Y0601192D01*
X0053994Y0601163D01*
X0053857Y0601130D01*
X0053723Y0601093D01*
X0053589Y0601052D01*
X0053456Y0601007D01*
X0053324Y0600959D01*
X0053194Y0600907D01*
X0053064Y0600852D01*
X0052937Y0600793D01*
X0052812Y0600730D01*
X0052688Y0600664D01*
X0052567Y0600595D01*
X0052447Y0600522D01*
X0052329Y0600443D01*
X0052214Y0600366D01*
X0052100Y0600283D01*
X0051990Y0600196D01*
X0051881Y0600108D01*
X0051775Y0600016D01*
X0051671Y0599921D01*
X0051571Y0599824D01*
X0051474Y0599723D01*
X0051379Y0599619D01*
X0051287Y0599514D01*
X0051198Y0599405D01*
X0051112Y0599295D01*
X0051029Y0599181D01*
X0050949Y0599064D01*
X0050873Y0598948D01*
X0050800Y0598828D01*
X0050731Y0598707D01*
X0050665Y0598583D01*
X0050602Y0598457D01*
X0050543Y0598330D01*
X0050488Y0598201D01*
X0050436Y0598071D01*
X0050388Y0597939D01*
X0050343Y0597806D01*
X0050302Y0597672D01*
X0050265Y0597537D01*
X0050232Y0597401D01*
X0050203Y0597263D01*
X0050178Y0597126D01*
X0050156Y0596986D01*
X0050138Y0596848D01*
X0050125Y0596708D01*
X0050115Y0596568D01*
X0050109Y0596428D01*
X0050107Y0596288D01*
X0050107Y0559044D01*
X0050109Y0558904D01*
X0050115Y0558764D01*
X0050125Y0558624D01*
X0050138Y0558484D01*
X0050156Y0558345D01*
X0050178Y0558206D01*
X0050203Y0558069D01*
X0050232Y0557931D01*
X0050265Y0557795D01*
X0050302Y0557660D01*
X0050343Y0557526D01*
X0050388Y0557393D01*
X0050436Y0557261D01*
X0050488Y0557131D01*
X0050543Y0557002D01*
X0050602Y0556875D01*
X0050665Y0556749D01*
X0050731Y0556625D01*
X0050800Y0556504D01*
X0050873Y0556384D01*
X0050949Y0556266D01*
X0051029Y0556151D01*
X0051112Y0556037D01*
X0051198Y0555927D01*
X0051287Y0555818D01*
X0051379Y0555712D01*
X0051474Y0555609D01*
X0051571Y0555508D01*
X0051671Y0555411D01*
X0051775Y0555316D01*
X0051881Y0555224D01*
X0051990Y0555135D01*
X0052100Y0555049D01*
X0052214Y0554966D01*
X0052329Y0554887D01*
X0052447Y0554810D01*
X0052567Y0554737D01*
X0052688Y0554668D01*
X0052812Y0554602D01*
X0052937Y0554539D01*
X0053064Y0554480D01*
X0053194Y0554425D01*
X0053324Y0554373D01*
X0053456Y0554325D01*
X0053589Y0554280D01*
X0053723Y0554239D01*
X0053857Y0554202D01*
X0053994Y0554169D01*
X0054132Y0554140D01*
X0054269Y0554115D01*
X0054408Y0554093D01*
X0054547Y0554075D01*
X0054687Y0554062D01*
X0054827Y0554052D01*
X0054967Y0554046D01*
X0055106Y0554042D01*
D161*
X0101367Y0562664D03*
X0108847Y0562664D03*
X0108847Y0572666D03*
X0101367Y0572666D03*
X0143867Y0572666D03*
X0151347Y0572666D03*
X0151347Y0562664D03*
X0143867Y0562664D03*
X0143867Y0582666D03*
X0151347Y0582666D03*
X0151347Y0592666D03*
X0143867Y0592666D03*
D162*
X0162607Y0592666D03*
X0172607Y0592666D03*
X0172607Y0582666D03*
X0162607Y0582666D03*
X0162607Y0572666D03*
X0172607Y0572666D03*
X0172607Y0562664D03*
X0162607Y0562664D03*
D163*
X0125906Y0581666D03*
X0125906Y0586666D03*
X0125906Y0591666D03*
X0125906Y0596664D03*
X0099407Y0596664D03*
X0099407Y0591666D03*
X0099407Y0586666D03*
X0099407Y0581666D03*
D164*
X0082981Y0582473D03*
X0067232Y0582473D03*
X0067232Y0589166D03*
X0082981Y0589166D03*
X0082981Y0595859D03*
X0067232Y0595859D03*
X0067232Y0572759D03*
X0082981Y0572759D03*
X0082981Y0566066D03*
X0067232Y0566066D03*
X0067232Y0559373D03*
X0082981Y0559373D03*
G75*
D175*
X0055106Y0164280D02*
X0212232Y0164280D01*
X0212422Y0164282D01*
X0212611Y0164289D01*
X0212803Y0164301D01*
X0212993Y0164317D01*
X0213181Y0164337D01*
X0213371Y0164363D01*
X0213559Y0164392D01*
X0213746Y0164427D01*
X0213932Y0164466D01*
X0214116Y0164509D01*
X0214302Y0164557D01*
X0214485Y0164609D01*
X0214665Y0164665D01*
X0214846Y0164726D01*
X0215025Y0164792D01*
X0215201Y0164861D01*
X0215377Y0164935D01*
X0215551Y0165013D01*
X0215723Y0165095D01*
X0215892Y0165181D01*
X0216060Y0165272D01*
X0216224Y0165367D01*
X0216387Y0165465D01*
X0216548Y0165568D01*
X0216706Y0165674D01*
X0216861Y0165784D01*
X0217014Y0165897D01*
X0217164Y0166015D01*
X0217309Y0166136D01*
X0217454Y0166260D01*
X0217594Y0166388D01*
X0217733Y0166519D01*
X0217868Y0166654D01*
X0217999Y0166792D01*
X0218127Y0166933D01*
X0218251Y0167077D01*
X0218372Y0167223D01*
X0218489Y0167373D01*
X0218603Y0167526D01*
X0218712Y0167681D01*
X0218819Y0167838D01*
X0218922Y0167999D01*
X0219020Y0168162D01*
X0219115Y0168327D01*
X0219205Y0168495D01*
X0219291Y0168664D01*
X0219374Y0168836D01*
X0219451Y0169009D01*
X0219526Y0169185D01*
X0219593Y0169362D01*
X0219661Y0169541D01*
X0219722Y0169721D01*
X0219776Y0169902D01*
X0219830Y0170085D01*
X0219878Y0170270D01*
X0219921Y0170455D01*
X0219960Y0170641D01*
X0219993Y0170828D01*
X0220024Y0171016D01*
X0220050Y0171205D01*
X0220070Y0171394D01*
X0220086Y0171584D01*
X0220098Y0171774D01*
X0220105Y0171963D01*
X0220107Y0172154D01*
X0220107Y0203650D01*
X0220105Y0203840D01*
X0220098Y0204029D01*
X0220086Y0204219D01*
X0220070Y0204409D01*
X0220050Y0204599D01*
X0220024Y0204788D01*
X0219993Y0204976D01*
X0219960Y0205162D01*
X0219921Y0205349D01*
X0219878Y0205534D01*
X0219830Y0205717D01*
X0219776Y0205900D01*
X0219722Y0206083D01*
X0219661Y0206263D01*
X0219593Y0206442D01*
X0219526Y0206619D01*
X0219451Y0206795D01*
X0219374Y0206968D01*
X0219291Y0207140D01*
X0219205Y0207309D01*
X0219115Y0207477D01*
X0219020Y0207642D01*
X0218922Y0207805D01*
X0218819Y0207965D01*
X0218712Y0208123D01*
X0218603Y0208278D01*
X0218489Y0208431D01*
X0218372Y0208581D01*
X0218251Y0208727D01*
X0218127Y0208869D01*
X0217999Y0209012D01*
X0217868Y0209150D01*
X0217733Y0209285D01*
X0217594Y0209416D01*
X0217454Y0209544D01*
X0217309Y0209668D01*
X0217164Y0209789D01*
X0217014Y0209907D01*
X0216861Y0210020D01*
X0216706Y0210130D01*
X0216548Y0210236D01*
X0216387Y0210339D01*
X0216224Y0210435D01*
X0216060Y0210532D01*
X0215892Y0210622D01*
X0215723Y0210707D01*
X0215551Y0210791D01*
X0215377Y0210869D01*
X0215201Y0210943D01*
X0215025Y0211012D01*
X0214846Y0211078D01*
X0214665Y0211139D01*
X0214485Y0211195D01*
X0214302Y0211247D01*
X0214116Y0211295D01*
X0213932Y0211337D01*
X0213746Y0211377D01*
X0213559Y0211412D01*
X0213371Y0211441D01*
X0213181Y0211466D01*
X0212993Y0211486D01*
X0212803Y0211503D01*
X0212611Y0211515D01*
X0212422Y0211522D01*
X0212232Y0211524D01*
X0055106Y0211524D01*
X0054967Y0211522D01*
X0054827Y0211516D01*
X0054687Y0211506D01*
X0054547Y0211493D01*
X0054408Y0211475D01*
X0054269Y0211452D01*
X0054132Y0211428D01*
X0053994Y0211398D01*
X0053857Y0211366D01*
X0053723Y0211329D01*
X0053589Y0211288D01*
X0053456Y0211242D01*
X0053324Y0211195D01*
X0053194Y0211143D01*
X0053064Y0211088D01*
X0052937Y0211029D01*
X0052812Y0210966D01*
X0052688Y0210900D01*
X0052567Y0210831D01*
X0052447Y0210758D01*
X0052329Y0210679D01*
X0052214Y0210602D01*
X0052100Y0210519D01*
X0051990Y0210433D01*
X0051881Y0210344D01*
X0051775Y0210252D01*
X0051671Y0210157D01*
X0051571Y0210060D01*
X0051474Y0209959D01*
X0051379Y0209856D01*
X0051287Y0209750D01*
X0051198Y0209641D01*
X0051112Y0209531D01*
X0051029Y0209417D01*
X0050949Y0209302D01*
X0050873Y0209184D01*
X0050800Y0209064D01*
X0050731Y0208943D01*
X0050665Y0208819D01*
X0050602Y0208693D01*
X0050543Y0208564D01*
X0050488Y0208436D01*
X0050436Y0208307D01*
X0050388Y0208175D01*
X0050343Y0208042D01*
X0050302Y0207907D01*
X0050265Y0207773D01*
X0050232Y0207636D01*
X0050203Y0207499D01*
X0050178Y0207362D01*
X0050156Y0207222D01*
X0050138Y0207084D01*
X0050125Y0206944D01*
X0050115Y0206804D01*
X0050109Y0206664D01*
X0050107Y0206524D01*
X0050107Y0169280D01*
X0050109Y0169140D01*
X0050115Y0169000D01*
X0050125Y0168860D01*
X0050138Y0168720D01*
X0050156Y0168581D01*
X0050178Y0168442D01*
X0050203Y0168305D01*
X0050232Y0168167D01*
X0050265Y0168031D01*
X0050302Y0167896D01*
X0050343Y0167762D01*
X0050388Y0167629D01*
X0050436Y0167497D01*
X0050488Y0167367D01*
X0050543Y0167238D01*
X0050602Y0167111D01*
X0050665Y0166985D01*
X0050731Y0166861D01*
X0050800Y0166740D01*
X0050873Y0166620D01*
X0050949Y0166501D01*
X0051029Y0166387D01*
X0051112Y0166273D01*
X0051198Y0166163D01*
X0051287Y0166054D01*
X0051379Y0165948D01*
X0051474Y0165845D01*
X0051571Y0165744D01*
X0051671Y0165647D01*
X0051775Y0165552D01*
X0051881Y0165460D01*
X0051990Y0165371D01*
X0052100Y0165285D01*
X0052214Y0165201D01*
X0052329Y0165123D01*
X0052447Y0165046D01*
X0052567Y0164973D01*
X0052688Y0164904D01*
X0052812Y0164838D01*
X0052937Y0164775D01*
X0053064Y0164716D01*
X0053194Y0164661D01*
X0053324Y0164609D01*
X0053456Y0164561D01*
X0053589Y0164516D01*
X0053723Y0164475D01*
X0053857Y0164438D01*
X0053994Y0164404D01*
X0054132Y0164376D01*
X0054269Y0164351D01*
X0054408Y0164329D01*
X0054547Y0164311D01*
X0054687Y0164298D01*
X0054827Y0164287D01*
X0054967Y0164282D01*
X0055106Y0164280D01*
D176*
X0101367Y0172902D03*
X0108847Y0172902D03*
X0108847Y0182902D03*
X0101367Y0182902D03*
X0143867Y0182902D03*
X0151347Y0182902D03*
X0151347Y0172902D03*
X0143867Y0172902D03*
X0143867Y0192902D03*
X0151347Y0192902D03*
X0151347Y0202902D03*
X0143867Y0202902D03*
D177*
X0162607Y0202902D03*
X0172607Y0202902D03*
X0172607Y0192902D03*
X0162607Y0192902D03*
X0162607Y0182902D03*
X0172607Y0182902D03*
X0172607Y0172902D03*
X0162607Y0172902D03*
D178*
X0125906Y0191902D03*
X0125906Y0196902D03*
X0125906Y0201901D03*
X0125906Y0206902D03*
X0099407Y0206902D03*
X0099407Y0201901D03*
X0099407Y0196902D03*
X0099407Y0191902D03*
D179*
X0082981Y0192709D03*
X0067232Y0192709D03*
X0067232Y0199402D03*
X0082981Y0199402D03*
X0082981Y0206095D03*
X0067232Y0206095D03*
X0067232Y0182995D03*
X0082981Y0182995D03*
X0082981Y0176302D03*
X0067232Y0176302D03*
X0067232Y0169609D03*
X0082981Y0169609D03*
G75*
D190*
X0236208Y0050107D02*
X0393335Y0050107D01*
X0393525Y0050109D01*
X0393715Y0050116D01*
X0393905Y0050127D01*
X0394095Y0050144D01*
X0394284Y0050164D01*
X0394473Y0050190D01*
X0394661Y0050219D01*
X0394847Y0050254D01*
X0395034Y0050293D01*
X0395219Y0050336D01*
X0395404Y0050383D01*
X0395587Y0050436D01*
X0395768Y0050492D01*
X0395948Y0050553D01*
X0396127Y0050619D01*
X0396304Y0050688D01*
X0396480Y0050761D01*
X0396653Y0050839D01*
X0396825Y0050922D01*
X0396994Y0051009D01*
X0397162Y0051099D01*
X0397327Y0051193D01*
X0397490Y0051292D01*
X0397650Y0051395D01*
X0397808Y0051501D01*
X0397963Y0051610D01*
X0398115Y0051724D01*
X0398266Y0051842D01*
X0398412Y0051963D01*
X0398556Y0052087D01*
X0398697Y0052215D01*
X0398835Y0052346D01*
X0398970Y0052481D01*
X0399101Y0052619D01*
X0399229Y0052759D01*
X0399353Y0052903D01*
X0399474Y0053050D01*
X0399592Y0053200D01*
X0399705Y0053352D01*
X0399815Y0053508D01*
X0399921Y0053666D01*
X0400024Y0053825D01*
X0400122Y0053989D01*
X0400216Y0054154D01*
X0400307Y0054322D01*
X0400393Y0054491D01*
X0400476Y0054662D01*
X0400554Y0054835D01*
X0400628Y0055012D01*
X0400697Y0055189D01*
X0400763Y0055367D01*
X0400824Y0055548D01*
X0400880Y0055728D01*
X0400932Y0055911D01*
X0400980Y0056097D01*
X0401023Y0056282D01*
X0401062Y0056467D01*
X0401097Y0056655D01*
X0401126Y0056843D01*
X0401152Y0057032D01*
X0401172Y0057221D01*
X0401187Y0057411D01*
X0401199Y0057601D01*
X0401206Y0057791D01*
X0401209Y0057981D01*
X0401209Y0089477D01*
X0401206Y0089667D01*
X0401199Y0089857D01*
X0401187Y0090047D01*
X0401172Y0090237D01*
X0401152Y0090426D01*
X0401126Y0090613D01*
X0401097Y0090803D01*
X0401062Y0090990D01*
X0401023Y0091176D01*
X0400980Y0091361D01*
X0400932Y0091546D01*
X0400880Y0091729D01*
X0400824Y0091910D01*
X0400763Y0092090D01*
X0400697Y0092269D01*
X0400628Y0092446D01*
X0400554Y0092622D01*
X0400476Y0092795D01*
X0400393Y0092967D01*
X0400307Y0093136D01*
X0400216Y0093304D01*
X0400122Y0093467D01*
X0400024Y0093632D01*
X0399921Y0093792D01*
X0399815Y0093950D01*
X0399705Y0094105D01*
X0399592Y0094258D01*
X0399474Y0094408D01*
X0399353Y0094554D01*
X0399229Y0094698D01*
X0399101Y0094839D01*
X0398970Y0094977D01*
X0398835Y0095112D01*
X0398697Y0095243D01*
X0398556Y0095370D01*
X0398412Y0095494D01*
X0398266Y0095616D01*
X0398115Y0095734D01*
X0397963Y0095847D01*
X0397808Y0095957D01*
X0397650Y0096063D01*
X0397490Y0096166D01*
X0397327Y0096264D01*
X0397162Y0096359D01*
X0396994Y0096449D01*
X0396825Y0096535D01*
X0396653Y0096618D01*
X0396480Y0096696D01*
X0396304Y0096770D01*
X0396127Y0096839D01*
X0395948Y0096905D01*
X0395768Y0096966D01*
X0395587Y0097022D01*
X0395404Y0097074D01*
X0395219Y0097122D01*
X0395034Y0097165D01*
X0394847Y0097204D01*
X0394661Y0097239D01*
X0394473Y0097268D01*
X0394284Y0097294D01*
X0394095Y0097314D01*
X0393905Y0097330D01*
X0393715Y0097342D01*
X0393525Y0097349D01*
X0393335Y0097351D01*
X0236208Y0097351D01*
X0236069Y0097349D01*
X0235929Y0097343D01*
X0235788Y0097333D01*
X0235649Y0097320D01*
X0235510Y0097302D01*
X0235371Y0097280D01*
X0235234Y0097255D01*
X0235096Y0097226D01*
X0234960Y0097193D01*
X0234825Y0097156D01*
X0234690Y0097115D01*
X0234558Y0097070D01*
X0234425Y0097022D01*
X0234296Y0096970D01*
X0234167Y0096915D01*
X0234039Y0096856D01*
X0233914Y0096793D01*
X0233790Y0096727D01*
X0233669Y0096658D01*
X0233549Y0096585D01*
X0233431Y0096508D01*
X0233316Y0096429D01*
X0233202Y0096346D01*
X0233092Y0096260D01*
X0232981Y0096171D01*
X0232877Y0096079D01*
X0232774Y0095984D01*
X0232673Y0095887D01*
X0232575Y0095786D01*
X0232480Y0095683D01*
X0232389Y0095577D01*
X0232300Y0095468D01*
X0232214Y0095358D01*
X0232131Y0095244D01*
X0232052Y0095129D01*
X0231975Y0095011D01*
X0231902Y0094891D01*
X0231833Y0094770D01*
X0231767Y0094646D01*
X0231704Y0094520D01*
X0231645Y0094393D01*
X0231590Y0094264D01*
X0231538Y0094134D01*
X0231490Y0094002D01*
X0231445Y0093869D01*
X0231404Y0093735D01*
X0231367Y0093600D01*
X0231334Y0093464D01*
X0231305Y0093326D01*
X0231280Y0093189D01*
X0231258Y0093050D01*
X0231239Y0092911D01*
X0231226Y0092771D01*
X0231217Y0092630D01*
X0231211Y0092491D01*
X0231209Y0092351D01*
X0231209Y0055106D01*
X0231211Y0054967D01*
X0231217Y0054827D01*
X0231226Y0054687D01*
X0231239Y0054547D01*
X0231258Y0054408D01*
X0231280Y0054269D01*
X0231305Y0054132D01*
X0231334Y0053994D01*
X0231367Y0053857D01*
X0231404Y0053723D01*
X0231445Y0053589D01*
X0231490Y0053456D01*
X0231538Y0053324D01*
X0231590Y0053194D01*
X0231645Y0053064D01*
X0231704Y0052937D01*
X0231767Y0052812D01*
X0231833Y0052688D01*
X0231902Y0052567D01*
X0231975Y0052447D01*
X0232052Y0052329D01*
X0232131Y0052214D01*
X0232214Y0052100D01*
X0232300Y0051990D01*
X0232389Y0051881D01*
X0232480Y0051775D01*
X0232575Y0051671D01*
X0232673Y0051571D01*
X0232774Y0051474D01*
X0232877Y0051379D01*
X0232981Y0051287D01*
X0233092Y0051198D01*
X0233202Y0051112D01*
X0233316Y0051029D01*
X0233431Y0050949D01*
X0233549Y0050873D01*
X0233669Y0050800D01*
X0233790Y0050731D01*
X0233914Y0050665D01*
X0234039Y0050602D01*
X0234167Y0050543D01*
X0234296Y0050488D01*
X0234425Y0050436D01*
X0234558Y0050388D01*
X0234690Y0050343D01*
X0234825Y0050302D01*
X0234960Y0050265D01*
X0235096Y0050232D01*
X0235234Y0050203D01*
X0235371Y0050178D01*
X0235510Y0050156D01*
X0235649Y0050138D01*
X0235788Y0050125D01*
X0235929Y0050115D01*
X0236069Y0050109D01*
X0236208Y0050107D01*
D191*
X0282469Y0058729D03*
X0289949Y0058729D03*
X0289949Y0068729D03*
X0282469Y0068729D03*
X0324969Y0068729D03*
X0332449Y0068729D03*
X0332449Y0058729D03*
X0324969Y0058729D03*
X0324969Y0078729D03*
X0332449Y0078729D03*
X0332449Y0088729D03*
X0324969Y0088729D03*
D192*
X0343708Y0088729D03*
X0353709Y0088729D03*
X0353709Y0078729D03*
X0343708Y0078729D03*
X0343708Y0068729D03*
X0353709Y0068729D03*
X0353709Y0058729D03*
X0343708Y0058729D03*
D193*
X0307009Y0077729D03*
X0307009Y0082729D03*
X0307009Y0087729D03*
X0307009Y0092729D03*
X0280509Y0092729D03*
X0280509Y0087729D03*
X0280509Y0082729D03*
X0280509Y0077729D03*
D194*
X0264083Y0078536D03*
X0248335Y0078536D03*
X0248335Y0085229D03*
X0264083Y0085229D03*
X0264083Y0091922D03*
X0248335Y0091922D03*
X0248335Y0068822D03*
X0264083Y0068822D03*
X0264083Y0062129D03*
X0248335Y0062129D03*
X0248335Y0055436D03*
X0264083Y0055436D03*
G75*
D205*
X0236208Y0105224D02*
X0393335Y0105224D01*
X0393525Y0105227D01*
X0393715Y0105234D01*
X0393905Y0105246D01*
X0394095Y0105261D01*
X0394284Y0105282D01*
X0394473Y0105308D01*
X0394661Y0105336D01*
X0394847Y0105372D01*
X0395034Y0105411D01*
X0395219Y0105454D01*
X0395404Y0105502D01*
X0395587Y0105553D01*
X0395768Y0105610D01*
X0395948Y0105671D01*
X0396127Y0105736D01*
X0396304Y0105806D01*
X0396480Y0105880D01*
X0396653Y0105958D01*
X0396825Y0106041D01*
X0396994Y0106127D01*
X0397162Y0106217D01*
X0397327Y0106312D01*
X0397490Y0106410D01*
X0397650Y0106512D01*
X0397808Y0106619D01*
X0397963Y0106729D01*
X0398115Y0106841D01*
X0398266Y0106960D01*
X0398412Y0107081D01*
X0398556Y0107205D01*
X0398697Y0107332D01*
X0398835Y0107464D01*
X0398970Y0107599D01*
X0399101Y0107737D01*
X0399229Y0107878D01*
X0399353Y0108022D01*
X0399474Y0108168D01*
X0399592Y0108318D01*
X0399705Y0108471D01*
X0399815Y0108626D01*
X0399921Y0108783D01*
X0400024Y0108944D01*
X0400122Y0109107D01*
X0400216Y0109271D01*
X0400307Y0109440D01*
X0400393Y0109609D01*
X0400476Y0109781D01*
X0400554Y0109954D01*
X0400628Y0110130D01*
X0400697Y0110307D01*
X0400763Y0110486D01*
X0400824Y0110666D01*
X0400880Y0110847D01*
X0400932Y0111030D01*
X0400980Y0111215D01*
X0401023Y0111400D01*
X0401062Y0111586D01*
X0401097Y0111772D01*
X0401126Y0111961D01*
X0401152Y0112150D01*
X0401172Y0112339D01*
X0401187Y0112528D01*
X0401199Y0112718D01*
X0401206Y0112908D01*
X0401209Y0113099D01*
X0401209Y0144595D01*
X0401206Y0144785D01*
X0401199Y0144975D01*
X0401187Y0145165D01*
X0401172Y0145355D01*
X0401152Y0145544D01*
X0401126Y0145733D01*
X0401097Y0145921D01*
X0401062Y0146108D01*
X0401023Y0146293D01*
X0400980Y0146479D01*
X0400932Y0146664D01*
X0400880Y0146847D01*
X0400824Y0147028D01*
X0400763Y0147207D01*
X0400697Y0147387D01*
X0400628Y0147564D01*
X0400554Y0147740D01*
X0400476Y0147913D01*
X0400393Y0148084D01*
X0400307Y0148254D01*
X0400216Y0148422D01*
X0400122Y0148587D01*
X0400024Y0148750D01*
X0399921Y0148910D01*
X0399815Y0149067D01*
X0399705Y0149222D01*
X0399592Y0149376D01*
X0399474Y0149526D01*
X0399353Y0149672D01*
X0399229Y0149816D01*
X0399101Y0149957D01*
X0398970Y0150095D01*
X0398835Y0150230D01*
X0398697Y0150361D01*
X0398556Y0150489D01*
X0398412Y0150613D01*
X0398266Y0150734D01*
X0398115Y0150852D01*
X0397963Y0150965D01*
X0397808Y0151075D01*
X0397650Y0151181D01*
X0397490Y0151284D01*
X0397327Y0151382D01*
X0397162Y0151476D01*
X0396994Y0151567D01*
X0396825Y0151653D01*
X0396653Y0151736D01*
X0396480Y0151814D01*
X0396304Y0151888D01*
X0396127Y0151957D01*
X0395948Y0152023D01*
X0395768Y0152084D01*
X0395587Y0152140D01*
X0395404Y0152192D01*
X0395219Y0152240D01*
X0395034Y0152282D01*
X0394847Y0152322D01*
X0394661Y0152357D01*
X0394473Y0152386D01*
X0394284Y0152412D01*
X0394095Y0152432D01*
X0393905Y0152448D01*
X0393715Y0152459D01*
X0393525Y0152467D01*
X0393335Y0152469D01*
X0236208Y0152469D01*
X0236069Y0152467D01*
X0235929Y0152461D01*
X0235788Y0152450D01*
X0235649Y0152438D01*
X0235510Y0152420D01*
X0235371Y0152398D01*
X0235234Y0152373D01*
X0235096Y0152344D01*
X0234960Y0152311D01*
X0234825Y0152273D01*
X0234690Y0152233D01*
X0234558Y0152188D01*
X0234425Y0152140D01*
X0234296Y0152087D01*
X0234167Y0152033D01*
X0234039Y0151974D01*
X0233914Y0151910D01*
X0233790Y0151845D01*
X0233669Y0151776D01*
X0233549Y0151703D01*
X0233431Y0151626D01*
X0233316Y0151547D01*
X0233202Y0151464D01*
X0233092Y0151378D01*
X0232981Y0151289D01*
X0232877Y0151197D01*
X0232774Y0151102D01*
X0232673Y0151005D01*
X0232575Y0150904D01*
X0232480Y0150801D01*
X0232389Y0150695D01*
X0232300Y0150586D01*
X0232214Y0150476D01*
X0232131Y0150362D01*
X0232052Y0150247D01*
X0231975Y0150129D01*
X0231902Y0150009D01*
X0231833Y0149888D01*
X0231767Y0149764D01*
X0231704Y0149638D01*
X0231645Y0149510D01*
X0231590Y0149382D01*
X0231538Y0149252D01*
X0231490Y0149120D01*
X0231445Y0148987D01*
X0231404Y0148853D01*
X0231367Y0148718D01*
X0231334Y0148582D01*
X0231305Y0148444D01*
X0231280Y0148307D01*
X0231258Y0148168D01*
X0231239Y0148029D01*
X0231226Y0147889D01*
X0231217Y0147749D01*
X0231211Y0147608D01*
X0231209Y0147469D01*
X0231209Y0110225D01*
X0231211Y0110085D01*
X0231217Y0109945D01*
X0231226Y0109805D01*
X0231239Y0109664D01*
X0231258Y0109525D01*
X0231280Y0109386D01*
X0231305Y0109250D01*
X0231334Y0109112D01*
X0231367Y0108976D01*
X0231404Y0108841D01*
X0231445Y0108707D01*
X0231490Y0108574D01*
X0231538Y0108442D01*
X0231590Y0108312D01*
X0231645Y0108183D01*
X0231704Y0108056D01*
X0231767Y0107929D01*
X0231833Y0107806D01*
X0231902Y0107685D01*
X0231975Y0107565D01*
X0232052Y0107447D01*
X0232131Y0107332D01*
X0232214Y0107217D01*
X0232300Y0107108D01*
X0232389Y0106999D01*
X0232480Y0106893D01*
X0232575Y0106790D01*
X0232673Y0106688D01*
X0232774Y0106592D01*
X0232877Y0106497D01*
X0232981Y0106405D01*
X0233092Y0106316D01*
X0233202Y0106230D01*
X0233316Y0106146D01*
X0233431Y0106068D01*
X0233549Y0105990D01*
X0233669Y0105918D01*
X0233790Y0105849D01*
X0233914Y0105783D01*
X0234039Y0105719D01*
X0234167Y0105661D01*
X0234296Y0105606D01*
X0234425Y0105553D01*
X0234558Y0105506D01*
X0234690Y0105461D01*
X0234825Y0105420D01*
X0234960Y0105383D01*
X0235096Y0105350D01*
X0235234Y0105321D01*
X0235371Y0105295D01*
X0235510Y0105274D01*
X0235649Y0105256D01*
X0235788Y0105243D01*
X0235929Y0105233D01*
X0236069Y0105227D01*
X0236208Y0105224D01*
D206*
X0282469Y0113847D03*
X0289949Y0113847D03*
X0289949Y0123847D03*
X0282469Y0123847D03*
X0324969Y0123847D03*
X0332449Y0123847D03*
X0332449Y0113847D03*
X0324969Y0113847D03*
X0324969Y0133847D03*
X0332449Y0133847D03*
X0332449Y0143847D03*
X0324969Y0143847D03*
D207*
X0343708Y0143847D03*
X0353709Y0143847D03*
X0353709Y0133847D03*
X0343708Y0133847D03*
X0343708Y0123847D03*
X0353709Y0123847D03*
X0353709Y0113847D03*
X0343708Y0113847D03*
D208*
X0307009Y0132847D03*
X0307009Y0137847D03*
X0307009Y0142847D03*
X0307009Y0147847D03*
X0280509Y0147847D03*
X0280509Y0142847D03*
X0280509Y0137847D03*
X0280509Y0132847D03*
D209*
X0264083Y0133654D03*
X0248335Y0133654D03*
X0248335Y0140347D03*
X0264083Y0140347D03*
X0264083Y0147039D03*
X0248335Y0147039D03*
X0248335Y0123940D03*
X0264083Y0123940D03*
X0264083Y0117246D03*
X0248335Y0117246D03*
X0248335Y0110554D03*
X0264083Y0110554D03*
G04 next file*
G75*
D220*
X0236208Y0223335D02*
X0393335Y0223335D01*
X0393525Y0223337D01*
X0393715Y0223344D01*
X0393905Y0223356D01*
X0394095Y0223372D01*
X0394284Y0223392D01*
X0394473Y0223417D01*
X0394661Y0223447D01*
X0394847Y0223482D01*
X0395034Y0223521D01*
X0395219Y0223564D01*
X0395404Y0223612D01*
X0395587Y0223664D01*
X0395768Y0223720D01*
X0395948Y0223781D01*
X0396127Y0223847D01*
X0396304Y0223916D01*
X0396480Y0223990D01*
X0396653Y0224067D01*
X0396825Y0224151D01*
X0396994Y0224237D01*
X0397162Y0224327D01*
X0397327Y0224422D01*
X0397490Y0224520D01*
X0397650Y0224623D01*
X0397808Y0224729D01*
X0397963Y0224839D01*
X0398115Y0224952D01*
X0398266Y0225070D01*
X0398412Y0225191D01*
X0398556Y0225315D01*
X0398697Y0225443D01*
X0398835Y0225574D01*
X0398970Y0225708D01*
X0399101Y0225847D01*
X0399229Y0225988D01*
X0399353Y0226132D01*
X0399474Y0226277D01*
X0399592Y0226426D01*
X0399705Y0226581D01*
X0399815Y0226736D01*
X0399921Y0226894D01*
X0400024Y0227054D01*
X0400122Y0227217D01*
X0400216Y0227382D01*
X0400307Y0227550D01*
X0400393Y0227719D01*
X0400476Y0227891D01*
X0400554Y0228064D01*
X0400628Y0228240D01*
X0400697Y0228417D01*
X0400763Y0228596D01*
X0400824Y0228776D01*
X0400880Y0228957D01*
X0400932Y0229140D01*
X0400980Y0229325D01*
X0401023Y0229510D01*
X0401062Y0229696D01*
X0401097Y0229883D01*
X0401126Y0230071D01*
X0401152Y0230260D01*
X0401172Y0230449D01*
X0401187Y0230639D01*
X0401199Y0230829D01*
X0401206Y0231019D01*
X0401209Y0231209D01*
X0401209Y0262705D01*
X0401206Y0262895D01*
X0401199Y0263085D01*
X0401187Y0263275D01*
X0401172Y0263465D01*
X0401152Y0263654D01*
X0401126Y0263843D01*
X0401097Y0264031D01*
X0401062Y0264218D01*
X0401023Y0264404D01*
X0400980Y0264589D01*
X0400932Y0264774D01*
X0400880Y0264957D01*
X0400824Y0265138D01*
X0400763Y0265318D01*
X0400697Y0265497D01*
X0400628Y0265674D01*
X0400554Y0265850D01*
X0400476Y0266023D01*
X0400393Y0266195D01*
X0400307Y0266364D01*
X0400216Y0266531D01*
X0400122Y0266697D01*
X0400024Y0266860D01*
X0399921Y0267020D01*
X0399815Y0267178D01*
X0399705Y0267333D01*
X0399592Y0267486D01*
X0399474Y0267636D01*
X0399353Y0267782D01*
X0399229Y0267926D01*
X0399101Y0268067D01*
X0398970Y0268205D01*
X0398835Y0268340D01*
X0398697Y0268471D01*
X0398556Y0268599D01*
X0398412Y0268723D01*
X0398266Y0268844D01*
X0398115Y0268962D01*
X0397963Y0269075D01*
X0397808Y0269185D01*
X0397650Y0269291D01*
X0397490Y0269394D01*
X0397327Y0269492D01*
X0397162Y0269587D01*
X0396994Y0269677D01*
X0396825Y0269763D01*
X0396653Y0269846D01*
X0396480Y0269924D01*
X0396304Y0269998D01*
X0396127Y0270067D01*
X0395948Y0270133D01*
X0395768Y0270193D01*
X0395587Y0270250D01*
X0395404Y0270302D01*
X0395219Y0270350D01*
X0395034Y0270393D01*
X0394847Y0270432D01*
X0394661Y0270467D01*
X0394473Y0270496D01*
X0394284Y0270522D01*
X0394095Y0270542D01*
X0393905Y0270558D01*
X0393715Y0270570D01*
X0393525Y0270577D01*
X0393335Y0270579D01*
X0236208Y0270579D01*
X0236069Y0270577D01*
X0235929Y0270571D01*
X0235788Y0270561D01*
X0235649Y0270547D01*
X0235510Y0270530D01*
X0235371Y0270507D01*
X0235234Y0270483D01*
X0235096Y0270454D01*
X0234960Y0270421D01*
X0234825Y0270384D01*
X0234690Y0270343D01*
X0234558Y0270298D01*
X0234425Y0270250D01*
X0234296Y0270198D01*
X0234167Y0270143D01*
X0234039Y0270084D01*
X0233914Y0270021D01*
X0233790Y0269955D01*
X0233669Y0269886D01*
X0233549Y0269813D01*
X0233431Y0269736D01*
X0233316Y0269657D01*
X0233202Y0269574D01*
X0233092Y0269488D01*
X0232981Y0269399D01*
X0232877Y0269307D01*
X0232774Y0269212D01*
X0232673Y0269115D01*
X0232575Y0269014D01*
X0232480Y0268911D01*
X0232389Y0268805D01*
X0232300Y0268696D01*
X0232214Y0268586D01*
X0232131Y0268472D01*
X0232052Y0268357D01*
X0231975Y0268239D01*
X0231902Y0268119D01*
X0231833Y0267998D01*
X0231767Y0267873D01*
X0231704Y0267748D01*
X0231645Y0267621D01*
X0231590Y0267492D01*
X0231538Y0267362D01*
X0231490Y0267230D01*
X0231445Y0267097D01*
X0231404Y0266963D01*
X0231367Y0266828D01*
X0231334Y0266692D01*
X0231305Y0266553D01*
X0231280Y0266417D01*
X0231258Y0266278D01*
X0231239Y0266139D01*
X0231226Y0265999D01*
X0231217Y0265859D01*
X0231211Y0265719D01*
X0231209Y0265579D01*
X0231209Y0228335D01*
X0231211Y0228195D01*
X0231217Y0228055D01*
X0231226Y0227915D01*
X0231239Y0227775D01*
X0231258Y0227636D01*
X0231280Y0227497D01*
X0231305Y0227360D01*
X0231334Y0227222D01*
X0231367Y0227086D01*
X0231404Y0226951D01*
X0231445Y0226817D01*
X0231490Y0226684D01*
X0231538Y0226552D01*
X0231590Y0226422D01*
X0231645Y0226293D01*
X0231704Y0226166D01*
X0231767Y0226040D01*
X0231833Y0225916D01*
X0231902Y0225795D01*
X0231975Y0225674D01*
X0232052Y0225557D01*
X0232131Y0225442D01*
X0232214Y0225328D01*
X0232300Y0225218D01*
X0232389Y0225109D01*
X0232480Y0225003D01*
X0232575Y0224900D01*
X0232673Y0224799D01*
X0232774Y0224702D01*
X0232877Y0224607D01*
X0232981Y0224515D01*
X0233092Y0224426D01*
X0233202Y0224339D01*
X0233316Y0224257D01*
X0233431Y0224178D01*
X0233549Y0224101D01*
X0233669Y0224027D01*
X0233790Y0223959D01*
X0233914Y0223893D01*
X0234039Y0223830D01*
X0234167Y0223771D01*
X0234296Y0223715D01*
X0234425Y0223664D01*
X0234558Y0223616D01*
X0234690Y0223571D01*
X0234825Y0223530D01*
X0234960Y0223493D01*
X0235096Y0223460D01*
X0235234Y0223430D01*
X0235371Y0223406D01*
X0235510Y0223383D01*
X0235649Y0223366D01*
X0235788Y0223353D01*
X0235929Y0223342D01*
X0236069Y0223337D01*
X0236208Y0223335D01*
D221*
X0282469Y0231957D03*
X0289949Y0231957D03*
X0289949Y0241957D03*
X0282469Y0241957D03*
X0324969Y0241957D03*
X0332449Y0241957D03*
X0332449Y0231957D03*
X0324969Y0231957D03*
X0324969Y0251957D03*
X0332449Y0251957D03*
X0332449Y0261957D03*
X0324969Y0261957D03*
D222*
X0343708Y0261957D03*
X0353709Y0261957D03*
X0353709Y0251957D03*
X0343708Y0251957D03*
X0343708Y0241957D03*
X0353709Y0241957D03*
X0353709Y0231957D03*
X0343708Y0231957D03*
D223*
X0307009Y0250957D03*
X0307009Y0255957D03*
X0307009Y0260957D03*
X0307009Y0265957D03*
X0280509Y0265957D03*
X0280509Y0260957D03*
X0280509Y0255957D03*
X0280509Y0250957D03*
D224*
X0264083Y0251764D03*
X0248335Y0251764D03*
X0248335Y0258457D03*
X0264083Y0258457D03*
X0264083Y0265150D03*
X0248335Y0265150D03*
X0248335Y0242050D03*
X0264083Y0242050D03*
X0264083Y0235357D03*
X0248335Y0235357D03*
X0248335Y0228663D03*
X0264083Y0228663D03*
G75*
D235*
X0236208Y0278453D02*
X0393335Y0278453D01*
X0393525Y0278454D01*
X0393715Y0278462D01*
X0393905Y0278474D01*
X0394095Y0278490D01*
X0394284Y0278510D01*
X0394473Y0278536D01*
X0394661Y0278565D01*
X0394847Y0278600D01*
X0395034Y0278639D01*
X0395219Y0278682D01*
X0395404Y0278730D01*
X0395587Y0278782D01*
X0395768Y0278838D01*
X0395948Y0278899D01*
X0396127Y0278965D01*
X0396304Y0279034D01*
X0396480Y0279107D01*
X0396653Y0279186D01*
X0396825Y0279269D01*
X0396994Y0279355D01*
X0397162Y0279445D01*
X0397327Y0279540D01*
X0397490Y0279638D01*
X0397650Y0279741D01*
X0397808Y0279847D01*
X0397963Y0279957D01*
X0398115Y0280070D01*
X0398266Y0280187D01*
X0398412Y0280309D01*
X0398556Y0280433D01*
X0398697Y0280561D01*
X0398835Y0280692D01*
X0398970Y0280827D01*
X0399101Y0280965D01*
X0399229Y0281106D01*
X0399353Y0281250D01*
X0399474Y0281396D01*
X0399592Y0281546D01*
X0399705Y0281699D01*
X0399815Y0281854D01*
X0399921Y0282012D01*
X0400024Y0282172D01*
X0400122Y0282335D01*
X0400216Y0282500D01*
X0400307Y0282667D01*
X0400393Y0282837D01*
X0400476Y0283009D01*
X0400554Y0283181D01*
X0400628Y0283358D01*
X0400697Y0283535D01*
X0400763Y0283714D01*
X0400824Y0283894D01*
X0400880Y0284075D01*
X0400932Y0284257D01*
X0400980Y0284443D01*
X0401023Y0284628D01*
X0401062Y0284814D01*
X0401097Y0285001D01*
X0401126Y0285189D01*
X0401152Y0285378D01*
X0401172Y0285567D01*
X0401187Y0285756D01*
X0401199Y0285947D01*
X0401206Y0286137D01*
X0401209Y0286327D01*
X0401209Y0317823D01*
X0401206Y0318013D01*
X0401199Y0318203D01*
X0401187Y0318393D01*
X0401172Y0318583D01*
X0401152Y0318772D01*
X0401126Y0318961D01*
X0401097Y0319149D01*
X0401062Y0319336D01*
X0401023Y0319522D01*
X0400980Y0319707D01*
X0400932Y0319892D01*
X0400880Y0320075D01*
X0400824Y0320256D01*
X0400763Y0320436D01*
X0400697Y0320615D01*
X0400628Y0320792D01*
X0400554Y0320968D01*
X0400476Y0321141D01*
X0400393Y0321313D01*
X0400307Y0321482D01*
X0400216Y0321649D01*
X0400122Y0321815D01*
X0400024Y0321978D01*
X0399921Y0322138D01*
X0399815Y0322295D01*
X0399705Y0322451D01*
X0399592Y0322604D01*
X0399474Y0322754D01*
X0399353Y0322900D01*
X0399229Y0323044D01*
X0399101Y0323185D01*
X0398970Y0323323D01*
X0398835Y0323458D01*
X0398697Y0323589D01*
X0398556Y0323717D01*
X0398412Y0323841D01*
X0398266Y0323962D01*
X0398115Y0324080D01*
X0397963Y0324193D01*
X0397808Y0324303D01*
X0397650Y0324409D01*
X0397490Y0324512D01*
X0397327Y0324610D01*
X0397162Y0324705D01*
X0396994Y0324795D01*
X0396825Y0324881D01*
X0396653Y0324964D01*
X0396480Y0325042D01*
X0396304Y0325116D01*
X0396127Y0325185D01*
X0395948Y0325251D01*
X0395768Y0325311D01*
X0395587Y0325368D01*
X0395404Y0325420D01*
X0395219Y0325468D01*
X0395034Y0325511D01*
X0394847Y0325550D01*
X0394661Y0325585D01*
X0394473Y0325614D01*
X0394284Y0325640D01*
X0394095Y0325660D01*
X0393905Y0325676D01*
X0393715Y0325688D01*
X0393525Y0325695D01*
X0393335Y0325697D01*
X0236208Y0325697D01*
X0236069Y0325695D01*
X0235929Y0325689D01*
X0235788Y0325679D01*
X0235649Y0325665D01*
X0235510Y0325648D01*
X0235371Y0325626D01*
X0235234Y0325601D01*
X0235096Y0325572D01*
X0234960Y0325539D01*
X0234825Y0325501D01*
X0234690Y0325461D01*
X0234558Y0325416D01*
X0234425Y0325368D01*
X0234296Y0325316D01*
X0234167Y0325261D01*
X0234039Y0325202D01*
X0233914Y0325139D01*
X0233790Y0325073D01*
X0233669Y0325004D01*
X0233549Y0324931D01*
X0233431Y0324854D01*
X0233316Y0324775D01*
X0233202Y0324692D01*
X0233092Y0324606D01*
X0232981Y0324517D01*
X0232877Y0324425D01*
X0232774Y0324330D01*
X0232673Y0324233D01*
X0232575Y0324132D01*
X0232480Y0324029D01*
X0232389Y0323923D01*
X0232300Y0323814D01*
X0232214Y0323704D01*
X0232131Y0323590D01*
X0232052Y0323475D01*
X0231975Y0323356D01*
X0231902Y0323237D01*
X0231833Y0323116D01*
X0231767Y0322992D01*
X0231704Y0322866D01*
X0231645Y0322739D01*
X0231590Y0322610D01*
X0231538Y0322480D01*
X0231490Y0322348D01*
X0231445Y0322215D01*
X0231404Y0322081D01*
X0231367Y0321946D01*
X0231334Y0321810D01*
X0231305Y0321671D01*
X0231280Y0321535D01*
X0231258Y0321396D01*
X0231239Y0321257D01*
X0231226Y0321117D01*
X0231217Y0320977D01*
X0231211Y0320837D01*
X0231209Y0320697D01*
X0231209Y0283453D01*
X0231211Y0283313D01*
X0231217Y0283173D01*
X0231226Y0283033D01*
X0231239Y0282893D01*
X0231258Y0282754D01*
X0231280Y0282615D01*
X0231305Y0282478D01*
X0231334Y0282340D01*
X0231367Y0282204D01*
X0231404Y0282069D01*
X0231445Y0281935D01*
X0231490Y0281802D01*
X0231538Y0281670D01*
X0231590Y0281540D01*
X0231645Y0281411D01*
X0231704Y0281284D01*
X0231767Y0281158D01*
X0231833Y0281033D01*
X0231902Y0280913D01*
X0231975Y0280793D01*
X0232052Y0280675D01*
X0232131Y0280559D01*
X0232214Y0280446D01*
X0232300Y0280336D01*
X0232389Y0280227D01*
X0232480Y0280121D01*
X0232575Y0280018D01*
X0232673Y0279917D01*
X0232774Y0279820D01*
X0232877Y0279725D01*
X0232981Y0279633D01*
X0233092Y0279544D01*
X0233202Y0279457D01*
X0233316Y0279375D01*
X0233431Y0279296D01*
X0233549Y0279219D01*
X0233669Y0279146D01*
X0233790Y0279077D01*
X0233914Y0279011D01*
X0234039Y0278948D01*
X0234167Y0278888D01*
X0234296Y0278834D01*
X0234425Y0278782D01*
X0234558Y0278734D01*
X0234690Y0278689D01*
X0234825Y0278648D01*
X0234960Y0278611D01*
X0235096Y0278578D01*
X0235234Y0278549D01*
X0235371Y0278524D01*
X0235510Y0278502D01*
X0235649Y0278484D01*
X0235788Y0278471D01*
X0235929Y0278461D01*
X0236069Y0278454D01*
X0236208Y0278453D01*
D236*
X0282469Y0287075D03*
X0289949Y0287075D03*
X0289949Y0297075D03*
X0282469Y0297075D03*
X0324969Y0297075D03*
X0332449Y0297075D03*
X0332449Y0287075D03*
X0324969Y0287075D03*
X0324969Y0307075D03*
X0332449Y0307075D03*
X0332449Y0317075D03*
X0324969Y0317075D03*
D237*
X0343708Y0317075D03*
X0353709Y0317075D03*
X0353709Y0307075D03*
X0343708Y0307075D03*
X0343708Y0297075D03*
X0353709Y0297075D03*
X0353709Y0287075D03*
X0343708Y0287075D03*
D238*
X0307009Y0306075D03*
X0307009Y0311075D03*
X0307009Y0316075D03*
X0307009Y0321075D03*
X0280509Y0321075D03*
X0280509Y0316075D03*
X0280509Y0311075D03*
X0280509Y0306075D03*
D239*
X0264083Y0306882D03*
X0248335Y0306882D03*
X0248335Y0313575D03*
X0264083Y0313575D03*
X0264083Y0320267D03*
X0248335Y0320267D03*
X0248335Y0297168D03*
X0264083Y0297168D03*
X0264083Y0290475D03*
X0248335Y0290475D03*
X0248335Y0283782D03*
X0264083Y0283782D03*
G75*
D250*
X0236208Y0164280D02*
X0393335Y0164280D01*
X0393525Y0164282D01*
X0393715Y0164289D01*
X0393905Y0164301D01*
X0394095Y0164317D01*
X0394284Y0164337D01*
X0394473Y0164363D01*
X0394661Y0164392D01*
X0394847Y0164427D01*
X0395034Y0164466D01*
X0395219Y0164509D01*
X0395404Y0164557D01*
X0395587Y0164609D01*
X0395768Y0164665D01*
X0395948Y0164726D01*
X0396127Y0164792D01*
X0396304Y0164861D01*
X0396480Y0164935D01*
X0396653Y0165013D01*
X0396825Y0165095D01*
X0396994Y0165181D01*
X0397162Y0165272D01*
X0397327Y0165367D01*
X0397490Y0165465D01*
X0397650Y0165568D01*
X0397808Y0165674D01*
X0397963Y0165784D01*
X0398115Y0165897D01*
X0398266Y0166015D01*
X0398412Y0166136D01*
X0398556Y0166260D01*
X0398697Y0166388D01*
X0398835Y0166519D01*
X0398970Y0166654D01*
X0399101Y0166792D01*
X0399229Y0166933D01*
X0399353Y0167077D01*
X0399474Y0167223D01*
X0399592Y0167373D01*
X0399705Y0167526D01*
X0399815Y0167681D01*
X0399921Y0167838D01*
X0400024Y0167999D01*
X0400122Y0168162D01*
X0400216Y0168327D01*
X0400307Y0168495D01*
X0400393Y0168664D01*
X0400476Y0168836D01*
X0400554Y0169009D01*
X0400628Y0169185D01*
X0400697Y0169362D01*
X0400763Y0169541D01*
X0400824Y0169721D01*
X0400880Y0169902D01*
X0400932Y0170085D01*
X0400980Y0170270D01*
X0401023Y0170455D01*
X0401062Y0170641D01*
X0401097Y0170828D01*
X0401126Y0171016D01*
X0401152Y0171205D01*
X0401172Y0171394D01*
X0401187Y0171584D01*
X0401199Y0171774D01*
X0401206Y0171963D01*
X0401209Y0172154D01*
X0401209Y0203650D01*
X0401206Y0203840D01*
X0401199Y0204029D01*
X0401187Y0204219D01*
X0401172Y0204409D01*
X0401152Y0204599D01*
X0401126Y0204788D01*
X0401097Y0204976D01*
X0401062Y0205162D01*
X0401023Y0205349D01*
X0400980Y0205534D01*
X0400932Y0205717D01*
X0400880Y0205900D01*
X0400824Y0206083D01*
X0400763Y0206263D01*
X0400697Y0206442D01*
X0400628Y0206619D01*
X0400554Y0206795D01*
X0400476Y0206968D01*
X0400393Y0207140D01*
X0400307Y0207309D01*
X0400216Y0207477D01*
X0400122Y0207642D01*
X0400024Y0207805D01*
X0399921Y0207965D01*
X0399815Y0208123D01*
X0399705Y0208278D01*
X0399592Y0208431D01*
X0399474Y0208581D01*
X0399353Y0208727D01*
X0399229Y0208869D01*
X0399101Y0209012D01*
X0398970Y0209150D01*
X0398835Y0209285D01*
X0398697Y0209416D01*
X0398556Y0209544D01*
X0398412Y0209668D01*
X0398266Y0209789D01*
X0398115Y0209907D01*
X0397963Y0210020D01*
X0397808Y0210130D01*
X0397650Y0210236D01*
X0397490Y0210339D01*
X0397327Y0210435D01*
X0397162Y0210532D01*
X0396994Y0210622D01*
X0396825Y0210707D01*
X0396653Y0210791D01*
X0396480Y0210869D01*
X0396304Y0210943D01*
X0396127Y0211012D01*
X0395948Y0211078D01*
X0395768Y0211139D01*
X0395587Y0211195D01*
X0395404Y0211247D01*
X0395219Y0211295D01*
X0395034Y0211337D01*
X0394847Y0211377D01*
X0394661Y0211412D01*
X0394473Y0211441D01*
X0394284Y0211466D01*
X0394095Y0211486D01*
X0393905Y0211503D01*
X0393715Y0211515D01*
X0393525Y0211522D01*
X0393335Y0211524D01*
X0236208Y0211524D01*
X0236069Y0211522D01*
X0235929Y0211516D01*
X0235788Y0211506D01*
X0235649Y0211493D01*
X0235510Y0211475D01*
X0235371Y0211452D01*
X0235234Y0211428D01*
X0235096Y0211398D01*
X0234960Y0211366D01*
X0234825Y0211329D01*
X0234690Y0211288D01*
X0234558Y0211242D01*
X0234425Y0211195D01*
X0234296Y0211143D01*
X0234167Y0211088D01*
X0234039Y0211029D01*
X0233914Y0210966D01*
X0233790Y0210900D01*
X0233669Y0210831D01*
X0233549Y0210758D01*
X0233431Y0210679D01*
X0233316Y0210602D01*
X0233202Y0210519D01*
X0233092Y0210433D01*
X0232981Y0210344D01*
X0232877Y0210252D01*
X0232774Y0210157D01*
X0232673Y0210060D01*
X0232575Y0209959D01*
X0232480Y0209856D01*
X0232389Y0209750D01*
X0232300Y0209641D01*
X0232214Y0209531D01*
X0232131Y0209417D01*
X0232052Y0209302D01*
X0231975Y0209184D01*
X0231902Y0209064D01*
X0231833Y0208943D01*
X0231767Y0208819D01*
X0231704Y0208693D01*
X0231645Y0208564D01*
X0231590Y0208436D01*
X0231538Y0208307D01*
X0231490Y0208175D01*
X0231445Y0208042D01*
X0231404Y0207907D01*
X0231367Y0207773D01*
X0231334Y0207636D01*
X0231305Y0207499D01*
X0231280Y0207362D01*
X0231258Y0207222D01*
X0231239Y0207084D01*
X0231226Y0206944D01*
X0231217Y0206804D01*
X0231211Y0206664D01*
X0231209Y0206524D01*
X0231209Y0169280D01*
X0231211Y0169140D01*
X0231217Y0169000D01*
X0231226Y0168860D01*
X0231239Y0168720D01*
X0231258Y0168581D01*
X0231280Y0168442D01*
X0231305Y0168305D01*
X0231334Y0168167D01*
X0231367Y0168031D01*
X0231404Y0167896D01*
X0231445Y0167762D01*
X0231490Y0167629D01*
X0231538Y0167497D01*
X0231590Y0167367D01*
X0231645Y0167238D01*
X0231704Y0167111D01*
X0231767Y0166985D01*
X0231833Y0166861D01*
X0231902Y0166740D01*
X0231975Y0166620D01*
X0232052Y0166501D01*
X0232131Y0166387D01*
X0232214Y0166273D01*
X0232300Y0166163D01*
X0232389Y0166054D01*
X0232480Y0165948D01*
X0232575Y0165845D01*
X0232673Y0165744D01*
X0232774Y0165647D01*
X0232877Y0165552D01*
X0232981Y0165460D01*
X0233092Y0165371D01*
X0233202Y0165285D01*
X0233316Y0165201D01*
X0233431Y0165123D01*
X0233549Y0165046D01*
X0233669Y0164973D01*
X0233790Y0164904D01*
X0233914Y0164838D01*
X0234039Y0164775D01*
X0234167Y0164716D01*
X0234296Y0164661D01*
X0234425Y0164609D01*
X0234558Y0164561D01*
X0234690Y0164516D01*
X0234825Y0164475D01*
X0234960Y0164438D01*
X0235096Y0164404D01*
X0235234Y0164376D01*
X0235371Y0164351D01*
X0235510Y0164329D01*
X0235649Y0164311D01*
X0235788Y0164298D01*
X0235929Y0164287D01*
X0236069Y0164282D01*
X0236208Y0164280D01*
D251*
X0282469Y0172902D03*
X0289949Y0172902D03*
X0289949Y0182902D03*
X0282469Y0182902D03*
X0324969Y0182902D03*
X0332449Y0182902D03*
X0332449Y0172902D03*
X0324969Y0172902D03*
X0324969Y0192902D03*
X0332449Y0192902D03*
X0332449Y0202902D03*
X0324969Y0202902D03*
D252*
X0343708Y0202902D03*
X0353709Y0202902D03*
X0353709Y0192902D03*
X0343708Y0192902D03*
X0343708Y0182902D03*
X0353709Y0182902D03*
X0353709Y0172902D03*
X0343708Y0172902D03*
D253*
X0307009Y0191902D03*
X0307009Y0196902D03*
X0307009Y0201901D03*
X0307009Y0206902D03*
X0280509Y0206902D03*
X0280509Y0201901D03*
X0280509Y0196902D03*
X0280509Y0191902D03*
D254*
X0264083Y0192709D03*
X0248335Y0192709D03*
X0248335Y0199402D03*
X0264083Y0199402D03*
X0264083Y0206095D03*
X0248335Y0206095D03*
X0248335Y0182995D03*
X0264083Y0182995D03*
X0264083Y0176302D03*
X0248335Y0176302D03*
X0248335Y0169609D03*
X0264083Y0169609D03*
G75*
D265*
X0236208Y0554042D02*
X0393335Y0554042D01*
X0393525Y0554046D01*
X0393715Y0554053D01*
X0393905Y0554065D01*
X0394095Y0554081D01*
X0394284Y0554101D01*
X0394473Y0554127D01*
X0394661Y0554156D01*
X0394847Y0554191D01*
X0395034Y0554230D01*
X0395219Y0554273D01*
X0395404Y0554319D01*
X0395587Y0554373D01*
X0395768Y0554429D01*
X0395948Y0554490D01*
X0396127Y0554556D01*
X0396304Y0554625D01*
X0396480Y0554699D01*
X0396653Y0554777D01*
X0396825Y0554860D01*
X0396994Y0554946D01*
X0397162Y0555036D01*
X0397327Y0555131D01*
X0397490Y0555229D01*
X0397650Y0555332D01*
X0397808Y0555438D01*
X0397963Y0555548D01*
X0398115Y0555661D01*
X0398266Y0555778D01*
X0398412Y0555900D01*
X0398556Y0556024D01*
X0398697Y0556152D01*
X0398835Y0556282D01*
X0398970Y0556418D01*
X0399101Y0556556D01*
X0399229Y0556697D01*
X0399353Y0556841D01*
X0399474Y0556987D01*
X0399592Y0557137D01*
X0399705Y0557290D01*
X0399815Y0557445D01*
X0399921Y0557603D01*
X0400024Y0557763D01*
X0400122Y0557926D01*
X0400216Y0558091D01*
X0400307Y0558259D01*
X0400393Y0558428D01*
X0400476Y0558600D01*
X0400554Y0558773D01*
X0400628Y0558949D01*
X0400697Y0559126D01*
X0400763Y0559305D01*
X0400824Y0559485D01*
X0400880Y0559666D01*
X0400932Y0559849D01*
X0400980Y0560034D01*
X0401023Y0560219D01*
X0401062Y0560405D01*
X0401097Y0560592D01*
X0401126Y0560780D01*
X0401152Y0560969D01*
X0401172Y0561158D01*
X0401187Y0561348D01*
X0401199Y0561538D01*
X0401206Y0561728D01*
X0401209Y0561918D01*
X0401209Y0593414D01*
X0401206Y0593604D01*
X0401199Y0593794D01*
X0401187Y0593984D01*
X0401172Y0594174D01*
X0401152Y0594363D01*
X0401126Y0594552D01*
X0401097Y0594739D01*
X0401062Y0594927D01*
X0401023Y0595113D01*
X0400980Y0595298D01*
X0400932Y0595483D01*
X0400880Y0595666D01*
X0400824Y0595847D01*
X0400763Y0596027D01*
X0400697Y0596206D01*
X0400628Y0596383D01*
X0400554Y0596559D01*
X0400476Y0596732D01*
X0400393Y0596904D01*
X0400307Y0597073D01*
X0400216Y0597241D01*
X0400122Y0597406D01*
X0400024Y0597569D01*
X0399921Y0597729D01*
X0399815Y0597887D01*
X0399705Y0598042D01*
X0399592Y0598195D01*
X0399474Y0598345D01*
X0399353Y0598491D01*
X0399229Y0598634D01*
X0399101Y0598776D01*
X0398970Y0598914D01*
X0398835Y0599049D01*
X0398697Y0599180D01*
X0398556Y0599308D01*
X0398412Y0599432D01*
X0398266Y0599553D01*
X0398115Y0599671D01*
X0397963Y0599784D01*
X0397808Y0599894D01*
X0397650Y0599999D01*
X0397490Y0600103D01*
X0397327Y0600201D01*
X0397162Y0600296D01*
X0396994Y0600386D01*
X0396825Y0600472D01*
X0396653Y0600555D01*
X0396480Y0600633D01*
X0396304Y0600706D01*
X0396127Y0600776D01*
X0395948Y0600842D01*
X0395768Y0600903D01*
X0395587Y0600959D01*
X0395404Y0601011D01*
X0395219Y0601059D01*
X0395034Y0601102D01*
X0394847Y0601141D01*
X0394661Y0601176D01*
X0394473Y0601205D01*
X0394284Y0601231D01*
X0394095Y0601251D01*
X0393905Y0601267D01*
X0393715Y0601279D01*
X0393525Y0601286D01*
X0393335Y0601288D01*
X0236208Y0601288D01*
X0236069Y0601286D01*
X0235929Y0601280D01*
X0235788Y0601270D01*
X0235649Y0601257D01*
X0235510Y0601239D01*
X0235371Y0601217D01*
X0235234Y0601192D01*
X0235096Y0601163D01*
X0234960Y0601130D01*
X0234825Y0601093D01*
X0234690Y0601052D01*
X0234558Y0601007D01*
X0234425Y0600959D01*
X0234296Y0600907D01*
X0234167Y0600852D01*
X0234039Y0600793D01*
X0233914Y0600730D01*
X0233790Y0600664D01*
X0233669Y0600595D01*
X0233549Y0600522D01*
X0233431Y0600443D01*
X0233316Y0600366D01*
X0233202Y0600283D01*
X0233092Y0600196D01*
X0232981Y0600108D01*
X0232877Y0600016D01*
X0232774Y0599921D01*
X0232673Y0599824D01*
X0232575Y0599723D01*
X0232480Y0599619D01*
X0232389Y0599514D01*
X0232300Y0599405D01*
X0232214Y0599295D01*
X0232131Y0599181D01*
X0232052Y0599064D01*
X0231975Y0598948D01*
X0231902Y0598828D01*
X0231833Y0598707D01*
X0231767Y0598583D01*
X0231704Y0598457D01*
X0231645Y0598330D01*
X0231590Y0598201D01*
X0231538Y0598071D01*
X0231490Y0597939D01*
X0231445Y0597806D01*
X0231404Y0597672D01*
X0231367Y0597537D01*
X0231334Y0597401D01*
X0231305Y0597263D01*
X0231280Y0597126D01*
X0231258Y0596986D01*
X0231239Y0596848D01*
X0231226Y0596708D01*
X0231217Y0596568D01*
X0231211Y0596428D01*
X0231209Y0596288D01*
X0231209Y0559044D01*
X0231211Y0558904D01*
X0231217Y0558764D01*
X0231226Y0558624D01*
X0231239Y0558484D01*
X0231258Y0558345D01*
X0231280Y0558206D01*
X0231305Y0558069D01*
X0231334Y0557931D01*
X0231367Y0557795D01*
X0231404Y0557660D01*
X0231445Y0557526D01*
X0231490Y0557393D01*
X0231538Y0557261D01*
X0231590Y0557131D01*
X0231645Y0557002D01*
X0231704Y0556875D01*
X0231767Y0556749D01*
X0231833Y0556625D01*
X0231902Y0556504D01*
X0231975Y0556384D01*
X0232052Y0556266D01*
X0232131Y0556151D01*
X0232214Y0556037D01*
X0232300Y0555927D01*
X0232389Y0555818D01*
X0232480Y0555712D01*
X0232575Y0555609D01*
X0232673Y0555508D01*
X0232774Y0555411D01*
X0232877Y0555316D01*
X0232981Y0555224D01*
X0233092Y0555135D01*
X0233202Y0555049D01*
X0233316Y0554966D01*
X0233431Y0554887D01*
X0233549Y0554810D01*
X0233669Y0554737D01*
X0233790Y0554668D01*
X0233914Y0554602D01*
X0234039Y0554539D01*
X0234167Y0554480D01*
X0234296Y0554425D01*
X0234425Y0554373D01*
X0234558Y0554325D01*
X0234690Y0554280D01*
X0234825Y0554239D01*
X0234960Y0554202D01*
X0235096Y0554169D01*
X0235234Y0554140D01*
X0235371Y0554115D01*
X0235510Y0554093D01*
X0235649Y0554075D01*
X0235788Y0554062D01*
X0235929Y0554052D01*
X0236069Y0554046D01*
X0236208Y0554042D01*
D266*
X0282469Y0562664D03*
X0289949Y0562664D03*
X0289949Y0572666D03*
X0282469Y0572666D03*
X0324969Y0572666D03*
X0332449Y0572666D03*
X0332449Y0562664D03*
X0324969Y0562664D03*
X0324969Y0582666D03*
X0332449Y0582666D03*
X0332449Y0592666D03*
X0324969Y0592666D03*
D267*
X0343708Y0592666D03*
X0353709Y0592666D03*
X0353709Y0582666D03*
X0343708Y0582666D03*
X0343708Y0572666D03*
X0353709Y0572666D03*
X0353709Y0562664D03*
X0343708Y0562664D03*
D268*
X0307009Y0581666D03*
X0307009Y0586666D03*
X0307009Y0591666D03*
X0307009Y0596664D03*
X0280509Y0596664D03*
X0280509Y0591666D03*
X0280509Y0586666D03*
X0280509Y0581666D03*
D269*
X0264083Y0582473D03*
X0248335Y0582473D03*
X0248335Y0589166D03*
X0264083Y0589166D03*
X0264083Y0595859D03*
X0248335Y0595859D03*
X0248335Y0572759D03*
X0264083Y0572759D03*
X0264083Y0566066D03*
X0248335Y0566066D03*
X0248335Y0559373D03*
X0264083Y0559373D03*
G75*
D280*
X0236208Y0498925D02*
X0393335Y0498925D01*
X0393525Y0498927D01*
X0393715Y0498934D01*
X0393905Y0498946D01*
X0394095Y0498962D01*
X0394284Y0498982D01*
X0394473Y0499008D01*
X0394661Y0499037D01*
X0394847Y0499071D01*
X0395034Y0499111D01*
X0395219Y0499153D01*
X0395404Y0499202D01*
X0395587Y0499254D01*
X0395768Y0499310D01*
X0395948Y0499371D01*
X0396127Y0499437D01*
X0396304Y0499505D01*
X0396480Y0499580D01*
X0396653Y0499658D01*
X0396825Y0499741D01*
X0396994Y0499827D01*
X0397162Y0499917D01*
X0397327Y0500012D01*
X0397490Y0500110D01*
X0397650Y0500213D01*
X0397808Y0500319D01*
X0397963Y0500429D01*
X0398115Y0500542D01*
X0398266Y0500660D01*
X0398412Y0500781D01*
X0398556Y0500905D01*
X0398697Y0501033D01*
X0398835Y0501164D01*
X0398970Y0501299D01*
X0399101Y0501437D01*
X0399229Y0501578D01*
X0399353Y0501722D01*
X0399474Y0501868D01*
X0399592Y0502018D01*
X0399705Y0502170D01*
X0399815Y0502325D01*
X0399921Y0502484D01*
X0400024Y0502644D01*
X0400122Y0502806D01*
X0400216Y0502972D01*
X0400307Y0503139D01*
X0400393Y0503308D01*
X0400476Y0503481D01*
X0400554Y0503653D01*
X0400628Y0503829D01*
X0400697Y0504007D01*
X0400763Y0504186D01*
X0400824Y0504366D01*
X0400880Y0504547D01*
X0400932Y0504730D01*
X0400980Y0504915D01*
X0401023Y0505100D01*
X0401062Y0505285D01*
X0401097Y0505473D01*
X0401126Y0505661D01*
X0401152Y0505850D01*
X0401172Y0506039D01*
X0401187Y0506229D01*
X0401199Y0506419D01*
X0401206Y0506609D01*
X0401209Y0506799D01*
X0401209Y0538293D01*
X0401206Y0538485D01*
X0401199Y0538675D01*
X0401187Y0538865D01*
X0401172Y0539055D01*
X0401152Y0539244D01*
X0401126Y0539433D01*
X0401097Y0539621D01*
X0401062Y0539808D01*
X0401023Y0539993D01*
X0400980Y0540179D01*
X0400932Y0540364D01*
X0400880Y0540547D01*
X0400824Y0540728D01*
X0400763Y0540908D01*
X0400697Y0541087D01*
X0400628Y0541264D01*
X0400554Y0541440D01*
X0400476Y0541612D01*
X0400393Y0541785D01*
X0400307Y0541954D01*
X0400216Y0542122D01*
X0400122Y0542287D01*
X0400024Y0542450D01*
X0399921Y0542610D01*
X0399815Y0542768D01*
X0399705Y0542923D01*
X0399592Y0543076D01*
X0399474Y0543226D01*
X0399353Y0543370D01*
X0399229Y0543516D01*
X0399101Y0543657D01*
X0398970Y0543795D01*
X0398835Y0543930D01*
X0398697Y0544061D01*
X0398556Y0544189D01*
X0398412Y0544313D01*
X0398266Y0544434D01*
X0398115Y0544552D01*
X0397963Y0544665D01*
X0397808Y0544775D01*
X0397650Y0544881D01*
X0397490Y0544983D01*
X0397327Y0545082D01*
X0397162Y0545177D01*
X0396994Y0545267D01*
X0396825Y0545353D01*
X0396653Y0545436D01*
X0396480Y0545514D01*
X0396304Y0545588D01*
X0396127Y0545657D01*
X0395948Y0545723D01*
X0395768Y0545784D01*
X0395587Y0545840D01*
X0395404Y0545892D01*
X0395219Y0545940D01*
X0395034Y0545982D01*
X0394847Y0546022D01*
X0394661Y0546057D01*
X0394473Y0546086D01*
X0394284Y0546112D01*
X0394095Y0546132D01*
X0393905Y0546148D01*
X0393715Y0546160D01*
X0393525Y0546167D01*
X0393335Y0546169D01*
X0236208Y0546169D01*
X0236069Y0546167D01*
X0235929Y0546161D01*
X0235788Y0546151D01*
X0235649Y0546138D01*
X0235510Y0546120D01*
X0235371Y0546098D01*
X0235234Y0546073D01*
X0235096Y0546044D01*
X0234960Y0546011D01*
X0234825Y0545974D01*
X0234690Y0545933D01*
X0234558Y0545887D01*
X0234425Y0545840D01*
X0234296Y0545788D01*
X0234167Y0545733D01*
X0234039Y0545674D01*
X0233914Y0545610D01*
X0233790Y0545544D01*
X0233669Y0545476D01*
X0233549Y0545403D01*
X0233431Y0545326D01*
X0233316Y0545247D01*
X0233202Y0545164D01*
X0233092Y0545078D01*
X0232981Y0544989D01*
X0232877Y0544897D01*
X0232774Y0544802D01*
X0232673Y0544705D01*
X0232575Y0544603D01*
X0232480Y0544501D01*
X0232389Y0544395D01*
X0232300Y0544286D01*
X0232214Y0544176D01*
X0232131Y0544062D01*
X0232052Y0543947D01*
X0231975Y0543829D01*
X0231902Y0543709D01*
X0231833Y0543588D01*
X0231767Y0543464D01*
X0231704Y0543338D01*
X0231645Y0543210D01*
X0231590Y0543082D01*
X0231538Y0542952D01*
X0231490Y0542820D01*
X0231445Y0542687D01*
X0231404Y0542553D01*
X0231367Y0542418D01*
X0231334Y0542282D01*
X0231305Y0542144D01*
X0231280Y0542006D01*
X0231258Y0541868D01*
X0231239Y0541729D01*
X0231226Y0541589D01*
X0231217Y0541449D01*
X0231211Y0541309D01*
X0231209Y0541167D01*
X0231209Y0503925D01*
X0231211Y0503785D01*
X0231217Y0503645D01*
X0231226Y0503505D01*
X0231239Y0503365D01*
X0231258Y0503226D01*
X0231280Y0503087D01*
X0231305Y0502949D01*
X0231334Y0502812D01*
X0231367Y0502676D01*
X0231404Y0502541D01*
X0231445Y0502407D01*
X0231490Y0502274D01*
X0231538Y0502142D01*
X0231590Y0502012D01*
X0231645Y0501883D01*
X0231704Y0501755D01*
X0231767Y0501630D01*
X0231833Y0501506D01*
X0231902Y0501384D01*
X0231975Y0501265D01*
X0232052Y0501147D01*
X0232131Y0501032D01*
X0232214Y0500918D01*
X0232300Y0500807D01*
X0232389Y0500699D01*
X0232480Y0500593D01*
X0232575Y0500490D01*
X0232673Y0500389D01*
X0232774Y0500291D01*
X0232877Y0500197D01*
X0232981Y0500105D01*
X0233092Y0500016D01*
X0233202Y0499930D01*
X0233316Y0499847D01*
X0233431Y0499768D01*
X0233549Y0499691D01*
X0233669Y0499618D01*
X0233790Y0499549D01*
X0233914Y0499483D01*
X0234039Y0499420D01*
X0234167Y0499361D01*
X0234296Y0499306D01*
X0234425Y0499254D01*
X0234558Y0499206D01*
X0234690Y0499160D01*
X0234825Y0499120D01*
X0234960Y0499083D01*
X0235096Y0499050D01*
X0235234Y0499021D01*
X0235371Y0498996D01*
X0235510Y0498974D01*
X0235649Y0498956D01*
X0235788Y0498942D01*
X0235929Y0498933D01*
X0236069Y0498927D01*
X0236208Y0498925D01*
D281*
X0282469Y0507547D03*
X0289949Y0507547D03*
X0289949Y0517547D03*
X0282469Y0517547D03*
X0324969Y0517547D03*
X0332449Y0517547D03*
X0332449Y0507547D03*
X0324969Y0507547D03*
X0324969Y0527547D03*
X0332449Y0527547D03*
X0332449Y0537547D03*
X0324969Y0537547D03*
D282*
X0343708Y0537547D03*
X0353709Y0537547D03*
X0353709Y0527547D03*
X0343708Y0527547D03*
X0343708Y0517547D03*
X0353709Y0517547D03*
X0353709Y0507547D03*
X0343708Y0507547D03*
D283*
X0307009Y0526547D03*
X0307009Y0531547D03*
X0307009Y0536547D03*
X0307009Y0541547D03*
X0280509Y0541547D03*
X0280509Y0536547D03*
X0280509Y0531547D03*
X0280509Y0526547D03*
D284*
X0264083Y0527354D03*
X0248335Y0527354D03*
X0248335Y0534047D03*
X0264083Y0534047D03*
X0264083Y0540740D03*
X0248335Y0540740D03*
X0248335Y0517640D03*
X0264083Y0517640D03*
X0264083Y0510946D03*
X0248335Y0510946D03*
X0248335Y0504254D03*
X0264083Y0504254D03*
G75*
D295*
X0236208Y0333571D02*
X0393335Y0333571D01*
X0393525Y0333572D01*
X0393715Y0333580D01*
X0393905Y0333592D01*
X0394095Y0333608D01*
X0394284Y0333627D01*
X0394473Y0333654D01*
X0394661Y0333683D01*
X0394847Y0333718D01*
X0395034Y0333757D01*
X0395219Y0333800D01*
X0395404Y0333848D01*
X0395587Y0333900D01*
X0395768Y0333956D01*
X0395948Y0334017D01*
X0396127Y0334083D01*
X0396304Y0334152D01*
X0396480Y0334225D01*
X0396653Y0334304D01*
X0396825Y0334387D01*
X0396994Y0334473D01*
X0397162Y0334563D01*
X0397327Y0334658D01*
X0397490Y0334756D01*
X0397650Y0334859D01*
X0397808Y0334965D01*
X0397963Y0335075D01*
X0398115Y0335188D01*
X0398266Y0335305D01*
X0398412Y0335427D01*
X0398556Y0335551D01*
X0398697Y0335679D01*
X0398835Y0335810D01*
X0398970Y0335945D01*
X0399101Y0336083D01*
X0399229Y0336224D01*
X0399353Y0336368D01*
X0399474Y0336514D01*
X0399592Y0336664D01*
X0399705Y0336817D01*
X0399815Y0336972D01*
X0399921Y0337130D01*
X0400024Y0337289D01*
X0400122Y0337453D01*
X0400216Y0337618D01*
X0400307Y0337785D01*
X0400393Y0337955D01*
X0400476Y0338127D01*
X0400554Y0338299D01*
X0400628Y0338476D01*
X0400697Y0338653D01*
X0400763Y0338832D01*
X0400824Y0339012D01*
X0400880Y0339193D01*
X0400932Y0339375D01*
X0400980Y0339561D01*
X0401023Y0339746D01*
X0401062Y0339932D01*
X0401097Y0340119D01*
X0401126Y0340307D01*
X0401152Y0340495D01*
X0401172Y0340685D01*
X0401187Y0340874D01*
X0401199Y0341065D01*
X0401206Y0341255D01*
X0401209Y0341445D01*
X0401209Y0372941D01*
X0401206Y0373131D01*
X0401199Y0373321D01*
X0401187Y0373511D01*
X0401172Y0373701D01*
X0401152Y0373890D01*
X0401126Y0374079D01*
X0401097Y0374267D01*
X0401062Y0374454D01*
X0401023Y0374640D01*
X0400980Y0374825D01*
X0400932Y0375010D01*
X0400880Y0375193D01*
X0400824Y0375374D01*
X0400763Y0375554D01*
X0400697Y0375733D01*
X0400628Y0375910D01*
X0400554Y0376086D01*
X0400476Y0376259D01*
X0400393Y0376431D01*
X0400307Y0376600D01*
X0400216Y0376767D01*
X0400122Y0376933D01*
X0400024Y0377096D01*
X0399921Y0377256D01*
X0399815Y0377413D01*
X0399705Y0377569D01*
X0399592Y0377722D01*
X0399474Y0377872D01*
X0399353Y0378018D01*
X0399229Y0378162D01*
X0399101Y0378303D01*
X0398970Y0378441D01*
X0398835Y0378576D01*
X0398697Y0378707D01*
X0398556Y0378835D01*
X0398412Y0378959D01*
X0398266Y0379080D01*
X0398115Y0379198D01*
X0397963Y0379311D01*
X0397808Y0379421D01*
X0397650Y0379527D01*
X0397490Y0379630D01*
X0397327Y0379728D01*
X0397162Y0379823D01*
X0396994Y0379913D01*
X0396825Y0379999D01*
X0396653Y0380082D01*
X0396480Y0380160D01*
X0396304Y0380234D01*
X0396127Y0380303D01*
X0395948Y0380369D01*
X0395768Y0380430D01*
X0395587Y0380486D01*
X0395404Y0380538D01*
X0395219Y0380586D01*
X0395034Y0380629D01*
X0394847Y0380668D01*
X0394661Y0380703D01*
X0394473Y0380732D01*
X0394284Y0380758D01*
X0394095Y0380778D01*
X0393905Y0380794D01*
X0393715Y0380806D01*
X0393525Y0380813D01*
X0393335Y0380815D01*
X0236208Y0380815D01*
X0236069Y0380813D01*
X0235929Y0380807D01*
X0235788Y0380797D01*
X0235649Y0380783D01*
X0235510Y0380766D01*
X0235371Y0380744D01*
X0235234Y0380719D01*
X0235096Y0380690D01*
X0234960Y0380657D01*
X0234825Y0380619D01*
X0234690Y0380579D01*
X0234558Y0380534D01*
X0234425Y0380486D01*
X0234296Y0380434D01*
X0234167Y0380379D01*
X0234039Y0380320D01*
X0233914Y0380257D01*
X0233790Y0380191D01*
X0233669Y0380122D01*
X0233549Y0380049D01*
X0233431Y0379972D01*
X0233316Y0379893D01*
X0233202Y0379809D01*
X0233092Y0379724D01*
X0232981Y0379634D01*
X0232877Y0379543D01*
X0232774Y0379448D01*
X0232673Y0379351D01*
X0232575Y0379250D01*
X0232480Y0379147D01*
X0232389Y0379041D01*
X0232300Y0378932D01*
X0232214Y0378822D01*
X0232131Y0378708D01*
X0232052Y0378593D01*
X0231975Y0378474D01*
X0231902Y0378354D01*
X0231833Y0378234D01*
X0231767Y0378110D01*
X0231704Y0377984D01*
X0231645Y0377857D01*
X0231590Y0377728D01*
X0231538Y0377598D01*
X0231490Y0377466D01*
X0231445Y0377333D01*
X0231404Y0377199D01*
X0231367Y0377064D01*
X0231334Y0376928D01*
X0231305Y0376790D01*
X0231280Y0376653D01*
X0231258Y0376514D01*
X0231239Y0376375D01*
X0231226Y0376235D01*
X0231217Y0376095D01*
X0231211Y0375954D01*
X0231209Y0375815D01*
X0231209Y0338571D01*
X0231211Y0338431D01*
X0231217Y0338291D01*
X0231226Y0338151D01*
X0231239Y0338011D01*
X0231258Y0337872D01*
X0231280Y0337733D01*
X0231305Y0337596D01*
X0231334Y0337458D01*
X0231367Y0337322D01*
X0231404Y0337187D01*
X0231445Y0337052D01*
X0231490Y0336920D01*
X0231538Y0336788D01*
X0231590Y0336658D01*
X0231645Y0336529D01*
X0231704Y0336402D01*
X0231767Y0336276D01*
X0231833Y0336151D01*
X0231902Y0336031D01*
X0231975Y0335910D01*
X0232052Y0335793D01*
X0232131Y0335677D01*
X0232214Y0335564D01*
X0232300Y0335454D01*
X0232389Y0335345D01*
X0232480Y0335239D01*
X0232575Y0335136D01*
X0232673Y0335035D01*
X0232774Y0334938D01*
X0232877Y0334843D01*
X0232981Y0334751D01*
X0233092Y0334662D01*
X0233202Y0334575D01*
X0233316Y0334493D01*
X0233431Y0334414D01*
X0233549Y0334337D01*
X0233669Y0334264D01*
X0233790Y0334195D01*
X0233914Y0334129D01*
X0234039Y0334066D01*
X0234167Y0334006D01*
X0234296Y0333952D01*
X0234425Y0333900D01*
X0234558Y0333852D01*
X0234690Y0333806D01*
X0234825Y0333766D01*
X0234960Y0333729D01*
X0235096Y0333696D01*
X0235234Y0333667D01*
X0235371Y0333642D01*
X0235510Y0333620D01*
X0235649Y0333602D01*
X0235788Y0333589D01*
X0235929Y0333579D01*
X0236069Y0333572D01*
X0236208Y0333571D01*
D296*
X0282469Y0342193D03*
X0289949Y0342193D03*
X0289949Y0352193D03*
X0282469Y0352193D03*
X0324969Y0352193D03*
X0332449Y0352193D03*
X0332449Y0342193D03*
X0324969Y0342193D03*
X0324969Y0362193D03*
X0332449Y0362193D03*
X0332449Y0372193D03*
X0324969Y0372193D03*
D297*
X0343708Y0372193D03*
X0353709Y0372193D03*
X0353709Y0362193D03*
X0343708Y0362193D03*
X0343708Y0352193D03*
X0353709Y0352193D03*
X0353709Y0342193D03*
X0343708Y0342193D03*
D298*
X0307009Y0361193D03*
X0307009Y0366193D03*
X0307009Y0371193D03*
X0307009Y0376193D03*
X0280509Y0376193D03*
X0280509Y0371193D03*
X0280509Y0366193D03*
X0280509Y0361193D03*
D299*
X0264083Y0362000D03*
X0248335Y0362000D03*
X0248335Y0368692D03*
X0264083Y0368692D03*
X0264083Y0375385D03*
X0248335Y0375385D03*
X0248335Y0352286D03*
X0264083Y0352286D03*
X0264083Y0345593D03*
X0248335Y0345593D03*
X0248335Y0338900D03*
X0264083Y0338900D03*
G75*
D310*
X0236208Y0443807D02*
X0393335Y0443807D01*
X0393525Y0443809D01*
X0393715Y0443816D01*
X0393905Y0443828D01*
X0394095Y0443844D01*
X0394284Y0443864D01*
X0394473Y0443890D01*
X0394661Y0443919D01*
X0394847Y0443954D01*
X0395034Y0443993D01*
X0395219Y0444036D01*
X0395404Y0444083D01*
X0395587Y0444136D01*
X0395768Y0444191D01*
X0395948Y0444252D01*
X0396127Y0444319D01*
X0396304Y0444388D01*
X0396480Y0444461D01*
X0396653Y0444540D01*
X0396825Y0444623D01*
X0396994Y0444709D01*
X0397162Y0444799D01*
X0397327Y0444894D01*
X0397490Y0444991D01*
X0397650Y0445095D01*
X0397808Y0445200D01*
X0397963Y0445310D01*
X0398115Y0445424D01*
X0398266Y0445542D01*
X0398412Y0445662D01*
X0398556Y0445787D01*
X0398697Y0445915D01*
X0398835Y0446046D01*
X0398970Y0446181D01*
X0399101Y0446319D01*
X0399229Y0446460D01*
X0399353Y0446603D01*
X0399474Y0446750D01*
X0399592Y0446900D01*
X0399705Y0447053D01*
X0399815Y0447208D01*
X0399921Y0447366D01*
X0400024Y0447525D01*
X0400122Y0447689D01*
X0400216Y0447854D01*
X0400307Y0448022D01*
X0400393Y0448191D01*
X0400476Y0448363D01*
X0400554Y0448536D01*
X0400628Y0448712D01*
X0400697Y0448888D01*
X0400763Y0449068D01*
X0400824Y0449247D01*
X0400880Y0449429D01*
X0400932Y0449612D01*
X0400980Y0449796D01*
X0401023Y0449982D01*
X0401062Y0450168D01*
X0401097Y0450355D01*
X0401126Y0450542D01*
X0401152Y0450732D01*
X0401172Y0450921D01*
X0401187Y0451111D01*
X0401199Y0451301D01*
X0401206Y0451491D01*
X0401209Y0451681D01*
X0401209Y0483176D01*
X0401206Y0483366D01*
X0401199Y0483556D01*
X0401187Y0483747D01*
X0401172Y0483937D01*
X0401152Y0484126D01*
X0401126Y0484314D01*
X0401097Y0484503D01*
X0401062Y0484690D01*
X0401023Y0484876D01*
X0400980Y0485060D01*
X0400932Y0485246D01*
X0400880Y0485429D01*
X0400824Y0485609D01*
X0400763Y0485790D01*
X0400697Y0485968D01*
X0400628Y0486146D01*
X0400554Y0486322D01*
X0400476Y0486495D01*
X0400393Y0486667D01*
X0400307Y0486836D01*
X0400216Y0487004D01*
X0400122Y0487169D01*
X0400024Y0487331D01*
X0399921Y0487492D01*
X0399815Y0487650D01*
X0399705Y0487805D01*
X0399592Y0487958D01*
X0399474Y0488108D01*
X0399353Y0488253D01*
X0399229Y0488398D01*
X0399101Y0488539D01*
X0398970Y0488677D01*
X0398835Y0488812D01*
X0398697Y0488943D01*
X0398556Y0489071D01*
X0398412Y0489194D01*
X0398266Y0489316D01*
X0398115Y0489433D01*
X0397963Y0489547D01*
X0397808Y0489656D01*
X0397650Y0489763D01*
X0397490Y0489865D01*
X0397327Y0489964D01*
X0397162Y0490059D01*
X0396994Y0490149D01*
X0396825Y0490235D01*
X0396653Y0490318D01*
X0396480Y0490395D01*
X0396304Y0490470D01*
X0396127Y0490538D01*
X0395948Y0490604D01*
X0395768Y0490665D01*
X0395587Y0490721D01*
X0395404Y0490774D01*
X0395219Y0490822D01*
X0395034Y0490865D01*
X0394847Y0490904D01*
X0394661Y0490939D01*
X0394473Y0490968D01*
X0394284Y0490994D01*
X0394095Y0491014D01*
X0393905Y0491030D01*
X0393715Y0491042D01*
X0393525Y0491049D01*
X0393335Y0491051D01*
X0236208Y0491051D01*
X0236069Y0491049D01*
X0235929Y0491043D01*
X0235788Y0491033D01*
X0235649Y0491019D01*
X0235510Y0491002D01*
X0235371Y0490980D01*
X0235234Y0490955D01*
X0235096Y0490926D01*
X0234960Y0490893D01*
X0234825Y0490855D01*
X0234690Y0490815D01*
X0234558Y0490770D01*
X0234425Y0490721D01*
X0234296Y0490670D01*
X0234167Y0490615D01*
X0234039Y0490556D01*
X0233914Y0490493D01*
X0233790Y0490427D01*
X0233669Y0490358D01*
X0233549Y0490285D01*
X0233431Y0490208D01*
X0233316Y0490129D01*
X0233202Y0490046D01*
X0233092Y0489960D01*
X0232981Y0489871D01*
X0232877Y0489778D01*
X0232774Y0489684D01*
X0232673Y0489587D01*
X0232575Y0489486D01*
X0232480Y0489383D01*
X0232389Y0489276D01*
X0232300Y0489168D01*
X0232214Y0489058D01*
X0232131Y0488943D01*
X0232052Y0488828D01*
X0231975Y0488711D01*
X0231902Y0488591D01*
X0231833Y0488469D01*
X0231767Y0488346D01*
X0231704Y0488220D01*
X0231645Y0488093D01*
X0231590Y0487964D01*
X0231538Y0487833D01*
X0231490Y0487702D01*
X0231445Y0487568D01*
X0231404Y0487435D01*
X0231367Y0487300D01*
X0231334Y0487164D01*
X0231305Y0487026D01*
X0231280Y0486889D01*
X0231258Y0486750D01*
X0231239Y0486611D01*
X0231226Y0486470D01*
X0231217Y0486331D01*
X0231211Y0486191D01*
X0231209Y0486050D01*
X0231209Y0448806D01*
X0231211Y0448667D01*
X0231217Y0448527D01*
X0231226Y0448386D01*
X0231239Y0448247D01*
X0231258Y0448108D01*
X0231280Y0447969D01*
X0231305Y0447832D01*
X0231334Y0447694D01*
X0231367Y0447558D01*
X0231404Y0447423D01*
X0231445Y0447288D01*
X0231490Y0447156D01*
X0231538Y0447024D01*
X0231590Y0446894D01*
X0231645Y0446765D01*
X0231704Y0446638D01*
X0231767Y0446512D01*
X0231833Y0446387D01*
X0231902Y0446267D01*
X0231975Y0446147D01*
X0232052Y0446028D01*
X0232131Y0445913D01*
X0232214Y0445800D01*
X0232300Y0445690D01*
X0232389Y0445580D01*
X0232480Y0445475D01*
X0232575Y0445371D01*
X0232673Y0445271D01*
X0232774Y0445174D01*
X0232877Y0445078D01*
X0232981Y0444987D01*
X0233092Y0444898D01*
X0233202Y0444812D01*
X0233316Y0444729D01*
X0233431Y0444650D01*
X0233549Y0444573D01*
X0233669Y0444500D01*
X0233790Y0444431D01*
X0233914Y0444365D01*
X0234039Y0444302D01*
X0234167Y0444243D01*
X0234296Y0444188D01*
X0234425Y0444136D01*
X0234558Y0444088D01*
X0234690Y0444043D01*
X0234825Y0444001D01*
X0234960Y0443965D01*
X0235096Y0443932D01*
X0235234Y0443903D01*
X0235371Y0443878D01*
X0235510Y0443856D01*
X0235649Y0443838D01*
X0235788Y0443825D01*
X0235929Y0443815D01*
X0236069Y0443809D01*
X0236208Y0443807D01*
D311*
X0282469Y0452428D03*
X0289949Y0452428D03*
X0289949Y0462429D03*
X0282469Y0462429D03*
X0324969Y0462429D03*
X0332449Y0462429D03*
X0332449Y0452428D03*
X0324969Y0452428D03*
X0324969Y0472429D03*
X0332449Y0472429D03*
X0332449Y0482429D03*
X0324969Y0482429D03*
D312*
X0343708Y0482429D03*
X0353709Y0482429D03*
X0353709Y0472429D03*
X0343708Y0472429D03*
X0343708Y0462429D03*
X0353709Y0462429D03*
X0353709Y0452428D03*
X0343708Y0452428D03*
D313*
X0307009Y0471429D03*
X0307009Y0476429D03*
X0307009Y0481429D03*
X0307009Y0486428D03*
X0280509Y0486428D03*
X0280509Y0481429D03*
X0280509Y0476429D03*
X0280509Y0471429D03*
D314*
X0264083Y0472236D03*
X0248335Y0472236D03*
X0248335Y0478929D03*
X0264083Y0478929D03*
X0264083Y0485622D03*
X0248335Y0485622D03*
X0248335Y0462521D03*
X0264083Y0462521D03*
X0264083Y0455829D03*
X0248335Y0455829D03*
X0248335Y0449136D03*
X0264083Y0449136D03*
G75*
D325*
X0236208Y0388689D02*
X0393335Y0388689D01*
X0393525Y0388690D01*
X0393715Y0388698D01*
X0393905Y0388710D01*
X0394095Y0388726D01*
X0394284Y0388745D01*
X0394473Y0388772D01*
X0394661Y0388801D01*
X0394847Y0388836D01*
X0395034Y0388875D01*
X0395219Y0388918D01*
X0395404Y0388966D01*
X0395587Y0389018D01*
X0395768Y0389074D01*
X0395948Y0389135D01*
X0396127Y0389201D01*
X0396304Y0389270D01*
X0396480Y0389344D01*
X0396653Y0389422D01*
X0396825Y0389505D01*
X0396994Y0389591D01*
X0397162Y0389681D01*
X0397327Y0389776D01*
X0397490Y0389874D01*
X0397650Y0389977D01*
X0397808Y0390083D01*
X0397963Y0390193D01*
X0398115Y0390306D01*
X0398266Y0390424D01*
X0398412Y0390545D01*
X0398556Y0390669D01*
X0398697Y0390797D01*
X0398835Y0390928D01*
X0398970Y0391063D01*
X0399101Y0391201D01*
X0399229Y0391342D01*
X0399353Y0391486D01*
X0399474Y0391632D01*
X0399592Y0391782D01*
X0399705Y0391935D01*
X0399815Y0392090D01*
X0399921Y0392248D01*
X0400024Y0392407D01*
X0400122Y0392571D01*
X0400216Y0392736D01*
X0400307Y0392903D01*
X0400393Y0393073D01*
X0400476Y0393245D01*
X0400554Y0393418D01*
X0400628Y0393594D01*
X0400697Y0393771D01*
X0400763Y0393950D01*
X0400824Y0394130D01*
X0400880Y0394311D01*
X0400932Y0394493D01*
X0400980Y0394679D01*
X0401023Y0394864D01*
X0401062Y0395050D01*
X0401097Y0395237D01*
X0401126Y0395425D01*
X0401152Y0395613D01*
X0401172Y0395803D01*
X0401187Y0395992D01*
X0401199Y0396182D01*
X0401206Y0396373D01*
X0401209Y0396563D01*
X0401209Y0428059D01*
X0401206Y0428249D01*
X0401199Y0428439D01*
X0401187Y0428629D01*
X0401172Y0428819D01*
X0401152Y0429007D01*
X0401126Y0429197D01*
X0401097Y0429385D01*
X0401062Y0429572D01*
X0401023Y0429758D01*
X0400980Y0429943D01*
X0400932Y0430128D01*
X0400880Y0430311D01*
X0400824Y0430492D01*
X0400763Y0430672D01*
X0400697Y0430851D01*
X0400628Y0431027D01*
X0400554Y0431203D01*
X0400476Y0431377D01*
X0400393Y0431548D01*
X0400307Y0431717D01*
X0400216Y0431886D01*
X0400122Y0432050D01*
X0400024Y0432214D01*
X0399921Y0432374D01*
X0399815Y0432531D01*
X0399705Y0432687D01*
X0399592Y0432840D01*
X0399474Y0432990D01*
X0399353Y0433136D01*
X0399229Y0433280D01*
X0399101Y0433420D01*
X0398970Y0433559D01*
X0398835Y0433694D01*
X0398697Y0433825D01*
X0398556Y0433953D01*
X0398412Y0434077D01*
X0398266Y0434198D01*
X0398115Y0434316D01*
X0397963Y0434429D01*
X0397808Y0434539D01*
X0397650Y0434645D01*
X0397490Y0434748D01*
X0397327Y0434846D01*
X0397162Y0434941D01*
X0396994Y0435031D01*
X0396825Y0435117D01*
X0396653Y0435200D01*
X0396480Y0435278D01*
X0396304Y0435351D01*
X0396127Y0435421D01*
X0395948Y0435487D01*
X0395768Y0435548D01*
X0395587Y0435604D01*
X0395404Y0435656D01*
X0395219Y0435703D01*
X0395034Y0435747D01*
X0394847Y0435785D01*
X0394661Y0435820D01*
X0394473Y0435850D01*
X0394284Y0435876D01*
X0394095Y0435896D01*
X0393905Y0435912D01*
X0393715Y0435924D01*
X0393525Y0435931D01*
X0393335Y0435933D01*
X0236208Y0435933D01*
X0236069Y0435931D01*
X0235929Y0435925D01*
X0235788Y0435914D01*
X0235649Y0435902D01*
X0235510Y0435884D01*
X0235371Y0435862D01*
X0235234Y0435837D01*
X0235096Y0435808D01*
X0234960Y0435775D01*
X0234825Y0435738D01*
X0234690Y0435696D01*
X0234558Y0435652D01*
X0234425Y0435604D01*
X0234296Y0435552D01*
X0234167Y0435497D01*
X0234039Y0435438D01*
X0233914Y0435375D01*
X0233790Y0435309D01*
X0233669Y0435240D01*
X0233549Y0435167D01*
X0233431Y0435090D01*
X0233316Y0435011D01*
X0233202Y0434928D01*
X0233092Y0434842D01*
X0232981Y0434753D01*
X0232877Y0434661D01*
X0232774Y0434565D01*
X0232673Y0434469D01*
X0232575Y0434368D01*
X0232480Y0434265D01*
X0232389Y0434159D01*
X0232300Y0434049D01*
X0232214Y0433940D01*
X0232131Y0433826D01*
X0232052Y0433711D01*
X0231975Y0433593D01*
X0231902Y0433473D01*
X0231833Y0433352D01*
X0231767Y0433228D01*
X0231704Y0433101D01*
X0231645Y0432975D01*
X0231590Y0432846D01*
X0231538Y0432716D01*
X0231490Y0432584D01*
X0231445Y0432451D01*
X0231404Y0432317D01*
X0231367Y0432182D01*
X0231334Y0432046D01*
X0231305Y0431907D01*
X0231280Y0431771D01*
X0231258Y0431632D01*
X0231239Y0431493D01*
X0231226Y0431353D01*
X0231217Y0431213D01*
X0231211Y0431073D01*
X0231209Y0430933D01*
X0231209Y0393689D01*
X0231211Y0393549D01*
X0231217Y0393409D01*
X0231226Y0393269D01*
X0231239Y0393129D01*
X0231258Y0392990D01*
X0231280Y0392851D01*
X0231305Y0392714D01*
X0231334Y0392576D01*
X0231367Y0392440D01*
X0231404Y0392305D01*
X0231445Y0392170D01*
X0231490Y0392038D01*
X0231538Y0391906D01*
X0231590Y0391776D01*
X0231645Y0391647D01*
X0231704Y0391520D01*
X0231767Y0391394D01*
X0231833Y0391269D01*
X0231902Y0391149D01*
X0231975Y0391028D01*
X0232052Y0390911D01*
X0232131Y0390795D01*
X0232214Y0390682D01*
X0232300Y0390572D01*
X0232389Y0390463D01*
X0232480Y0390357D01*
X0232575Y0390254D01*
X0232673Y0390153D01*
X0232774Y0390056D01*
X0232877Y0389961D01*
X0232981Y0389869D01*
X0233092Y0389780D01*
X0233202Y0389693D01*
X0233316Y0389611D01*
X0233431Y0389532D01*
X0233549Y0389455D01*
X0233669Y0389382D01*
X0233790Y0389313D01*
X0233914Y0389247D01*
X0234039Y0389184D01*
X0234167Y0389124D01*
X0234296Y0389070D01*
X0234425Y0389018D01*
X0234558Y0388970D01*
X0234690Y0388924D01*
X0234825Y0388884D01*
X0234960Y0388847D01*
X0235096Y0388814D01*
X0235234Y0388785D01*
X0235371Y0388760D01*
X0235510Y0388738D01*
X0235649Y0388720D01*
X0235788Y0388707D01*
X0235929Y0388697D01*
X0236069Y0388690D01*
X0236208Y0388689D01*
D326*
X0282469Y0397311D03*
X0289949Y0397311D03*
X0289949Y0407311D03*
X0282469Y0407311D03*
X0324969Y0407311D03*
X0332449Y0407311D03*
X0332449Y0397311D03*
X0324969Y0397311D03*
X0324969Y0417311D03*
X0332449Y0417311D03*
X0332449Y0427311D03*
X0324969Y0427311D03*
D327*
X0343708Y0427311D03*
X0353709Y0427311D03*
X0353709Y0417311D03*
X0343708Y0417311D03*
X0343708Y0407311D03*
X0353709Y0407311D03*
X0353709Y0397311D03*
X0343708Y0397311D03*
D328*
X0307009Y0416310D03*
X0307009Y0421311D03*
X0307009Y0426311D03*
X0307009Y0431311D03*
X0280509Y0431311D03*
X0280509Y0426311D03*
X0280509Y0421311D03*
X0280509Y0416310D03*
D329*
X0264083Y0417117D03*
X0248335Y0417117D03*
X0248335Y0423811D03*
X0264083Y0423811D03*
X0264083Y0430504D03*
X0248335Y0430504D03*
X0248335Y0407404D03*
X0264083Y0407404D03*
X0264083Y0400711D03*
X0248335Y0400711D03*
X0248335Y0394018D03*
X0264083Y0394018D03*
G04 next file*
G75*
D340*
X0417311Y0050107D02*
X0574437Y0050107D01*
X0574627Y0050109D01*
X0574817Y0050116D01*
X0575007Y0050127D01*
X0575197Y0050144D01*
X0575386Y0050164D01*
X0575575Y0050190D01*
X0575763Y0050219D01*
X0575950Y0050254D01*
X0576136Y0050293D01*
X0576320Y0050336D01*
X0576506Y0050383D01*
X0576689Y0050436D01*
X0576870Y0050492D01*
X0577050Y0050553D01*
X0577229Y0050619D01*
X0577406Y0050688D01*
X0577582Y0050761D01*
X0577755Y0050839D01*
X0577927Y0050922D01*
X0578096Y0051009D01*
X0578264Y0051099D01*
X0578429Y0051193D01*
X0578592Y0051292D01*
X0578752Y0051395D01*
X0578910Y0051501D01*
X0579065Y0051610D01*
X0579218Y0051724D01*
X0579368Y0051842D01*
X0579514Y0051963D01*
X0579658Y0052087D01*
X0579799Y0052215D01*
X0579937Y0052346D01*
X0580072Y0052481D01*
X0580203Y0052619D01*
X0580331Y0052759D01*
X0580455Y0052903D01*
X0580576Y0053050D01*
X0580694Y0053200D01*
X0580806Y0053352D01*
X0580916Y0053508D01*
X0581023Y0053666D01*
X0581126Y0053825D01*
X0581224Y0053989D01*
X0581319Y0054154D01*
X0581409Y0054322D01*
X0581495Y0054491D01*
X0581578Y0054662D01*
X0581656Y0054835D01*
X0581730Y0055012D01*
X0581799Y0055189D01*
X0581864Y0055367D01*
X0581926Y0055548D01*
X0581981Y0055728D01*
X0582034Y0055911D01*
X0582082Y0056097D01*
X0582125Y0056282D01*
X0582164Y0056467D01*
X0582199Y0056655D01*
X0582228Y0056843D01*
X0582254Y0057032D01*
X0582274Y0057221D01*
X0582290Y0057411D01*
X0582301Y0057601D01*
X0582309Y0057791D01*
X0582311Y0057981D01*
X0582311Y0089477D01*
X0582309Y0089667D01*
X0582301Y0089857D01*
X0582290Y0090047D01*
X0582274Y0090237D01*
X0582254Y0090426D01*
X0582228Y0090613D01*
X0582199Y0090803D01*
X0582164Y0090990D01*
X0582125Y0091176D01*
X0582082Y0091361D01*
X0582034Y0091546D01*
X0581981Y0091729D01*
X0581926Y0091910D01*
X0581864Y0092090D01*
X0581799Y0092269D01*
X0581730Y0092446D01*
X0581656Y0092622D01*
X0581578Y0092795D01*
X0581495Y0092967D01*
X0581409Y0093136D01*
X0581319Y0093304D01*
X0581224Y0093467D01*
X0581126Y0093632D01*
X0581023Y0093792D01*
X0580916Y0093950D01*
X0580806Y0094105D01*
X0580694Y0094258D01*
X0580576Y0094408D01*
X0580455Y0094554D01*
X0580331Y0094698D01*
X0580203Y0094839D01*
X0580072Y0094977D01*
X0579937Y0095112D01*
X0579799Y0095243D01*
X0579658Y0095370D01*
X0579514Y0095494D01*
X0579368Y0095616D01*
X0579218Y0095734D01*
X0579065Y0095847D01*
X0578910Y0095957D01*
X0578752Y0096063D01*
X0578592Y0096166D01*
X0578429Y0096264D01*
X0578264Y0096359D01*
X0578096Y0096449D01*
X0577927Y0096535D01*
X0577755Y0096618D01*
X0577582Y0096696D01*
X0577406Y0096770D01*
X0577229Y0096839D01*
X0577050Y0096905D01*
X0576870Y0096966D01*
X0576689Y0097022D01*
X0576506Y0097074D01*
X0576320Y0097122D01*
X0576136Y0097165D01*
X0575950Y0097204D01*
X0575763Y0097239D01*
X0575575Y0097268D01*
X0575386Y0097294D01*
X0575197Y0097314D01*
X0575007Y0097330D01*
X0574817Y0097342D01*
X0574627Y0097349D01*
X0574437Y0097351D01*
X0417311Y0097351D01*
X0417171Y0097349D01*
X0417031Y0097343D01*
X0416891Y0097333D01*
X0416751Y0097320D01*
X0416612Y0097302D01*
X0416472Y0097280D01*
X0416336Y0097255D01*
X0416198Y0097226D01*
X0416062Y0097193D01*
X0415927Y0097156D01*
X0415793Y0097115D01*
X0415660Y0097070D01*
X0415528Y0097022D01*
X0415398Y0096970D01*
X0415269Y0096915D01*
X0415142Y0096856D01*
X0415015Y0096793D01*
X0414892Y0096727D01*
X0414771Y0096658D01*
X0414651Y0096585D01*
X0414533Y0096508D01*
X0414418Y0096429D01*
X0414304Y0096346D01*
X0414194Y0096260D01*
X0414085Y0096171D01*
X0413978Y0096079D01*
X0413876Y0095984D01*
X0413774Y0095887D01*
X0413678Y0095786D01*
X0413583Y0095683D01*
X0413490Y0095577D01*
X0413401Y0095468D01*
X0413316Y0095358D01*
X0413232Y0095244D01*
X0413154Y0095129D01*
X0413077Y0095011D01*
X0413004Y0094891D01*
X0412934Y0094770D01*
X0412869Y0094646D01*
X0412805Y0094520D01*
X0412747Y0094393D01*
X0412692Y0094264D01*
X0412640Y0094134D01*
X0412592Y0094002D01*
X0412547Y0093869D01*
X0412506Y0093735D01*
X0412469Y0093600D01*
X0412436Y0093464D01*
X0412406Y0093326D01*
X0412382Y0093189D01*
X0412360Y0093050D01*
X0412342Y0092911D01*
X0412329Y0092771D01*
X0412319Y0092630D01*
X0412313Y0092491D01*
X0412310Y0092351D01*
X0412310Y0055106D01*
X0412313Y0054967D01*
X0412319Y0054827D01*
X0412329Y0054687D01*
X0412342Y0054547D01*
X0412360Y0054408D01*
X0412382Y0054269D01*
X0412406Y0054132D01*
X0412436Y0053994D01*
X0412469Y0053857D01*
X0412506Y0053723D01*
X0412547Y0053589D01*
X0412592Y0053456D01*
X0412640Y0053324D01*
X0412692Y0053194D01*
X0412747Y0053064D01*
X0412805Y0052937D01*
X0412869Y0052812D01*
X0412934Y0052688D01*
X0413004Y0052567D01*
X0413077Y0052447D01*
X0413154Y0052329D01*
X0413232Y0052214D01*
X0413316Y0052100D01*
X0413401Y0051990D01*
X0413490Y0051881D01*
X0413583Y0051775D01*
X0413678Y0051671D01*
X0413774Y0051571D01*
X0413876Y0051474D01*
X0413978Y0051379D01*
X0414085Y0051287D01*
X0414194Y0051198D01*
X0414304Y0051112D01*
X0414418Y0051029D01*
X0414533Y0050949D01*
X0414651Y0050873D01*
X0414771Y0050800D01*
X0414892Y0050731D01*
X0415015Y0050665D01*
X0415142Y0050602D01*
X0415269Y0050543D01*
X0415398Y0050488D01*
X0415528Y0050436D01*
X0415660Y0050388D01*
X0415793Y0050343D01*
X0415927Y0050302D01*
X0416062Y0050265D01*
X0416198Y0050232D01*
X0416336Y0050203D01*
X0416472Y0050178D01*
X0416612Y0050156D01*
X0416751Y0050138D01*
X0416891Y0050125D01*
X0417031Y0050115D01*
X0417171Y0050109D01*
X0417311Y0050107D01*
D341*
X0463571Y0058729D03*
X0471051Y0058729D03*
X0471051Y0068729D03*
X0463571Y0068729D03*
X0506071Y0068729D03*
X0513550Y0068729D03*
X0513550Y0058729D03*
X0506071Y0058729D03*
X0506071Y0078729D03*
X0513550Y0078729D03*
X0513550Y0088729D03*
X0506071Y0088729D03*
D342*
X0524811Y0088729D03*
X0534811Y0088729D03*
X0534811Y0078729D03*
X0524811Y0078729D03*
X0524811Y0068729D03*
X0534811Y0068729D03*
X0534811Y0058729D03*
X0524811Y0058729D03*
D343*
X0488110Y0077729D03*
X0488110Y0082729D03*
X0488110Y0087729D03*
X0488110Y0092729D03*
X0461611Y0092729D03*
X0461611Y0087729D03*
X0461611Y0082729D03*
X0461611Y0077729D03*
D344*
X0445185Y0078536D03*
X0429437Y0078536D03*
X0429437Y0085229D03*
X0445185Y0085229D03*
X0445185Y0091922D03*
X0429437Y0091922D03*
X0429437Y0068822D03*
X0445185Y0068822D03*
X0445185Y0062129D03*
X0429437Y0062129D03*
X0429437Y0055436D03*
X0445185Y0055436D03*
G75*
D355*
X0417311Y0333571D02*
X0574437Y0333571D01*
X0574627Y0333572D01*
X0574817Y0333580D01*
X0575007Y0333592D01*
X0575197Y0333608D01*
X0575386Y0333627D01*
X0575575Y0333654D01*
X0575763Y0333683D01*
X0575950Y0333718D01*
X0576136Y0333757D01*
X0576320Y0333800D01*
X0576506Y0333848D01*
X0576689Y0333900D01*
X0576870Y0333956D01*
X0577050Y0334017D01*
X0577229Y0334083D01*
X0577406Y0334152D01*
X0577582Y0334225D01*
X0577755Y0334304D01*
X0577927Y0334387D01*
X0578096Y0334473D01*
X0578264Y0334563D01*
X0578429Y0334658D01*
X0578592Y0334756D01*
X0578752Y0334859D01*
X0578910Y0334965D01*
X0579065Y0335075D01*
X0579218Y0335188D01*
X0579368Y0335305D01*
X0579514Y0335427D01*
X0579658Y0335551D01*
X0579799Y0335679D01*
X0579937Y0335810D01*
X0580072Y0335945D01*
X0580203Y0336083D01*
X0580331Y0336224D01*
X0580455Y0336368D01*
X0580576Y0336514D01*
X0580694Y0336664D01*
X0580806Y0336817D01*
X0580916Y0336972D01*
X0581023Y0337130D01*
X0581126Y0337289D01*
X0581224Y0337453D01*
X0581319Y0337618D01*
X0581409Y0337785D01*
X0581495Y0337955D01*
X0581578Y0338127D01*
X0581656Y0338299D01*
X0581730Y0338476D01*
X0581799Y0338653D01*
X0581864Y0338832D01*
X0581926Y0339012D01*
X0581981Y0339193D01*
X0582034Y0339375D01*
X0582082Y0339561D01*
X0582125Y0339746D01*
X0582164Y0339932D01*
X0582199Y0340119D01*
X0582228Y0340307D01*
X0582254Y0340495D01*
X0582274Y0340685D01*
X0582290Y0340874D01*
X0582301Y0341065D01*
X0582309Y0341255D01*
X0582311Y0341445D01*
X0582311Y0372941D01*
X0582309Y0373131D01*
X0582301Y0373321D01*
X0582290Y0373511D01*
X0582274Y0373701D01*
X0582254Y0373890D01*
X0582228Y0374079D01*
X0582199Y0374267D01*
X0582164Y0374454D01*
X0582125Y0374640D01*
X0582082Y0374825D01*
X0582034Y0375010D01*
X0581981Y0375193D01*
X0581926Y0375374D01*
X0581864Y0375554D01*
X0581799Y0375733D01*
X0581730Y0375910D01*
X0581656Y0376086D01*
X0581578Y0376259D01*
X0581495Y0376431D01*
X0581409Y0376600D01*
X0581319Y0376767D01*
X0581224Y0376933D01*
X0581126Y0377096D01*
X0581023Y0377256D01*
X0580916Y0377413D01*
X0580806Y0377569D01*
X0580694Y0377722D01*
X0580576Y0377872D01*
X0580455Y0378018D01*
X0580331Y0378162D01*
X0580203Y0378303D01*
X0580072Y0378441D01*
X0579937Y0378576D01*
X0579799Y0378707D01*
X0579658Y0378835D01*
X0579514Y0378959D01*
X0579368Y0379080D01*
X0579218Y0379198D01*
X0579065Y0379311D01*
X0578910Y0379421D01*
X0578752Y0379527D01*
X0578592Y0379630D01*
X0578429Y0379728D01*
X0578264Y0379823D01*
X0578096Y0379913D01*
X0577927Y0379999D01*
X0577755Y0380082D01*
X0577582Y0380160D01*
X0577406Y0380234D01*
X0577229Y0380303D01*
X0577050Y0380369D01*
X0576870Y0380430D01*
X0576689Y0380486D01*
X0576506Y0380538D01*
X0576320Y0380586D01*
X0576136Y0380629D01*
X0575950Y0380668D01*
X0575763Y0380703D01*
X0575575Y0380732D01*
X0575386Y0380758D01*
X0575197Y0380778D01*
X0575007Y0380794D01*
X0574817Y0380806D01*
X0574627Y0380813D01*
X0574437Y0380815D01*
X0417311Y0380815D01*
X0417171Y0380813D01*
X0417031Y0380807D01*
X0416891Y0380797D01*
X0416751Y0380783D01*
X0416612Y0380766D01*
X0416472Y0380744D01*
X0416336Y0380719D01*
X0416198Y0380690D01*
X0416062Y0380657D01*
X0415927Y0380619D01*
X0415793Y0380579D01*
X0415660Y0380534D01*
X0415528Y0380486D01*
X0415398Y0380434D01*
X0415269Y0380379D01*
X0415142Y0380320D01*
X0415015Y0380257D01*
X0414892Y0380191D01*
X0414771Y0380122D01*
X0414651Y0380049D01*
X0414533Y0379972D01*
X0414418Y0379893D01*
X0414304Y0379809D01*
X0414194Y0379724D01*
X0414085Y0379634D01*
X0413978Y0379543D01*
X0413876Y0379448D01*
X0413774Y0379351D01*
X0413678Y0379250D01*
X0413583Y0379147D01*
X0413490Y0379041D01*
X0413401Y0378932D01*
X0413316Y0378822D01*
X0413232Y0378708D01*
X0413154Y0378593D01*
X0413077Y0378474D01*
X0413004Y0378354D01*
X0412934Y0378234D01*
X0412869Y0378110D01*
X0412805Y0377984D01*
X0412747Y0377857D01*
X0412692Y0377728D01*
X0412640Y0377598D01*
X0412592Y0377466D01*
X0412547Y0377333D01*
X0412506Y0377199D01*
X0412469Y0377064D01*
X0412436Y0376928D01*
X0412406Y0376790D01*
X0412382Y0376653D01*
X0412360Y0376514D01*
X0412342Y0376375D01*
X0412329Y0376235D01*
X0412319Y0376095D01*
X0412313Y0375954D01*
X0412310Y0375815D01*
X0412310Y0338571D01*
X0412313Y0338431D01*
X0412319Y0338291D01*
X0412329Y0338151D01*
X0412342Y0338011D01*
X0412360Y0337872D01*
X0412382Y0337733D01*
X0412406Y0337596D01*
X0412436Y0337458D01*
X0412469Y0337322D01*
X0412506Y0337187D01*
X0412547Y0337052D01*
X0412592Y0336920D01*
X0412640Y0336788D01*
X0412692Y0336658D01*
X0412747Y0336529D01*
X0412805Y0336402D01*
X0412869Y0336276D01*
X0412934Y0336151D01*
X0413004Y0336031D01*
X0413077Y0335910D01*
X0413154Y0335793D01*
X0413232Y0335677D01*
X0413316Y0335564D01*
X0413401Y0335454D01*
X0413490Y0335345D01*
X0413583Y0335239D01*
X0413678Y0335136D01*
X0413774Y0335035D01*
X0413876Y0334938D01*
X0413978Y0334843D01*
X0414085Y0334751D01*
X0414194Y0334662D01*
X0414304Y0334575D01*
X0414418Y0334493D01*
X0414533Y0334414D01*
X0414651Y0334337D01*
X0414771Y0334264D01*
X0414892Y0334195D01*
X0415015Y0334129D01*
X0415142Y0334066D01*
X0415269Y0334006D01*
X0415398Y0333952D01*
X0415528Y0333900D01*
X0415660Y0333852D01*
X0415793Y0333806D01*
X0415927Y0333766D01*
X0416062Y0333729D01*
X0416198Y0333696D01*
X0416336Y0333667D01*
X0416472Y0333642D01*
X0416612Y0333620D01*
X0416751Y0333602D01*
X0416891Y0333589D01*
X0417031Y0333579D01*
X0417171Y0333572D01*
X0417311Y0333571D01*
D356*
X0463571Y0342193D03*
X0471051Y0342193D03*
X0471051Y0352193D03*
X0463571Y0352193D03*
X0506071Y0352193D03*
X0513550Y0352193D03*
X0513550Y0342193D03*
X0506071Y0342193D03*
X0506071Y0362193D03*
X0513550Y0362193D03*
X0513550Y0372193D03*
X0506071Y0372193D03*
D357*
X0524811Y0372193D03*
X0534811Y0372193D03*
X0534811Y0362193D03*
X0524811Y0362193D03*
X0524811Y0352193D03*
X0534811Y0352193D03*
X0534811Y0342193D03*
X0524811Y0342193D03*
D358*
X0488110Y0361193D03*
X0488110Y0366193D03*
X0488110Y0371193D03*
X0488110Y0376193D03*
X0461611Y0376193D03*
X0461611Y0371193D03*
X0461611Y0366193D03*
X0461611Y0361193D03*
D359*
X0445185Y0362000D03*
X0429437Y0362000D03*
X0429437Y0368692D03*
X0445185Y0368692D03*
X0445185Y0375385D03*
X0429437Y0375385D03*
X0429437Y0352286D03*
X0445185Y0352286D03*
X0445185Y0345593D03*
X0429437Y0345593D03*
X0429437Y0338900D03*
X0445185Y0338900D03*
G75*
D370*
X0417311Y0443807D02*
X0574437Y0443807D01*
X0574627Y0443809D01*
X0574817Y0443816D01*
X0575007Y0443828D01*
X0575197Y0443844D01*
X0575386Y0443864D01*
X0575575Y0443890D01*
X0575763Y0443919D01*
X0575950Y0443954D01*
X0576136Y0443993D01*
X0576320Y0444036D01*
X0576506Y0444083D01*
X0576689Y0444136D01*
X0576870Y0444191D01*
X0577050Y0444252D01*
X0577229Y0444319D01*
X0577406Y0444388D01*
X0577582Y0444461D01*
X0577755Y0444540D01*
X0577927Y0444623D01*
X0578096Y0444709D01*
X0578264Y0444799D01*
X0578429Y0444894D01*
X0578592Y0444991D01*
X0578752Y0445095D01*
X0578910Y0445200D01*
X0579065Y0445310D01*
X0579218Y0445424D01*
X0579368Y0445542D01*
X0579514Y0445662D01*
X0579658Y0445787D01*
X0579799Y0445915D01*
X0579937Y0446046D01*
X0580072Y0446181D01*
X0580203Y0446319D01*
X0580331Y0446460D01*
X0580455Y0446603D01*
X0580576Y0446750D01*
X0580694Y0446900D01*
X0580806Y0447053D01*
X0580916Y0447208D01*
X0581023Y0447366D01*
X0581126Y0447525D01*
X0581224Y0447689D01*
X0581319Y0447854D01*
X0581409Y0448022D01*
X0581495Y0448191D01*
X0581578Y0448363D01*
X0581656Y0448536D01*
X0581730Y0448712D01*
X0581799Y0448888D01*
X0581864Y0449068D01*
X0581926Y0449247D01*
X0581981Y0449429D01*
X0582034Y0449612D01*
X0582082Y0449796D01*
X0582125Y0449982D01*
X0582164Y0450168D01*
X0582199Y0450355D01*
X0582228Y0450542D01*
X0582254Y0450732D01*
X0582274Y0450921D01*
X0582290Y0451111D01*
X0582301Y0451301D01*
X0582309Y0451491D01*
X0582311Y0451681D01*
X0582311Y0483176D01*
X0582309Y0483366D01*
X0582301Y0483556D01*
X0582290Y0483747D01*
X0582274Y0483937D01*
X0582254Y0484126D01*
X0582228Y0484314D01*
X0582199Y0484503D01*
X0582164Y0484690D01*
X0582125Y0484876D01*
X0582082Y0485060D01*
X0582034Y0485246D01*
X0581981Y0485429D01*
X0581926Y0485609D01*
X0581864Y0485790D01*
X0581799Y0485968D01*
X0581730Y0486146D01*
X0581656Y0486322D01*
X0581578Y0486495D01*
X0581495Y0486667D01*
X0581409Y0486836D01*
X0581319Y0487004D01*
X0581224Y0487169D01*
X0581126Y0487331D01*
X0581023Y0487492D01*
X0580916Y0487650D01*
X0580806Y0487805D01*
X0580694Y0487958D01*
X0580576Y0488108D01*
X0580455Y0488253D01*
X0580331Y0488398D01*
X0580203Y0488539D01*
X0580072Y0488677D01*
X0579937Y0488812D01*
X0579799Y0488943D01*
X0579658Y0489071D01*
X0579514Y0489194D01*
X0579368Y0489316D01*
X0579218Y0489433D01*
X0579065Y0489547D01*
X0578910Y0489656D01*
X0578752Y0489763D01*
X0578592Y0489865D01*
X0578429Y0489964D01*
X0578264Y0490059D01*
X0578096Y0490149D01*
X0577927Y0490235D01*
X0577755Y0490318D01*
X0577582Y0490395D01*
X0577406Y0490470D01*
X0577229Y0490538D01*
X0577050Y0490604D01*
X0576870Y0490665D01*
X0576689Y0490721D01*
X0576506Y0490774D01*
X0576320Y0490822D01*
X0576136Y0490865D01*
X0575950Y0490904D01*
X0575763Y0490939D01*
X0575575Y0490968D01*
X0575386Y0490994D01*
X0575197Y0491014D01*
X0575007Y0491030D01*
X0574817Y0491042D01*
X0574627Y0491049D01*
X0574437Y0491051D01*
X0417311Y0491051D01*
X0417171Y0491049D01*
X0417031Y0491043D01*
X0416891Y0491033D01*
X0416751Y0491019D01*
X0416612Y0491002D01*
X0416472Y0490980D01*
X0416336Y0490955D01*
X0416198Y0490926D01*
X0416062Y0490893D01*
X0415927Y0490855D01*
X0415793Y0490815D01*
X0415660Y0490770D01*
X0415528Y0490721D01*
X0415398Y0490670D01*
X0415269Y0490615D01*
X0415142Y0490556D01*
X0415015Y0490493D01*
X0414892Y0490427D01*
X0414771Y0490358D01*
X0414651Y0490285D01*
X0414533Y0490208D01*
X0414418Y0490129D01*
X0414304Y0490046D01*
X0414194Y0489960D01*
X0414085Y0489871D01*
X0413978Y0489778D01*
X0413876Y0489684D01*
X0413774Y0489587D01*
X0413678Y0489486D01*
X0413583Y0489383D01*
X0413490Y0489276D01*
X0413401Y0489168D01*
X0413316Y0489058D01*
X0413232Y0488943D01*
X0413154Y0488828D01*
X0413077Y0488711D01*
X0413004Y0488591D01*
X0412934Y0488469D01*
X0412869Y0488346D01*
X0412805Y0488220D01*
X0412747Y0488093D01*
X0412692Y0487964D01*
X0412640Y0487833D01*
X0412592Y0487702D01*
X0412547Y0487568D01*
X0412506Y0487435D01*
X0412469Y0487300D01*
X0412436Y0487164D01*
X0412406Y0487026D01*
X0412382Y0486889D01*
X0412360Y0486750D01*
X0412342Y0486611D01*
X0412329Y0486470D01*
X0412319Y0486331D01*
X0412313Y0486191D01*
X0412310Y0486050D01*
X0412310Y0448806D01*
X0412313Y0448667D01*
X0412319Y0448527D01*
X0412329Y0448386D01*
X0412342Y0448247D01*
X0412360Y0448108D01*
X0412382Y0447969D01*
X0412406Y0447832D01*
X0412436Y0447694D01*
X0412469Y0447558D01*
X0412506Y0447423D01*
X0412547Y0447288D01*
X0412592Y0447156D01*
X0412640Y0447024D01*
X0412692Y0446894D01*
X0412747Y0446765D01*
X0412805Y0446638D01*
X0412869Y0446512D01*
X0412934Y0446387D01*
X0413004Y0446267D01*
X0413077Y0446147D01*
X0413154Y0446028D01*
X0413232Y0445913D01*
X0413316Y0445800D01*
X0413401Y0445690D01*
X0413490Y0445580D01*
X0413583Y0445475D01*
X0413678Y0445371D01*
X0413774Y0445271D01*
X0413876Y0445174D01*
X0413978Y0445078D01*
X0414085Y0444987D01*
X0414194Y0444898D01*
X0414304Y0444812D01*
X0414418Y0444729D01*
X0414533Y0444650D01*
X0414651Y0444573D01*
X0414771Y0444500D01*
X0414892Y0444431D01*
X0415015Y0444365D01*
X0415142Y0444302D01*
X0415269Y0444243D01*
X0415398Y0444188D01*
X0415528Y0444136D01*
X0415660Y0444088D01*
X0415793Y0444043D01*
X0415927Y0444001D01*
X0416062Y0443965D01*
X0416198Y0443932D01*
X0416336Y0443903D01*
X0416472Y0443878D01*
X0416612Y0443856D01*
X0416751Y0443838D01*
X0416891Y0443825D01*
X0417031Y0443815D01*
X0417171Y0443809D01*
X0417311Y0443807D01*
D371*
X0463571Y0452428D03*
X0471051Y0452428D03*
X0471051Y0462429D03*
X0463571Y0462429D03*
X0506071Y0462429D03*
X0513550Y0462429D03*
X0513550Y0452428D03*
X0506071Y0452428D03*
X0506071Y0472429D03*
X0513550Y0472429D03*
X0513550Y0482429D03*
X0506071Y0482429D03*
D372*
X0524811Y0482429D03*
X0534811Y0482429D03*
X0534811Y0472429D03*
X0524811Y0472429D03*
X0524811Y0462429D03*
X0534811Y0462429D03*
X0534811Y0452428D03*
X0524811Y0452428D03*
D373*
X0488110Y0471429D03*
X0488110Y0476429D03*
X0488110Y0481429D03*
X0488110Y0486428D03*
X0461611Y0486428D03*
X0461611Y0481429D03*
X0461611Y0476429D03*
X0461611Y0471429D03*
D374*
X0445185Y0472236D03*
X0429437Y0472236D03*
X0429437Y0478929D03*
X0445185Y0478929D03*
X0445185Y0485622D03*
X0429437Y0485622D03*
X0429437Y0462521D03*
X0445185Y0462521D03*
X0445185Y0455829D03*
X0429437Y0455829D03*
X0429437Y0449136D03*
X0445185Y0449136D03*
G75*
D385*
X0417311Y0164280D02*
X0574437Y0164280D01*
X0574627Y0164282D01*
X0574817Y0164289D01*
X0575007Y0164301D01*
X0575197Y0164317D01*
X0575386Y0164337D01*
X0575575Y0164363D01*
X0575763Y0164392D01*
X0575950Y0164427D01*
X0576136Y0164466D01*
X0576320Y0164509D01*
X0576506Y0164557D01*
X0576689Y0164609D01*
X0576870Y0164665D01*
X0577050Y0164726D01*
X0577229Y0164792D01*
X0577406Y0164861D01*
X0577582Y0164935D01*
X0577755Y0165013D01*
X0577927Y0165095D01*
X0578096Y0165181D01*
X0578264Y0165272D01*
X0578429Y0165367D01*
X0578592Y0165465D01*
X0578752Y0165568D01*
X0578910Y0165674D01*
X0579065Y0165784D01*
X0579218Y0165897D01*
X0579368Y0166015D01*
X0579514Y0166136D01*
X0579658Y0166260D01*
X0579799Y0166388D01*
X0579937Y0166519D01*
X0580072Y0166654D01*
X0580203Y0166792D01*
X0580331Y0166933D01*
X0580455Y0167077D01*
X0580576Y0167223D01*
X0580694Y0167373D01*
X0580806Y0167526D01*
X0580916Y0167681D01*
X0581023Y0167838D01*
X0581126Y0167999D01*
X0581224Y0168162D01*
X0581319Y0168327D01*
X0581409Y0168495D01*
X0581495Y0168664D01*
X0581578Y0168836D01*
X0581656Y0169009D01*
X0581730Y0169185D01*
X0581799Y0169362D01*
X0581864Y0169541D01*
X0581926Y0169721D01*
X0581981Y0169902D01*
X0582034Y0170085D01*
X0582082Y0170270D01*
X0582125Y0170455D01*
X0582164Y0170641D01*
X0582199Y0170828D01*
X0582228Y0171016D01*
X0582254Y0171205D01*
X0582274Y0171394D01*
X0582290Y0171584D01*
X0582301Y0171774D01*
X0582309Y0171963D01*
X0582311Y0172154D01*
X0582311Y0203650D01*
X0582309Y0203840D01*
X0582301Y0204029D01*
X0582290Y0204219D01*
X0582274Y0204409D01*
X0582254Y0204599D01*
X0582228Y0204788D01*
X0582199Y0204976D01*
X0582164Y0205162D01*
X0582125Y0205349D01*
X0582082Y0205534D01*
X0582034Y0205717D01*
X0581981Y0205900D01*
X0581926Y0206083D01*
X0581864Y0206263D01*
X0581799Y0206442D01*
X0581730Y0206619D01*
X0581656Y0206795D01*
X0581578Y0206968D01*
X0581495Y0207140D01*
X0581409Y0207309D01*
X0581319Y0207477D01*
X0581224Y0207642D01*
X0581126Y0207805D01*
X0581023Y0207965D01*
X0580916Y0208123D01*
X0580806Y0208278D01*
X0580694Y0208431D01*
X0580576Y0208581D01*
X0580455Y0208727D01*
X0580331Y0208869D01*
X0580203Y0209012D01*
X0580072Y0209150D01*
X0579937Y0209285D01*
X0579799Y0209416D01*
X0579658Y0209544D01*
X0579514Y0209668D01*
X0579368Y0209789D01*
X0579218Y0209907D01*
X0579065Y0210020D01*
X0578910Y0210130D01*
X0578752Y0210236D01*
X0578592Y0210339D01*
X0578429Y0210435D01*
X0578264Y0210532D01*
X0578096Y0210622D01*
X0577927Y0210707D01*
X0577755Y0210791D01*
X0577582Y0210869D01*
X0577406Y0210943D01*
X0577229Y0211012D01*
X0577050Y0211078D01*
X0576870Y0211139D01*
X0576689Y0211195D01*
X0576506Y0211247D01*
X0576320Y0211295D01*
X0576136Y0211337D01*
X0575950Y0211377D01*
X0575763Y0211412D01*
X0575575Y0211441D01*
X0575386Y0211466D01*
X0575197Y0211486D01*
X0575007Y0211503D01*
X0574817Y0211515D01*
X0574627Y0211522D01*
X0574437Y0211524D01*
X0417311Y0211524D01*
X0417171Y0211522D01*
X0417031Y0211516D01*
X0416891Y0211506D01*
X0416751Y0211493D01*
X0416612Y0211475D01*
X0416472Y0211452D01*
X0416336Y0211428D01*
X0416198Y0211398D01*
X0416062Y0211366D01*
X0415927Y0211329D01*
X0415793Y0211288D01*
X0415660Y0211242D01*
X0415528Y0211195D01*
X0415398Y0211143D01*
X0415269Y0211088D01*
X0415142Y0211029D01*
X0415015Y0210966D01*
X0414892Y0210900D01*
X0414771Y0210831D01*
X0414651Y0210758D01*
X0414533Y0210679D01*
X0414418Y0210602D01*
X0414304Y0210519D01*
X0414194Y0210433D01*
X0414085Y0210344D01*
X0413978Y0210252D01*
X0413876Y0210157D01*
X0413774Y0210060D01*
X0413678Y0209959D01*
X0413583Y0209856D01*
X0413490Y0209750D01*
X0413401Y0209641D01*
X0413316Y0209531D01*
X0413232Y0209417D01*
X0413154Y0209302D01*
X0413077Y0209184D01*
X0413004Y0209064D01*
X0412934Y0208943D01*
X0412869Y0208819D01*
X0412805Y0208693D01*
X0412747Y0208564D01*
X0412692Y0208436D01*
X0412640Y0208307D01*
X0412592Y0208175D01*
X0412547Y0208042D01*
X0412506Y0207907D01*
X0412469Y0207773D01*
X0412436Y0207636D01*
X0412406Y0207499D01*
X0412382Y0207362D01*
X0412360Y0207222D01*
X0412342Y0207084D01*
X0412329Y0206944D01*
X0412319Y0206804D01*
X0412313Y0206664D01*
X0412310Y0206524D01*
X0412310Y0169280D01*
X0412313Y0169140D01*
X0412319Y0169000D01*
X0412329Y0168860D01*
X0412342Y0168720D01*
X0412360Y0168581D01*
X0412382Y0168442D01*
X0412406Y0168305D01*
X0412436Y0168167D01*
X0412469Y0168031D01*
X0412506Y0167896D01*
X0412547Y0167762D01*
X0412592Y0167629D01*
X0412640Y0167497D01*
X0412692Y0167367D01*
X0412747Y0167238D01*
X0412805Y0167111D01*
X0412869Y0166985D01*
X0412934Y0166861D01*
X0413004Y0166740D01*
X0413077Y0166620D01*
X0413154Y0166501D01*
X0413232Y0166387D01*
X0413316Y0166273D01*
X0413401Y0166163D01*
X0413490Y0166054D01*
X0413583Y0165948D01*
X0413678Y0165845D01*
X0413774Y0165744D01*
X0413876Y0165647D01*
X0413978Y0165552D01*
X0414085Y0165460D01*
X0414194Y0165371D01*
X0414304Y0165285D01*
X0414418Y0165201D01*
X0414533Y0165123D01*
X0414651Y0165046D01*
X0414771Y0164973D01*
X0414892Y0164904D01*
X0415015Y0164838D01*
X0415142Y0164775D01*
X0415269Y0164716D01*
X0415398Y0164661D01*
X0415528Y0164609D01*
X0415660Y0164561D01*
X0415793Y0164516D01*
X0415927Y0164475D01*
X0416062Y0164438D01*
X0416198Y0164404D01*
X0416336Y0164376D01*
X0416472Y0164351D01*
X0416612Y0164329D01*
X0416751Y0164311D01*
X0416891Y0164298D01*
X0417031Y0164287D01*
X0417171Y0164282D01*
X0417311Y0164280D01*
D386*
X0463571Y0172902D03*
X0471051Y0172902D03*
X0471051Y0182902D03*
X0463571Y0182902D03*
X0506071Y0182902D03*
X0513550Y0182902D03*
X0513550Y0172902D03*
X0506071Y0172902D03*
X0506071Y0192902D03*
X0513550Y0192902D03*
X0513550Y0202902D03*
X0506071Y0202902D03*
D387*
X0524811Y0202902D03*
X0534811Y0202902D03*
X0534811Y0192902D03*
X0524811Y0192902D03*
X0524811Y0182902D03*
X0534811Y0182902D03*
X0534811Y0172902D03*
X0524811Y0172902D03*
D388*
X0488110Y0191902D03*
X0488110Y0196902D03*
X0488110Y0201901D03*
X0488110Y0206902D03*
X0461611Y0206902D03*
X0461611Y0201901D03*
X0461611Y0196902D03*
X0461611Y0191902D03*
D389*
X0445185Y0192709D03*
X0429437Y0192709D03*
X0429437Y0199402D03*
X0445185Y0199402D03*
X0445185Y0206095D03*
X0429437Y0206095D03*
X0429437Y0182995D03*
X0445185Y0182995D03*
X0445185Y0176302D03*
X0429437Y0176302D03*
X0429437Y0169609D03*
X0445185Y0169609D03*
G04 next file*
G75*
D400*
X0417311Y0105224D02*
X0574437Y0105224D01*
X0574627Y0105227D01*
X0574817Y0105234D01*
X0575007Y0105246D01*
X0575197Y0105261D01*
X0575386Y0105282D01*
X0575575Y0105308D01*
X0575763Y0105336D01*
X0575950Y0105372D01*
X0576136Y0105411D01*
X0576320Y0105454D01*
X0576506Y0105502D01*
X0576689Y0105553D01*
X0576870Y0105610D01*
X0577050Y0105671D01*
X0577229Y0105736D01*
X0577406Y0105806D01*
X0577582Y0105880D01*
X0577755Y0105958D01*
X0577927Y0106041D01*
X0578096Y0106127D01*
X0578264Y0106217D01*
X0578429Y0106312D01*
X0578592Y0106410D01*
X0578752Y0106512D01*
X0578910Y0106619D01*
X0579065Y0106729D01*
X0579218Y0106841D01*
X0579368Y0106960D01*
X0579514Y0107081D01*
X0579658Y0107205D01*
X0579799Y0107332D01*
X0579937Y0107464D01*
X0580072Y0107599D01*
X0580203Y0107737D01*
X0580331Y0107878D01*
X0580455Y0108022D01*
X0580576Y0108168D01*
X0580694Y0108318D01*
X0580806Y0108471D01*
X0580916Y0108626D01*
X0581023Y0108783D01*
X0581126Y0108944D01*
X0581224Y0109107D01*
X0581319Y0109271D01*
X0581409Y0109440D01*
X0581495Y0109609D01*
X0581578Y0109781D01*
X0581656Y0109954D01*
X0581730Y0110130D01*
X0581799Y0110307D01*
X0581864Y0110486D01*
X0581926Y0110666D01*
X0581981Y0110847D01*
X0582034Y0111030D01*
X0582082Y0111215D01*
X0582125Y0111400D01*
X0582164Y0111586D01*
X0582199Y0111772D01*
X0582228Y0111961D01*
X0582254Y0112150D01*
X0582274Y0112339D01*
X0582290Y0112528D01*
X0582301Y0112718D01*
X0582309Y0112908D01*
X0582311Y0113099D01*
X0582311Y0144595D01*
X0582309Y0144785D01*
X0582301Y0144975D01*
X0582290Y0145165D01*
X0582274Y0145355D01*
X0582254Y0145544D01*
X0582228Y0145733D01*
X0582199Y0145921D01*
X0582164Y0146108D01*
X0582125Y0146293D01*
X0582082Y0146479D01*
X0582034Y0146664D01*
X0581981Y0146847D01*
X0581926Y0147028D01*
X0581864Y0147207D01*
X0581799Y0147387D01*
X0581730Y0147564D01*
X0581656Y0147740D01*
X0581578Y0147913D01*
X0581495Y0148084D01*
X0581409Y0148254D01*
X0581319Y0148422D01*
X0581224Y0148587D01*
X0581126Y0148750D01*
X0581023Y0148910D01*
X0580916Y0149067D01*
X0580806Y0149222D01*
X0580694Y0149376D01*
X0580576Y0149526D01*
X0580455Y0149672D01*
X0580331Y0149816D01*
X0580203Y0149957D01*
X0580072Y0150095D01*
X0579937Y0150230D01*
X0579799Y0150361D01*
X0579658Y0150489D01*
X0579514Y0150613D01*
X0579368Y0150734D01*
X0579218Y0150852D01*
X0579065Y0150965D01*
X0578910Y0151075D01*
X0578752Y0151181D01*
X0578592Y0151284D01*
X0578429Y0151382D01*
X0578264Y0151476D01*
X0578096Y0151567D01*
X0577927Y0151653D01*
X0577755Y0151736D01*
X0577582Y0151814D01*
X0577406Y0151888D01*
X0577229Y0151957D01*
X0577050Y0152023D01*
X0576870Y0152084D01*
X0576689Y0152140D01*
X0576506Y0152192D01*
X0576320Y0152240D01*
X0576136Y0152282D01*
X0575950Y0152322D01*
X0575763Y0152357D01*
X0575575Y0152386D01*
X0575386Y0152412D01*
X0575197Y0152432D01*
X0575007Y0152448D01*
X0574817Y0152459D01*
X0574627Y0152467D01*
X0574437Y0152469D01*
X0417311Y0152469D01*
X0417171Y0152467D01*
X0417031Y0152461D01*
X0416891Y0152450D01*
X0416751Y0152438D01*
X0416612Y0152420D01*
X0416472Y0152398D01*
X0416336Y0152373D01*
X0416198Y0152344D01*
X0416062Y0152311D01*
X0415927Y0152273D01*
X0415793Y0152233D01*
X0415660Y0152188D01*
X0415528Y0152140D01*
X0415398Y0152087D01*
X0415269Y0152033D01*
X0415142Y0151974D01*
X0415015Y0151910D01*
X0414892Y0151845D01*
X0414771Y0151776D01*
X0414651Y0151703D01*
X0414533Y0151626D01*
X0414418Y0151547D01*
X0414304Y0151464D01*
X0414194Y0151378D01*
X0414085Y0151289D01*
X0413978Y0151197D01*
X0413876Y0151102D01*
X0413774Y0151005D01*
X0413678Y0150904D01*
X0413583Y0150801D01*
X0413490Y0150695D01*
X0413401Y0150586D01*
X0413316Y0150476D01*
X0413232Y0150362D01*
X0413154Y0150247D01*
X0413077Y0150129D01*
X0413004Y0150009D01*
X0412934Y0149888D01*
X0412869Y0149764D01*
X0412805Y0149638D01*
X0412747Y0149510D01*
X0412692Y0149382D01*
X0412640Y0149252D01*
X0412592Y0149120D01*
X0412547Y0148987D01*
X0412506Y0148853D01*
X0412469Y0148718D01*
X0412436Y0148582D01*
X0412406Y0148444D01*
X0412382Y0148307D01*
X0412360Y0148168D01*
X0412342Y0148029D01*
X0412329Y0147889D01*
X0412319Y0147749D01*
X0412313Y0147608D01*
X0412310Y0147469D01*
X0412310Y0110225D01*
X0412313Y0110085D01*
X0412319Y0109945D01*
X0412329Y0109805D01*
X0412342Y0109664D01*
X0412360Y0109525D01*
X0412382Y0109386D01*
X0412406Y0109250D01*
X0412436Y0109112D01*
X0412469Y0108976D01*
X0412506Y0108841D01*
X0412547Y0108707D01*
X0412592Y0108574D01*
X0412640Y0108442D01*
X0412692Y0108312D01*
X0412747Y0108183D01*
X0412805Y0108056D01*
X0412869Y0107929D01*
X0412934Y0107806D01*
X0413004Y0107685D01*
X0413077Y0107565D01*
X0413154Y0107447D01*
X0413232Y0107332D01*
X0413316Y0107217D01*
X0413401Y0107108D01*
X0413490Y0106999D01*
X0413583Y0106893D01*
X0413678Y0106790D01*
X0413774Y0106688D01*
X0413876Y0106592D01*
X0413978Y0106497D01*
X0414085Y0106405D01*
X0414194Y0106316D01*
X0414304Y0106230D01*
X0414418Y0106146D01*
X0414533Y0106068D01*
X0414651Y0105990D01*
X0414771Y0105918D01*
X0414892Y0105849D01*
X0415015Y0105783D01*
X0415142Y0105719D01*
X0415269Y0105661D01*
X0415398Y0105606D01*
X0415528Y0105553D01*
X0415660Y0105506D01*
X0415793Y0105461D01*
X0415927Y0105420D01*
X0416062Y0105383D01*
X0416198Y0105350D01*
X0416336Y0105321D01*
X0416472Y0105295D01*
X0416612Y0105274D01*
X0416751Y0105256D01*
X0416891Y0105243D01*
X0417031Y0105233D01*
X0417171Y0105227D01*
X0417311Y0105224D01*
D401*
X0463571Y0113847D03*
X0471051Y0113847D03*
X0471051Y0123847D03*
X0463571Y0123847D03*
X0506071Y0123847D03*
X0513550Y0123847D03*
X0513550Y0113847D03*
X0506071Y0113847D03*
X0506071Y0133847D03*
X0513550Y0133847D03*
X0513550Y0143847D03*
X0506071Y0143847D03*
D402*
X0524811Y0143847D03*
X0534811Y0143847D03*
X0534811Y0133847D03*
X0524811Y0133847D03*
X0524811Y0123847D03*
X0534811Y0123847D03*
X0534811Y0113847D03*
X0524811Y0113847D03*
D403*
X0488110Y0132847D03*
X0488110Y0137847D03*
X0488110Y0142847D03*
X0488110Y0147847D03*
X0461611Y0147847D03*
X0461611Y0142847D03*
X0461611Y0137847D03*
X0461611Y0132847D03*
D404*
X0445185Y0133654D03*
X0429437Y0133654D03*
X0429437Y0140347D03*
X0445185Y0140347D03*
X0445185Y0147039D03*
X0429437Y0147039D03*
X0429437Y0123940D03*
X0445185Y0123940D03*
X0445185Y0117246D03*
X0429437Y0117246D03*
X0429437Y0110554D03*
X0445185Y0110554D03*
G75*
D415*
X0417311Y0554042D02*
X0574437Y0554042D01*
X0574627Y0554046D01*
X0574817Y0554053D01*
X0575007Y0554065D01*
X0575197Y0554081D01*
X0575386Y0554101D01*
X0575575Y0554127D01*
X0575763Y0554156D01*
X0575950Y0554191D01*
X0576136Y0554230D01*
X0576320Y0554273D01*
X0576506Y0554319D01*
X0576689Y0554373D01*
X0576870Y0554429D01*
X0577050Y0554490D01*
X0577229Y0554556D01*
X0577406Y0554625D01*
X0577582Y0554699D01*
X0577755Y0554777D01*
X0577927Y0554860D01*
X0578096Y0554946D01*
X0578264Y0555036D01*
X0578429Y0555131D01*
X0578592Y0555229D01*
X0578752Y0555332D01*
X0578910Y0555438D01*
X0579065Y0555548D01*
X0579218Y0555661D01*
X0579368Y0555778D01*
X0579514Y0555900D01*
X0579658Y0556024D01*
X0579799Y0556152D01*
X0579937Y0556282D01*
X0580072Y0556418D01*
X0580203Y0556556D01*
X0580331Y0556697D01*
X0580455Y0556841D01*
X0580576Y0556987D01*
X0580694Y0557137D01*
X0580806Y0557290D01*
X0580916Y0557445D01*
X0581023Y0557603D01*
X0581126Y0557763D01*
X0581224Y0557926D01*
X0581319Y0558091D01*
X0581409Y0558259D01*
X0581495Y0558428D01*
X0581578Y0558600D01*
X0581656Y0558773D01*
X0581730Y0558949D01*
X0581799Y0559126D01*
X0581864Y0559305D01*
X0581926Y0559485D01*
X0581981Y0559666D01*
X0582034Y0559849D01*
X0582082Y0560034D01*
X0582125Y0560219D01*
X0582164Y0560405D01*
X0582199Y0560592D01*
X0582228Y0560780D01*
X0582254Y0560969D01*
X0582274Y0561158D01*
X0582290Y0561348D01*
X0582301Y0561538D01*
X0582309Y0561728D01*
X0582311Y0561918D01*
X0582311Y0593414D01*
X0582309Y0593604D01*
X0582301Y0593794D01*
X0582290Y0593984D01*
X0582274Y0594174D01*
X0582254Y0594363D01*
X0582228Y0594552D01*
X0582199Y0594739D01*
X0582164Y0594927D01*
X0582125Y0595113D01*
X0582082Y0595298D01*
X0582034Y0595483D01*
X0581981Y0595666D01*
X0581926Y0595847D01*
X0581864Y0596027D01*
X0581799Y0596206D01*
X0581730Y0596383D01*
X0581656Y0596559D01*
X0581578Y0596732D01*
X0581495Y0596904D01*
X0581409Y0597073D01*
X0581319Y0597241D01*
X0581224Y0597406D01*
X0581126Y0597569D01*
X0581023Y0597729D01*
X0580916Y0597887D01*
X0580806Y0598042D01*
X0580694Y0598195D01*
X0580576Y0598345D01*
X0580455Y0598491D01*
X0580331Y0598634D01*
X0580203Y0598776D01*
X0580072Y0598914D01*
X0579937Y0599049D01*
X0579799Y0599180D01*
X0579658Y0599308D01*
X0579514Y0599432D01*
X0579368Y0599553D01*
X0579218Y0599671D01*
X0579065Y0599784D01*
X0578910Y0599894D01*
X0578752Y0599999D01*
X0578592Y0600103D01*
X0578429Y0600201D01*
X0578264Y0600296D01*
X0578096Y0600386D01*
X0577927Y0600472D01*
X0577755Y0600555D01*
X0577582Y0600633D01*
X0577406Y0600706D01*
X0577229Y0600776D01*
X0577050Y0600842D01*
X0576870Y0600903D01*
X0576689Y0600959D01*
X0576506Y0601011D01*
X0576320Y0601059D01*
X0576136Y0601102D01*
X0575950Y0601141D01*
X0575763Y0601176D01*
X0575575Y0601205D01*
X0575386Y0601231D01*
X0575197Y0601251D01*
X0575007Y0601267D01*
X0574817Y0601279D01*
X0574627Y0601286D01*
X0574437Y0601288D01*
X0417311Y0601288D01*
X0417171Y0601286D01*
X0417031Y0601280D01*
X0416891Y0601270D01*
X0416751Y0601257D01*
X0416612Y0601239D01*
X0416472Y0601217D01*
X0416336Y0601192D01*
X0416198Y0601163D01*
X0416062Y0601130D01*
X0415927Y0601093D01*
X0415793Y0601052D01*
X0415660Y0601007D01*
X0415528Y0600959D01*
X0415398Y0600907D01*
X0415269Y0600852D01*
X0415142Y0600793D01*
X0415015Y0600730D01*
X0414892Y0600664D01*
X0414771Y0600595D01*
X0414651Y0600522D01*
X0414533Y0600443D01*
X0414418Y0600366D01*
X0414304Y0600283D01*
X0414194Y0600196D01*
X0414085Y0600108D01*
X0413978Y0600016D01*
X0413876Y0599921D01*
X0413774Y0599824D01*
X0413678Y0599723D01*
X0413583Y0599619D01*
X0413490Y0599514D01*
X0413401Y0599405D01*
X0413316Y0599295D01*
X0413232Y0599181D01*
X0413154Y0599064D01*
X0413077Y0598948D01*
X0413004Y0598828D01*
X0412934Y0598707D01*
X0412869Y0598583D01*
X0412805Y0598457D01*
X0412747Y0598330D01*
X0412692Y0598201D01*
X0412640Y0598071D01*
X0412592Y0597939D01*
X0412547Y0597806D01*
X0412506Y0597672D01*
X0412469Y0597537D01*
X0412436Y0597401D01*
X0412406Y0597263D01*
X0412382Y0597126D01*
X0412360Y0596986D01*
X0412342Y0596848D01*
X0412329Y0596708D01*
X0412319Y0596568D01*
X0412313Y0596428D01*
X0412310Y0596288D01*
X0412310Y0559044D01*
X0412313Y0558904D01*
X0412319Y0558764D01*
X0412329Y0558624D01*
X0412342Y0558484D01*
X0412360Y0558345D01*
X0412382Y0558206D01*
X0412406Y0558069D01*
X0412436Y0557931D01*
X0412469Y0557795D01*
X0412506Y0557660D01*
X0412547Y0557526D01*
X0412592Y0557393D01*
X0412640Y0557261D01*
X0412692Y0557131D01*
X0412747Y0557002D01*
X0412805Y0556875D01*
X0412869Y0556749D01*
X0412934Y0556625D01*
X0413004Y0556504D01*
X0413077Y0556384D01*
X0413154Y0556266D01*
X0413232Y0556151D01*
X0413316Y0556037D01*
X0413401Y0555927D01*
X0413490Y0555818D01*
X0413583Y0555712D01*
X0413678Y0555609D01*
X0413774Y0555508D01*
X0413876Y0555411D01*
X0413978Y0555316D01*
X0414085Y0555224D01*
X0414194Y0555135D01*
X0414304Y0555049D01*
X0414418Y0554966D01*
X0414533Y0554887D01*
X0414651Y0554810D01*
X0414771Y0554737D01*
X0414892Y0554668D01*
X0415015Y0554602D01*
X0415142Y0554539D01*
X0415269Y0554480D01*
X0415398Y0554425D01*
X0415528Y0554373D01*
X0415660Y0554325D01*
X0415793Y0554280D01*
X0415927Y0554239D01*
X0416062Y0554202D01*
X0416198Y0554169D01*
X0416336Y0554140D01*
X0416472Y0554115D01*
X0416612Y0554093D01*
X0416751Y0554075D01*
X0416891Y0554062D01*
X0417031Y0554052D01*
X0417171Y0554046D01*
X0417311Y0554042D01*
D416*
X0463571Y0562664D03*
X0471051Y0562664D03*
X0471051Y0572666D03*
X0463571Y0572666D03*
X0506071Y0572666D03*
X0513550Y0572666D03*
X0513550Y0562664D03*
X0506071Y0562664D03*
X0506071Y0582666D03*
X0513550Y0582666D03*
X0513550Y0592666D03*
X0506071Y0592666D03*
D417*
X0524811Y0592666D03*
X0534811Y0592666D03*
X0534811Y0582666D03*
X0524811Y0582666D03*
X0524811Y0572666D03*
X0534811Y0572666D03*
X0534811Y0562664D03*
X0524811Y0562664D03*
D418*
X0488110Y0581666D03*
X0488110Y0586666D03*
X0488110Y0591666D03*
X0488110Y0596664D03*
X0461611Y0596664D03*
X0461611Y0591666D03*
X0461611Y0586666D03*
X0461611Y0581666D03*
D419*
X0445185Y0582473D03*
X0429437Y0582473D03*
X0429437Y0589166D03*
X0445185Y0589166D03*
X0445185Y0595859D03*
X0429437Y0595859D03*
X0429437Y0572759D03*
X0445185Y0572759D03*
X0445185Y0566066D03*
X0429437Y0566066D03*
X0429437Y0559373D03*
X0445185Y0559373D03*
G04 next file*
G75*
D430*
X0417311Y0278453D02*
X0574437Y0278453D01*
X0574627Y0278454D01*
X0574817Y0278462D01*
X0575007Y0278474D01*
X0575197Y0278490D01*
X0575386Y0278510D01*
X0575575Y0278536D01*
X0575763Y0278565D01*
X0575950Y0278600D01*
X0576136Y0278639D01*
X0576320Y0278682D01*
X0576506Y0278730D01*
X0576689Y0278782D01*
X0576870Y0278838D01*
X0577050Y0278899D01*
X0577229Y0278965D01*
X0577406Y0279034D01*
X0577582Y0279107D01*
X0577755Y0279186D01*
X0577927Y0279269D01*
X0578096Y0279355D01*
X0578264Y0279445D01*
X0578429Y0279540D01*
X0578592Y0279638D01*
X0578752Y0279741D01*
X0578910Y0279847D01*
X0579065Y0279957D01*
X0579218Y0280070D01*
X0579368Y0280187D01*
X0579514Y0280309D01*
X0579658Y0280433D01*
X0579799Y0280561D01*
X0579937Y0280692D01*
X0580072Y0280827D01*
X0580203Y0280965D01*
X0580331Y0281106D01*
X0580455Y0281250D01*
X0580576Y0281396D01*
X0580694Y0281546D01*
X0580806Y0281699D01*
X0580916Y0281854D01*
X0581023Y0282012D01*
X0581126Y0282172D01*
X0581224Y0282335D01*
X0581319Y0282500D01*
X0581409Y0282667D01*
X0581495Y0282837D01*
X0581578Y0283009D01*
X0581656Y0283181D01*
X0581730Y0283358D01*
X0581799Y0283535D01*
X0581864Y0283714D01*
X0581926Y0283894D01*
X0581981Y0284075D01*
X0582034Y0284257D01*
X0582082Y0284443D01*
X0582125Y0284628D01*
X0582164Y0284814D01*
X0582199Y0285001D01*
X0582228Y0285189D01*
X0582254Y0285378D01*
X0582274Y0285567D01*
X0582290Y0285756D01*
X0582301Y0285947D01*
X0582309Y0286137D01*
X0582311Y0286327D01*
X0582311Y0317823D01*
X0582309Y0318013D01*
X0582301Y0318203D01*
X0582290Y0318393D01*
X0582274Y0318583D01*
X0582254Y0318772D01*
X0582228Y0318961D01*
X0582199Y0319149D01*
X0582164Y0319336D01*
X0582125Y0319522D01*
X0582082Y0319707D01*
X0582034Y0319892D01*
X0581981Y0320075D01*
X0581926Y0320256D01*
X0581864Y0320436D01*
X0581799Y0320615D01*
X0581730Y0320792D01*
X0581656Y0320968D01*
X0581578Y0321141D01*
X0581495Y0321313D01*
X0581409Y0321482D01*
X0581319Y0321649D01*
X0581224Y0321815D01*
X0581126Y0321978D01*
X0581023Y0322138D01*
X0580916Y0322295D01*
X0580806Y0322451D01*
X0580694Y0322604D01*
X0580576Y0322754D01*
X0580455Y0322900D01*
X0580331Y0323044D01*
X0580203Y0323185D01*
X0580072Y0323323D01*
X0579937Y0323458D01*
X0579799Y0323589D01*
X0579658Y0323717D01*
X0579514Y0323841D01*
X0579368Y0323962D01*
X0579218Y0324080D01*
X0579065Y0324193D01*
X0578910Y0324303D01*
X0578752Y0324409D01*
X0578592Y0324512D01*
X0578429Y0324610D01*
X0578264Y0324705D01*
X0578096Y0324795D01*
X0577927Y0324881D01*
X0577755Y0324964D01*
X0577582Y0325042D01*
X0577406Y0325116D01*
X0577229Y0325185D01*
X0577050Y0325251D01*
X0576870Y0325311D01*
X0576689Y0325368D01*
X0576506Y0325420D01*
X0576320Y0325468D01*
X0576136Y0325511D01*
X0575950Y0325550D01*
X0575763Y0325585D01*
X0575575Y0325614D01*
X0575386Y0325640D01*
X0575197Y0325660D01*
X0575007Y0325676D01*
X0574817Y0325688D01*
X0574627Y0325695D01*
X0574437Y0325697D01*
X0417311Y0325697D01*
X0417171Y0325695D01*
X0417031Y0325689D01*
X0416891Y0325679D01*
X0416751Y0325665D01*
X0416612Y0325648D01*
X0416472Y0325626D01*
X0416336Y0325601D01*
X0416198Y0325572D01*
X0416062Y0325539D01*
X0415927Y0325501D01*
X0415793Y0325461D01*
X0415660Y0325416D01*
X0415528Y0325368D01*
X0415398Y0325316D01*
X0415269Y0325261D01*
X0415142Y0325202D01*
X0415015Y0325139D01*
X0414892Y0325073D01*
X0414771Y0325004D01*
X0414651Y0324931D01*
X0414533Y0324854D01*
X0414418Y0324775D01*
X0414304Y0324692D01*
X0414194Y0324606D01*
X0414085Y0324517D01*
X0413978Y0324425D01*
X0413876Y0324330D01*
X0413774Y0324233D01*
X0413678Y0324132D01*
X0413583Y0324029D01*
X0413490Y0323923D01*
X0413401Y0323814D01*
X0413316Y0323704D01*
X0413232Y0323590D01*
X0413154Y0323475D01*
X0413077Y0323356D01*
X0413004Y0323237D01*
X0412934Y0323116D01*
X0412869Y0322992D01*
X0412805Y0322866D01*
X0412747Y0322739D01*
X0412692Y0322610D01*
X0412640Y0322480D01*
X0412592Y0322348D01*
X0412547Y0322215D01*
X0412506Y0322081D01*
X0412469Y0321946D01*
X0412436Y0321810D01*
X0412406Y0321671D01*
X0412382Y0321535D01*
X0412360Y0321396D01*
X0412342Y0321257D01*
X0412329Y0321117D01*
X0412319Y0320977D01*
X0412313Y0320837D01*
X0412310Y0320697D01*
X0412310Y0283453D01*
X0412313Y0283313D01*
X0412319Y0283173D01*
X0412329Y0283033D01*
X0412342Y0282893D01*
X0412360Y0282754D01*
X0412382Y0282615D01*
X0412406Y0282478D01*
X0412436Y0282340D01*
X0412469Y0282204D01*
X0412506Y0282069D01*
X0412547Y0281935D01*
X0412592Y0281802D01*
X0412640Y0281670D01*
X0412692Y0281540D01*
X0412747Y0281411D01*
X0412805Y0281284D01*
X0412869Y0281158D01*
X0412934Y0281033D01*
X0413004Y0280913D01*
X0413077Y0280793D01*
X0413154Y0280675D01*
X0413232Y0280559D01*
X0413316Y0280446D01*
X0413401Y0280336D01*
X0413490Y0280227D01*
X0413583Y0280121D01*
X0413678Y0280018D01*
X0413774Y0279917D01*
X0413876Y0279820D01*
X0413978Y0279725D01*
X0414085Y0279633D01*
X0414194Y0279544D01*
X0414304Y0279457D01*
X0414418Y0279375D01*
X0414533Y0279296D01*
X0414651Y0279219D01*
X0414771Y0279146D01*
X0414892Y0279077D01*
X0415015Y0279011D01*
X0415142Y0278948D01*
X0415269Y0278888D01*
X0415398Y0278834D01*
X0415528Y0278782D01*
X0415660Y0278734D01*
X0415793Y0278689D01*
X0415927Y0278648D01*
X0416062Y0278611D01*
X0416198Y0278578D01*
X0416336Y0278549D01*
X0416472Y0278524D01*
X0416612Y0278502D01*
X0416751Y0278484D01*
X0416891Y0278471D01*
X0417031Y0278461D01*
X0417171Y0278454D01*
X0417311Y0278453D01*
D431*
X0463571Y0287075D03*
X0471051Y0287075D03*
X0471051Y0297075D03*
X0463571Y0297075D03*
X0506071Y0297075D03*
X0513550Y0297075D03*
X0513550Y0287075D03*
X0506071Y0287075D03*
X0506071Y0307075D03*
X0513550Y0307075D03*
X0513550Y0317075D03*
X0506071Y0317075D03*
D432*
X0524811Y0317075D03*
X0534811Y0317075D03*
X0534811Y0307075D03*
X0524811Y0307075D03*
X0524811Y0297075D03*
X0534811Y0297075D03*
X0534811Y0287075D03*
X0524811Y0287075D03*
D433*
X0488110Y0306075D03*
X0488110Y0311075D03*
X0488110Y0316075D03*
X0488110Y0321075D03*
X0461611Y0321075D03*
X0461611Y0316075D03*
X0461611Y0311075D03*
X0461611Y0306075D03*
D434*
X0445185Y0306882D03*
X0429437Y0306882D03*
X0429437Y0313575D03*
X0445185Y0313575D03*
X0445185Y0320267D03*
X0429437Y0320267D03*
X0429437Y0297168D03*
X0445185Y0297168D03*
X0445185Y0290475D03*
X0429437Y0290475D03*
X0429437Y0283782D03*
X0445185Y0283782D03*
G04 next file*
G75*
D445*
X0417311Y0223335D02*
X0574437Y0223335D01*
X0574627Y0223337D01*
X0574817Y0223344D01*
X0575007Y0223356D01*
X0575197Y0223372D01*
X0575386Y0223392D01*
X0575575Y0223417D01*
X0575763Y0223447D01*
X0575950Y0223482D01*
X0576136Y0223521D01*
X0576320Y0223564D01*
X0576506Y0223612D01*
X0576689Y0223664D01*
X0576870Y0223720D01*
X0577050Y0223781D01*
X0577229Y0223847D01*
X0577406Y0223916D01*
X0577582Y0223990D01*
X0577755Y0224067D01*
X0577927Y0224151D01*
X0578096Y0224237D01*
X0578264Y0224327D01*
X0578429Y0224422D01*
X0578592Y0224520D01*
X0578752Y0224623D01*
X0578910Y0224729D01*
X0579065Y0224839D01*
X0579218Y0224952D01*
X0579368Y0225070D01*
X0579514Y0225191D01*
X0579658Y0225315D01*
X0579799Y0225443D01*
X0579937Y0225574D01*
X0580072Y0225708D01*
X0580203Y0225847D01*
X0580331Y0225988D01*
X0580455Y0226132D01*
X0580576Y0226277D01*
X0580694Y0226426D01*
X0580806Y0226581D01*
X0580916Y0226736D01*
X0581023Y0226894D01*
X0581126Y0227054D01*
X0581224Y0227217D01*
X0581319Y0227382D01*
X0581409Y0227550D01*
X0581495Y0227719D01*
X0581578Y0227891D01*
X0581656Y0228064D01*
X0581730Y0228240D01*
X0581799Y0228417D01*
X0581864Y0228596D01*
X0581926Y0228776D01*
X0581981Y0228957D01*
X0582034Y0229140D01*
X0582082Y0229325D01*
X0582125Y0229510D01*
X0582164Y0229696D01*
X0582199Y0229883D01*
X0582228Y0230071D01*
X0582254Y0230260D01*
X0582274Y0230449D01*
X0582290Y0230639D01*
X0582301Y0230829D01*
X0582309Y0231019D01*
X0582311Y0231209D01*
X0582311Y0262705D01*
X0582309Y0262895D01*
X0582301Y0263085D01*
X0582290Y0263275D01*
X0582274Y0263465D01*
X0582254Y0263654D01*
X0582228Y0263843D01*
X0582199Y0264031D01*
X0582164Y0264218D01*
X0582125Y0264404D01*
X0582082Y0264589D01*
X0582034Y0264774D01*
X0581981Y0264957D01*
X0581926Y0265138D01*
X0581864Y0265318D01*
X0581799Y0265497D01*
X0581730Y0265674D01*
X0581656Y0265850D01*
X0581578Y0266023D01*
X0581495Y0266195D01*
X0581409Y0266364D01*
X0581319Y0266531D01*
X0581224Y0266697D01*
X0581126Y0266860D01*
X0581023Y0267020D01*
X0580916Y0267178D01*
X0580806Y0267333D01*
X0580694Y0267486D01*
X0580576Y0267636D01*
X0580455Y0267782D01*
X0580331Y0267926D01*
X0580203Y0268067D01*
X0580072Y0268205D01*
X0579937Y0268340D01*
X0579799Y0268471D01*
X0579658Y0268599D01*
X0579514Y0268723D01*
X0579368Y0268844D01*
X0579218Y0268962D01*
X0579065Y0269075D01*
X0578910Y0269185D01*
X0578752Y0269291D01*
X0578592Y0269394D01*
X0578429Y0269492D01*
X0578264Y0269587D01*
X0578096Y0269677D01*
X0577927Y0269763D01*
X0577755Y0269846D01*
X0577582Y0269924D01*
X0577406Y0269998D01*
X0577229Y0270067D01*
X0577050Y0270133D01*
X0576870Y0270193D01*
X0576689Y0270250D01*
X0576506Y0270302D01*
X0576320Y0270350D01*
X0576136Y0270393D01*
X0575950Y0270432D01*
X0575763Y0270467D01*
X0575575Y0270496D01*
X0575386Y0270522D01*
X0575197Y0270542D01*
X0575007Y0270558D01*
X0574817Y0270570D01*
X0574627Y0270577D01*
X0574437Y0270579D01*
X0417311Y0270579D01*
X0417171Y0270577D01*
X0417031Y0270571D01*
X0416891Y0270561D01*
X0416751Y0270547D01*
X0416612Y0270530D01*
X0416472Y0270507D01*
X0416336Y0270483D01*
X0416198Y0270454D01*
X0416062Y0270421D01*
X0415927Y0270384D01*
X0415793Y0270343D01*
X0415660Y0270298D01*
X0415528Y0270250D01*
X0415398Y0270198D01*
X0415269Y0270143D01*
X0415142Y0270084D01*
X0415015Y0270021D01*
X0414892Y0269955D01*
X0414771Y0269886D01*
X0414651Y0269813D01*
X0414533Y0269736D01*
X0414418Y0269657D01*
X0414304Y0269574D01*
X0414194Y0269488D01*
X0414085Y0269399D01*
X0413978Y0269307D01*
X0413876Y0269212D01*
X0413774Y0269115D01*
X0413678Y0269014D01*
X0413583Y0268911D01*
X0413490Y0268805D01*
X0413401Y0268696D01*
X0413316Y0268586D01*
X0413232Y0268472D01*
X0413154Y0268357D01*
X0413077Y0268239D01*
X0413004Y0268119D01*
X0412934Y0267998D01*
X0412869Y0267873D01*
X0412805Y0267748D01*
X0412747Y0267621D01*
X0412692Y0267492D01*
X0412640Y0267362D01*
X0412592Y0267230D01*
X0412547Y0267097D01*
X0412506Y0266963D01*
X0412469Y0266828D01*
X0412436Y0266692D01*
X0412406Y0266553D01*
X0412382Y0266417D01*
X0412360Y0266278D01*
X0412342Y0266139D01*
X0412329Y0265999D01*
X0412319Y0265859D01*
X0412313Y0265719D01*
X0412310Y0265579D01*
X0412310Y0228335D01*
X0412313Y0228195D01*
X0412319Y0228055D01*
X0412329Y0227915D01*
X0412342Y0227775D01*
X0412360Y0227636D01*
X0412382Y0227497D01*
X0412406Y0227360D01*
X0412436Y0227222D01*
X0412469Y0227086D01*
X0412506Y0226951D01*
X0412547Y0226817D01*
X0412592Y0226684D01*
X0412640Y0226552D01*
X0412692Y0226422D01*
X0412747Y0226293D01*
X0412805Y0226166D01*
X0412869Y0226040D01*
X0412934Y0225916D01*
X0413004Y0225795D01*
X0413077Y0225674D01*
X0413154Y0225557D01*
X0413232Y0225442D01*
X0413316Y0225328D01*
X0413401Y0225218D01*
X0413490Y0225109D01*
X0413583Y0225003D01*
X0413678Y0224900D01*
X0413774Y0224799D01*
X0413876Y0224702D01*
X0413978Y0224607D01*
X0414085Y0224515D01*
X0414194Y0224426D01*
X0414304Y0224339D01*
X0414418Y0224257D01*
X0414533Y0224178D01*
X0414651Y0224101D01*
X0414771Y0224027D01*
X0414892Y0223959D01*
X0415015Y0223893D01*
X0415142Y0223830D01*
X0415269Y0223771D01*
X0415398Y0223715D01*
X0415528Y0223664D01*
X0415660Y0223616D01*
X0415793Y0223571D01*
X0415927Y0223530D01*
X0416062Y0223493D01*
X0416198Y0223460D01*
X0416336Y0223430D01*
X0416472Y0223406D01*
X0416612Y0223383D01*
X0416751Y0223366D01*
X0416891Y0223353D01*
X0417031Y0223342D01*
X0417171Y0223337D01*
X0417311Y0223335D01*
D446*
X0463571Y0231957D03*
X0471051Y0231957D03*
X0471051Y0241957D03*
X0463571Y0241957D03*
X0506071Y0241957D03*
X0513550Y0241957D03*
X0513550Y0231957D03*
X0506071Y0231957D03*
X0506071Y0251957D03*
X0513550Y0251957D03*
X0513550Y0261957D03*
X0506071Y0261957D03*
D447*
X0524811Y0261957D03*
X0534811Y0261957D03*
X0534811Y0251957D03*
X0524811Y0251957D03*
X0524811Y0241957D03*
X0534811Y0241957D03*
X0534811Y0231957D03*
X0524811Y0231957D03*
D448*
X0488110Y0250957D03*
X0488110Y0255957D03*
X0488110Y0260957D03*
X0488110Y0265957D03*
X0461611Y0265957D03*
X0461611Y0260957D03*
X0461611Y0255957D03*
X0461611Y0250957D03*
D449*
X0445185Y0251764D03*
X0429437Y0251764D03*
X0429437Y0258457D03*
X0445185Y0258457D03*
X0445185Y0265150D03*
X0429437Y0265150D03*
X0429437Y0242050D03*
X0445185Y0242050D03*
X0445185Y0235357D03*
X0429437Y0235357D03*
X0429437Y0228663D03*
X0445185Y0228663D03*
M02*