%MOIN*%
%OFA0B0*%
%FSLAX45Y45*%
%IPPOS*%
%LPD*%
%AMOC8*
5,1,8,0,0,1.08239X$1,22.5*%
%AMOC80*
5,1,8,0,0,1.08239X$1,22.5*%
%AMOC800*
5,1,8,0,0,1.08239X$1,22.5*%
%AMOC81*
5,1,8,0,0,1.08239X$1,22.5*%
%AMOC801*
5,1,8,0,0,1.08239X$1,22.5*%
%AMOC810*
5,1,8,0,0,1.08239X$1,22.5*%
%AMOC8000*
5,1,8,0,0,1.08239X$1,22.5*%
%AMOC82*
5,1,8,0,0,1.08239X$1,22.5*%
%AMOC802*
5,1,8,0,0,1.08239X$1,22.5*%
%AMOC811*
5,1,8,0,0,1.08239X$1,22.5*%
%AMOC8001*
5,1,8,0,0,1.08239X$1,22.5*%
%AMOC820*
5,1,8,0,0,1.08239X$1,22.5*%
%AMOC8010*
5,1,8,0,0,1.08239X$1,22.5*%
%AMOC80000*
5,1,8,0,0,1.08239X$1,22.5*%
%AMOC83*
5,1,8,0,0,1.08239X$1,22.5*%
%AMOC803*
5,1,8,0,0,1.08239X$1,22.5*%
%AMOC812*
5,1,8,0,0,1.08239X$1,22.5*%
%AMOC8002*
5,1,8,0,0,1.08239X$1,22.5*%
%AMOC821*
5,1,8,0,0,1.08239X$1,22.5*%
%AMOC8011*
5,1,8,0,0,1.08239X$1,22.5*%
%AMOC8100*
5,1,8,0,0,1.08239X$1,22.5*%
%AMOC80001*
5,1,8,0,0,1.08239X$1,22.5*%
%AMOC830*
5,1,8,0,0,1.08239X$1,22.5*%
%AMOC8020*
5,1,8,0,0,1.08239X$1,22.5*%
%AMOC8110*
5,1,8,0,0,1.08239X$1,22.5*%
%AMOC80010*
5,1,8,0,0,1.08239X$1,22.5*%
%AMOC8200*
5,1,8,0,0,1.08239X$1,22.5*%
%AMOC80100*
5,1,8,0,0,1.08239X$1,22.5*%
%AMOC81000*
5,1,8,0,0,1.08239X$1,22.5*%
%AMOC800000*
5,1,8,0,0,1.08239X$1,22.5*%
%ADD10C,0*%
%ADD11C,0.039*%
%ADD12R,0.29928X0.06306*%
%ADD13R,0.25991X0.04337*%
%ADD24C,0*%
%ADD25C,0.039*%
%ADD26R,0.29928X0.06306*%
%ADD27R,0.25991X0.04337*%
%ADD38C,0*%
%ADD39C,0.039*%
%ADD40R,0.29928X0.06306*%
%ADD41R,0.25991X0.04337*%
%ADD52C,0*%
%ADD53C,0.039*%
%ADD54R,0.29928X0.06306*%
%ADD55R,0.25991X0.04337*%
%ADD66C,0*%
%ADD67C,0.039*%
%ADD68R,0.29928X0.06306*%
%ADD69R,0.25991X0.04337*%
%ADD80C,0*%
%ADD81C,0.039*%
%ADD82R,0.29928X0.06306*%
%ADD83R,0.25991X0.04337*%
%ADD94C,0*%
%ADD95C,0.039*%
%ADD96R,0.29928X0.06306*%
%ADD97R,0.25991X0.04337*%
%ADD108C,0*%
%ADD109C,0.039*%
%ADD110R,0.29928X0.06306*%
%ADD111R,0.25991X0.04337*%
%ADD122C,0*%
%ADD123C,0.039*%
%ADD124R,0.29928X0.06306*%
%ADD125R,0.25991X0.04337*%
%ADD136C,0*%
%ADD137C,0.039*%
%ADD138R,0.29928X0.06306*%
%ADD139R,0.25991X0.04337*%
%ADD150C,0*%
%ADD151C,0.039*%
%ADD152R,0.29928X0.06306*%
%ADD153R,0.25991X0.04337*%
%ADD164C,0*%
%ADD165C,0.039*%
%ADD166R,0.29928X0.06306*%
%ADD167R,0.25991X0.04337*%
%ADD178C,0.20472440944881892*%
%ADD189C,0*%
%ADD190C,0.039*%
%ADD191R,0.29928X0.06306*%
%ADD192R,0.25991X0.04337*%
%ADD203C,0*%
%ADD204C,0.039*%
%ADD205R,0.29928X0.06306*%
%ADD206R,0.25991X0.04337*%
%ADD217C,0*%
%ADD218C,0.039*%
%ADD219R,0.29928X0.06306*%
%ADD220R,0.25991X0.04337*%
%ADD231C,0*%
%ADD232C,0.039*%
%ADD233R,0.29928X0.06306*%
%ADD234R,0.25991X0.04337*%
%ADD245C,0*%
%ADD246C,0.039*%
%ADD247R,0.29928X0.06306*%
%ADD248R,0.25991X0.04337*%
%ADD259C,0*%
%ADD260C,0.039*%
%ADD261R,0.29928X0.06306*%
%ADD262R,0.25991X0.04337*%
%ADD273C,0*%
%ADD274C,0.039*%
%ADD275R,0.29928X0.06306*%
%ADD276R,0.25991X0.04337*%
%ADD287C,0*%
%ADD288C,0.039*%
%ADD289R,0.29928X0.06306*%
%ADD290R,0.25991X0.04337*%
%ADD301C,0*%
%ADD302C,0.039*%
%ADD303R,0.29928X0.06306*%
%ADD304R,0.25991X0.04337*%
%ADD315C,0*%
%ADD316C,0.039*%
%ADD317R,0.29928X0.06306*%
%ADD318R,0.25991X0.04337*%
%ADD329C,0*%
%ADD330C,0.039*%
%ADD331R,0.29928X0.06306*%
%ADD332R,0.25991X0.04337*%
%ADD343C,0*%
%ADD344C,0.039*%
%ADD345R,0.29928X0.06306*%
%ADD346R,0.25991X0.04337*%
%ADD357C,0*%
%ADD358C,0.039*%
%ADD359R,0.29928X0.06306*%
%ADD360R,0.25991X0.04337*%
%ADD371C,0*%
%ADD372C,0.039*%
%ADD373R,0.29928X0.06306*%
%ADD374R,0.25991X0.04337*%
%ADD385C,0*%
%ADD386C,0.039*%
%ADD387R,0.29928X0.06306*%
%ADD388R,0.25991X0.04337*%
%ADD399C,0*%
%ADD400C,0.039*%
%ADD401R,0.29928X0.06306*%
%ADD402R,0.25991X0.04337*%
%ADD413C,0*%
%ADD414C,0.039*%
%ADD415R,0.29928X0.06306*%
%ADD416R,0.25991X0.04337*%
%ADD427C,0*%
%ADD428C,0.039*%
%ADD429R,0.29928X0.06306*%
%ADD430R,0.25991X0.04337*%
%LPD*%
G75*
D10*
X000417311Y000388689D02*
X000574437Y000388689D01*
X000574627Y000388690D01*
X000574817Y000388698D01*
X000575007Y000388710D01*
X000575197Y000388726D01*
X000575386Y000388745D01*
X000575575Y000388772D01*
X000575763Y000388801D01*
X000575950Y000388836D01*
X000576136Y000388875D01*
X000576320Y000388918D01*
X000576506Y000388966D01*
X000576689Y000389018D01*
X000576870Y000389074D01*
X000577050Y000389135D01*
X000577229Y000389201D01*
X000577406Y000389270D01*
X000577582Y000389344D01*
X000577755Y000389422D01*
X000577927Y000389505D01*
X000578096Y000389591D01*
X000578264Y000389681D01*
X000578429Y000389776D01*
X000578592Y000389874D01*
X000578752Y000389977D01*
X000578910Y000390083D01*
X000579065Y000390193D01*
X000579218Y000390306D01*
X000579368Y000390424D01*
X000579514Y000390545D01*
X000579658Y000390669D01*
X000579799Y000390797D01*
X000579937Y000390928D01*
X000580072Y000391063D01*
X000580203Y000391201D01*
X000580331Y000391342D01*
X000580455Y000391486D01*
X000580576Y000391632D01*
X000580694Y000391782D01*
X000580806Y000391935D01*
X000580916Y000392090D01*
X000581023Y000392248D01*
X000581126Y000392407D01*
X000581224Y000392571D01*
X000581319Y000392736D01*
X000581409Y000392903D01*
X000581495Y000393073D01*
X000581578Y000393245D01*
X000581656Y000393418D01*
X000581730Y000393594D01*
X000581799Y000393771D01*
X000581864Y000393950D01*
X000581926Y000394130D01*
X000581981Y000394311D01*
X000582034Y000394493D01*
X000582082Y000394679D01*
X000582125Y000394864D01*
X000582164Y000395050D01*
X000582199Y000395237D01*
X000582228Y000395425D01*
X000582254Y000395613D01*
X000582274Y000395803D01*
X000582290Y000395992D01*
X000582301Y000396182D01*
X000582309Y000396373D01*
X000582311Y000396563D01*
X000582311Y000428059D01*
X000582309Y000428249D01*
X000582301Y000428439D01*
X000582290Y000428629D01*
X000582274Y000428819D01*
X000582254Y000429007D01*
X000582228Y000429197D01*
X000582199Y000429385D01*
X000582164Y000429572D01*
X000582125Y000429758D01*
X000582082Y000429943D01*
X000582034Y000430128D01*
X000581981Y000430311D01*
X000581926Y000430492D01*
X000581864Y000430672D01*
X000581799Y000430851D01*
X000581730Y000431027D01*
X000581656Y000431203D01*
X000581578Y000431377D01*
X000581495Y000431548D01*
X000581409Y000431717D01*
X000581319Y000431886D01*
X000581224Y000432050D01*
X000581126Y000432214D01*
X000581023Y000432374D01*
X000580916Y000432531D01*
X000580806Y000432687D01*
X000580694Y000432840D01*
X000580576Y000432990D01*
X000580455Y000433136D01*
X000580331Y000433280D01*
X000580203Y000433420D01*
X000580072Y000433559D01*
X000579937Y000433694D01*
X000579799Y000433825D01*
X000579658Y000433953D01*
X000579514Y000434077D01*
X000579368Y000434198D01*
X000579218Y000434316D01*
X000579065Y000434429D01*
X000578910Y000434539D01*
X000578752Y000434645D01*
X000578592Y000434748D01*
X000578429Y000434846D01*
X000578264Y000434941D01*
X000578096Y000435031D01*
X000577927Y000435117D01*
X000577755Y000435200D01*
X000577582Y000435278D01*
X000577406Y000435351D01*
X000577229Y000435421D01*
X000577050Y000435487D01*
X000576870Y000435548D01*
X000576689Y000435604D01*
X000576506Y000435656D01*
X000576320Y000435703D01*
X000576136Y000435747D01*
X000575950Y000435785D01*
X000575763Y000435820D01*
X000575575Y000435850D01*
X000575386Y000435876D01*
X000575197Y000435896D01*
X000575007Y000435912D01*
X000574817Y000435924D01*
X000574627Y000435931D01*
X000574437Y000435933D01*
X000417311Y000435933D01*
X000417171Y000435931D01*
X000417031Y000435925D01*
X000416891Y000435914D01*
X000416751Y000435902D01*
X000416612Y000435884D01*
X000416472Y000435862D01*
X000416336Y000435837D01*
X000416198Y000435808D01*
X000416062Y000435775D01*
X000415927Y000435738D01*
X000415793Y000435696D01*
X000415660Y000435652D01*
X000415528Y000435604D01*
X000415398Y000435552D01*
X000415269Y000435497D01*
X000415142Y000435438D01*
X000415015Y000435375D01*
X000414892Y000435309D01*
X000414771Y000435240D01*
X000414651Y000435167D01*
X000414533Y000435090D01*
X000414418Y000435011D01*
X000414304Y000434928D01*
X000414194Y000434842D01*
X000414085Y000434753D01*
X000413978Y000434661D01*
X000413876Y000434565D01*
X000413774Y000434469D01*
X000413678Y000434368D01*
X000413583Y000434265D01*
X000413490Y000434159D01*
X000413401Y000434049D01*
X000413316Y000433940D01*
X000413232Y000433826D01*
X000413154Y000433711D01*
X000413077Y000433593D01*
X000413004Y000433473D01*
X000412934Y000433352D01*
X000412869Y000433228D01*
X000412805Y000433101D01*
X000412747Y000432975D01*
X000412692Y000432846D01*
X000412640Y000432716D01*
X000412592Y000432584D01*
X000412547Y000432451D01*
X000412506Y000432317D01*
X000412469Y000432182D01*
X000412436Y000432046D01*
X000412406Y000431907D01*
X000412382Y000431771D01*
X000412360Y000431632D01*
X000412342Y000431493D01*
X000412329Y000431353D01*
X000412319Y000431213D01*
X000412313Y000431073D01*
X000412310Y000430933D01*
X000412310Y000393689D01*
X000412313Y000393549D01*
X000412319Y000393409D01*
X000412329Y000393269D01*
X000412342Y000393129D01*
X000412360Y000392990D01*
X000412382Y000392851D01*
X000412406Y000392714D01*
X000412436Y000392576D01*
X000412469Y000392440D01*
X000412506Y000392305D01*
X000412547Y000392170D01*
X000412592Y000392038D01*
X000412640Y000391906D01*
X000412692Y000391776D01*
X000412747Y000391647D01*
X000412805Y000391520D01*
X000412869Y000391394D01*
X000412934Y000391269D01*
X000413004Y000391149D01*
X000413077Y000391028D01*
X000413154Y000390911D01*
X000413232Y000390795D01*
X000413316Y000390682D01*
X000413401Y000390572D01*
X000413490Y000390463D01*
X000413583Y000390357D01*
X000413678Y000390254D01*
X000413774Y000390153D01*
X000413876Y000390056D01*
X000413978Y000389961D01*
X000414085Y000389869D01*
X000414194Y000389780D01*
X000414304Y000389693D01*
X000414418Y000389611D01*
X000414533Y000389532D01*
X000414651Y000389455D01*
X000414771Y000389382D01*
X000414892Y000389313D01*
X000415015Y000389247D01*
X000415142Y000389184D01*
X000415269Y000389124D01*
X000415398Y000389070D01*
X000415528Y000389018D01*
X000415660Y000388970D01*
X000415793Y000388924D01*
X000415927Y000388884D01*
X000416062Y000388847D01*
X000416198Y000388814D01*
X000416336Y000388785D01*
X000416472Y000388760D01*
X000416612Y000388738D01*
X000416751Y000388720D01*
X000416891Y000388707D01*
X000417031Y000388697D01*
X000417171Y000388690D01*
X000417311Y000388689D01*
D11*
X000416811Y000397311D03*
X000416811Y000422311D03*
D12*
X000563098Y000426091D03*
X000563098Y000398531D03*
D13*
X000561130Y000408373D03*
X000561130Y000416248D03*
G75*
D24*
X000055106Y000333571D02*
X000212232Y000333571D01*
X000212422Y000333572D01*
X000212611Y000333580D01*
X000212803Y000333592D01*
X000212993Y000333608D01*
X000213181Y000333627D01*
X000213371Y000333654D01*
X000213559Y000333683D01*
X000213746Y000333718D01*
X000213932Y000333757D01*
X000214116Y000333800D01*
X000214302Y000333848D01*
X000214485Y000333900D01*
X000214665Y000333956D01*
X000214846Y000334017D01*
X000215025Y000334083D01*
X000215201Y000334152D01*
X000215377Y000334225D01*
X000215551Y000334304D01*
X000215723Y000334387D01*
X000215892Y000334473D01*
X000216060Y000334563D01*
X000216224Y000334658D01*
X000216387Y000334756D01*
X000216548Y000334859D01*
X000216706Y000334965D01*
X000216861Y000335075D01*
X000217014Y000335188D01*
X000217164Y000335305D01*
X000217309Y000335427D01*
X000217454Y000335551D01*
X000217594Y000335679D01*
X000217733Y000335810D01*
X000217868Y000335945D01*
X000217999Y000336083D01*
X000218127Y000336224D01*
X000218251Y000336368D01*
X000218372Y000336514D01*
X000218489Y000336664D01*
X000218603Y000336817D01*
X000218712Y000336972D01*
X000218819Y000337130D01*
X000218922Y000337289D01*
X000219020Y000337453D01*
X000219115Y000337618D01*
X000219205Y000337785D01*
X000219291Y000337955D01*
X000219374Y000338127D01*
X000219451Y000338299D01*
X000219526Y000338476D01*
X000219593Y000338653D01*
X000219661Y000338832D01*
X000219722Y000339012D01*
X000219776Y000339193D01*
X000219830Y000339375D01*
X000219878Y000339561D01*
X000219921Y000339746D01*
X000219960Y000339932D01*
X000219993Y000340119D01*
X000220024Y000340307D01*
X000220050Y000340495D01*
X000220070Y000340685D01*
X000220086Y000340874D01*
X000220098Y000341065D01*
X000220105Y000341255D01*
X000220107Y000341445D01*
X000220107Y000372941D01*
X000220105Y000373131D01*
X000220098Y000373321D01*
X000220086Y000373511D01*
X000220070Y000373701D01*
X000220050Y000373890D01*
X000220024Y000374079D01*
X000219993Y000374267D01*
X000219960Y000374454D01*
X000219921Y000374640D01*
X000219878Y000374825D01*
X000219830Y000375010D01*
X000219776Y000375193D01*
X000219722Y000375374D01*
X000219661Y000375554D01*
X000219593Y000375733D01*
X000219526Y000375910D01*
X000219451Y000376086D01*
X000219374Y000376259D01*
X000219291Y000376431D01*
X000219205Y000376600D01*
X000219115Y000376767D01*
X000219020Y000376933D01*
X000218922Y000377096D01*
X000218819Y000377256D01*
X000218712Y000377413D01*
X000218603Y000377569D01*
X000218489Y000377722D01*
X000218372Y000377872D01*
X000218251Y000378018D01*
X000218127Y000378162D01*
X000217999Y000378303D01*
X000217868Y000378441D01*
X000217733Y000378576D01*
X000217594Y000378707D01*
X000217454Y000378835D01*
X000217309Y000378959D01*
X000217164Y000379080D01*
X000217014Y000379198D01*
X000216861Y000379311D01*
X000216706Y000379421D01*
X000216548Y000379527D01*
X000216387Y000379630D01*
X000216224Y000379728D01*
X000216060Y000379823D01*
X000215892Y000379913D01*
X000215723Y000379999D01*
X000215551Y000380082D01*
X000215377Y000380160D01*
X000215201Y000380234D01*
X000215025Y000380303D01*
X000214846Y000380369D01*
X000214665Y000380430D01*
X000214485Y000380486D01*
X000214302Y000380538D01*
X000214116Y000380586D01*
X000213932Y000380629D01*
X000213746Y000380668D01*
X000213559Y000380703D01*
X000213371Y000380732D01*
X000213181Y000380758D01*
X000212993Y000380778D01*
X000212803Y000380794D01*
X000212611Y000380806D01*
X000212422Y000380813D01*
X000212232Y000380815D01*
X000055106Y000380815D01*
X000054967Y000380813D01*
X000054827Y000380807D01*
X000054687Y000380797D01*
X000054547Y000380783D01*
X000054408Y000380766D01*
X000054269Y000380744D01*
X000054132Y000380719D01*
X000053994Y000380690D01*
X000053857Y000380657D01*
X000053723Y000380619D01*
X000053589Y000380579D01*
X000053456Y000380534D01*
X000053324Y000380486D01*
X000053194Y000380434D01*
X000053064Y000380379D01*
X000052937Y000380320D01*
X000052812Y000380257D01*
X000052688Y000380191D01*
X000052567Y000380122D01*
X000052447Y000380049D01*
X000052329Y000379972D01*
X000052214Y000379893D01*
X000052100Y000379809D01*
X000051990Y000379724D01*
X000051881Y000379634D01*
X000051775Y000379543D01*
X000051671Y000379448D01*
X000051571Y000379351D01*
X000051474Y000379250D01*
X000051379Y000379147D01*
X000051287Y000379041D01*
X000051198Y000378932D01*
X000051112Y000378822D01*
X000051029Y000378708D01*
X000050949Y000378593D01*
X000050873Y000378474D01*
X000050800Y000378354D01*
X000050731Y000378234D01*
X000050665Y000378110D01*
X000050602Y000377984D01*
X000050543Y000377857D01*
X000050488Y000377728D01*
X000050436Y000377598D01*
X000050388Y000377466D01*
X000050343Y000377333D01*
X000050302Y000377199D01*
X000050265Y000377064D01*
X000050232Y000376928D01*
X000050203Y000376790D01*
X000050178Y000376653D01*
X000050156Y000376514D01*
X000050138Y000376375D01*
X000050125Y000376235D01*
X000050115Y000376095D01*
X000050109Y000375954D01*
X000050107Y000375815D01*
X000050107Y000338571D01*
X000050109Y000338431D01*
X000050115Y000338291D01*
X000050125Y000338151D01*
X000050138Y000338011D01*
X000050156Y000337872D01*
X000050178Y000337733D01*
X000050203Y000337596D01*
X000050232Y000337458D01*
X000050265Y000337322D01*
X000050302Y000337187D01*
X000050343Y000337052D01*
X000050388Y000336920D01*
X000050436Y000336788D01*
X000050488Y000336658D01*
X000050543Y000336529D01*
X000050602Y000336402D01*
X000050665Y000336276D01*
X000050731Y000336151D01*
X000050800Y000336031D01*
X000050873Y000335910D01*
X000050949Y000335793D01*
X000051029Y000335677D01*
X000051112Y000335564D01*
X000051198Y000335454D01*
X000051287Y000335345D01*
X000051379Y000335239D01*
X000051474Y000335136D01*
X000051571Y000335035D01*
X000051671Y000334938D01*
X000051775Y000334843D01*
X000051881Y000334751D01*
X000051990Y000334662D01*
X000052100Y000334575D01*
X000052214Y000334493D01*
X000052329Y000334414D01*
X000052447Y000334337D01*
X000052567Y000334264D01*
X000052688Y000334195D01*
X000052812Y000334129D01*
X000052937Y000334066D01*
X000053064Y000334006D01*
X000053194Y000333952D01*
X000053324Y000333900D01*
X000053456Y000333852D01*
X000053589Y000333806D01*
X000053723Y000333766D01*
X000053857Y000333729D01*
X000053994Y000333696D01*
X000054132Y000333667D01*
X000054269Y000333642D01*
X000054408Y000333620D01*
X000054547Y000333602D01*
X000054687Y000333589D01*
X000054827Y000333579D01*
X000054967Y000333572D01*
X000055106Y000333571D01*
D25*
X000054607Y000342193D03*
X000054607Y000367193D03*
D26*
X000200894Y000370973D03*
X000200894Y000343413D03*
D27*
X000198926Y000353256D03*
X000198926Y000361130D03*
G75*
D38*
X000055106Y000443807D02*
X000212232Y000443807D01*
X000212422Y000443809D01*
X000212611Y000443816D01*
X000212803Y000443828D01*
X000212993Y000443844D01*
X000213181Y000443864D01*
X000213371Y000443890D01*
X000213559Y000443919D01*
X000213746Y000443954D01*
X000213932Y000443993D01*
X000214116Y000444036D01*
X000214302Y000444083D01*
X000214485Y000444136D01*
X000214665Y000444191D01*
X000214846Y000444252D01*
X000215025Y000444319D01*
X000215201Y000444388D01*
X000215377Y000444461D01*
X000215551Y000444540D01*
X000215723Y000444623D01*
X000215892Y000444709D01*
X000216060Y000444799D01*
X000216224Y000444894D01*
X000216387Y000444991D01*
X000216548Y000445095D01*
X000216706Y000445200D01*
X000216861Y000445310D01*
X000217014Y000445424D01*
X000217164Y000445542D01*
X000217309Y000445662D01*
X000217454Y000445787D01*
X000217594Y000445915D01*
X000217733Y000446046D01*
X000217868Y000446181D01*
X000217999Y000446319D01*
X000218127Y000446460D01*
X000218251Y000446603D01*
X000218372Y000446750D01*
X000218489Y000446900D01*
X000218603Y000447053D01*
X000218712Y000447208D01*
X000218819Y000447366D01*
X000218922Y000447525D01*
X000219020Y000447689D01*
X000219115Y000447854D01*
X000219205Y000448022D01*
X000219291Y000448191D01*
X000219374Y000448363D01*
X000219451Y000448536D01*
X000219526Y000448712D01*
X000219593Y000448888D01*
X000219661Y000449068D01*
X000219722Y000449247D01*
X000219776Y000449429D01*
X000219830Y000449612D01*
X000219878Y000449796D01*
X000219921Y000449982D01*
X000219960Y000450168D01*
X000219993Y000450355D01*
X000220024Y000450542D01*
X000220050Y000450732D01*
X000220070Y000450921D01*
X000220086Y000451111D01*
X000220098Y000451301D01*
X000220105Y000451491D01*
X000220107Y000451681D01*
X000220107Y000483176D01*
X000220105Y000483366D01*
X000220098Y000483556D01*
X000220086Y000483747D01*
X000220070Y000483937D01*
X000220050Y000484126D01*
X000220024Y000484314D01*
X000219993Y000484503D01*
X000219960Y000484690D01*
X000219921Y000484876D01*
X000219878Y000485060D01*
X000219830Y000485246D01*
X000219776Y000485429D01*
X000219722Y000485609D01*
X000219661Y000485790D01*
X000219593Y000485968D01*
X000219526Y000486146D01*
X000219451Y000486322D01*
X000219374Y000486495D01*
X000219291Y000486667D01*
X000219205Y000486836D01*
X000219115Y000487004D01*
X000219020Y000487169D01*
X000218922Y000487331D01*
X000218819Y000487492D01*
X000218712Y000487650D01*
X000218603Y000487805D01*
X000218489Y000487958D01*
X000218372Y000488108D01*
X000218251Y000488253D01*
X000218127Y000488398D01*
X000217999Y000488539D01*
X000217868Y000488677D01*
X000217733Y000488812D01*
X000217594Y000488943D01*
X000217454Y000489071D01*
X000217309Y000489194D01*
X000217164Y000489316D01*
X000217014Y000489433D01*
X000216861Y000489547D01*
X000216706Y000489656D01*
X000216548Y000489763D01*
X000216387Y000489865D01*
X000216224Y000489964D01*
X000216060Y000490059D01*
X000215892Y000490149D01*
X000215723Y000490235D01*
X000215551Y000490318D01*
X000215377Y000490395D01*
X000215201Y000490470D01*
X000215025Y000490538D01*
X000214846Y000490604D01*
X000214665Y000490665D01*
X000214485Y000490721D01*
X000214302Y000490774D01*
X000214116Y000490822D01*
X000213932Y000490865D01*
X000213746Y000490904D01*
X000213559Y000490939D01*
X000213371Y000490968D01*
X000213181Y000490994D01*
X000212993Y000491014D01*
X000212803Y000491030D01*
X000212611Y000491042D01*
X000212422Y000491049D01*
X000212232Y000491051D01*
X000055106Y000491051D01*
X000054967Y000491049D01*
X000054827Y000491043D01*
X000054687Y000491033D01*
X000054547Y000491019D01*
X000054408Y000491002D01*
X000054269Y000490980D01*
X000054132Y000490955D01*
X000053994Y000490926D01*
X000053857Y000490893D01*
X000053723Y000490855D01*
X000053589Y000490815D01*
X000053456Y000490770D01*
X000053324Y000490721D01*
X000053194Y000490670D01*
X000053064Y000490615D01*
X000052937Y000490556D01*
X000052812Y000490493D01*
X000052688Y000490427D01*
X000052567Y000490358D01*
X000052447Y000490285D01*
X000052329Y000490208D01*
X000052214Y000490129D01*
X000052100Y000490046D01*
X000051990Y000489960D01*
X000051881Y000489871D01*
X000051775Y000489778D01*
X000051671Y000489684D01*
X000051571Y000489587D01*
X000051474Y000489486D01*
X000051379Y000489383D01*
X000051287Y000489276D01*
X000051198Y000489168D01*
X000051112Y000489058D01*
X000051029Y000488943D01*
X000050949Y000488828D01*
X000050873Y000488711D01*
X000050800Y000488591D01*
X000050731Y000488469D01*
X000050665Y000488346D01*
X000050602Y000488220D01*
X000050543Y000488093D01*
X000050488Y000487964D01*
X000050436Y000487833D01*
X000050388Y000487702D01*
X000050343Y000487568D01*
X000050302Y000487435D01*
X000050265Y000487300D01*
X000050232Y000487164D01*
X000050203Y000487026D01*
X000050178Y000486889D01*
X000050156Y000486750D01*
X000050138Y000486611D01*
X000050125Y000486470D01*
X000050115Y000486331D01*
X000050109Y000486191D01*
X000050107Y000486050D01*
X000050107Y000448806D01*
X000050109Y000448667D01*
X000050115Y000448527D01*
X000050125Y000448386D01*
X000050138Y000448247D01*
X000050156Y000448108D01*
X000050178Y000447969D01*
X000050203Y000447832D01*
X000050232Y000447694D01*
X000050265Y000447558D01*
X000050302Y000447423D01*
X000050343Y000447288D01*
X000050388Y000447156D01*
X000050436Y000447024D01*
X000050488Y000446894D01*
X000050543Y000446765D01*
X000050602Y000446638D01*
X000050665Y000446512D01*
X000050731Y000446387D01*
X000050800Y000446267D01*
X000050873Y000446147D01*
X000050949Y000446028D01*
X000051029Y000445913D01*
X000051112Y000445800D01*
X000051198Y000445690D01*
X000051287Y000445580D01*
X000051379Y000445475D01*
X000051474Y000445371D01*
X000051571Y000445271D01*
X000051671Y000445174D01*
X000051775Y000445078D01*
X000051881Y000444987D01*
X000051990Y000444898D01*
X000052100Y000444812D01*
X000052214Y000444729D01*
X000052329Y000444650D01*
X000052447Y000444573D01*
X000052567Y000444500D01*
X000052688Y000444431D01*
X000052812Y000444365D01*
X000052937Y000444302D01*
X000053064Y000444243D01*
X000053194Y000444188D01*
X000053324Y000444136D01*
X000053456Y000444088D01*
X000053589Y000444043D01*
X000053723Y000444001D01*
X000053857Y000443965D01*
X000053994Y000443932D01*
X000054132Y000443903D01*
X000054269Y000443878D01*
X000054408Y000443856D01*
X000054547Y000443838D01*
X000054687Y000443825D01*
X000054827Y000443815D01*
X000054967Y000443809D01*
X000055106Y000443807D01*
D39*
X000054607Y000452428D03*
X000054607Y000477428D03*
D40*
X000200894Y000481209D03*
X000200894Y000453648D03*
D41*
X000198926Y000463492D03*
X000198926Y000471366D03*
G75*
D52*
X000055106Y000223335D02*
X000212232Y000223335D01*
X000212422Y000223337D01*
X000212611Y000223344D01*
X000212803Y000223356D01*
X000212993Y000223372D01*
X000213181Y000223392D01*
X000213371Y000223417D01*
X000213559Y000223447D01*
X000213746Y000223482D01*
X000213932Y000223521D01*
X000214116Y000223564D01*
X000214302Y000223612D01*
X000214485Y000223664D01*
X000214665Y000223720D01*
X000214846Y000223781D01*
X000215025Y000223847D01*
X000215201Y000223916D01*
X000215377Y000223990D01*
X000215551Y000224067D01*
X000215723Y000224151D01*
X000215892Y000224237D01*
X000216060Y000224327D01*
X000216224Y000224422D01*
X000216387Y000224520D01*
X000216548Y000224623D01*
X000216706Y000224729D01*
X000216861Y000224839D01*
X000217014Y000224952D01*
X000217164Y000225070D01*
X000217309Y000225191D01*
X000217454Y000225315D01*
X000217594Y000225443D01*
X000217733Y000225574D01*
X000217868Y000225708D01*
X000217999Y000225847D01*
X000218127Y000225988D01*
X000218251Y000226132D01*
X000218372Y000226277D01*
X000218489Y000226426D01*
X000218603Y000226581D01*
X000218712Y000226736D01*
X000218819Y000226894D01*
X000218922Y000227054D01*
X000219020Y000227217D01*
X000219115Y000227382D01*
X000219205Y000227550D01*
X000219291Y000227719D01*
X000219374Y000227891D01*
X000219451Y000228064D01*
X000219526Y000228240D01*
X000219593Y000228417D01*
X000219661Y000228596D01*
X000219722Y000228776D01*
X000219776Y000228957D01*
X000219830Y000229140D01*
X000219878Y000229325D01*
X000219921Y000229510D01*
X000219960Y000229696D01*
X000219993Y000229883D01*
X000220024Y000230071D01*
X000220050Y000230260D01*
X000220070Y000230449D01*
X000220086Y000230639D01*
X000220098Y000230829D01*
X000220105Y000231019D01*
X000220107Y000231209D01*
X000220107Y000262705D01*
X000220105Y000262895D01*
X000220098Y000263085D01*
X000220086Y000263275D01*
X000220070Y000263465D01*
X000220050Y000263654D01*
X000220024Y000263843D01*
X000219993Y000264031D01*
X000219960Y000264218D01*
X000219921Y000264404D01*
X000219878Y000264589D01*
X000219830Y000264774D01*
X000219776Y000264957D01*
X000219722Y000265138D01*
X000219661Y000265318D01*
X000219593Y000265497D01*
X000219526Y000265674D01*
X000219451Y000265850D01*
X000219374Y000266023D01*
X000219291Y000266195D01*
X000219205Y000266364D01*
X000219115Y000266531D01*
X000219020Y000266697D01*
X000218922Y000266860D01*
X000218819Y000267020D01*
X000218712Y000267178D01*
X000218603Y000267333D01*
X000218489Y000267486D01*
X000218372Y000267636D01*
X000218251Y000267782D01*
X000218127Y000267926D01*
X000217999Y000268067D01*
X000217868Y000268205D01*
X000217733Y000268340D01*
X000217594Y000268471D01*
X000217454Y000268599D01*
X000217309Y000268723D01*
X000217164Y000268844D01*
X000217014Y000268962D01*
X000216861Y000269075D01*
X000216706Y000269185D01*
X000216548Y000269291D01*
X000216387Y000269394D01*
X000216224Y000269492D01*
X000216060Y000269587D01*
X000215892Y000269677D01*
X000215723Y000269763D01*
X000215551Y000269846D01*
X000215377Y000269924D01*
X000215201Y000269998D01*
X000215025Y000270067D01*
X000214846Y000270133D01*
X000214665Y000270193D01*
X000214485Y000270250D01*
X000214302Y000270302D01*
X000214116Y000270350D01*
X000213932Y000270393D01*
X000213746Y000270432D01*
X000213559Y000270467D01*
X000213371Y000270496D01*
X000213181Y000270522D01*
X000212993Y000270542D01*
X000212803Y000270558D01*
X000212611Y000270570D01*
X000212422Y000270577D01*
X000212232Y000270579D01*
X000055106Y000270579D01*
X000054967Y000270577D01*
X000054827Y000270571D01*
X000054687Y000270561D01*
X000054547Y000270547D01*
X000054408Y000270530D01*
X000054269Y000270507D01*
X000054132Y000270483D01*
X000053994Y000270454D01*
X000053857Y000270421D01*
X000053723Y000270384D01*
X000053589Y000270343D01*
X000053456Y000270298D01*
X000053324Y000270250D01*
X000053194Y000270198D01*
X000053064Y000270143D01*
X000052937Y000270084D01*
X000052812Y000270021D01*
X000052688Y000269955D01*
X000052567Y000269886D01*
X000052447Y000269813D01*
X000052329Y000269736D01*
X000052214Y000269657D01*
X000052100Y000269574D01*
X000051990Y000269488D01*
X000051881Y000269399D01*
X000051775Y000269307D01*
X000051671Y000269212D01*
X000051571Y000269115D01*
X000051474Y000269014D01*
X000051379Y000268911D01*
X000051287Y000268805D01*
X000051198Y000268696D01*
X000051112Y000268586D01*
X000051029Y000268472D01*
X000050949Y000268357D01*
X000050873Y000268239D01*
X000050800Y000268119D01*
X000050731Y000267998D01*
X000050665Y000267873D01*
X000050602Y000267748D01*
X000050543Y000267621D01*
X000050488Y000267492D01*
X000050436Y000267362D01*
X000050388Y000267230D01*
X000050343Y000267097D01*
X000050302Y000266963D01*
X000050265Y000266828D01*
X000050232Y000266692D01*
X000050203Y000266553D01*
X000050178Y000266417D01*
X000050156Y000266278D01*
X000050138Y000266139D01*
X000050125Y000265999D01*
X000050115Y000265859D01*
X000050109Y000265719D01*
X000050107Y000265579D01*
X000050107Y000228335D01*
X000050109Y000228195D01*
X000050115Y000228055D01*
X000050125Y000227915D01*
X000050138Y000227775D01*
X000050156Y000227636D01*
X000050178Y000227497D01*
X000050203Y000227360D01*
X000050232Y000227222D01*
X000050265Y000227086D01*
X000050302Y000226951D01*
X000050343Y000226817D01*
X000050388Y000226684D01*
X000050436Y000226552D01*
X000050488Y000226422D01*
X000050543Y000226293D01*
X000050602Y000226166D01*
X000050665Y000226040D01*
X000050731Y000225916D01*
X000050800Y000225795D01*
X000050873Y000225674D01*
X000050949Y000225557D01*
X000051029Y000225442D01*
X000051112Y000225328D01*
X000051198Y000225218D01*
X000051287Y000225109D01*
X000051379Y000225003D01*
X000051474Y000224900D01*
X000051571Y000224799D01*
X000051671Y000224702D01*
X000051775Y000224607D01*
X000051881Y000224515D01*
X000051990Y000224426D01*
X000052100Y000224339D01*
X000052214Y000224257D01*
X000052329Y000224178D01*
X000052447Y000224101D01*
X000052567Y000224027D01*
X000052688Y000223959D01*
X000052812Y000223893D01*
X000052937Y000223830D01*
X000053064Y000223771D01*
X000053194Y000223715D01*
X000053324Y000223664D01*
X000053456Y000223616D01*
X000053589Y000223571D01*
X000053723Y000223530D01*
X000053857Y000223493D01*
X000053994Y000223460D01*
X000054132Y000223430D01*
X000054269Y000223406D01*
X000054408Y000223383D01*
X000054547Y000223366D01*
X000054687Y000223353D01*
X000054827Y000223342D01*
X000054967Y000223337D01*
X000055106Y000223335D01*
D53*
X000054607Y000231957D03*
X000054607Y000256957D03*
D54*
X000200894Y000260737D03*
X000200894Y000233177D03*
D55*
X000198926Y000243020D03*
X000198926Y000250894D03*
G75*
D66*
X000055106Y000498925D02*
X000212232Y000498925D01*
X000212422Y000498927D01*
X000212611Y000498934D01*
X000212803Y000498946D01*
X000212993Y000498962D01*
X000213181Y000498982D01*
X000213371Y000499008D01*
X000213559Y000499037D01*
X000213746Y000499071D01*
X000213932Y000499111D01*
X000214116Y000499153D01*
X000214302Y000499202D01*
X000214485Y000499254D01*
X000214665Y000499310D01*
X000214846Y000499371D01*
X000215025Y000499437D01*
X000215201Y000499505D01*
X000215377Y000499580D01*
X000215551Y000499658D01*
X000215723Y000499741D01*
X000215892Y000499827D01*
X000216060Y000499917D01*
X000216224Y000500012D01*
X000216387Y000500110D01*
X000216548Y000500213D01*
X000216706Y000500319D01*
X000216861Y000500429D01*
X000217014Y000500542D01*
X000217164Y000500660D01*
X000217309Y000500781D01*
X000217454Y000500905D01*
X000217594Y000501033D01*
X000217733Y000501164D01*
X000217868Y000501299D01*
X000217999Y000501437D01*
X000218127Y000501578D01*
X000218251Y000501722D01*
X000218372Y000501868D01*
X000218489Y000502018D01*
X000218603Y000502170D01*
X000218712Y000502325D01*
X000218819Y000502484D01*
X000218922Y000502644D01*
X000219020Y000502806D01*
X000219115Y000502972D01*
X000219205Y000503139D01*
X000219291Y000503308D01*
X000219374Y000503481D01*
X000219451Y000503653D01*
X000219526Y000503829D01*
X000219593Y000504007D01*
X000219661Y000504186D01*
X000219722Y000504366D01*
X000219776Y000504547D01*
X000219830Y000504730D01*
X000219878Y000504915D01*
X000219921Y000505100D01*
X000219960Y000505285D01*
X000219993Y000505473D01*
X000220024Y000505661D01*
X000220050Y000505850D01*
X000220070Y000506039D01*
X000220086Y000506229D01*
X000220098Y000506419D01*
X000220105Y000506609D01*
X000220107Y000506799D01*
X000220107Y000538293D01*
X000220105Y000538485D01*
X000220098Y000538675D01*
X000220086Y000538865D01*
X000220070Y000539055D01*
X000220050Y000539244D01*
X000220024Y000539433D01*
X000219993Y000539621D01*
X000219960Y000539808D01*
X000219921Y000539993D01*
X000219878Y000540179D01*
X000219830Y000540364D01*
X000219776Y000540547D01*
X000219722Y000540728D01*
X000219661Y000540908D01*
X000219593Y000541087D01*
X000219526Y000541264D01*
X000219451Y000541440D01*
X000219374Y000541612D01*
X000219291Y000541785D01*
X000219205Y000541954D01*
X000219115Y000542122D01*
X000219020Y000542287D01*
X000218922Y000542450D01*
X000218819Y000542610D01*
X000218712Y000542768D01*
X000218603Y000542923D01*
X000218489Y000543076D01*
X000218372Y000543226D01*
X000218251Y000543370D01*
X000218127Y000543516D01*
X000217999Y000543657D01*
X000217868Y000543795D01*
X000217733Y000543930D01*
X000217594Y000544061D01*
X000217454Y000544189D01*
X000217309Y000544313D01*
X000217164Y000544434D01*
X000217014Y000544552D01*
X000216861Y000544665D01*
X000216706Y000544775D01*
X000216548Y000544881D01*
X000216387Y000544983D01*
X000216224Y000545082D01*
X000216060Y000545177D01*
X000215892Y000545267D01*
X000215723Y000545353D01*
X000215551Y000545436D01*
X000215377Y000545514D01*
X000215201Y000545588D01*
X000215025Y000545657D01*
X000214846Y000545723D01*
X000214665Y000545784D01*
X000214485Y000545840D01*
X000214302Y000545892D01*
X000214116Y000545940D01*
X000213932Y000545982D01*
X000213746Y000546022D01*
X000213559Y000546057D01*
X000213371Y000546086D01*
X000213181Y000546112D01*
X000212993Y000546132D01*
X000212803Y000546148D01*
X000212611Y000546160D01*
X000212422Y000546167D01*
X000212232Y000546169D01*
X000055106Y000546169D01*
X000054967Y000546167D01*
X000054827Y000546161D01*
X000054687Y000546151D01*
X000054547Y000546138D01*
X000054408Y000546120D01*
X000054269Y000546098D01*
X000054132Y000546073D01*
X000053994Y000546044D01*
X000053857Y000546011D01*
X000053723Y000545974D01*
X000053589Y000545933D01*
X000053456Y000545887D01*
X000053324Y000545840D01*
X000053194Y000545788D01*
X000053064Y000545733D01*
X000052937Y000545674D01*
X000052812Y000545610D01*
X000052688Y000545544D01*
X000052567Y000545476D01*
X000052447Y000545403D01*
X000052329Y000545326D01*
X000052214Y000545247D01*
X000052100Y000545164D01*
X000051990Y000545078D01*
X000051881Y000544989D01*
X000051775Y000544897D01*
X000051671Y000544802D01*
X000051571Y000544705D01*
X000051474Y000544603D01*
X000051379Y000544501D01*
X000051287Y000544395D01*
X000051198Y000544286D01*
X000051112Y000544176D01*
X000051029Y000544062D01*
X000050949Y000543947D01*
X000050873Y000543829D01*
X000050800Y000543709D01*
X000050731Y000543588D01*
X000050665Y000543464D01*
X000050602Y000543338D01*
X000050543Y000543210D01*
X000050488Y000543082D01*
X000050436Y000542952D01*
X000050388Y000542820D01*
X000050343Y000542687D01*
X000050302Y000542553D01*
X000050265Y000542418D01*
X000050232Y000542282D01*
X000050203Y000542144D01*
X000050178Y000542006D01*
X000050156Y000541868D01*
X000050138Y000541729D01*
X000050125Y000541589D01*
X000050115Y000541449D01*
X000050109Y000541309D01*
X000050107Y000541167D01*
X000050107Y000503925D01*
X000050109Y000503785D01*
X000050115Y000503645D01*
X000050125Y000503505D01*
X000050138Y000503365D01*
X000050156Y000503226D01*
X000050178Y000503087D01*
X000050203Y000502949D01*
X000050232Y000502812D01*
X000050265Y000502676D01*
X000050302Y000502541D01*
X000050343Y000502407D01*
X000050388Y000502274D01*
X000050436Y000502142D01*
X000050488Y000502012D01*
X000050543Y000501883D01*
X000050602Y000501755D01*
X000050665Y000501630D01*
X000050731Y000501506D01*
X000050800Y000501384D01*
X000050873Y000501265D01*
X000050949Y000501147D01*
X000051029Y000501032D01*
X000051112Y000500918D01*
X000051198Y000500807D01*
X000051287Y000500699D01*
X000051379Y000500593D01*
X000051474Y000500490D01*
X000051571Y000500389D01*
X000051671Y000500291D01*
X000051775Y000500197D01*
X000051881Y000500105D01*
X000051990Y000500016D01*
X000052100Y000499930D01*
X000052214Y000499847D01*
X000052329Y000499768D01*
X000052447Y000499691D01*
X000052567Y000499618D01*
X000052688Y000499549D01*
X000052812Y000499483D01*
X000052937Y000499420D01*
X000053064Y000499361D01*
X000053194Y000499306D01*
X000053324Y000499254D01*
X000053456Y000499206D01*
X000053589Y000499160D01*
X000053723Y000499120D01*
X000053857Y000499083D01*
X000053994Y000499050D01*
X000054132Y000499021D01*
X000054269Y000498996D01*
X000054408Y000498974D01*
X000054547Y000498956D01*
X000054687Y000498942D01*
X000054827Y000498933D01*
X000054967Y000498927D01*
X000055106Y000498925D01*
D67*
X000054607Y000507547D03*
X000054607Y000532547D03*
D68*
X000200894Y000536327D03*
X000200894Y000508767D03*
D69*
X000198926Y000518610D03*
X000198926Y000526484D03*
G75*
D80*
X000055106Y000278453D02*
X000212232Y000278453D01*
X000212422Y000278454D01*
X000212611Y000278462D01*
X000212803Y000278474D01*
X000212993Y000278490D01*
X000213181Y000278510D01*
X000213371Y000278536D01*
X000213559Y000278565D01*
X000213746Y000278600D01*
X000213932Y000278639D01*
X000214116Y000278682D01*
X000214302Y000278730D01*
X000214485Y000278782D01*
X000214665Y000278838D01*
X000214846Y000278899D01*
X000215025Y000278965D01*
X000215201Y000279034D01*
X000215377Y000279107D01*
X000215551Y000279186D01*
X000215723Y000279269D01*
X000215892Y000279355D01*
X000216060Y000279445D01*
X000216224Y000279540D01*
X000216387Y000279638D01*
X000216548Y000279741D01*
X000216706Y000279847D01*
X000216861Y000279957D01*
X000217014Y000280070D01*
X000217164Y000280187D01*
X000217309Y000280309D01*
X000217454Y000280433D01*
X000217594Y000280561D01*
X000217733Y000280692D01*
X000217868Y000280827D01*
X000217999Y000280965D01*
X000218127Y000281106D01*
X000218251Y000281250D01*
X000218372Y000281396D01*
X000218489Y000281546D01*
X000218603Y000281699D01*
X000218712Y000281854D01*
X000218819Y000282012D01*
X000218922Y000282172D01*
X000219020Y000282335D01*
X000219115Y000282500D01*
X000219205Y000282667D01*
X000219291Y000282837D01*
X000219374Y000283009D01*
X000219451Y000283181D01*
X000219526Y000283358D01*
X000219593Y000283535D01*
X000219661Y000283714D01*
X000219722Y000283894D01*
X000219776Y000284075D01*
X000219830Y000284257D01*
X000219878Y000284443D01*
X000219921Y000284628D01*
X000219960Y000284814D01*
X000219993Y000285001D01*
X000220024Y000285189D01*
X000220050Y000285378D01*
X000220070Y000285567D01*
X000220086Y000285756D01*
X000220098Y000285947D01*
X000220105Y000286137D01*
X000220107Y000286327D01*
X000220107Y000317823D01*
X000220105Y000318013D01*
X000220098Y000318203D01*
X000220086Y000318393D01*
X000220070Y000318583D01*
X000220050Y000318772D01*
X000220024Y000318961D01*
X000219993Y000319149D01*
X000219960Y000319336D01*
X000219921Y000319522D01*
X000219878Y000319707D01*
X000219830Y000319892D01*
X000219776Y000320075D01*
X000219722Y000320256D01*
X000219661Y000320436D01*
X000219593Y000320615D01*
X000219526Y000320792D01*
X000219451Y000320968D01*
X000219374Y000321141D01*
X000219291Y000321313D01*
X000219205Y000321482D01*
X000219115Y000321649D01*
X000219020Y000321815D01*
X000218922Y000321978D01*
X000218819Y000322138D01*
X000218712Y000322295D01*
X000218603Y000322451D01*
X000218489Y000322604D01*
X000218372Y000322754D01*
X000218251Y000322900D01*
X000218127Y000323044D01*
X000217999Y000323185D01*
X000217868Y000323323D01*
X000217733Y000323458D01*
X000217594Y000323589D01*
X000217454Y000323717D01*
X000217309Y000323841D01*
X000217164Y000323962D01*
X000217014Y000324080D01*
X000216861Y000324193D01*
X000216706Y000324303D01*
X000216548Y000324409D01*
X000216387Y000324512D01*
X000216224Y000324610D01*
X000216060Y000324705D01*
X000215892Y000324795D01*
X000215723Y000324881D01*
X000215551Y000324964D01*
X000215377Y000325042D01*
X000215201Y000325116D01*
X000215025Y000325185D01*
X000214846Y000325251D01*
X000214665Y000325311D01*
X000214485Y000325368D01*
X000214302Y000325420D01*
X000214116Y000325468D01*
X000213932Y000325511D01*
X000213746Y000325550D01*
X000213559Y000325585D01*
X000213371Y000325614D01*
X000213181Y000325640D01*
X000212993Y000325660D01*
X000212803Y000325676D01*
X000212611Y000325688D01*
X000212422Y000325695D01*
X000212232Y000325697D01*
X000055106Y000325697D01*
X000054967Y000325695D01*
X000054827Y000325689D01*
X000054687Y000325679D01*
X000054547Y000325665D01*
X000054408Y000325648D01*
X000054269Y000325626D01*
X000054132Y000325601D01*
X000053994Y000325572D01*
X000053857Y000325539D01*
X000053723Y000325501D01*
X000053589Y000325461D01*
X000053456Y000325416D01*
X000053324Y000325368D01*
X000053194Y000325316D01*
X000053064Y000325261D01*
X000052937Y000325202D01*
X000052812Y000325139D01*
X000052688Y000325073D01*
X000052567Y000325004D01*
X000052447Y000324931D01*
X000052329Y000324854D01*
X000052214Y000324775D01*
X000052100Y000324692D01*
X000051990Y000324606D01*
X000051881Y000324517D01*
X000051775Y000324425D01*
X000051671Y000324330D01*
X000051571Y000324233D01*
X000051474Y000324132D01*
X000051379Y000324029D01*
X000051287Y000323923D01*
X000051198Y000323814D01*
X000051112Y000323704D01*
X000051029Y000323590D01*
X000050949Y000323475D01*
X000050873Y000323356D01*
X000050800Y000323237D01*
X000050731Y000323116D01*
X000050665Y000322992D01*
X000050602Y000322866D01*
X000050543Y000322739D01*
X000050488Y000322610D01*
X000050436Y000322480D01*
X000050388Y000322348D01*
X000050343Y000322215D01*
X000050302Y000322081D01*
X000050265Y000321946D01*
X000050232Y000321810D01*
X000050203Y000321671D01*
X000050178Y000321535D01*
X000050156Y000321396D01*
X000050138Y000321257D01*
X000050125Y000321117D01*
X000050115Y000320977D01*
X000050109Y000320837D01*
X000050107Y000320697D01*
X000050107Y000283453D01*
X000050109Y000283313D01*
X000050115Y000283173D01*
X000050125Y000283033D01*
X000050138Y000282893D01*
X000050156Y000282754D01*
X000050178Y000282615D01*
X000050203Y000282478D01*
X000050232Y000282340D01*
X000050265Y000282204D01*
X000050302Y000282069D01*
X000050343Y000281935D01*
X000050388Y000281802D01*
X000050436Y000281670D01*
X000050488Y000281540D01*
X000050543Y000281411D01*
X000050602Y000281284D01*
X000050665Y000281158D01*
X000050731Y000281033D01*
X000050800Y000280913D01*
X000050873Y000280793D01*
X000050949Y000280675D01*
X000051029Y000280559D01*
X000051112Y000280446D01*
X000051198Y000280336D01*
X000051287Y000280227D01*
X000051379Y000280121D01*
X000051474Y000280018D01*
X000051571Y000279917D01*
X000051671Y000279820D01*
X000051775Y000279725D01*
X000051881Y000279633D01*
X000051990Y000279544D01*
X000052100Y000279457D01*
X000052214Y000279375D01*
X000052329Y000279296D01*
X000052447Y000279219D01*
X000052567Y000279146D01*
X000052688Y000279077D01*
X000052812Y000279011D01*
X000052937Y000278948D01*
X000053064Y000278888D01*
X000053194Y000278834D01*
X000053324Y000278782D01*
X000053456Y000278734D01*
X000053589Y000278689D01*
X000053723Y000278648D01*
X000053857Y000278611D01*
X000053994Y000278578D01*
X000054132Y000278549D01*
X000054269Y000278524D01*
X000054408Y000278502D01*
X000054547Y000278484D01*
X000054687Y000278471D01*
X000054827Y000278461D01*
X000054967Y000278454D01*
X000055106Y000278453D01*
D81*
X000054607Y000287075D03*
X000054607Y000312075D03*
D82*
X000200894Y000315855D03*
X000200894Y000288295D03*
D83*
X000198926Y000298138D03*
X000198926Y000306012D03*
G75*
D94*
X000055106Y000388689D02*
X000212232Y000388689D01*
X000212422Y000388690D01*
X000212611Y000388698D01*
X000212803Y000388710D01*
X000212993Y000388726D01*
X000213181Y000388745D01*
X000213371Y000388772D01*
X000213559Y000388801D01*
X000213746Y000388836D01*
X000213932Y000388875D01*
X000214116Y000388918D01*
X000214302Y000388966D01*
X000214485Y000389018D01*
X000214665Y000389074D01*
X000214846Y000389135D01*
X000215025Y000389201D01*
X000215201Y000389270D01*
X000215377Y000389344D01*
X000215551Y000389422D01*
X000215723Y000389505D01*
X000215892Y000389591D01*
X000216060Y000389681D01*
X000216224Y000389776D01*
X000216387Y000389874D01*
X000216548Y000389977D01*
X000216706Y000390083D01*
X000216861Y000390193D01*
X000217014Y000390306D01*
X000217164Y000390424D01*
X000217309Y000390545D01*
X000217454Y000390669D01*
X000217594Y000390797D01*
X000217733Y000390928D01*
X000217868Y000391063D01*
X000217999Y000391201D01*
X000218127Y000391342D01*
X000218251Y000391486D01*
X000218372Y000391632D01*
X000218489Y000391782D01*
X000218603Y000391935D01*
X000218712Y000392090D01*
X000218819Y000392248D01*
X000218922Y000392407D01*
X000219020Y000392571D01*
X000219115Y000392736D01*
X000219205Y000392903D01*
X000219291Y000393073D01*
X000219374Y000393245D01*
X000219451Y000393418D01*
X000219526Y000393594D01*
X000219593Y000393771D01*
X000219661Y000393950D01*
X000219722Y000394130D01*
X000219776Y000394311D01*
X000219830Y000394493D01*
X000219878Y000394679D01*
X000219921Y000394864D01*
X000219960Y000395050D01*
X000219993Y000395237D01*
X000220024Y000395425D01*
X000220050Y000395613D01*
X000220070Y000395803D01*
X000220086Y000395992D01*
X000220098Y000396182D01*
X000220105Y000396373D01*
X000220107Y000396563D01*
X000220107Y000428059D01*
X000220105Y000428249D01*
X000220098Y000428439D01*
X000220086Y000428629D01*
X000220070Y000428819D01*
X000220050Y000429007D01*
X000220024Y000429197D01*
X000219993Y000429385D01*
X000219960Y000429572D01*
X000219921Y000429758D01*
X000219878Y000429943D01*
X000219830Y000430128D01*
X000219776Y000430311D01*
X000219722Y000430492D01*
X000219661Y000430672D01*
X000219593Y000430851D01*
X000219526Y000431027D01*
X000219451Y000431203D01*
X000219374Y000431377D01*
X000219291Y000431548D01*
X000219205Y000431717D01*
X000219115Y000431886D01*
X000219020Y000432050D01*
X000218922Y000432214D01*
X000218819Y000432374D01*
X000218712Y000432531D01*
X000218603Y000432687D01*
X000218489Y000432840D01*
X000218372Y000432990D01*
X000218251Y000433136D01*
X000218127Y000433280D01*
X000217999Y000433420D01*
X000217868Y000433559D01*
X000217733Y000433694D01*
X000217594Y000433825D01*
X000217454Y000433953D01*
X000217309Y000434077D01*
X000217164Y000434198D01*
X000217014Y000434316D01*
X000216861Y000434429D01*
X000216706Y000434539D01*
X000216548Y000434645D01*
X000216387Y000434748D01*
X000216224Y000434846D01*
X000216060Y000434941D01*
X000215892Y000435031D01*
X000215723Y000435117D01*
X000215551Y000435200D01*
X000215377Y000435278D01*
X000215201Y000435351D01*
X000215025Y000435421D01*
X000214846Y000435487D01*
X000214665Y000435548D01*
X000214485Y000435604D01*
X000214302Y000435656D01*
X000214116Y000435703D01*
X000213932Y000435747D01*
X000213746Y000435785D01*
X000213559Y000435820D01*
X000213371Y000435850D01*
X000213181Y000435876D01*
X000212993Y000435896D01*
X000212803Y000435912D01*
X000212611Y000435924D01*
X000212422Y000435931D01*
X000212232Y000435933D01*
X000055106Y000435933D01*
X000054967Y000435931D01*
X000054827Y000435925D01*
X000054687Y000435914D01*
X000054547Y000435902D01*
X000054408Y000435884D01*
X000054269Y000435862D01*
X000054132Y000435837D01*
X000053994Y000435808D01*
X000053857Y000435775D01*
X000053723Y000435738D01*
X000053589Y000435696D01*
X000053456Y000435652D01*
X000053324Y000435604D01*
X000053194Y000435552D01*
X000053064Y000435497D01*
X000052937Y000435438D01*
X000052812Y000435375D01*
X000052688Y000435309D01*
X000052567Y000435240D01*
X000052447Y000435167D01*
X000052329Y000435090D01*
X000052214Y000435011D01*
X000052100Y000434928D01*
X000051990Y000434842D01*
X000051881Y000434753D01*
X000051775Y000434661D01*
X000051671Y000434565D01*
X000051571Y000434469D01*
X000051474Y000434368D01*
X000051379Y000434265D01*
X000051287Y000434159D01*
X000051198Y000434049D01*
X000051112Y000433940D01*
X000051029Y000433826D01*
X000050949Y000433711D01*
X000050873Y000433593D01*
X000050800Y000433473D01*
X000050731Y000433352D01*
X000050665Y000433228D01*
X000050602Y000433101D01*
X000050543Y000432975D01*
X000050488Y000432846D01*
X000050436Y000432716D01*
X000050388Y000432584D01*
X000050343Y000432451D01*
X000050302Y000432317D01*
X000050265Y000432182D01*
X000050232Y000432046D01*
X000050203Y000431907D01*
X000050178Y000431771D01*
X000050156Y000431632D01*
X000050138Y000431493D01*
X000050125Y000431353D01*
X000050115Y000431213D01*
X000050109Y000431073D01*
X000050107Y000430933D01*
X000050107Y000393689D01*
X000050109Y000393549D01*
X000050115Y000393409D01*
X000050125Y000393269D01*
X000050138Y000393129D01*
X000050156Y000392990D01*
X000050178Y000392851D01*
X000050203Y000392714D01*
X000050232Y000392576D01*
X000050265Y000392440D01*
X000050302Y000392305D01*
X000050343Y000392170D01*
X000050388Y000392038D01*
X000050436Y000391906D01*
X000050488Y000391776D01*
X000050543Y000391647D01*
X000050602Y000391520D01*
X000050665Y000391394D01*
X000050731Y000391269D01*
X000050800Y000391149D01*
X000050873Y000391028D01*
X000050949Y000390911D01*
X000051029Y000390795D01*
X000051112Y000390682D01*
X000051198Y000390572D01*
X000051287Y000390463D01*
X000051379Y000390357D01*
X000051474Y000390254D01*
X000051571Y000390153D01*
X000051671Y000390056D01*
X000051775Y000389961D01*
X000051881Y000389869D01*
X000051990Y000389780D01*
X000052100Y000389693D01*
X000052214Y000389611D01*
X000052329Y000389532D01*
X000052447Y000389455D01*
X000052567Y000389382D01*
X000052688Y000389313D01*
X000052812Y000389247D01*
X000052937Y000389184D01*
X000053064Y000389124D01*
X000053194Y000389070D01*
X000053324Y000389018D01*
X000053456Y000388970D01*
X000053589Y000388924D01*
X000053723Y000388884D01*
X000053857Y000388847D01*
X000053994Y000388814D01*
X000054132Y000388785D01*
X000054269Y000388760D01*
X000054408Y000388738D01*
X000054547Y000388720D01*
X000054687Y000388707D01*
X000054827Y000388697D01*
X000054967Y000388690D01*
X000055106Y000388689D01*
D95*
X000054607Y000397311D03*
X000054607Y000422311D03*
D96*
X000200894Y000426091D03*
X000200894Y000398531D03*
D97*
X000198926Y000408373D03*
X000198926Y000416248D03*
G75*
D108*
X000055106Y000050107D02*
X000212232Y000050107D01*
X000212422Y000050109D01*
X000212611Y000050116D01*
X000212803Y000050127D01*
X000212993Y000050144D01*
X000213181Y000050164D01*
X000213371Y000050190D01*
X000213559Y000050219D01*
X000213746Y000050254D01*
X000213932Y000050293D01*
X000214116Y000050336D01*
X000214302Y000050383D01*
X000214485Y000050436D01*
X000214665Y000050492D01*
X000214846Y000050553D01*
X000215025Y000050619D01*
X000215201Y000050688D01*
X000215377Y000050761D01*
X000215551Y000050839D01*
X000215723Y000050922D01*
X000215892Y000051009D01*
X000216060Y000051099D01*
X000216224Y000051193D01*
X000216387Y000051292D01*
X000216548Y000051395D01*
X000216706Y000051501D01*
X000216861Y000051610D01*
X000217014Y000051724D01*
X000217164Y000051842D01*
X000217309Y000051963D01*
X000217454Y000052087D01*
X000217594Y000052215D01*
X000217733Y000052346D01*
X000217868Y000052481D01*
X000217999Y000052619D01*
X000218127Y000052759D01*
X000218251Y000052903D01*
X000218372Y000053050D01*
X000218489Y000053200D01*
X000218603Y000053352D01*
X000218712Y000053508D01*
X000218819Y000053666D01*
X000218922Y000053825D01*
X000219020Y000053989D01*
X000219115Y000054154D01*
X000219205Y000054322D01*
X000219291Y000054491D01*
X000219374Y000054662D01*
X000219451Y000054835D01*
X000219526Y000055012D01*
X000219593Y000055189D01*
X000219661Y000055367D01*
X000219722Y000055548D01*
X000219776Y000055728D01*
X000219830Y000055911D01*
X000219878Y000056097D01*
X000219921Y000056282D01*
X000219960Y000056467D01*
X000219993Y000056655D01*
X000220024Y000056843D01*
X000220050Y000057032D01*
X000220070Y000057221D01*
X000220086Y000057411D01*
X000220098Y000057601D01*
X000220105Y000057791D01*
X000220107Y000057981D01*
X000220107Y000089477D01*
X000220105Y000089667D01*
X000220098Y000089857D01*
X000220086Y000090047D01*
X000220070Y000090237D01*
X000220050Y000090426D01*
X000220024Y000090613D01*
X000219993Y000090803D01*
X000219960Y000090990D01*
X000219921Y000091176D01*
X000219878Y000091361D01*
X000219830Y000091546D01*
X000219776Y000091729D01*
X000219722Y000091910D01*
X000219661Y000092090D01*
X000219593Y000092269D01*
X000219526Y000092446D01*
X000219451Y000092622D01*
X000219374Y000092795D01*
X000219291Y000092967D01*
X000219205Y000093136D01*
X000219115Y000093304D01*
X000219020Y000093467D01*
X000218922Y000093632D01*
X000218819Y000093792D01*
X000218712Y000093950D01*
X000218603Y000094105D01*
X000218489Y000094258D01*
X000218372Y000094408D01*
X000218251Y000094554D01*
X000218127Y000094698D01*
X000217999Y000094839D01*
X000217868Y000094977D01*
X000217733Y000095112D01*
X000217594Y000095243D01*
X000217454Y000095370D01*
X000217309Y000095494D01*
X000217164Y000095616D01*
X000217014Y000095734D01*
X000216861Y000095847D01*
X000216706Y000095957D01*
X000216548Y000096063D01*
X000216387Y000096166D01*
X000216224Y000096264D01*
X000216060Y000096359D01*
X000215892Y000096449D01*
X000215723Y000096535D01*
X000215551Y000096618D01*
X000215377Y000096696D01*
X000215201Y000096770D01*
X000215025Y000096839D01*
X000214846Y000096905D01*
X000214665Y000096966D01*
X000214485Y000097022D01*
X000214302Y000097074D01*
X000214116Y000097122D01*
X000213932Y000097165D01*
X000213746Y000097204D01*
X000213559Y000097239D01*
X000213371Y000097268D01*
X000213181Y000097294D01*
X000212993Y000097314D01*
X000212803Y000097330D01*
X000212611Y000097342D01*
X000212422Y000097349D01*
X000212232Y000097351D01*
X000055106Y000097351D01*
X000054967Y000097349D01*
X000054827Y000097343D01*
X000054687Y000097333D01*
X000054547Y000097320D01*
X000054408Y000097302D01*
X000054269Y000097280D01*
X000054132Y000097255D01*
X000053994Y000097226D01*
X000053857Y000097193D01*
X000053723Y000097156D01*
X000053589Y000097115D01*
X000053456Y000097070D01*
X000053324Y000097022D01*
X000053194Y000096970D01*
X000053064Y000096915D01*
X000052937Y000096856D01*
X000052812Y000096793D01*
X000052688Y000096727D01*
X000052567Y000096658D01*
X000052447Y000096585D01*
X000052329Y000096508D01*
X000052214Y000096429D01*
X000052100Y000096346D01*
X000051990Y000096260D01*
X000051881Y000096171D01*
X000051775Y000096079D01*
X000051671Y000095984D01*
X000051571Y000095887D01*
X000051474Y000095786D01*
X000051379Y000095683D01*
X000051287Y000095577D01*
X000051198Y000095468D01*
X000051112Y000095358D01*
X000051029Y000095244D01*
X000050949Y000095129D01*
X000050873Y000095011D01*
X000050800Y000094891D01*
X000050731Y000094770D01*
X000050665Y000094646D01*
X000050602Y000094520D01*
X000050543Y000094393D01*
X000050488Y000094264D01*
X000050436Y000094134D01*
X000050388Y000094002D01*
X000050343Y000093869D01*
X000050302Y000093735D01*
X000050265Y000093600D01*
X000050232Y000093464D01*
X000050203Y000093326D01*
X000050178Y000093189D01*
X000050156Y000093050D01*
X000050138Y000092911D01*
X000050125Y000092771D01*
X000050115Y000092630D01*
X000050109Y000092491D01*
X000050107Y000092351D01*
X000050107Y000055106D01*
X000050109Y000054967D01*
X000050115Y000054827D01*
X000050125Y000054687D01*
X000050138Y000054547D01*
X000050156Y000054408D01*
X000050178Y000054269D01*
X000050203Y000054132D01*
X000050232Y000053994D01*
X000050265Y000053857D01*
X000050302Y000053723D01*
X000050343Y000053589D01*
X000050388Y000053456D01*
X000050436Y000053324D01*
X000050488Y000053194D01*
X000050543Y000053064D01*
X000050602Y000052937D01*
X000050665Y000052812D01*
X000050731Y000052688D01*
X000050800Y000052567D01*
X000050873Y000052447D01*
X000050949Y000052329D01*
X000051029Y000052214D01*
X000051112Y000052100D01*
X000051198Y000051990D01*
X000051287Y000051881D01*
X000051379Y000051775D01*
X000051474Y000051671D01*
X000051571Y000051571D01*
X000051671Y000051474D01*
X000051775Y000051379D01*
X000051881Y000051287D01*
X000051990Y000051198D01*
X000052100Y000051112D01*
X000052214Y000051029D01*
X000052329Y000050949D01*
X000052447Y000050873D01*
X000052567Y000050800D01*
X000052688Y000050731D01*
X000052812Y000050665D01*
X000052937Y000050602D01*
X000053064Y000050543D01*
X000053194Y000050488D01*
X000053324Y000050436D01*
X000053456Y000050388D01*
X000053589Y000050343D01*
X000053723Y000050302D01*
X000053857Y000050265D01*
X000053994Y000050232D01*
X000054132Y000050203D01*
X000054269Y000050178D01*
X000054408Y000050156D01*
X000054547Y000050138D01*
X000054687Y000050125D01*
X000054827Y000050115D01*
X000054967Y000050109D01*
X000055106Y000050107D01*
D109*
X000054607Y000058729D03*
X000054607Y000083729D03*
D110*
X000200894Y000087509D03*
X000200894Y000059949D03*
D111*
X000198926Y000069792D03*
X000198926Y000077666D03*
G75*
D122*
X000055106Y000105224D02*
X000212232Y000105224D01*
X000212422Y000105227D01*
X000212611Y000105234D01*
X000212803Y000105246D01*
X000212993Y000105261D01*
X000213181Y000105282D01*
X000213371Y000105308D01*
X000213559Y000105336D01*
X000213746Y000105372D01*
X000213932Y000105411D01*
X000214116Y000105454D01*
X000214302Y000105502D01*
X000214485Y000105553D01*
X000214665Y000105610D01*
X000214846Y000105671D01*
X000215025Y000105736D01*
X000215201Y000105806D01*
X000215377Y000105880D01*
X000215551Y000105958D01*
X000215723Y000106041D01*
X000215892Y000106127D01*
X000216060Y000106217D01*
X000216224Y000106312D01*
X000216387Y000106410D01*
X000216548Y000106512D01*
X000216706Y000106619D01*
X000216861Y000106729D01*
X000217014Y000106841D01*
X000217164Y000106960D01*
X000217309Y000107081D01*
X000217454Y000107205D01*
X000217594Y000107332D01*
X000217733Y000107464D01*
X000217868Y000107599D01*
X000217999Y000107737D01*
X000218127Y000107878D01*
X000218251Y000108022D01*
X000218372Y000108168D01*
X000218489Y000108318D01*
X000218603Y000108471D01*
X000218712Y000108626D01*
X000218819Y000108783D01*
X000218922Y000108944D01*
X000219020Y000109107D01*
X000219115Y000109271D01*
X000219205Y000109440D01*
X000219291Y000109609D01*
X000219374Y000109781D01*
X000219451Y000109954D01*
X000219526Y000110130D01*
X000219593Y000110307D01*
X000219661Y000110486D01*
X000219722Y000110666D01*
X000219776Y000110847D01*
X000219830Y000111030D01*
X000219878Y000111215D01*
X000219921Y000111400D01*
X000219960Y000111586D01*
X000219993Y000111772D01*
X000220024Y000111961D01*
X000220050Y000112150D01*
X000220070Y000112339D01*
X000220086Y000112528D01*
X000220098Y000112718D01*
X000220105Y000112908D01*
X000220107Y000113099D01*
X000220107Y000144595D01*
X000220105Y000144785D01*
X000220098Y000144975D01*
X000220086Y000145165D01*
X000220070Y000145355D01*
X000220050Y000145544D01*
X000220024Y000145733D01*
X000219993Y000145921D01*
X000219960Y000146108D01*
X000219921Y000146293D01*
X000219878Y000146479D01*
X000219830Y000146664D01*
X000219776Y000146847D01*
X000219722Y000147028D01*
X000219661Y000147207D01*
X000219593Y000147387D01*
X000219526Y000147564D01*
X000219451Y000147740D01*
X000219374Y000147913D01*
X000219291Y000148084D01*
X000219205Y000148254D01*
X000219115Y000148422D01*
X000219020Y000148587D01*
X000218922Y000148750D01*
X000218819Y000148910D01*
X000218712Y000149067D01*
X000218603Y000149222D01*
X000218489Y000149376D01*
X000218372Y000149526D01*
X000218251Y000149672D01*
X000218127Y000149816D01*
X000217999Y000149957D01*
X000217868Y000150095D01*
X000217733Y000150230D01*
X000217594Y000150361D01*
X000217454Y000150489D01*
X000217309Y000150613D01*
X000217164Y000150734D01*
X000217014Y000150852D01*
X000216861Y000150965D01*
X000216706Y000151075D01*
X000216548Y000151181D01*
X000216387Y000151284D01*
X000216224Y000151382D01*
X000216060Y000151476D01*
X000215892Y000151567D01*
X000215723Y000151653D01*
X000215551Y000151736D01*
X000215377Y000151814D01*
X000215201Y000151888D01*
X000215025Y000151957D01*
X000214846Y000152023D01*
X000214665Y000152084D01*
X000214485Y000152140D01*
X000214302Y000152192D01*
X000214116Y000152240D01*
X000213932Y000152282D01*
X000213746Y000152322D01*
X000213559Y000152357D01*
X000213371Y000152386D01*
X000213181Y000152412D01*
X000212993Y000152432D01*
X000212803Y000152448D01*
X000212611Y000152459D01*
X000212422Y000152467D01*
X000212232Y000152469D01*
X000055106Y000152469D01*
X000054967Y000152467D01*
X000054827Y000152461D01*
X000054687Y000152450D01*
X000054547Y000152438D01*
X000054408Y000152420D01*
X000054269Y000152398D01*
X000054132Y000152373D01*
X000053994Y000152344D01*
X000053857Y000152311D01*
X000053723Y000152273D01*
X000053589Y000152233D01*
X000053456Y000152188D01*
X000053324Y000152140D01*
X000053194Y000152087D01*
X000053064Y000152033D01*
X000052937Y000151974D01*
X000052812Y000151910D01*
X000052688Y000151845D01*
X000052567Y000151776D01*
X000052447Y000151703D01*
X000052329Y000151626D01*
X000052214Y000151547D01*
X000052100Y000151464D01*
X000051990Y000151378D01*
X000051881Y000151289D01*
X000051775Y000151197D01*
X000051671Y000151102D01*
X000051571Y000151005D01*
X000051474Y000150904D01*
X000051379Y000150801D01*
X000051287Y000150695D01*
X000051198Y000150586D01*
X000051112Y000150476D01*
X000051029Y000150362D01*
X000050949Y000150247D01*
X000050873Y000150129D01*
X000050800Y000150009D01*
X000050731Y000149888D01*
X000050665Y000149764D01*
X000050602Y000149638D01*
X000050543Y000149510D01*
X000050488Y000149382D01*
X000050436Y000149252D01*
X000050388Y000149120D01*
X000050343Y000148987D01*
X000050302Y000148853D01*
X000050265Y000148718D01*
X000050232Y000148582D01*
X000050203Y000148444D01*
X000050178Y000148307D01*
X000050156Y000148168D01*
X000050138Y000148029D01*
X000050125Y000147889D01*
X000050115Y000147749D01*
X000050109Y000147608D01*
X000050107Y000147469D01*
X000050107Y000110225D01*
X000050109Y000110085D01*
X000050115Y000109945D01*
X000050125Y000109805D01*
X000050138Y000109664D01*
X000050156Y000109525D01*
X000050178Y000109386D01*
X000050203Y000109250D01*
X000050232Y000109112D01*
X000050265Y000108976D01*
X000050302Y000108841D01*
X000050343Y000108707D01*
X000050388Y000108574D01*
X000050436Y000108442D01*
X000050488Y000108312D01*
X000050543Y000108183D01*
X000050602Y000108056D01*
X000050665Y000107929D01*
X000050731Y000107806D01*
X000050800Y000107685D01*
X000050873Y000107565D01*
X000050949Y000107447D01*
X000051029Y000107332D01*
X000051112Y000107217D01*
X000051198Y000107108D01*
X000051287Y000106999D01*
X000051379Y000106893D01*
X000051474Y000106790D01*
X000051571Y000106688D01*
X000051671Y000106592D01*
X000051775Y000106497D01*
X000051881Y000106405D01*
X000051990Y000106316D01*
X000052100Y000106230D01*
X000052214Y000106146D01*
X000052329Y000106068D01*
X000052447Y000105990D01*
X000052567Y000105918D01*
X000052688Y000105849D01*
X000052812Y000105783D01*
X000052937Y000105719D01*
X000053064Y000105661D01*
X000053194Y000105606D01*
X000053324Y000105553D01*
X000053456Y000105506D01*
X000053589Y000105461D01*
X000053723Y000105420D01*
X000053857Y000105383D01*
X000053994Y000105350D01*
X000054132Y000105321D01*
X000054269Y000105295D01*
X000054408Y000105274D01*
X000054547Y000105256D01*
X000054687Y000105243D01*
X000054827Y000105233D01*
X000054967Y000105227D01*
X000055106Y000105224D01*
D123*
X000054607Y000113847D03*
X000054607Y000138847D03*
D124*
X000200894Y000142627D03*
X000200894Y000115067D03*
D125*
X000198926Y000124910D03*
X000198926Y000132784D03*
G75*
D136*
X000055106Y000554042D02*
X000212232Y000554042D01*
X000212422Y000554046D01*
X000212611Y000554053D01*
X000212803Y000554065D01*
X000212993Y000554081D01*
X000213181Y000554101D01*
X000213371Y000554127D01*
X000213559Y000554156D01*
X000213746Y000554191D01*
X000213932Y000554230D01*
X000214116Y000554273D01*
X000214302Y000554319D01*
X000214485Y000554373D01*
X000214665Y000554429D01*
X000214846Y000554490D01*
X000215025Y000554556D01*
X000215201Y000554625D01*
X000215377Y000554699D01*
X000215551Y000554777D01*
X000215723Y000554860D01*
X000215892Y000554946D01*
X000216060Y000555036D01*
X000216224Y000555131D01*
X000216387Y000555229D01*
X000216548Y000555332D01*
X000216706Y000555438D01*
X000216861Y000555548D01*
X000217014Y000555661D01*
X000217164Y000555778D01*
X000217309Y000555900D01*
X000217454Y000556024D01*
X000217594Y000556152D01*
X000217733Y000556282D01*
X000217868Y000556418D01*
X000217999Y000556556D01*
X000218127Y000556697D01*
X000218251Y000556841D01*
X000218372Y000556987D01*
X000218489Y000557137D01*
X000218603Y000557290D01*
X000218712Y000557445D01*
X000218819Y000557603D01*
X000218922Y000557763D01*
X000219020Y000557926D01*
X000219115Y000558091D01*
X000219205Y000558259D01*
X000219291Y000558428D01*
X000219374Y000558600D01*
X000219451Y000558773D01*
X000219526Y000558949D01*
X000219593Y000559126D01*
X000219661Y000559305D01*
X000219722Y000559485D01*
X000219776Y000559666D01*
X000219830Y000559849D01*
X000219878Y000560034D01*
X000219921Y000560219D01*
X000219960Y000560405D01*
X000219993Y000560592D01*
X000220024Y000560780D01*
X000220050Y000560969D01*
X000220070Y000561158D01*
X000220086Y000561348D01*
X000220098Y000561538D01*
X000220105Y000561728D01*
X000220107Y000561918D01*
X000220107Y000593414D01*
X000220105Y000593604D01*
X000220098Y000593794D01*
X000220086Y000593984D01*
X000220070Y000594174D01*
X000220050Y000594363D01*
X000220024Y000594552D01*
X000219993Y000594739D01*
X000219960Y000594927D01*
X000219921Y000595113D01*
X000219878Y000595298D01*
X000219830Y000595483D01*
X000219776Y000595666D01*
X000219722Y000595847D01*
X000219661Y000596027D01*
X000219593Y000596206D01*
X000219526Y000596383D01*
X000219451Y000596559D01*
X000219374Y000596732D01*
X000219291Y000596904D01*
X000219205Y000597073D01*
X000219115Y000597241D01*
X000219020Y000597406D01*
X000218922Y000597569D01*
X000218819Y000597729D01*
X000218712Y000597887D01*
X000218603Y000598042D01*
X000218489Y000598195D01*
X000218372Y000598345D01*
X000218251Y000598491D01*
X000218127Y000598634D01*
X000217999Y000598776D01*
X000217868Y000598914D01*
X000217733Y000599049D01*
X000217594Y000599180D01*
X000217454Y000599308D01*
X000217309Y000599432D01*
X000217164Y000599553D01*
X000217014Y000599671D01*
X000216861Y000599784D01*
X000216706Y000599894D01*
X000216548Y000599999D01*
X000216387Y000600103D01*
X000216224Y000600201D01*
X000216060Y000600296D01*
X000215892Y000600386D01*
X000215723Y000600472D01*
X000215551Y000600555D01*
X000215377Y000600633D01*
X000215201Y000600706D01*
X000215025Y000600776D01*
X000214846Y000600842D01*
X000214665Y000600903D01*
X000214485Y000600959D01*
X000214302Y000601011D01*
X000214116Y000601059D01*
X000213932Y000601102D01*
X000213746Y000601141D01*
X000213559Y000601176D01*
X000213371Y000601205D01*
X000213181Y000601231D01*
X000212993Y000601251D01*
X000212803Y000601267D01*
X000212611Y000601279D01*
X000212422Y000601286D01*
X000212232Y000601288D01*
X000055106Y000601288D01*
X000054967Y000601286D01*
X000054827Y000601280D01*
X000054687Y000601270D01*
X000054547Y000601257D01*
X000054408Y000601239D01*
X000054269Y000601217D01*
X000054132Y000601192D01*
X000053994Y000601163D01*
X000053857Y000601130D01*
X000053723Y000601093D01*
X000053589Y000601052D01*
X000053456Y000601007D01*
X000053324Y000600959D01*
X000053194Y000600907D01*
X000053064Y000600852D01*
X000052937Y000600793D01*
X000052812Y000600730D01*
X000052688Y000600664D01*
X000052567Y000600595D01*
X000052447Y000600522D01*
X000052329Y000600443D01*
X000052214Y000600366D01*
X000052100Y000600283D01*
X000051990Y000600196D01*
X000051881Y000600108D01*
X000051775Y000600016D01*
X000051671Y000599921D01*
X000051571Y000599824D01*
X000051474Y000599723D01*
X000051379Y000599619D01*
X000051287Y000599514D01*
X000051198Y000599405D01*
X000051112Y000599295D01*
X000051029Y000599181D01*
X000050949Y000599064D01*
X000050873Y000598948D01*
X000050800Y000598828D01*
X000050731Y000598707D01*
X000050665Y000598583D01*
X000050602Y000598457D01*
X000050543Y000598330D01*
X000050488Y000598201D01*
X000050436Y000598071D01*
X000050388Y000597939D01*
X000050343Y000597806D01*
X000050302Y000597672D01*
X000050265Y000597537D01*
X000050232Y000597401D01*
X000050203Y000597263D01*
X000050178Y000597126D01*
X000050156Y000596986D01*
X000050138Y000596848D01*
X000050125Y000596708D01*
X000050115Y000596568D01*
X000050109Y000596428D01*
X000050107Y000596288D01*
X000050107Y000559044D01*
X000050109Y000558904D01*
X000050115Y000558764D01*
X000050125Y000558624D01*
X000050138Y000558484D01*
X000050156Y000558345D01*
X000050178Y000558206D01*
X000050203Y000558069D01*
X000050232Y000557931D01*
X000050265Y000557795D01*
X000050302Y000557660D01*
X000050343Y000557526D01*
X000050388Y000557393D01*
X000050436Y000557261D01*
X000050488Y000557131D01*
X000050543Y000557002D01*
X000050602Y000556875D01*
X000050665Y000556749D01*
X000050731Y000556625D01*
X000050800Y000556504D01*
X000050873Y000556384D01*
X000050949Y000556266D01*
X000051029Y000556151D01*
X000051112Y000556037D01*
X000051198Y000555927D01*
X000051287Y000555818D01*
X000051379Y000555712D01*
X000051474Y000555609D01*
X000051571Y000555508D01*
X000051671Y000555411D01*
X000051775Y000555316D01*
X000051881Y000555224D01*
X000051990Y000555135D01*
X000052100Y000555049D01*
X000052214Y000554966D01*
X000052329Y000554887D01*
X000052447Y000554810D01*
X000052567Y000554737D01*
X000052688Y000554668D01*
X000052812Y000554602D01*
X000052937Y000554539D01*
X000053064Y000554480D01*
X000053194Y000554425D01*
X000053324Y000554373D01*
X000053456Y000554325D01*
X000053589Y000554280D01*
X000053723Y000554239D01*
X000053857Y000554202D01*
X000053994Y000554169D01*
X000054132Y000554140D01*
X000054269Y000554115D01*
X000054408Y000554093D01*
X000054547Y000554075D01*
X000054687Y000554062D01*
X000054827Y000554052D01*
X000054967Y000554046D01*
X000055106Y000554042D01*
D137*
X000054607Y000562664D03*
X000054607Y000587666D03*
D138*
X000200894Y000591446D03*
X000200894Y000563886D03*
D139*
X000198926Y000573729D03*
X000198926Y000581603D03*
G75*
D150*
X000055106Y000164280D02*
X000212232Y000164280D01*
X000212422Y000164282D01*
X000212611Y000164289D01*
X000212803Y000164301D01*
X000212993Y000164317D01*
X000213181Y000164337D01*
X000213371Y000164363D01*
X000213559Y000164392D01*
X000213746Y000164427D01*
X000213932Y000164466D01*
X000214116Y000164509D01*
X000214302Y000164557D01*
X000214485Y000164609D01*
X000214665Y000164665D01*
X000214846Y000164726D01*
X000215025Y000164792D01*
X000215201Y000164861D01*
X000215377Y000164935D01*
X000215551Y000165013D01*
X000215723Y000165095D01*
X000215892Y000165181D01*
X000216060Y000165272D01*
X000216224Y000165367D01*
X000216387Y000165465D01*
X000216548Y000165568D01*
X000216706Y000165674D01*
X000216861Y000165784D01*
X000217014Y000165897D01*
X000217164Y000166015D01*
X000217309Y000166136D01*
X000217454Y000166260D01*
X000217594Y000166388D01*
X000217733Y000166519D01*
X000217868Y000166654D01*
X000217999Y000166792D01*
X000218127Y000166933D01*
X000218251Y000167077D01*
X000218372Y000167223D01*
X000218489Y000167373D01*
X000218603Y000167526D01*
X000218712Y000167681D01*
X000218819Y000167838D01*
X000218922Y000167999D01*
X000219020Y000168162D01*
X000219115Y000168327D01*
X000219205Y000168495D01*
X000219291Y000168664D01*
X000219374Y000168836D01*
X000219451Y000169009D01*
X000219526Y000169185D01*
X000219593Y000169362D01*
X000219661Y000169541D01*
X000219722Y000169721D01*
X000219776Y000169902D01*
X000219830Y000170085D01*
X000219878Y000170270D01*
X000219921Y000170455D01*
X000219960Y000170641D01*
X000219993Y000170828D01*
X000220024Y000171016D01*
X000220050Y000171205D01*
X000220070Y000171394D01*
X000220086Y000171584D01*
X000220098Y000171774D01*
X000220105Y000171963D01*
X000220107Y000172154D01*
X000220107Y000203650D01*
X000220105Y000203840D01*
X000220098Y000204029D01*
X000220086Y000204219D01*
X000220070Y000204409D01*
X000220050Y000204599D01*
X000220024Y000204788D01*
X000219993Y000204976D01*
X000219960Y000205162D01*
X000219921Y000205349D01*
X000219878Y000205534D01*
X000219830Y000205717D01*
X000219776Y000205900D01*
X000219722Y000206083D01*
X000219661Y000206263D01*
X000219593Y000206442D01*
X000219526Y000206619D01*
X000219451Y000206795D01*
X000219374Y000206968D01*
X000219291Y000207140D01*
X000219205Y000207309D01*
X000219115Y000207477D01*
X000219020Y000207642D01*
X000218922Y000207805D01*
X000218819Y000207965D01*
X000218712Y000208123D01*
X000218603Y000208278D01*
X000218489Y000208431D01*
X000218372Y000208581D01*
X000218251Y000208727D01*
X000218127Y000208869D01*
X000217999Y000209012D01*
X000217868Y000209150D01*
X000217733Y000209285D01*
X000217594Y000209416D01*
X000217454Y000209544D01*
X000217309Y000209668D01*
X000217164Y000209789D01*
X000217014Y000209907D01*
X000216861Y000210020D01*
X000216706Y000210130D01*
X000216548Y000210236D01*
X000216387Y000210339D01*
X000216224Y000210435D01*
X000216060Y000210532D01*
X000215892Y000210622D01*
X000215723Y000210707D01*
X000215551Y000210791D01*
X000215377Y000210869D01*
X000215201Y000210943D01*
X000215025Y000211012D01*
X000214846Y000211078D01*
X000214665Y000211139D01*
X000214485Y000211195D01*
X000214302Y000211247D01*
X000214116Y000211295D01*
X000213932Y000211337D01*
X000213746Y000211377D01*
X000213559Y000211412D01*
X000213371Y000211441D01*
X000213181Y000211466D01*
X000212993Y000211486D01*
X000212803Y000211503D01*
X000212611Y000211515D01*
X000212422Y000211522D01*
X000212232Y000211524D01*
X000055106Y000211524D01*
X000054967Y000211522D01*
X000054827Y000211516D01*
X000054687Y000211506D01*
X000054547Y000211493D01*
X000054408Y000211475D01*
X000054269Y000211452D01*
X000054132Y000211428D01*
X000053994Y000211398D01*
X000053857Y000211366D01*
X000053723Y000211329D01*
X000053589Y000211288D01*
X000053456Y000211242D01*
X000053324Y000211195D01*
X000053194Y000211143D01*
X000053064Y000211088D01*
X000052937Y000211029D01*
X000052812Y000210966D01*
X000052688Y000210900D01*
X000052567Y000210831D01*
X000052447Y000210758D01*
X000052329Y000210679D01*
X000052214Y000210602D01*
X000052100Y000210519D01*
X000051990Y000210433D01*
X000051881Y000210344D01*
X000051775Y000210252D01*
X000051671Y000210157D01*
X000051571Y000210060D01*
X000051474Y000209959D01*
X000051379Y000209856D01*
X000051287Y000209750D01*
X000051198Y000209641D01*
X000051112Y000209531D01*
X000051029Y000209417D01*
X000050949Y000209302D01*
X000050873Y000209184D01*
X000050800Y000209064D01*
X000050731Y000208943D01*
X000050665Y000208819D01*
X000050602Y000208693D01*
X000050543Y000208564D01*
X000050488Y000208436D01*
X000050436Y000208307D01*
X000050388Y000208175D01*
X000050343Y000208042D01*
X000050302Y000207907D01*
X000050265Y000207773D01*
X000050232Y000207636D01*
X000050203Y000207499D01*
X000050178Y000207362D01*
X000050156Y000207222D01*
X000050138Y000207084D01*
X000050125Y000206944D01*
X000050115Y000206804D01*
X000050109Y000206664D01*
X000050107Y000206524D01*
X000050107Y000169280D01*
X000050109Y000169140D01*
X000050115Y000169000D01*
X000050125Y000168860D01*
X000050138Y000168720D01*
X000050156Y000168581D01*
X000050178Y000168442D01*
X000050203Y000168305D01*
X000050232Y000168167D01*
X000050265Y000168031D01*
X000050302Y000167896D01*
X000050343Y000167762D01*
X000050388Y000167629D01*
X000050436Y000167497D01*
X000050488Y000167367D01*
X000050543Y000167238D01*
X000050602Y000167111D01*
X000050665Y000166985D01*
X000050731Y000166861D01*
X000050800Y000166740D01*
X000050873Y000166620D01*
X000050949Y000166501D01*
X000051029Y000166387D01*
X000051112Y000166273D01*
X000051198Y000166163D01*
X000051287Y000166054D01*
X000051379Y000165948D01*
X000051474Y000165845D01*
X000051571Y000165744D01*
X000051671Y000165647D01*
X000051775Y000165552D01*
X000051881Y000165460D01*
X000051990Y000165371D01*
X000052100Y000165285D01*
X000052214Y000165201D01*
X000052329Y000165123D01*
X000052447Y000165046D01*
X000052567Y000164973D01*
X000052688Y000164904D01*
X000052812Y000164838D01*
X000052937Y000164775D01*
X000053064Y000164716D01*
X000053194Y000164661D01*
X000053324Y000164609D01*
X000053456Y000164561D01*
X000053589Y000164516D01*
X000053723Y000164475D01*
X000053857Y000164438D01*
X000053994Y000164404D01*
X000054132Y000164376D01*
X000054269Y000164351D01*
X000054408Y000164329D01*
X000054547Y000164311D01*
X000054687Y000164298D01*
X000054827Y000164287D01*
X000054967Y000164282D01*
X000055106Y000164280D01*
D151*
X000054607Y000172902D03*
X000054607Y000197902D03*
D152*
X000200894Y000201682D03*
X000200894Y000174122D03*
D153*
X000198926Y000183965D03*
X000198926Y000191839D03*
G75*
D164*
X000236208Y000050107D02*
X000393335Y000050107D01*
X000393525Y000050109D01*
X000393715Y000050116D01*
X000393905Y000050127D01*
X000394095Y000050144D01*
X000394284Y000050164D01*
X000394473Y000050190D01*
X000394661Y000050219D01*
X000394847Y000050254D01*
X000395034Y000050293D01*
X000395219Y000050336D01*
X000395404Y000050383D01*
X000395587Y000050436D01*
X000395768Y000050492D01*
X000395948Y000050553D01*
X000396127Y000050619D01*
X000396304Y000050688D01*
X000396480Y000050761D01*
X000396653Y000050839D01*
X000396825Y000050922D01*
X000396994Y000051009D01*
X000397162Y000051099D01*
X000397327Y000051193D01*
X000397490Y000051292D01*
X000397650Y000051395D01*
X000397808Y000051501D01*
X000397963Y000051610D01*
X000398115Y000051724D01*
X000398266Y000051842D01*
X000398412Y000051963D01*
X000398556Y000052087D01*
X000398697Y000052215D01*
X000398835Y000052346D01*
X000398970Y000052481D01*
X000399101Y000052619D01*
X000399229Y000052759D01*
X000399353Y000052903D01*
X000399474Y000053050D01*
X000399592Y000053200D01*
X000399705Y000053352D01*
X000399815Y000053508D01*
X000399921Y000053666D01*
X000400024Y000053825D01*
X000400122Y000053989D01*
X000400216Y000054154D01*
X000400307Y000054322D01*
X000400393Y000054491D01*
X000400476Y000054662D01*
X000400554Y000054835D01*
X000400628Y000055012D01*
X000400697Y000055189D01*
X000400763Y000055367D01*
X000400824Y000055548D01*
X000400880Y000055728D01*
X000400932Y000055911D01*
X000400980Y000056097D01*
X000401023Y000056282D01*
X000401062Y000056467D01*
X000401097Y000056655D01*
X000401126Y000056843D01*
X000401152Y000057032D01*
X000401172Y000057221D01*
X000401187Y000057411D01*
X000401199Y000057601D01*
X000401206Y000057791D01*
X000401209Y000057981D01*
X000401209Y000089477D01*
X000401206Y000089667D01*
X000401199Y000089857D01*
X000401187Y000090047D01*
X000401172Y000090237D01*
X000401152Y000090426D01*
X000401126Y000090613D01*
X000401097Y000090803D01*
X000401062Y000090990D01*
X000401023Y000091176D01*
X000400980Y000091361D01*
X000400932Y000091546D01*
X000400880Y000091729D01*
X000400824Y000091910D01*
X000400763Y000092090D01*
X000400697Y000092269D01*
X000400628Y000092446D01*
X000400554Y000092622D01*
X000400476Y000092795D01*
X000400393Y000092967D01*
X000400307Y000093136D01*
X000400216Y000093304D01*
X000400122Y000093467D01*
X000400024Y000093632D01*
X000399921Y000093792D01*
X000399815Y000093950D01*
X000399705Y000094105D01*
X000399592Y000094258D01*
X000399474Y000094408D01*
X000399353Y000094554D01*
X000399229Y000094698D01*
X000399101Y000094839D01*
X000398970Y000094977D01*
X000398835Y000095112D01*
X000398697Y000095243D01*
X000398556Y000095370D01*
X000398412Y000095494D01*
X000398266Y000095616D01*
X000398115Y000095734D01*
X000397963Y000095847D01*
X000397808Y000095957D01*
X000397650Y000096063D01*
X000397490Y000096166D01*
X000397327Y000096264D01*
X000397162Y000096359D01*
X000396994Y000096449D01*
X000396825Y000096535D01*
X000396653Y000096618D01*
X000396480Y000096696D01*
X000396304Y000096770D01*
X000396127Y000096839D01*
X000395948Y000096905D01*
X000395768Y000096966D01*
X000395587Y000097022D01*
X000395404Y000097074D01*
X000395219Y000097122D01*
X000395034Y000097165D01*
X000394847Y000097204D01*
X000394661Y000097239D01*
X000394473Y000097268D01*
X000394284Y000097294D01*
X000394095Y000097314D01*
X000393905Y000097330D01*
X000393715Y000097342D01*
X000393525Y000097349D01*
X000393335Y000097351D01*
X000236208Y000097351D01*
X000236069Y000097349D01*
X000235929Y000097343D01*
X000235788Y000097333D01*
X000235649Y000097320D01*
X000235510Y000097302D01*
X000235371Y000097280D01*
X000235234Y000097255D01*
X000235096Y000097226D01*
X000234960Y000097193D01*
X000234825Y000097156D01*
X000234690Y000097115D01*
X000234558Y000097070D01*
X000234425Y000097022D01*
X000234296Y000096970D01*
X000234167Y000096915D01*
X000234039Y000096856D01*
X000233914Y000096793D01*
X000233790Y000096727D01*
X000233669Y000096658D01*
X000233549Y000096585D01*
X000233431Y000096508D01*
X000233316Y000096429D01*
X000233202Y000096346D01*
X000233092Y000096260D01*
X000232981Y000096171D01*
X000232877Y000096079D01*
X000232774Y000095984D01*
X000232673Y000095887D01*
X000232575Y000095786D01*
X000232480Y000095683D01*
X000232389Y000095577D01*
X000232300Y000095468D01*
X000232214Y000095358D01*
X000232131Y000095244D01*
X000232052Y000095129D01*
X000231975Y000095011D01*
X000231902Y000094891D01*
X000231833Y000094770D01*
X000231767Y000094646D01*
X000231704Y000094520D01*
X000231645Y000094393D01*
X000231590Y000094264D01*
X000231538Y000094134D01*
X000231490Y000094002D01*
X000231445Y000093869D01*
X000231404Y000093735D01*
X000231367Y000093600D01*
X000231334Y000093464D01*
X000231305Y000093326D01*
X000231280Y000093189D01*
X000231258Y000093050D01*
X000231239Y000092911D01*
X000231226Y000092771D01*
X000231217Y000092630D01*
X000231211Y000092491D01*
X000231209Y000092351D01*
X000231209Y000055106D01*
X000231211Y000054967D01*
X000231217Y000054827D01*
X000231226Y000054687D01*
X000231239Y000054547D01*
X000231258Y000054408D01*
X000231280Y000054269D01*
X000231305Y000054132D01*
X000231334Y000053994D01*
X000231367Y000053857D01*
X000231404Y000053723D01*
X000231445Y000053589D01*
X000231490Y000053456D01*
X000231538Y000053324D01*
X000231590Y000053194D01*
X000231645Y000053064D01*
X000231704Y000052937D01*
X000231767Y000052812D01*
X000231833Y000052688D01*
X000231902Y000052567D01*
X000231975Y000052447D01*
X000232052Y000052329D01*
X000232131Y000052214D01*
X000232214Y000052100D01*
X000232300Y000051990D01*
X000232389Y000051881D01*
X000232480Y000051775D01*
X000232575Y000051671D01*
X000232673Y000051571D01*
X000232774Y000051474D01*
X000232877Y000051379D01*
X000232981Y000051287D01*
X000233092Y000051198D01*
X000233202Y000051112D01*
X000233316Y000051029D01*
X000233431Y000050949D01*
X000233549Y000050873D01*
X000233669Y000050800D01*
X000233790Y000050731D01*
X000233914Y000050665D01*
X000234039Y000050602D01*
X000234167Y000050543D01*
X000234296Y000050488D01*
X000234425Y000050436D01*
X000234558Y000050388D01*
X000234690Y000050343D01*
X000234825Y000050302D01*
X000234960Y000050265D01*
X000235096Y000050232D01*
X000235234Y000050203D01*
X000235371Y000050178D01*
X000235510Y000050156D01*
X000235649Y000050138D01*
X000235788Y000050125D01*
X000235929Y000050115D01*
X000236069Y000050109D01*
X000236208Y000050107D01*
D165*
X000235709Y000058729D03*
X000235709Y000083729D03*
D166*
X000381996Y000087509D03*
X000381996Y000059949D03*
D167*
X000380028Y000069792D03*
X000380028Y000077666D03*
D178*
X000000000Y000000000D02*
X000019680Y000019680D03*
X000610220Y000019680D03*
X000610220Y000629920D03*
X000019680Y000629920D03*
G75*
D189*
X000236208Y000105224D02*
X000393335Y000105224D01*
X000393525Y000105227D01*
X000393715Y000105234D01*
X000393905Y000105246D01*
X000394095Y000105261D01*
X000394284Y000105282D01*
X000394473Y000105308D01*
X000394661Y000105336D01*
X000394847Y000105372D01*
X000395034Y000105411D01*
X000395219Y000105454D01*
X000395404Y000105502D01*
X000395587Y000105553D01*
X000395768Y000105610D01*
X000395948Y000105671D01*
X000396127Y000105736D01*
X000396304Y000105806D01*
X000396480Y000105880D01*
X000396653Y000105958D01*
X000396825Y000106041D01*
X000396994Y000106127D01*
X000397162Y000106217D01*
X000397327Y000106312D01*
X000397490Y000106410D01*
X000397650Y000106512D01*
X000397808Y000106619D01*
X000397963Y000106729D01*
X000398115Y000106841D01*
X000398266Y000106960D01*
X000398412Y000107081D01*
X000398556Y000107205D01*
X000398697Y000107332D01*
X000398835Y000107464D01*
X000398970Y000107599D01*
X000399101Y000107737D01*
X000399229Y000107878D01*
X000399353Y000108022D01*
X000399474Y000108168D01*
X000399592Y000108318D01*
X000399705Y000108471D01*
X000399815Y000108626D01*
X000399921Y000108783D01*
X000400024Y000108944D01*
X000400122Y000109107D01*
X000400216Y000109271D01*
X000400307Y000109440D01*
X000400393Y000109609D01*
X000400476Y000109781D01*
X000400554Y000109954D01*
X000400628Y000110130D01*
X000400697Y000110307D01*
X000400763Y000110486D01*
X000400824Y000110666D01*
X000400880Y000110847D01*
X000400932Y000111030D01*
X000400980Y000111215D01*
X000401023Y000111400D01*
X000401062Y000111586D01*
X000401097Y000111772D01*
X000401126Y000111961D01*
X000401152Y000112150D01*
X000401172Y000112339D01*
X000401187Y000112528D01*
X000401199Y000112718D01*
X000401206Y000112908D01*
X000401209Y000113099D01*
X000401209Y000144595D01*
X000401206Y000144785D01*
X000401199Y000144975D01*
X000401187Y000145165D01*
X000401172Y000145355D01*
X000401152Y000145544D01*
X000401126Y000145733D01*
X000401097Y000145921D01*
X000401062Y000146108D01*
X000401023Y000146293D01*
X000400980Y000146479D01*
X000400932Y000146664D01*
X000400880Y000146847D01*
X000400824Y000147028D01*
X000400763Y000147207D01*
X000400697Y000147387D01*
X000400628Y000147564D01*
X000400554Y000147740D01*
X000400476Y000147913D01*
X000400393Y000148084D01*
X000400307Y000148254D01*
X000400216Y000148422D01*
X000400122Y000148587D01*
X000400024Y000148750D01*
X000399921Y000148910D01*
X000399815Y000149067D01*
X000399705Y000149222D01*
X000399592Y000149376D01*
X000399474Y000149526D01*
X000399353Y000149672D01*
X000399229Y000149816D01*
X000399101Y000149957D01*
X000398970Y000150095D01*
X000398835Y000150230D01*
X000398697Y000150361D01*
X000398556Y000150489D01*
X000398412Y000150613D01*
X000398266Y000150734D01*
X000398115Y000150852D01*
X000397963Y000150965D01*
X000397808Y000151075D01*
X000397650Y000151181D01*
X000397490Y000151284D01*
X000397327Y000151382D01*
X000397162Y000151476D01*
X000396994Y000151567D01*
X000396825Y000151653D01*
X000396653Y000151736D01*
X000396480Y000151814D01*
X000396304Y000151888D01*
X000396127Y000151957D01*
X000395948Y000152023D01*
X000395768Y000152084D01*
X000395587Y000152140D01*
X000395404Y000152192D01*
X000395219Y000152240D01*
X000395034Y000152282D01*
X000394847Y000152322D01*
X000394661Y000152357D01*
X000394473Y000152386D01*
X000394284Y000152412D01*
X000394095Y000152432D01*
X000393905Y000152448D01*
X000393715Y000152459D01*
X000393525Y000152467D01*
X000393335Y000152469D01*
X000236208Y000152469D01*
X000236069Y000152467D01*
X000235929Y000152461D01*
X000235788Y000152450D01*
X000235649Y000152438D01*
X000235510Y000152420D01*
X000235371Y000152398D01*
X000235234Y000152373D01*
X000235096Y000152344D01*
X000234960Y000152311D01*
X000234825Y000152273D01*
X000234690Y000152233D01*
X000234558Y000152188D01*
X000234425Y000152140D01*
X000234296Y000152087D01*
X000234167Y000152033D01*
X000234039Y000151974D01*
X000233914Y000151910D01*
X000233790Y000151845D01*
X000233669Y000151776D01*
X000233549Y000151703D01*
X000233431Y000151626D01*
X000233316Y000151547D01*
X000233202Y000151464D01*
X000233092Y000151378D01*
X000232981Y000151289D01*
X000232877Y000151197D01*
X000232774Y000151102D01*
X000232673Y000151005D01*
X000232575Y000150904D01*
X000232480Y000150801D01*
X000232389Y000150695D01*
X000232300Y000150586D01*
X000232214Y000150476D01*
X000232131Y000150362D01*
X000232052Y000150247D01*
X000231975Y000150129D01*
X000231902Y000150009D01*
X000231833Y000149888D01*
X000231767Y000149764D01*
X000231704Y000149638D01*
X000231645Y000149510D01*
X000231590Y000149382D01*
X000231538Y000149252D01*
X000231490Y000149120D01*
X000231445Y000148987D01*
X000231404Y000148853D01*
X000231367Y000148718D01*
X000231334Y000148582D01*
X000231305Y000148444D01*
X000231280Y000148307D01*
X000231258Y000148168D01*
X000231239Y000148029D01*
X000231226Y000147889D01*
X000231217Y000147749D01*
X000231211Y000147608D01*
X000231209Y000147469D01*
X000231209Y000110225D01*
X000231211Y000110085D01*
X000231217Y000109945D01*
X000231226Y000109805D01*
X000231239Y000109664D01*
X000231258Y000109525D01*
X000231280Y000109386D01*
X000231305Y000109250D01*
X000231334Y000109112D01*
X000231367Y000108976D01*
X000231404Y000108841D01*
X000231445Y000108707D01*
X000231490Y000108574D01*
X000231538Y000108442D01*
X000231590Y000108312D01*
X000231645Y000108183D01*
X000231704Y000108056D01*
X000231767Y000107929D01*
X000231833Y000107806D01*
X000231902Y000107685D01*
X000231975Y000107565D01*
X000232052Y000107447D01*
X000232131Y000107332D01*
X000232214Y000107217D01*
X000232300Y000107108D01*
X000232389Y000106999D01*
X000232480Y000106893D01*
X000232575Y000106790D01*
X000232673Y000106688D01*
X000232774Y000106592D01*
X000232877Y000106497D01*
X000232981Y000106405D01*
X000233092Y000106316D01*
X000233202Y000106230D01*
X000233316Y000106146D01*
X000233431Y000106068D01*
X000233549Y000105990D01*
X000233669Y000105918D01*
X000233790Y000105849D01*
X000233914Y000105783D01*
X000234039Y000105719D01*
X000234167Y000105661D01*
X000234296Y000105606D01*
X000234425Y000105553D01*
X000234558Y000105506D01*
X000234690Y000105461D01*
X000234825Y000105420D01*
X000234960Y000105383D01*
X000235096Y000105350D01*
X000235234Y000105321D01*
X000235371Y000105295D01*
X000235510Y000105274D01*
X000235649Y000105256D01*
X000235788Y000105243D01*
X000235929Y000105233D01*
X000236069Y000105227D01*
X000236208Y000105224D01*
D190*
X000235709Y000113847D03*
X000235709Y000138847D03*
D191*
X000381996Y000142627D03*
X000381996Y000115067D03*
D192*
X000380028Y000124910D03*
X000380028Y000132784D03*
G75*
D203*
X000236208Y000223335D02*
X000393335Y000223335D01*
X000393525Y000223337D01*
X000393715Y000223344D01*
X000393905Y000223356D01*
X000394095Y000223372D01*
X000394284Y000223392D01*
X000394473Y000223417D01*
X000394661Y000223447D01*
X000394847Y000223482D01*
X000395034Y000223521D01*
X000395219Y000223564D01*
X000395404Y000223612D01*
X000395587Y000223664D01*
X000395768Y000223720D01*
X000395948Y000223781D01*
X000396127Y000223847D01*
X000396304Y000223916D01*
X000396480Y000223990D01*
X000396653Y000224067D01*
X000396825Y000224151D01*
X000396994Y000224237D01*
X000397162Y000224327D01*
X000397327Y000224422D01*
X000397490Y000224520D01*
X000397650Y000224623D01*
X000397808Y000224729D01*
X000397963Y000224839D01*
X000398115Y000224952D01*
X000398266Y000225070D01*
X000398412Y000225191D01*
X000398556Y000225315D01*
X000398697Y000225443D01*
X000398835Y000225574D01*
X000398970Y000225708D01*
X000399101Y000225847D01*
X000399229Y000225988D01*
X000399353Y000226132D01*
X000399474Y000226277D01*
X000399592Y000226426D01*
X000399705Y000226581D01*
X000399815Y000226736D01*
X000399921Y000226894D01*
X000400024Y000227054D01*
X000400122Y000227217D01*
X000400216Y000227382D01*
X000400307Y000227550D01*
X000400393Y000227719D01*
X000400476Y000227891D01*
X000400554Y000228064D01*
X000400628Y000228240D01*
X000400697Y000228417D01*
X000400763Y000228596D01*
X000400824Y000228776D01*
X000400880Y000228957D01*
X000400932Y000229140D01*
X000400980Y000229325D01*
X000401023Y000229510D01*
X000401062Y000229696D01*
X000401097Y000229883D01*
X000401126Y000230071D01*
X000401152Y000230260D01*
X000401172Y000230449D01*
X000401187Y000230639D01*
X000401199Y000230829D01*
X000401206Y000231019D01*
X000401209Y000231209D01*
X000401209Y000262705D01*
X000401206Y000262895D01*
X000401199Y000263085D01*
X000401187Y000263275D01*
X000401172Y000263465D01*
X000401152Y000263654D01*
X000401126Y000263843D01*
X000401097Y000264031D01*
X000401062Y000264218D01*
X000401023Y000264404D01*
X000400980Y000264589D01*
X000400932Y000264774D01*
X000400880Y000264957D01*
X000400824Y000265138D01*
X000400763Y000265318D01*
X000400697Y000265497D01*
X000400628Y000265674D01*
X000400554Y000265850D01*
X000400476Y000266023D01*
X000400393Y000266195D01*
X000400307Y000266364D01*
X000400216Y000266531D01*
X000400122Y000266697D01*
X000400024Y000266860D01*
X000399921Y000267020D01*
X000399815Y000267178D01*
X000399705Y000267333D01*
X000399592Y000267486D01*
X000399474Y000267636D01*
X000399353Y000267782D01*
X000399229Y000267926D01*
X000399101Y000268067D01*
X000398970Y000268205D01*
X000398835Y000268340D01*
X000398697Y000268471D01*
X000398556Y000268599D01*
X000398412Y000268723D01*
X000398266Y000268844D01*
X000398115Y000268962D01*
X000397963Y000269075D01*
X000397808Y000269185D01*
X000397650Y000269291D01*
X000397490Y000269394D01*
X000397327Y000269492D01*
X000397162Y000269587D01*
X000396994Y000269677D01*
X000396825Y000269763D01*
X000396653Y000269846D01*
X000396480Y000269924D01*
X000396304Y000269998D01*
X000396127Y000270067D01*
X000395948Y000270133D01*
X000395768Y000270193D01*
X000395587Y000270250D01*
X000395404Y000270302D01*
X000395219Y000270350D01*
X000395034Y000270393D01*
X000394847Y000270432D01*
X000394661Y000270467D01*
X000394473Y000270496D01*
X000394284Y000270522D01*
X000394095Y000270542D01*
X000393905Y000270558D01*
X000393715Y000270570D01*
X000393525Y000270577D01*
X000393335Y000270579D01*
X000236208Y000270579D01*
X000236069Y000270577D01*
X000235929Y000270571D01*
X000235788Y000270561D01*
X000235649Y000270547D01*
X000235510Y000270530D01*
X000235371Y000270507D01*
X000235234Y000270483D01*
X000235096Y000270454D01*
X000234960Y000270421D01*
X000234825Y000270384D01*
X000234690Y000270343D01*
X000234558Y000270298D01*
X000234425Y000270250D01*
X000234296Y000270198D01*
X000234167Y000270143D01*
X000234039Y000270084D01*
X000233914Y000270021D01*
X000233790Y000269955D01*
X000233669Y000269886D01*
X000233549Y000269813D01*
X000233431Y000269736D01*
X000233316Y000269657D01*
X000233202Y000269574D01*
X000233092Y000269488D01*
X000232981Y000269399D01*
X000232877Y000269307D01*
X000232774Y000269212D01*
X000232673Y000269115D01*
X000232575Y000269014D01*
X000232480Y000268911D01*
X000232389Y000268805D01*
X000232300Y000268696D01*
X000232214Y000268586D01*
X000232131Y000268472D01*
X000232052Y000268357D01*
X000231975Y000268239D01*
X000231902Y000268119D01*
X000231833Y000267998D01*
X000231767Y000267873D01*
X000231704Y000267748D01*
X000231645Y000267621D01*
X000231590Y000267492D01*
X000231538Y000267362D01*
X000231490Y000267230D01*
X000231445Y000267097D01*
X000231404Y000266963D01*
X000231367Y000266828D01*
X000231334Y000266692D01*
X000231305Y000266553D01*
X000231280Y000266417D01*
X000231258Y000266278D01*
X000231239Y000266139D01*
X000231226Y000265999D01*
X000231217Y000265859D01*
X000231211Y000265719D01*
X000231209Y000265579D01*
X000231209Y000228335D01*
X000231211Y000228195D01*
X000231217Y000228055D01*
X000231226Y000227915D01*
X000231239Y000227775D01*
X000231258Y000227636D01*
X000231280Y000227497D01*
X000231305Y000227360D01*
X000231334Y000227222D01*
X000231367Y000227086D01*
X000231404Y000226951D01*
X000231445Y000226817D01*
X000231490Y000226684D01*
X000231538Y000226552D01*
X000231590Y000226422D01*
X000231645Y000226293D01*
X000231704Y000226166D01*
X000231767Y000226040D01*
X000231833Y000225916D01*
X000231902Y000225795D01*
X000231975Y000225674D01*
X000232052Y000225557D01*
X000232131Y000225442D01*
X000232214Y000225328D01*
X000232300Y000225218D01*
X000232389Y000225109D01*
X000232480Y000225003D01*
X000232575Y000224900D01*
X000232673Y000224799D01*
X000232774Y000224702D01*
X000232877Y000224607D01*
X000232981Y000224515D01*
X000233092Y000224426D01*
X000233202Y000224339D01*
X000233316Y000224257D01*
X000233431Y000224178D01*
X000233549Y000224101D01*
X000233669Y000224027D01*
X000233790Y000223959D01*
X000233914Y000223893D01*
X000234039Y000223830D01*
X000234167Y000223771D01*
X000234296Y000223715D01*
X000234425Y000223664D01*
X000234558Y000223616D01*
X000234690Y000223571D01*
X000234825Y000223530D01*
X000234960Y000223493D01*
X000235096Y000223460D01*
X000235234Y000223430D01*
X000235371Y000223406D01*
X000235510Y000223383D01*
X000235649Y000223366D01*
X000235788Y000223353D01*
X000235929Y000223342D01*
X000236069Y000223337D01*
X000236208Y000223335D01*
D204*
X000235709Y000231957D03*
X000235709Y000256957D03*
D205*
X000381996Y000260737D03*
X000381996Y000233177D03*
D206*
X000380028Y000243020D03*
X000380028Y000250894D03*
G04 next file*
G75*
D217*
X000236208Y000278453D02*
X000393335Y000278453D01*
X000393525Y000278454D01*
X000393715Y000278462D01*
X000393905Y000278474D01*
X000394095Y000278490D01*
X000394284Y000278510D01*
X000394473Y000278536D01*
X000394661Y000278565D01*
X000394847Y000278600D01*
X000395034Y000278639D01*
X000395219Y000278682D01*
X000395404Y000278730D01*
X000395587Y000278782D01*
X000395768Y000278838D01*
X000395948Y000278899D01*
X000396127Y000278965D01*
X000396304Y000279034D01*
X000396480Y000279107D01*
X000396653Y000279186D01*
X000396825Y000279269D01*
X000396994Y000279355D01*
X000397162Y000279445D01*
X000397327Y000279540D01*
X000397490Y000279638D01*
X000397650Y000279741D01*
X000397808Y000279847D01*
X000397963Y000279957D01*
X000398115Y000280070D01*
X000398266Y000280187D01*
X000398412Y000280309D01*
X000398556Y000280433D01*
X000398697Y000280561D01*
X000398835Y000280692D01*
X000398970Y000280827D01*
X000399101Y000280965D01*
X000399229Y000281106D01*
X000399353Y000281250D01*
X000399474Y000281396D01*
X000399592Y000281546D01*
X000399705Y000281699D01*
X000399815Y000281854D01*
X000399921Y000282012D01*
X000400024Y000282172D01*
X000400122Y000282335D01*
X000400216Y000282500D01*
X000400307Y000282667D01*
X000400393Y000282837D01*
X000400476Y000283009D01*
X000400554Y000283181D01*
X000400628Y000283358D01*
X000400697Y000283535D01*
X000400763Y000283714D01*
X000400824Y000283894D01*
X000400880Y000284075D01*
X000400932Y000284257D01*
X000400980Y000284443D01*
X000401023Y000284628D01*
X000401062Y000284814D01*
X000401097Y000285001D01*
X000401126Y000285189D01*
X000401152Y000285378D01*
X000401172Y000285567D01*
X000401187Y000285756D01*
X000401199Y000285947D01*
X000401206Y000286137D01*
X000401209Y000286327D01*
X000401209Y000317823D01*
X000401206Y000318013D01*
X000401199Y000318203D01*
X000401187Y000318393D01*
X000401172Y000318583D01*
X000401152Y000318772D01*
X000401126Y000318961D01*
X000401097Y000319149D01*
X000401062Y000319336D01*
X000401023Y000319522D01*
X000400980Y000319707D01*
X000400932Y000319892D01*
X000400880Y000320075D01*
X000400824Y000320256D01*
X000400763Y000320436D01*
X000400697Y000320615D01*
X000400628Y000320792D01*
X000400554Y000320968D01*
X000400476Y000321141D01*
X000400393Y000321313D01*
X000400307Y000321482D01*
X000400216Y000321649D01*
X000400122Y000321815D01*
X000400024Y000321978D01*
X000399921Y000322138D01*
X000399815Y000322295D01*
X000399705Y000322451D01*
X000399592Y000322604D01*
X000399474Y000322754D01*
X000399353Y000322900D01*
X000399229Y000323044D01*
X000399101Y000323185D01*
X000398970Y000323323D01*
X000398835Y000323458D01*
X000398697Y000323589D01*
X000398556Y000323717D01*
X000398412Y000323841D01*
X000398266Y000323962D01*
X000398115Y000324080D01*
X000397963Y000324193D01*
X000397808Y000324303D01*
X000397650Y000324409D01*
X000397490Y000324512D01*
X000397327Y000324610D01*
X000397162Y000324705D01*
X000396994Y000324795D01*
X000396825Y000324881D01*
X000396653Y000324964D01*
X000396480Y000325042D01*
X000396304Y000325116D01*
X000396127Y000325185D01*
X000395948Y000325251D01*
X000395768Y000325311D01*
X000395587Y000325368D01*
X000395404Y000325420D01*
X000395219Y000325468D01*
X000395034Y000325511D01*
X000394847Y000325550D01*
X000394661Y000325585D01*
X000394473Y000325614D01*
X000394284Y000325640D01*
X000394095Y000325660D01*
X000393905Y000325676D01*
X000393715Y000325688D01*
X000393525Y000325695D01*
X000393335Y000325697D01*
X000236208Y000325697D01*
X000236069Y000325695D01*
X000235929Y000325689D01*
X000235788Y000325679D01*
X000235649Y000325665D01*
X000235510Y000325648D01*
X000235371Y000325626D01*
X000235234Y000325601D01*
X000235096Y000325572D01*
X000234960Y000325539D01*
X000234825Y000325501D01*
X000234690Y000325461D01*
X000234558Y000325416D01*
X000234425Y000325368D01*
X000234296Y000325316D01*
X000234167Y000325261D01*
X000234039Y000325202D01*
X000233914Y000325139D01*
X000233790Y000325073D01*
X000233669Y000325004D01*
X000233549Y000324931D01*
X000233431Y000324854D01*
X000233316Y000324775D01*
X000233202Y000324692D01*
X000233092Y000324606D01*
X000232981Y000324517D01*
X000232877Y000324425D01*
X000232774Y000324330D01*
X000232673Y000324233D01*
X000232575Y000324132D01*
X000232480Y000324029D01*
X000232389Y000323923D01*
X000232300Y000323814D01*
X000232214Y000323704D01*
X000232131Y000323590D01*
X000232052Y000323475D01*
X000231975Y000323356D01*
X000231902Y000323237D01*
X000231833Y000323116D01*
X000231767Y000322992D01*
X000231704Y000322866D01*
X000231645Y000322739D01*
X000231590Y000322610D01*
X000231538Y000322480D01*
X000231490Y000322348D01*
X000231445Y000322215D01*
X000231404Y000322081D01*
X000231367Y000321946D01*
X000231334Y000321810D01*
X000231305Y000321671D01*
X000231280Y000321535D01*
X000231258Y000321396D01*
X000231239Y000321257D01*
X000231226Y000321117D01*
X000231217Y000320977D01*
X000231211Y000320837D01*
X000231209Y000320697D01*
X000231209Y000283453D01*
X000231211Y000283313D01*
X000231217Y000283173D01*
X000231226Y000283033D01*
X000231239Y000282893D01*
X000231258Y000282754D01*
X000231280Y000282615D01*
X000231305Y000282478D01*
X000231334Y000282340D01*
X000231367Y000282204D01*
X000231404Y000282069D01*
X000231445Y000281935D01*
X000231490Y000281802D01*
X000231538Y000281670D01*
X000231590Y000281540D01*
X000231645Y000281411D01*
X000231704Y000281284D01*
X000231767Y000281158D01*
X000231833Y000281033D01*
X000231902Y000280913D01*
X000231975Y000280793D01*
X000232052Y000280675D01*
X000232131Y000280559D01*
X000232214Y000280446D01*
X000232300Y000280336D01*
X000232389Y000280227D01*
X000232480Y000280121D01*
X000232575Y000280018D01*
X000232673Y000279917D01*
X000232774Y000279820D01*
X000232877Y000279725D01*
X000232981Y000279633D01*
X000233092Y000279544D01*
X000233202Y000279457D01*
X000233316Y000279375D01*
X000233431Y000279296D01*
X000233549Y000279219D01*
X000233669Y000279146D01*
X000233790Y000279077D01*
X000233914Y000279011D01*
X000234039Y000278948D01*
X000234167Y000278888D01*
X000234296Y000278834D01*
X000234425Y000278782D01*
X000234558Y000278734D01*
X000234690Y000278689D01*
X000234825Y000278648D01*
X000234960Y000278611D01*
X000235096Y000278578D01*
X000235234Y000278549D01*
X000235371Y000278524D01*
X000235510Y000278502D01*
X000235649Y000278484D01*
X000235788Y000278471D01*
X000235929Y000278461D01*
X000236069Y000278454D01*
X000236208Y000278453D01*
D218*
X000235709Y000287075D03*
X000235709Y000312075D03*
D219*
X000381996Y000315855D03*
X000381996Y000288295D03*
D220*
X000380028Y000298138D03*
X000380028Y000306012D03*
G75*
D231*
X000236208Y000164280D02*
X000393335Y000164280D01*
X000393525Y000164282D01*
X000393715Y000164289D01*
X000393905Y000164301D01*
X000394095Y000164317D01*
X000394284Y000164337D01*
X000394473Y000164363D01*
X000394661Y000164392D01*
X000394847Y000164427D01*
X000395034Y000164466D01*
X000395219Y000164509D01*
X000395404Y000164557D01*
X000395587Y000164609D01*
X000395768Y000164665D01*
X000395948Y000164726D01*
X000396127Y000164792D01*
X000396304Y000164861D01*
X000396480Y000164935D01*
X000396653Y000165013D01*
X000396825Y000165095D01*
X000396994Y000165181D01*
X000397162Y000165272D01*
X000397327Y000165367D01*
X000397490Y000165465D01*
X000397650Y000165568D01*
X000397808Y000165674D01*
X000397963Y000165784D01*
X000398115Y000165897D01*
X000398266Y000166015D01*
X000398412Y000166136D01*
X000398556Y000166260D01*
X000398697Y000166388D01*
X000398835Y000166519D01*
X000398970Y000166654D01*
X000399101Y000166792D01*
X000399229Y000166933D01*
X000399353Y000167077D01*
X000399474Y000167223D01*
X000399592Y000167373D01*
X000399705Y000167526D01*
X000399815Y000167681D01*
X000399921Y000167838D01*
X000400024Y000167999D01*
X000400122Y000168162D01*
X000400216Y000168327D01*
X000400307Y000168495D01*
X000400393Y000168664D01*
X000400476Y000168836D01*
X000400554Y000169009D01*
X000400628Y000169185D01*
X000400697Y000169362D01*
X000400763Y000169541D01*
X000400824Y000169721D01*
X000400880Y000169902D01*
X000400932Y000170085D01*
X000400980Y000170270D01*
X000401023Y000170455D01*
X000401062Y000170641D01*
X000401097Y000170828D01*
X000401126Y000171016D01*
X000401152Y000171205D01*
X000401172Y000171394D01*
X000401187Y000171584D01*
X000401199Y000171774D01*
X000401206Y000171963D01*
X000401209Y000172154D01*
X000401209Y000203650D01*
X000401206Y000203840D01*
X000401199Y000204029D01*
X000401187Y000204219D01*
X000401172Y000204409D01*
X000401152Y000204599D01*
X000401126Y000204788D01*
X000401097Y000204976D01*
X000401062Y000205162D01*
X000401023Y000205349D01*
X000400980Y000205534D01*
X000400932Y000205717D01*
X000400880Y000205900D01*
X000400824Y000206083D01*
X000400763Y000206263D01*
X000400697Y000206442D01*
X000400628Y000206619D01*
X000400554Y000206795D01*
X000400476Y000206968D01*
X000400393Y000207140D01*
X000400307Y000207309D01*
X000400216Y000207477D01*
X000400122Y000207642D01*
X000400024Y000207805D01*
X000399921Y000207965D01*
X000399815Y000208123D01*
X000399705Y000208278D01*
X000399592Y000208431D01*
X000399474Y000208581D01*
X000399353Y000208727D01*
X000399229Y000208869D01*
X000399101Y000209012D01*
X000398970Y000209150D01*
X000398835Y000209285D01*
X000398697Y000209416D01*
X000398556Y000209544D01*
X000398412Y000209668D01*
X000398266Y000209789D01*
X000398115Y000209907D01*
X000397963Y000210020D01*
X000397808Y000210130D01*
X000397650Y000210236D01*
X000397490Y000210339D01*
X000397327Y000210435D01*
X000397162Y000210532D01*
X000396994Y000210622D01*
X000396825Y000210707D01*
X000396653Y000210791D01*
X000396480Y000210869D01*
X000396304Y000210943D01*
X000396127Y000211012D01*
X000395948Y000211078D01*
X000395768Y000211139D01*
X000395587Y000211195D01*
X000395404Y000211247D01*
X000395219Y000211295D01*
X000395034Y000211337D01*
X000394847Y000211377D01*
X000394661Y000211412D01*
X000394473Y000211441D01*
X000394284Y000211466D01*
X000394095Y000211486D01*
X000393905Y000211503D01*
X000393715Y000211515D01*
X000393525Y000211522D01*
X000393335Y000211524D01*
X000236208Y000211524D01*
X000236069Y000211522D01*
X000235929Y000211516D01*
X000235788Y000211506D01*
X000235649Y000211493D01*
X000235510Y000211475D01*
X000235371Y000211452D01*
X000235234Y000211428D01*
X000235096Y000211398D01*
X000234960Y000211366D01*
X000234825Y000211329D01*
X000234690Y000211288D01*
X000234558Y000211242D01*
X000234425Y000211195D01*
X000234296Y000211143D01*
X000234167Y000211088D01*
X000234039Y000211029D01*
X000233914Y000210966D01*
X000233790Y000210900D01*
X000233669Y000210831D01*
X000233549Y000210758D01*
X000233431Y000210679D01*
X000233316Y000210602D01*
X000233202Y000210519D01*
X000233092Y000210433D01*
X000232981Y000210344D01*
X000232877Y000210252D01*
X000232774Y000210157D01*
X000232673Y000210060D01*
X000232575Y000209959D01*
X000232480Y000209856D01*
X000232389Y000209750D01*
X000232300Y000209641D01*
X000232214Y000209531D01*
X000232131Y000209417D01*
X000232052Y000209302D01*
X000231975Y000209184D01*
X000231902Y000209064D01*
X000231833Y000208943D01*
X000231767Y000208819D01*
X000231704Y000208693D01*
X000231645Y000208564D01*
X000231590Y000208436D01*
X000231538Y000208307D01*
X000231490Y000208175D01*
X000231445Y000208042D01*
X000231404Y000207907D01*
X000231367Y000207773D01*
X000231334Y000207636D01*
X000231305Y000207499D01*
X000231280Y000207362D01*
X000231258Y000207222D01*
X000231239Y000207084D01*
X000231226Y000206944D01*
X000231217Y000206804D01*
X000231211Y000206664D01*
X000231209Y000206524D01*
X000231209Y000169280D01*
X000231211Y000169140D01*
X000231217Y000169000D01*
X000231226Y000168860D01*
X000231239Y000168720D01*
X000231258Y000168581D01*
X000231280Y000168442D01*
X000231305Y000168305D01*
X000231334Y000168167D01*
X000231367Y000168031D01*
X000231404Y000167896D01*
X000231445Y000167762D01*
X000231490Y000167629D01*
X000231538Y000167497D01*
X000231590Y000167367D01*
X000231645Y000167238D01*
X000231704Y000167111D01*
X000231767Y000166985D01*
X000231833Y000166861D01*
X000231902Y000166740D01*
X000231975Y000166620D01*
X000232052Y000166501D01*
X000232131Y000166387D01*
X000232214Y000166273D01*
X000232300Y000166163D01*
X000232389Y000166054D01*
X000232480Y000165948D01*
X000232575Y000165845D01*
X000232673Y000165744D01*
X000232774Y000165647D01*
X000232877Y000165552D01*
X000232981Y000165460D01*
X000233092Y000165371D01*
X000233202Y000165285D01*
X000233316Y000165201D01*
X000233431Y000165123D01*
X000233549Y000165046D01*
X000233669Y000164973D01*
X000233790Y000164904D01*
X000233914Y000164838D01*
X000234039Y000164775D01*
X000234167Y000164716D01*
X000234296Y000164661D01*
X000234425Y000164609D01*
X000234558Y000164561D01*
X000234690Y000164516D01*
X000234825Y000164475D01*
X000234960Y000164438D01*
X000235096Y000164404D01*
X000235234Y000164376D01*
X000235371Y000164351D01*
X000235510Y000164329D01*
X000235649Y000164311D01*
X000235788Y000164298D01*
X000235929Y000164287D01*
X000236069Y000164282D01*
X000236208Y000164280D01*
D232*
X000235709Y000172902D03*
X000235709Y000197902D03*
D233*
X000381996Y000201682D03*
X000381996Y000174122D03*
D234*
X000380028Y000183965D03*
X000380028Y000191839D03*
G75*
D245*
X000236208Y000554042D02*
X000393335Y000554042D01*
X000393525Y000554046D01*
X000393715Y000554053D01*
X000393905Y000554065D01*
X000394095Y000554081D01*
X000394284Y000554101D01*
X000394473Y000554127D01*
X000394661Y000554156D01*
X000394847Y000554191D01*
X000395034Y000554230D01*
X000395219Y000554273D01*
X000395404Y000554319D01*
X000395587Y000554373D01*
X000395768Y000554429D01*
X000395948Y000554490D01*
X000396127Y000554556D01*
X000396304Y000554625D01*
X000396480Y000554699D01*
X000396653Y000554777D01*
X000396825Y000554860D01*
X000396994Y000554946D01*
X000397162Y000555036D01*
X000397327Y000555131D01*
X000397490Y000555229D01*
X000397650Y000555332D01*
X000397808Y000555438D01*
X000397963Y000555548D01*
X000398115Y000555661D01*
X000398266Y000555778D01*
X000398412Y000555900D01*
X000398556Y000556024D01*
X000398697Y000556152D01*
X000398835Y000556282D01*
X000398970Y000556418D01*
X000399101Y000556556D01*
X000399229Y000556697D01*
X000399353Y000556841D01*
X000399474Y000556987D01*
X000399592Y000557137D01*
X000399705Y000557290D01*
X000399815Y000557445D01*
X000399921Y000557603D01*
X000400024Y000557763D01*
X000400122Y000557926D01*
X000400216Y000558091D01*
X000400307Y000558259D01*
X000400393Y000558428D01*
X000400476Y000558600D01*
X000400554Y000558773D01*
X000400628Y000558949D01*
X000400697Y000559126D01*
X000400763Y000559305D01*
X000400824Y000559485D01*
X000400880Y000559666D01*
X000400932Y000559849D01*
X000400980Y000560034D01*
X000401023Y000560219D01*
X000401062Y000560405D01*
X000401097Y000560592D01*
X000401126Y000560780D01*
X000401152Y000560969D01*
X000401172Y000561158D01*
X000401187Y000561348D01*
X000401199Y000561538D01*
X000401206Y000561728D01*
X000401209Y000561918D01*
X000401209Y000593414D01*
X000401206Y000593604D01*
X000401199Y000593794D01*
X000401187Y000593984D01*
X000401172Y000594174D01*
X000401152Y000594363D01*
X000401126Y000594552D01*
X000401097Y000594739D01*
X000401062Y000594927D01*
X000401023Y000595113D01*
X000400980Y000595298D01*
X000400932Y000595483D01*
X000400880Y000595666D01*
X000400824Y000595847D01*
X000400763Y000596027D01*
X000400697Y000596206D01*
X000400628Y000596383D01*
X000400554Y000596559D01*
X000400476Y000596732D01*
X000400393Y000596904D01*
X000400307Y000597073D01*
X000400216Y000597241D01*
X000400122Y000597406D01*
X000400024Y000597569D01*
X000399921Y000597729D01*
X000399815Y000597887D01*
X000399705Y000598042D01*
X000399592Y000598195D01*
X000399474Y000598345D01*
X000399353Y000598491D01*
X000399229Y000598634D01*
X000399101Y000598776D01*
X000398970Y000598914D01*
X000398835Y000599049D01*
X000398697Y000599180D01*
X000398556Y000599308D01*
X000398412Y000599432D01*
X000398266Y000599553D01*
X000398115Y000599671D01*
X000397963Y000599784D01*
X000397808Y000599894D01*
X000397650Y000599999D01*
X000397490Y000600103D01*
X000397327Y000600201D01*
X000397162Y000600296D01*
X000396994Y000600386D01*
X000396825Y000600472D01*
X000396653Y000600555D01*
X000396480Y000600633D01*
X000396304Y000600706D01*
X000396127Y000600776D01*
X000395948Y000600842D01*
X000395768Y000600903D01*
X000395587Y000600959D01*
X000395404Y000601011D01*
X000395219Y000601059D01*
X000395034Y000601102D01*
X000394847Y000601141D01*
X000394661Y000601176D01*
X000394473Y000601205D01*
X000394284Y000601231D01*
X000394095Y000601251D01*
X000393905Y000601267D01*
X000393715Y000601279D01*
X000393525Y000601286D01*
X000393335Y000601288D01*
X000236208Y000601288D01*
X000236069Y000601286D01*
X000235929Y000601280D01*
X000235788Y000601270D01*
X000235649Y000601257D01*
X000235510Y000601239D01*
X000235371Y000601217D01*
X000235234Y000601192D01*
X000235096Y000601163D01*
X000234960Y000601130D01*
X000234825Y000601093D01*
X000234690Y000601052D01*
X000234558Y000601007D01*
X000234425Y000600959D01*
X000234296Y000600907D01*
X000234167Y000600852D01*
X000234039Y000600793D01*
X000233914Y000600730D01*
X000233790Y000600664D01*
X000233669Y000600595D01*
X000233549Y000600522D01*
X000233431Y000600443D01*
X000233316Y000600366D01*
X000233202Y000600283D01*
X000233092Y000600196D01*
X000232981Y000600108D01*
X000232877Y000600016D01*
X000232774Y000599921D01*
X000232673Y000599824D01*
X000232575Y000599723D01*
X000232480Y000599619D01*
X000232389Y000599514D01*
X000232300Y000599405D01*
X000232214Y000599295D01*
X000232131Y000599181D01*
X000232052Y000599064D01*
X000231975Y000598948D01*
X000231902Y000598828D01*
X000231833Y000598707D01*
X000231767Y000598583D01*
X000231704Y000598457D01*
X000231645Y000598330D01*
X000231590Y000598201D01*
X000231538Y000598071D01*
X000231490Y000597939D01*
X000231445Y000597806D01*
X000231404Y000597672D01*
X000231367Y000597537D01*
X000231334Y000597401D01*
X000231305Y000597263D01*
X000231280Y000597126D01*
X000231258Y000596986D01*
X000231239Y000596848D01*
X000231226Y000596708D01*
X000231217Y000596568D01*
X000231211Y000596428D01*
X000231209Y000596288D01*
X000231209Y000559044D01*
X000231211Y000558904D01*
X000231217Y000558764D01*
X000231226Y000558624D01*
X000231239Y000558484D01*
X000231258Y000558345D01*
X000231280Y000558206D01*
X000231305Y000558069D01*
X000231334Y000557931D01*
X000231367Y000557795D01*
X000231404Y000557660D01*
X000231445Y000557526D01*
X000231490Y000557393D01*
X000231538Y000557261D01*
X000231590Y000557131D01*
X000231645Y000557002D01*
X000231704Y000556875D01*
X000231767Y000556749D01*
X000231833Y000556625D01*
X000231902Y000556504D01*
X000231975Y000556384D01*
X000232052Y000556266D01*
X000232131Y000556151D01*
X000232214Y000556037D01*
X000232300Y000555927D01*
X000232389Y000555818D01*
X000232480Y000555712D01*
X000232575Y000555609D01*
X000232673Y000555508D01*
X000232774Y000555411D01*
X000232877Y000555316D01*
X000232981Y000555224D01*
X000233092Y000555135D01*
X000233202Y000555049D01*
X000233316Y000554966D01*
X000233431Y000554887D01*
X000233549Y000554810D01*
X000233669Y000554737D01*
X000233790Y000554668D01*
X000233914Y000554602D01*
X000234039Y000554539D01*
X000234167Y000554480D01*
X000234296Y000554425D01*
X000234425Y000554373D01*
X000234558Y000554325D01*
X000234690Y000554280D01*
X000234825Y000554239D01*
X000234960Y000554202D01*
X000235096Y000554169D01*
X000235234Y000554140D01*
X000235371Y000554115D01*
X000235510Y000554093D01*
X000235649Y000554075D01*
X000235788Y000554062D01*
X000235929Y000554052D01*
X000236069Y000554046D01*
X000236208Y000554042D01*
D246*
X000235709Y000562664D03*
X000235709Y000587666D03*
D247*
X000381996Y000591446D03*
X000381996Y000563886D03*
D248*
X000380028Y000573729D03*
X000380028Y000581603D03*
G75*
D259*
X000236208Y000498925D02*
X000393335Y000498925D01*
X000393525Y000498927D01*
X000393715Y000498934D01*
X000393905Y000498946D01*
X000394095Y000498962D01*
X000394284Y000498982D01*
X000394473Y000499008D01*
X000394661Y000499037D01*
X000394847Y000499071D01*
X000395034Y000499111D01*
X000395219Y000499153D01*
X000395404Y000499202D01*
X000395587Y000499254D01*
X000395768Y000499310D01*
X000395948Y000499371D01*
X000396127Y000499437D01*
X000396304Y000499505D01*
X000396480Y000499580D01*
X000396653Y000499658D01*
X000396825Y000499741D01*
X000396994Y000499827D01*
X000397162Y000499917D01*
X000397327Y000500012D01*
X000397490Y000500110D01*
X000397650Y000500213D01*
X000397808Y000500319D01*
X000397963Y000500429D01*
X000398115Y000500542D01*
X000398266Y000500660D01*
X000398412Y000500781D01*
X000398556Y000500905D01*
X000398697Y000501033D01*
X000398835Y000501164D01*
X000398970Y000501299D01*
X000399101Y000501437D01*
X000399229Y000501578D01*
X000399353Y000501722D01*
X000399474Y000501868D01*
X000399592Y000502018D01*
X000399705Y000502170D01*
X000399815Y000502325D01*
X000399921Y000502484D01*
X000400024Y000502644D01*
X000400122Y000502806D01*
X000400216Y000502972D01*
X000400307Y000503139D01*
X000400393Y000503308D01*
X000400476Y000503481D01*
X000400554Y000503653D01*
X000400628Y000503829D01*
X000400697Y000504007D01*
X000400763Y000504186D01*
X000400824Y000504366D01*
X000400880Y000504547D01*
X000400932Y000504730D01*
X000400980Y000504915D01*
X000401023Y000505100D01*
X000401062Y000505285D01*
X000401097Y000505473D01*
X000401126Y000505661D01*
X000401152Y000505850D01*
X000401172Y000506039D01*
X000401187Y000506229D01*
X000401199Y000506419D01*
X000401206Y000506609D01*
X000401209Y000506799D01*
X000401209Y000538293D01*
X000401206Y000538485D01*
X000401199Y000538675D01*
X000401187Y000538865D01*
X000401172Y000539055D01*
X000401152Y000539244D01*
X000401126Y000539433D01*
X000401097Y000539621D01*
X000401062Y000539808D01*
X000401023Y000539993D01*
X000400980Y000540179D01*
X000400932Y000540364D01*
X000400880Y000540547D01*
X000400824Y000540728D01*
X000400763Y000540908D01*
X000400697Y000541087D01*
X000400628Y000541264D01*
X000400554Y000541440D01*
X000400476Y000541612D01*
X000400393Y000541785D01*
X000400307Y000541954D01*
X000400216Y000542122D01*
X000400122Y000542287D01*
X000400024Y000542450D01*
X000399921Y000542610D01*
X000399815Y000542768D01*
X000399705Y000542923D01*
X000399592Y000543076D01*
X000399474Y000543226D01*
X000399353Y000543370D01*
X000399229Y000543516D01*
X000399101Y000543657D01*
X000398970Y000543795D01*
X000398835Y000543930D01*
X000398697Y000544061D01*
X000398556Y000544189D01*
X000398412Y000544313D01*
X000398266Y000544434D01*
X000398115Y000544552D01*
X000397963Y000544665D01*
X000397808Y000544775D01*
X000397650Y000544881D01*
X000397490Y000544983D01*
X000397327Y000545082D01*
X000397162Y000545177D01*
X000396994Y000545267D01*
X000396825Y000545353D01*
X000396653Y000545436D01*
X000396480Y000545514D01*
X000396304Y000545588D01*
X000396127Y000545657D01*
X000395948Y000545723D01*
X000395768Y000545784D01*
X000395587Y000545840D01*
X000395404Y000545892D01*
X000395219Y000545940D01*
X000395034Y000545982D01*
X000394847Y000546022D01*
X000394661Y000546057D01*
X000394473Y000546086D01*
X000394284Y000546112D01*
X000394095Y000546132D01*
X000393905Y000546148D01*
X000393715Y000546160D01*
X000393525Y000546167D01*
X000393335Y000546169D01*
X000236208Y000546169D01*
X000236069Y000546167D01*
X000235929Y000546161D01*
X000235788Y000546151D01*
X000235649Y000546138D01*
X000235510Y000546120D01*
X000235371Y000546098D01*
X000235234Y000546073D01*
X000235096Y000546044D01*
X000234960Y000546011D01*
X000234825Y000545974D01*
X000234690Y000545933D01*
X000234558Y000545887D01*
X000234425Y000545840D01*
X000234296Y000545788D01*
X000234167Y000545733D01*
X000234039Y000545674D01*
X000233914Y000545610D01*
X000233790Y000545544D01*
X000233669Y000545476D01*
X000233549Y000545403D01*
X000233431Y000545326D01*
X000233316Y000545247D01*
X000233202Y000545164D01*
X000233092Y000545078D01*
X000232981Y000544989D01*
X000232877Y000544897D01*
X000232774Y000544802D01*
X000232673Y000544705D01*
X000232575Y000544603D01*
X000232480Y000544501D01*
X000232389Y000544395D01*
X000232300Y000544286D01*
X000232214Y000544176D01*
X000232131Y000544062D01*
X000232052Y000543947D01*
X000231975Y000543829D01*
X000231902Y000543709D01*
X000231833Y000543588D01*
X000231767Y000543464D01*
X000231704Y000543338D01*
X000231645Y000543210D01*
X000231590Y000543082D01*
X000231538Y000542952D01*
X000231490Y000542820D01*
X000231445Y000542687D01*
X000231404Y000542553D01*
X000231367Y000542418D01*
X000231334Y000542282D01*
X000231305Y000542144D01*
X000231280Y000542006D01*
X000231258Y000541868D01*
X000231239Y000541729D01*
X000231226Y000541589D01*
X000231217Y000541449D01*
X000231211Y000541309D01*
X000231209Y000541167D01*
X000231209Y000503925D01*
X000231211Y000503785D01*
X000231217Y000503645D01*
X000231226Y000503505D01*
X000231239Y000503365D01*
X000231258Y000503226D01*
X000231280Y000503087D01*
X000231305Y000502949D01*
X000231334Y000502812D01*
X000231367Y000502676D01*
X000231404Y000502541D01*
X000231445Y000502407D01*
X000231490Y000502274D01*
X000231538Y000502142D01*
X000231590Y000502012D01*
X000231645Y000501883D01*
X000231704Y000501755D01*
X000231767Y000501630D01*
X000231833Y000501506D01*
X000231902Y000501384D01*
X000231975Y000501265D01*
X000232052Y000501147D01*
X000232131Y000501032D01*
X000232214Y000500918D01*
X000232300Y000500807D01*
X000232389Y000500699D01*
X000232480Y000500593D01*
X000232575Y000500490D01*
X000232673Y000500389D01*
X000232774Y000500291D01*
X000232877Y000500197D01*
X000232981Y000500105D01*
X000233092Y000500016D01*
X000233202Y000499930D01*
X000233316Y000499847D01*
X000233431Y000499768D01*
X000233549Y000499691D01*
X000233669Y000499618D01*
X000233790Y000499549D01*
X000233914Y000499483D01*
X000234039Y000499420D01*
X000234167Y000499361D01*
X000234296Y000499306D01*
X000234425Y000499254D01*
X000234558Y000499206D01*
X000234690Y000499160D01*
X000234825Y000499120D01*
X000234960Y000499083D01*
X000235096Y000499050D01*
X000235234Y000499021D01*
X000235371Y000498996D01*
X000235510Y000498974D01*
X000235649Y000498956D01*
X000235788Y000498942D01*
X000235929Y000498933D01*
X000236069Y000498927D01*
X000236208Y000498925D01*
D260*
X000235709Y000507547D03*
X000235709Y000532547D03*
D261*
X000381996Y000536327D03*
X000381996Y000508767D03*
D262*
X000380028Y000518610D03*
X000380028Y000526484D03*
G75*
D273*
X000236208Y000333571D02*
X000393335Y000333571D01*
X000393525Y000333572D01*
X000393715Y000333580D01*
X000393905Y000333592D01*
X000394095Y000333608D01*
X000394284Y000333627D01*
X000394473Y000333654D01*
X000394661Y000333683D01*
X000394847Y000333718D01*
X000395034Y000333757D01*
X000395219Y000333800D01*
X000395404Y000333848D01*
X000395587Y000333900D01*
X000395768Y000333956D01*
X000395948Y000334017D01*
X000396127Y000334083D01*
X000396304Y000334152D01*
X000396480Y000334225D01*
X000396653Y000334304D01*
X000396825Y000334387D01*
X000396994Y000334473D01*
X000397162Y000334563D01*
X000397327Y000334658D01*
X000397490Y000334756D01*
X000397650Y000334859D01*
X000397808Y000334965D01*
X000397963Y000335075D01*
X000398115Y000335188D01*
X000398266Y000335305D01*
X000398412Y000335427D01*
X000398556Y000335551D01*
X000398697Y000335679D01*
X000398835Y000335810D01*
X000398970Y000335945D01*
X000399101Y000336083D01*
X000399229Y000336224D01*
X000399353Y000336368D01*
X000399474Y000336514D01*
X000399592Y000336664D01*
X000399705Y000336817D01*
X000399815Y000336972D01*
X000399921Y000337130D01*
X000400024Y000337289D01*
X000400122Y000337453D01*
X000400216Y000337618D01*
X000400307Y000337785D01*
X000400393Y000337955D01*
X000400476Y000338127D01*
X000400554Y000338299D01*
X000400628Y000338476D01*
X000400697Y000338653D01*
X000400763Y000338832D01*
X000400824Y000339012D01*
X000400880Y000339193D01*
X000400932Y000339375D01*
X000400980Y000339561D01*
X000401023Y000339746D01*
X000401062Y000339932D01*
X000401097Y000340119D01*
X000401126Y000340307D01*
X000401152Y000340495D01*
X000401172Y000340685D01*
X000401187Y000340874D01*
X000401199Y000341065D01*
X000401206Y000341255D01*
X000401209Y000341445D01*
X000401209Y000372941D01*
X000401206Y000373131D01*
X000401199Y000373321D01*
X000401187Y000373511D01*
X000401172Y000373701D01*
X000401152Y000373890D01*
X000401126Y000374079D01*
X000401097Y000374267D01*
X000401062Y000374454D01*
X000401023Y000374640D01*
X000400980Y000374825D01*
X000400932Y000375010D01*
X000400880Y000375193D01*
X000400824Y000375374D01*
X000400763Y000375554D01*
X000400697Y000375733D01*
X000400628Y000375910D01*
X000400554Y000376086D01*
X000400476Y000376259D01*
X000400393Y000376431D01*
X000400307Y000376600D01*
X000400216Y000376767D01*
X000400122Y000376933D01*
X000400024Y000377096D01*
X000399921Y000377256D01*
X000399815Y000377413D01*
X000399705Y000377569D01*
X000399592Y000377722D01*
X000399474Y000377872D01*
X000399353Y000378018D01*
X000399229Y000378162D01*
X000399101Y000378303D01*
X000398970Y000378441D01*
X000398835Y000378576D01*
X000398697Y000378707D01*
X000398556Y000378835D01*
X000398412Y000378959D01*
X000398266Y000379080D01*
X000398115Y000379198D01*
X000397963Y000379311D01*
X000397808Y000379421D01*
X000397650Y000379527D01*
X000397490Y000379630D01*
X000397327Y000379728D01*
X000397162Y000379823D01*
X000396994Y000379913D01*
X000396825Y000379999D01*
X000396653Y000380082D01*
X000396480Y000380160D01*
X000396304Y000380234D01*
X000396127Y000380303D01*
X000395948Y000380369D01*
X000395768Y000380430D01*
X000395587Y000380486D01*
X000395404Y000380538D01*
X000395219Y000380586D01*
X000395034Y000380629D01*
X000394847Y000380668D01*
X000394661Y000380703D01*
X000394473Y000380732D01*
X000394284Y000380758D01*
X000394095Y000380778D01*
X000393905Y000380794D01*
X000393715Y000380806D01*
X000393525Y000380813D01*
X000393335Y000380815D01*
X000236208Y000380815D01*
X000236069Y000380813D01*
X000235929Y000380807D01*
X000235788Y000380797D01*
X000235649Y000380783D01*
X000235510Y000380766D01*
X000235371Y000380744D01*
X000235234Y000380719D01*
X000235096Y000380690D01*
X000234960Y000380657D01*
X000234825Y000380619D01*
X000234690Y000380579D01*
X000234558Y000380534D01*
X000234425Y000380486D01*
X000234296Y000380434D01*
X000234167Y000380379D01*
X000234039Y000380320D01*
X000233914Y000380257D01*
X000233790Y000380191D01*
X000233669Y000380122D01*
X000233549Y000380049D01*
X000233431Y000379972D01*
X000233316Y000379893D01*
X000233202Y000379809D01*
X000233092Y000379724D01*
X000232981Y000379634D01*
X000232877Y000379543D01*
X000232774Y000379448D01*
X000232673Y000379351D01*
X000232575Y000379250D01*
X000232480Y000379147D01*
X000232389Y000379041D01*
X000232300Y000378932D01*
X000232214Y000378822D01*
X000232131Y000378708D01*
X000232052Y000378593D01*
X000231975Y000378474D01*
X000231902Y000378354D01*
X000231833Y000378234D01*
X000231767Y000378110D01*
X000231704Y000377984D01*
X000231645Y000377857D01*
X000231590Y000377728D01*
X000231538Y000377598D01*
X000231490Y000377466D01*
X000231445Y000377333D01*
X000231404Y000377199D01*
X000231367Y000377064D01*
X000231334Y000376928D01*
X000231305Y000376790D01*
X000231280Y000376653D01*
X000231258Y000376514D01*
X000231239Y000376375D01*
X000231226Y000376235D01*
X000231217Y000376095D01*
X000231211Y000375954D01*
X000231209Y000375815D01*
X000231209Y000338571D01*
X000231211Y000338431D01*
X000231217Y000338291D01*
X000231226Y000338151D01*
X000231239Y000338011D01*
X000231258Y000337872D01*
X000231280Y000337733D01*
X000231305Y000337596D01*
X000231334Y000337458D01*
X000231367Y000337322D01*
X000231404Y000337187D01*
X000231445Y000337052D01*
X000231490Y000336920D01*
X000231538Y000336788D01*
X000231590Y000336658D01*
X000231645Y000336529D01*
X000231704Y000336402D01*
X000231767Y000336276D01*
X000231833Y000336151D01*
X000231902Y000336031D01*
X000231975Y000335910D01*
X000232052Y000335793D01*
X000232131Y000335677D01*
X000232214Y000335564D01*
X000232300Y000335454D01*
X000232389Y000335345D01*
X000232480Y000335239D01*
X000232575Y000335136D01*
X000232673Y000335035D01*
X000232774Y000334938D01*
X000232877Y000334843D01*
X000232981Y000334751D01*
X000233092Y000334662D01*
X000233202Y000334575D01*
X000233316Y000334493D01*
X000233431Y000334414D01*
X000233549Y000334337D01*
X000233669Y000334264D01*
X000233790Y000334195D01*
X000233914Y000334129D01*
X000234039Y000334066D01*
X000234167Y000334006D01*
X000234296Y000333952D01*
X000234425Y000333900D01*
X000234558Y000333852D01*
X000234690Y000333806D01*
X000234825Y000333766D01*
X000234960Y000333729D01*
X000235096Y000333696D01*
X000235234Y000333667D01*
X000235371Y000333642D01*
X000235510Y000333620D01*
X000235649Y000333602D01*
X000235788Y000333589D01*
X000235929Y000333579D01*
X000236069Y000333572D01*
X000236208Y000333571D01*
D274*
X000235709Y000342193D03*
X000235709Y000367193D03*
D275*
X000381996Y000370973D03*
X000381996Y000343413D03*
D276*
X000380028Y000353256D03*
X000380028Y000361130D03*
G75*
D287*
X000236208Y000443807D02*
X000393335Y000443807D01*
X000393525Y000443809D01*
X000393715Y000443816D01*
X000393905Y000443828D01*
X000394095Y000443844D01*
X000394284Y000443864D01*
X000394473Y000443890D01*
X000394661Y000443919D01*
X000394847Y000443954D01*
X000395034Y000443993D01*
X000395219Y000444036D01*
X000395404Y000444083D01*
X000395587Y000444136D01*
X000395768Y000444191D01*
X000395948Y000444252D01*
X000396127Y000444319D01*
X000396304Y000444388D01*
X000396480Y000444461D01*
X000396653Y000444540D01*
X000396825Y000444623D01*
X000396994Y000444709D01*
X000397162Y000444799D01*
X000397327Y000444894D01*
X000397490Y000444991D01*
X000397650Y000445095D01*
X000397808Y000445200D01*
X000397963Y000445310D01*
X000398115Y000445424D01*
X000398266Y000445542D01*
X000398412Y000445662D01*
X000398556Y000445787D01*
X000398697Y000445915D01*
X000398835Y000446046D01*
X000398970Y000446181D01*
X000399101Y000446319D01*
X000399229Y000446460D01*
X000399353Y000446603D01*
X000399474Y000446750D01*
X000399592Y000446900D01*
X000399705Y000447053D01*
X000399815Y000447208D01*
X000399921Y000447366D01*
X000400024Y000447525D01*
X000400122Y000447689D01*
X000400216Y000447854D01*
X000400307Y000448022D01*
X000400393Y000448191D01*
X000400476Y000448363D01*
X000400554Y000448536D01*
X000400628Y000448712D01*
X000400697Y000448888D01*
X000400763Y000449068D01*
X000400824Y000449247D01*
X000400880Y000449429D01*
X000400932Y000449612D01*
X000400980Y000449796D01*
X000401023Y000449982D01*
X000401062Y000450168D01*
X000401097Y000450355D01*
X000401126Y000450542D01*
X000401152Y000450732D01*
X000401172Y000450921D01*
X000401187Y000451111D01*
X000401199Y000451301D01*
X000401206Y000451491D01*
X000401209Y000451681D01*
X000401209Y000483176D01*
X000401206Y000483366D01*
X000401199Y000483556D01*
X000401187Y000483747D01*
X000401172Y000483937D01*
X000401152Y000484126D01*
X000401126Y000484314D01*
X000401097Y000484503D01*
X000401062Y000484690D01*
X000401023Y000484876D01*
X000400980Y000485060D01*
X000400932Y000485246D01*
X000400880Y000485429D01*
X000400824Y000485609D01*
X000400763Y000485790D01*
X000400697Y000485968D01*
X000400628Y000486146D01*
X000400554Y000486322D01*
X000400476Y000486495D01*
X000400393Y000486667D01*
X000400307Y000486836D01*
X000400216Y000487004D01*
X000400122Y000487169D01*
X000400024Y000487331D01*
X000399921Y000487492D01*
X000399815Y000487650D01*
X000399705Y000487805D01*
X000399592Y000487958D01*
X000399474Y000488108D01*
X000399353Y000488253D01*
X000399229Y000488398D01*
X000399101Y000488539D01*
X000398970Y000488677D01*
X000398835Y000488812D01*
X000398697Y000488943D01*
X000398556Y000489071D01*
X000398412Y000489194D01*
X000398266Y000489316D01*
X000398115Y000489433D01*
X000397963Y000489547D01*
X000397808Y000489656D01*
X000397650Y000489763D01*
X000397490Y000489865D01*
X000397327Y000489964D01*
X000397162Y000490059D01*
X000396994Y000490149D01*
X000396825Y000490235D01*
X000396653Y000490318D01*
X000396480Y000490395D01*
X000396304Y000490470D01*
X000396127Y000490538D01*
X000395948Y000490604D01*
X000395768Y000490665D01*
X000395587Y000490721D01*
X000395404Y000490774D01*
X000395219Y000490822D01*
X000395034Y000490865D01*
X000394847Y000490904D01*
X000394661Y000490939D01*
X000394473Y000490968D01*
X000394284Y000490994D01*
X000394095Y000491014D01*
X000393905Y000491030D01*
X000393715Y000491042D01*
X000393525Y000491049D01*
X000393335Y000491051D01*
X000236208Y000491051D01*
X000236069Y000491049D01*
X000235929Y000491043D01*
X000235788Y000491033D01*
X000235649Y000491019D01*
X000235510Y000491002D01*
X000235371Y000490980D01*
X000235234Y000490955D01*
X000235096Y000490926D01*
X000234960Y000490893D01*
X000234825Y000490855D01*
X000234690Y000490815D01*
X000234558Y000490770D01*
X000234425Y000490721D01*
X000234296Y000490670D01*
X000234167Y000490615D01*
X000234039Y000490556D01*
X000233914Y000490493D01*
X000233790Y000490427D01*
X000233669Y000490358D01*
X000233549Y000490285D01*
X000233431Y000490208D01*
X000233316Y000490129D01*
X000233202Y000490046D01*
X000233092Y000489960D01*
X000232981Y000489871D01*
X000232877Y000489778D01*
X000232774Y000489684D01*
X000232673Y000489587D01*
X000232575Y000489486D01*
X000232480Y000489383D01*
X000232389Y000489276D01*
X000232300Y000489168D01*
X000232214Y000489058D01*
X000232131Y000488943D01*
X000232052Y000488828D01*
X000231975Y000488711D01*
X000231902Y000488591D01*
X000231833Y000488469D01*
X000231767Y000488346D01*
X000231704Y000488220D01*
X000231645Y000488093D01*
X000231590Y000487964D01*
X000231538Y000487833D01*
X000231490Y000487702D01*
X000231445Y000487568D01*
X000231404Y000487435D01*
X000231367Y000487300D01*
X000231334Y000487164D01*
X000231305Y000487026D01*
X000231280Y000486889D01*
X000231258Y000486750D01*
X000231239Y000486611D01*
X000231226Y000486470D01*
X000231217Y000486331D01*
X000231211Y000486191D01*
X000231209Y000486050D01*
X000231209Y000448806D01*
X000231211Y000448667D01*
X000231217Y000448527D01*
X000231226Y000448386D01*
X000231239Y000448247D01*
X000231258Y000448108D01*
X000231280Y000447969D01*
X000231305Y000447832D01*
X000231334Y000447694D01*
X000231367Y000447558D01*
X000231404Y000447423D01*
X000231445Y000447288D01*
X000231490Y000447156D01*
X000231538Y000447024D01*
X000231590Y000446894D01*
X000231645Y000446765D01*
X000231704Y000446638D01*
X000231767Y000446512D01*
X000231833Y000446387D01*
X000231902Y000446267D01*
X000231975Y000446147D01*
X000232052Y000446028D01*
X000232131Y000445913D01*
X000232214Y000445800D01*
X000232300Y000445690D01*
X000232389Y000445580D01*
X000232480Y000445475D01*
X000232575Y000445371D01*
X000232673Y000445271D01*
X000232774Y000445174D01*
X000232877Y000445078D01*
X000232981Y000444987D01*
X000233092Y000444898D01*
X000233202Y000444812D01*
X000233316Y000444729D01*
X000233431Y000444650D01*
X000233549Y000444573D01*
X000233669Y000444500D01*
X000233790Y000444431D01*
X000233914Y000444365D01*
X000234039Y000444302D01*
X000234167Y000444243D01*
X000234296Y000444188D01*
X000234425Y000444136D01*
X000234558Y000444088D01*
X000234690Y000444043D01*
X000234825Y000444001D01*
X000234960Y000443965D01*
X000235096Y000443932D01*
X000235234Y000443903D01*
X000235371Y000443878D01*
X000235510Y000443856D01*
X000235649Y000443838D01*
X000235788Y000443825D01*
X000235929Y000443815D01*
X000236069Y000443809D01*
X000236208Y000443807D01*
D288*
X000235709Y000452428D03*
X000235709Y000477428D03*
D289*
X000381996Y000481209D03*
X000381996Y000453648D03*
D290*
X000380028Y000463492D03*
X000380028Y000471366D03*
G75*
D301*
X000236208Y000388689D02*
X000393335Y000388689D01*
X000393525Y000388690D01*
X000393715Y000388698D01*
X000393905Y000388710D01*
X000394095Y000388726D01*
X000394284Y000388745D01*
X000394473Y000388772D01*
X000394661Y000388801D01*
X000394847Y000388836D01*
X000395034Y000388875D01*
X000395219Y000388918D01*
X000395404Y000388966D01*
X000395587Y000389018D01*
X000395768Y000389074D01*
X000395948Y000389135D01*
X000396127Y000389201D01*
X000396304Y000389270D01*
X000396480Y000389344D01*
X000396653Y000389422D01*
X000396825Y000389505D01*
X000396994Y000389591D01*
X000397162Y000389681D01*
X000397327Y000389776D01*
X000397490Y000389874D01*
X000397650Y000389977D01*
X000397808Y000390083D01*
X000397963Y000390193D01*
X000398115Y000390306D01*
X000398266Y000390424D01*
X000398412Y000390545D01*
X000398556Y000390669D01*
X000398697Y000390797D01*
X000398835Y000390928D01*
X000398970Y000391063D01*
X000399101Y000391201D01*
X000399229Y000391342D01*
X000399353Y000391486D01*
X000399474Y000391632D01*
X000399592Y000391782D01*
X000399705Y000391935D01*
X000399815Y000392090D01*
X000399921Y000392248D01*
X000400024Y000392407D01*
X000400122Y000392571D01*
X000400216Y000392736D01*
X000400307Y000392903D01*
X000400393Y000393073D01*
X000400476Y000393245D01*
X000400554Y000393418D01*
X000400628Y000393594D01*
X000400697Y000393771D01*
X000400763Y000393950D01*
X000400824Y000394130D01*
X000400880Y000394311D01*
X000400932Y000394493D01*
X000400980Y000394679D01*
X000401023Y000394864D01*
X000401062Y000395050D01*
X000401097Y000395237D01*
X000401126Y000395425D01*
X000401152Y000395613D01*
X000401172Y000395803D01*
X000401187Y000395992D01*
X000401199Y000396182D01*
X000401206Y000396373D01*
X000401209Y000396563D01*
X000401209Y000428059D01*
X000401206Y000428249D01*
X000401199Y000428439D01*
X000401187Y000428629D01*
X000401172Y000428819D01*
X000401152Y000429007D01*
X000401126Y000429197D01*
X000401097Y000429385D01*
X000401062Y000429572D01*
X000401023Y000429758D01*
X000400980Y000429943D01*
X000400932Y000430128D01*
X000400880Y000430311D01*
X000400824Y000430492D01*
X000400763Y000430672D01*
X000400697Y000430851D01*
X000400628Y000431027D01*
X000400554Y000431203D01*
X000400476Y000431377D01*
X000400393Y000431548D01*
X000400307Y000431717D01*
X000400216Y000431886D01*
X000400122Y000432050D01*
X000400024Y000432214D01*
X000399921Y000432374D01*
X000399815Y000432531D01*
X000399705Y000432687D01*
X000399592Y000432840D01*
X000399474Y000432990D01*
X000399353Y000433136D01*
X000399229Y000433280D01*
X000399101Y000433420D01*
X000398970Y000433559D01*
X000398835Y000433694D01*
X000398697Y000433825D01*
X000398556Y000433953D01*
X000398412Y000434077D01*
X000398266Y000434198D01*
X000398115Y000434316D01*
X000397963Y000434429D01*
X000397808Y000434539D01*
X000397650Y000434645D01*
X000397490Y000434748D01*
X000397327Y000434846D01*
X000397162Y000434941D01*
X000396994Y000435031D01*
X000396825Y000435117D01*
X000396653Y000435200D01*
X000396480Y000435278D01*
X000396304Y000435351D01*
X000396127Y000435421D01*
X000395948Y000435487D01*
X000395768Y000435548D01*
X000395587Y000435604D01*
X000395404Y000435656D01*
X000395219Y000435703D01*
X000395034Y000435747D01*
X000394847Y000435785D01*
X000394661Y000435820D01*
X000394473Y000435850D01*
X000394284Y000435876D01*
X000394095Y000435896D01*
X000393905Y000435912D01*
X000393715Y000435924D01*
X000393525Y000435931D01*
X000393335Y000435933D01*
X000236208Y000435933D01*
X000236069Y000435931D01*
X000235929Y000435925D01*
X000235788Y000435914D01*
X000235649Y000435902D01*
X000235510Y000435884D01*
X000235371Y000435862D01*
X000235234Y000435837D01*
X000235096Y000435808D01*
X000234960Y000435775D01*
X000234825Y000435738D01*
X000234690Y000435696D01*
X000234558Y000435652D01*
X000234425Y000435604D01*
X000234296Y000435552D01*
X000234167Y000435497D01*
X000234039Y000435438D01*
X000233914Y000435375D01*
X000233790Y000435309D01*
X000233669Y000435240D01*
X000233549Y000435167D01*
X000233431Y000435090D01*
X000233316Y000435011D01*
X000233202Y000434928D01*
X000233092Y000434842D01*
X000232981Y000434753D01*
X000232877Y000434661D01*
X000232774Y000434565D01*
X000232673Y000434469D01*
X000232575Y000434368D01*
X000232480Y000434265D01*
X000232389Y000434159D01*
X000232300Y000434049D01*
X000232214Y000433940D01*
X000232131Y000433826D01*
X000232052Y000433711D01*
X000231975Y000433593D01*
X000231902Y000433473D01*
X000231833Y000433352D01*
X000231767Y000433228D01*
X000231704Y000433101D01*
X000231645Y000432975D01*
X000231590Y000432846D01*
X000231538Y000432716D01*
X000231490Y000432584D01*
X000231445Y000432451D01*
X000231404Y000432317D01*
X000231367Y000432182D01*
X000231334Y000432046D01*
X000231305Y000431907D01*
X000231280Y000431771D01*
X000231258Y000431632D01*
X000231239Y000431493D01*
X000231226Y000431353D01*
X000231217Y000431213D01*
X000231211Y000431073D01*
X000231209Y000430933D01*
X000231209Y000393689D01*
X000231211Y000393549D01*
X000231217Y000393409D01*
X000231226Y000393269D01*
X000231239Y000393129D01*
X000231258Y000392990D01*
X000231280Y000392851D01*
X000231305Y000392714D01*
X000231334Y000392576D01*
X000231367Y000392440D01*
X000231404Y000392305D01*
X000231445Y000392170D01*
X000231490Y000392038D01*
X000231538Y000391906D01*
X000231590Y000391776D01*
X000231645Y000391647D01*
X000231704Y000391520D01*
X000231767Y000391394D01*
X000231833Y000391269D01*
X000231902Y000391149D01*
X000231975Y000391028D01*
X000232052Y000390911D01*
X000232131Y000390795D01*
X000232214Y000390682D01*
X000232300Y000390572D01*
X000232389Y000390463D01*
X000232480Y000390357D01*
X000232575Y000390254D01*
X000232673Y000390153D01*
X000232774Y000390056D01*
X000232877Y000389961D01*
X000232981Y000389869D01*
X000233092Y000389780D01*
X000233202Y000389693D01*
X000233316Y000389611D01*
X000233431Y000389532D01*
X000233549Y000389455D01*
X000233669Y000389382D01*
X000233790Y000389313D01*
X000233914Y000389247D01*
X000234039Y000389184D01*
X000234167Y000389124D01*
X000234296Y000389070D01*
X000234425Y000389018D01*
X000234558Y000388970D01*
X000234690Y000388924D01*
X000234825Y000388884D01*
X000234960Y000388847D01*
X000235096Y000388814D01*
X000235234Y000388785D01*
X000235371Y000388760D01*
X000235510Y000388738D01*
X000235649Y000388720D01*
X000235788Y000388707D01*
X000235929Y000388697D01*
X000236069Y000388690D01*
X000236208Y000388689D01*
D302*
X000235709Y000397311D03*
X000235709Y000422311D03*
D303*
X000381996Y000426091D03*
X000381996Y000398531D03*
D304*
X000380028Y000408373D03*
X000380028Y000416248D03*
G75*
D315*
X000417311Y000050107D02*
X000574437Y000050107D01*
X000574627Y000050109D01*
X000574817Y000050116D01*
X000575007Y000050127D01*
X000575197Y000050144D01*
X000575386Y000050164D01*
X000575575Y000050190D01*
X000575763Y000050219D01*
X000575950Y000050254D01*
X000576136Y000050293D01*
X000576320Y000050336D01*
X000576506Y000050383D01*
X000576689Y000050436D01*
X000576870Y000050492D01*
X000577050Y000050553D01*
X000577229Y000050619D01*
X000577406Y000050688D01*
X000577582Y000050761D01*
X000577755Y000050839D01*
X000577927Y000050922D01*
X000578096Y000051009D01*
X000578264Y000051099D01*
X000578429Y000051193D01*
X000578592Y000051292D01*
X000578752Y000051395D01*
X000578910Y000051501D01*
X000579065Y000051610D01*
X000579218Y000051724D01*
X000579368Y000051842D01*
X000579514Y000051963D01*
X000579658Y000052087D01*
X000579799Y000052215D01*
X000579937Y000052346D01*
X000580072Y000052481D01*
X000580203Y000052619D01*
X000580331Y000052759D01*
X000580455Y000052903D01*
X000580576Y000053050D01*
X000580694Y000053200D01*
X000580806Y000053352D01*
X000580916Y000053508D01*
X000581023Y000053666D01*
X000581126Y000053825D01*
X000581224Y000053989D01*
X000581319Y000054154D01*
X000581409Y000054322D01*
X000581495Y000054491D01*
X000581578Y000054662D01*
X000581656Y000054835D01*
X000581730Y000055012D01*
X000581799Y000055189D01*
X000581864Y000055367D01*
X000581926Y000055548D01*
X000581981Y000055728D01*
X000582034Y000055911D01*
X000582082Y000056097D01*
X000582125Y000056282D01*
X000582164Y000056467D01*
X000582199Y000056655D01*
X000582228Y000056843D01*
X000582254Y000057032D01*
X000582274Y000057221D01*
X000582290Y000057411D01*
X000582301Y000057601D01*
X000582309Y000057791D01*
X000582311Y000057981D01*
X000582311Y000089477D01*
X000582309Y000089667D01*
X000582301Y000089857D01*
X000582290Y000090047D01*
X000582274Y000090237D01*
X000582254Y000090426D01*
X000582228Y000090613D01*
X000582199Y000090803D01*
X000582164Y000090990D01*
X000582125Y000091176D01*
X000582082Y000091361D01*
X000582034Y000091546D01*
X000581981Y000091729D01*
X000581926Y000091910D01*
X000581864Y000092090D01*
X000581799Y000092269D01*
X000581730Y000092446D01*
X000581656Y000092622D01*
X000581578Y000092795D01*
X000581495Y000092967D01*
X000581409Y000093136D01*
X000581319Y000093304D01*
X000581224Y000093467D01*
X000581126Y000093632D01*
X000581023Y000093792D01*
X000580916Y000093950D01*
X000580806Y000094105D01*
X000580694Y000094258D01*
X000580576Y000094408D01*
X000580455Y000094554D01*
X000580331Y000094698D01*
X000580203Y000094839D01*
X000580072Y000094977D01*
X000579937Y000095112D01*
X000579799Y000095243D01*
X000579658Y000095370D01*
X000579514Y000095494D01*
X000579368Y000095616D01*
X000579218Y000095734D01*
X000579065Y000095847D01*
X000578910Y000095957D01*
X000578752Y000096063D01*
X000578592Y000096166D01*
X000578429Y000096264D01*
X000578264Y000096359D01*
X000578096Y000096449D01*
X000577927Y000096535D01*
X000577755Y000096618D01*
X000577582Y000096696D01*
X000577406Y000096770D01*
X000577229Y000096839D01*
X000577050Y000096905D01*
X000576870Y000096966D01*
X000576689Y000097022D01*
X000576506Y000097074D01*
X000576320Y000097122D01*
X000576136Y000097165D01*
X000575950Y000097204D01*
X000575763Y000097239D01*
X000575575Y000097268D01*
X000575386Y000097294D01*
X000575197Y000097314D01*
X000575007Y000097330D01*
X000574817Y000097342D01*
X000574627Y000097349D01*
X000574437Y000097351D01*
X000417311Y000097351D01*
X000417171Y000097349D01*
X000417031Y000097343D01*
X000416891Y000097333D01*
X000416751Y000097320D01*
X000416612Y000097302D01*
X000416472Y000097280D01*
X000416336Y000097255D01*
X000416198Y000097226D01*
X000416062Y000097193D01*
X000415927Y000097156D01*
X000415793Y000097115D01*
X000415660Y000097070D01*
X000415528Y000097022D01*
X000415398Y000096970D01*
X000415269Y000096915D01*
X000415142Y000096856D01*
X000415015Y000096793D01*
X000414892Y000096727D01*
X000414771Y000096658D01*
X000414651Y000096585D01*
X000414533Y000096508D01*
X000414418Y000096429D01*
X000414304Y000096346D01*
X000414194Y000096260D01*
X000414085Y000096171D01*
X000413978Y000096079D01*
X000413876Y000095984D01*
X000413774Y000095887D01*
X000413678Y000095786D01*
X000413583Y000095683D01*
X000413490Y000095577D01*
X000413401Y000095468D01*
X000413316Y000095358D01*
X000413232Y000095244D01*
X000413154Y000095129D01*
X000413077Y000095011D01*
X000413004Y000094891D01*
X000412934Y000094770D01*
X000412869Y000094646D01*
X000412805Y000094520D01*
X000412747Y000094393D01*
X000412692Y000094264D01*
X000412640Y000094134D01*
X000412592Y000094002D01*
X000412547Y000093869D01*
X000412506Y000093735D01*
X000412469Y000093600D01*
X000412436Y000093464D01*
X000412406Y000093326D01*
X000412382Y000093189D01*
X000412360Y000093050D01*
X000412342Y000092911D01*
X000412329Y000092771D01*
X000412319Y000092630D01*
X000412313Y000092491D01*
X000412310Y000092351D01*
X000412310Y000055106D01*
X000412313Y000054967D01*
X000412319Y000054827D01*
X000412329Y000054687D01*
X000412342Y000054547D01*
X000412360Y000054408D01*
X000412382Y000054269D01*
X000412406Y000054132D01*
X000412436Y000053994D01*
X000412469Y000053857D01*
X000412506Y000053723D01*
X000412547Y000053589D01*
X000412592Y000053456D01*
X000412640Y000053324D01*
X000412692Y000053194D01*
X000412747Y000053064D01*
X000412805Y000052937D01*
X000412869Y000052812D01*
X000412934Y000052688D01*
X000413004Y000052567D01*
X000413077Y000052447D01*
X000413154Y000052329D01*
X000413232Y000052214D01*
X000413316Y000052100D01*
X000413401Y000051990D01*
X000413490Y000051881D01*
X000413583Y000051775D01*
X000413678Y000051671D01*
X000413774Y000051571D01*
X000413876Y000051474D01*
X000413978Y000051379D01*
X000414085Y000051287D01*
X000414194Y000051198D01*
X000414304Y000051112D01*
X000414418Y000051029D01*
X000414533Y000050949D01*
X000414651Y000050873D01*
X000414771Y000050800D01*
X000414892Y000050731D01*
X000415015Y000050665D01*
X000415142Y000050602D01*
X000415269Y000050543D01*
X000415398Y000050488D01*
X000415528Y000050436D01*
X000415660Y000050388D01*
X000415793Y000050343D01*
X000415927Y000050302D01*
X000416062Y000050265D01*
X000416198Y000050232D01*
X000416336Y000050203D01*
X000416472Y000050178D01*
X000416612Y000050156D01*
X000416751Y000050138D01*
X000416891Y000050125D01*
X000417031Y000050115D01*
X000417171Y000050109D01*
X000417311Y000050107D01*
D316*
X000416811Y000058729D03*
X000416811Y000083729D03*
D317*
X000563098Y000087509D03*
X000563098Y000059949D03*
D318*
X000561130Y000069792D03*
X000561130Y000077666D03*
G04 next file*
G75*
D329*
X000417311Y000333571D02*
X000574437Y000333571D01*
X000574627Y000333572D01*
X000574817Y000333580D01*
X000575007Y000333592D01*
X000575197Y000333608D01*
X000575386Y000333627D01*
X000575575Y000333654D01*
X000575763Y000333683D01*
X000575950Y000333718D01*
X000576136Y000333757D01*
X000576320Y000333800D01*
X000576506Y000333848D01*
X000576689Y000333900D01*
X000576870Y000333956D01*
X000577050Y000334017D01*
X000577229Y000334083D01*
X000577406Y000334152D01*
X000577582Y000334225D01*
X000577755Y000334304D01*
X000577927Y000334387D01*
X000578096Y000334473D01*
X000578264Y000334563D01*
X000578429Y000334658D01*
X000578592Y000334756D01*
X000578752Y000334859D01*
X000578910Y000334965D01*
X000579065Y000335075D01*
X000579218Y000335188D01*
X000579368Y000335305D01*
X000579514Y000335427D01*
X000579658Y000335551D01*
X000579799Y000335679D01*
X000579937Y000335810D01*
X000580072Y000335945D01*
X000580203Y000336083D01*
X000580331Y000336224D01*
X000580455Y000336368D01*
X000580576Y000336514D01*
X000580694Y000336664D01*
X000580806Y000336817D01*
X000580916Y000336972D01*
X000581023Y000337130D01*
X000581126Y000337289D01*
X000581224Y000337453D01*
X000581319Y000337618D01*
X000581409Y000337785D01*
X000581495Y000337955D01*
X000581578Y000338127D01*
X000581656Y000338299D01*
X000581730Y000338476D01*
X000581799Y000338653D01*
X000581864Y000338832D01*
X000581926Y000339012D01*
X000581981Y000339193D01*
X000582034Y000339375D01*
X000582082Y000339561D01*
X000582125Y000339746D01*
X000582164Y000339932D01*
X000582199Y000340119D01*
X000582228Y000340307D01*
X000582254Y000340495D01*
X000582274Y000340685D01*
X000582290Y000340874D01*
X000582301Y000341065D01*
X000582309Y000341255D01*
X000582311Y000341445D01*
X000582311Y000372941D01*
X000582309Y000373131D01*
X000582301Y000373321D01*
X000582290Y000373511D01*
X000582274Y000373701D01*
X000582254Y000373890D01*
X000582228Y000374079D01*
X000582199Y000374267D01*
X000582164Y000374454D01*
X000582125Y000374640D01*
X000582082Y000374825D01*
X000582034Y000375010D01*
X000581981Y000375193D01*
X000581926Y000375374D01*
X000581864Y000375554D01*
X000581799Y000375733D01*
X000581730Y000375910D01*
X000581656Y000376086D01*
X000581578Y000376259D01*
X000581495Y000376431D01*
X000581409Y000376600D01*
X000581319Y000376767D01*
X000581224Y000376933D01*
X000581126Y000377096D01*
X000581023Y000377256D01*
X000580916Y000377413D01*
X000580806Y000377569D01*
X000580694Y000377722D01*
X000580576Y000377872D01*
X000580455Y000378018D01*
X000580331Y000378162D01*
X000580203Y000378303D01*
X000580072Y000378441D01*
X000579937Y000378576D01*
X000579799Y000378707D01*
X000579658Y000378835D01*
X000579514Y000378959D01*
X000579368Y000379080D01*
X000579218Y000379198D01*
X000579065Y000379311D01*
X000578910Y000379421D01*
X000578752Y000379527D01*
X000578592Y000379630D01*
X000578429Y000379728D01*
X000578264Y000379823D01*
X000578096Y000379913D01*
X000577927Y000379999D01*
X000577755Y000380082D01*
X000577582Y000380160D01*
X000577406Y000380234D01*
X000577229Y000380303D01*
X000577050Y000380369D01*
X000576870Y000380430D01*
X000576689Y000380486D01*
X000576506Y000380538D01*
X000576320Y000380586D01*
X000576136Y000380629D01*
X000575950Y000380668D01*
X000575763Y000380703D01*
X000575575Y000380732D01*
X000575386Y000380758D01*
X000575197Y000380778D01*
X000575007Y000380794D01*
X000574817Y000380806D01*
X000574627Y000380813D01*
X000574437Y000380815D01*
X000417311Y000380815D01*
X000417171Y000380813D01*
X000417031Y000380807D01*
X000416891Y000380797D01*
X000416751Y000380783D01*
X000416612Y000380766D01*
X000416472Y000380744D01*
X000416336Y000380719D01*
X000416198Y000380690D01*
X000416062Y000380657D01*
X000415927Y000380619D01*
X000415793Y000380579D01*
X000415660Y000380534D01*
X000415528Y000380486D01*
X000415398Y000380434D01*
X000415269Y000380379D01*
X000415142Y000380320D01*
X000415015Y000380257D01*
X000414892Y000380191D01*
X000414771Y000380122D01*
X000414651Y000380049D01*
X000414533Y000379972D01*
X000414418Y000379893D01*
X000414304Y000379809D01*
X000414194Y000379724D01*
X000414085Y000379634D01*
X000413978Y000379543D01*
X000413876Y000379448D01*
X000413774Y000379351D01*
X000413678Y000379250D01*
X000413583Y000379147D01*
X000413490Y000379041D01*
X000413401Y000378932D01*
X000413316Y000378822D01*
X000413232Y000378708D01*
X000413154Y000378593D01*
X000413077Y000378474D01*
X000413004Y000378354D01*
X000412934Y000378234D01*
X000412869Y000378110D01*
X000412805Y000377984D01*
X000412747Y000377857D01*
X000412692Y000377728D01*
X000412640Y000377598D01*
X000412592Y000377466D01*
X000412547Y000377333D01*
X000412506Y000377199D01*
X000412469Y000377064D01*
X000412436Y000376928D01*
X000412406Y000376790D01*
X000412382Y000376653D01*
X000412360Y000376514D01*
X000412342Y000376375D01*
X000412329Y000376235D01*
X000412319Y000376095D01*
X000412313Y000375954D01*
X000412310Y000375815D01*
X000412310Y000338571D01*
X000412313Y000338431D01*
X000412319Y000338291D01*
X000412329Y000338151D01*
X000412342Y000338011D01*
X000412360Y000337872D01*
X000412382Y000337733D01*
X000412406Y000337596D01*
X000412436Y000337458D01*
X000412469Y000337322D01*
X000412506Y000337187D01*
X000412547Y000337052D01*
X000412592Y000336920D01*
X000412640Y000336788D01*
X000412692Y000336658D01*
X000412747Y000336529D01*
X000412805Y000336402D01*
X000412869Y000336276D01*
X000412934Y000336151D01*
X000413004Y000336031D01*
X000413077Y000335910D01*
X000413154Y000335793D01*
X000413232Y000335677D01*
X000413316Y000335564D01*
X000413401Y000335454D01*
X000413490Y000335345D01*
X000413583Y000335239D01*
X000413678Y000335136D01*
X000413774Y000335035D01*
X000413876Y000334938D01*
X000413978Y000334843D01*
X000414085Y000334751D01*
X000414194Y000334662D01*
X000414304Y000334575D01*
X000414418Y000334493D01*
X000414533Y000334414D01*
X000414651Y000334337D01*
X000414771Y000334264D01*
X000414892Y000334195D01*
X000415015Y000334129D01*
X000415142Y000334066D01*
X000415269Y000334006D01*
X000415398Y000333952D01*
X000415528Y000333900D01*
X000415660Y000333852D01*
X000415793Y000333806D01*
X000415927Y000333766D01*
X000416062Y000333729D01*
X000416198Y000333696D01*
X000416336Y000333667D01*
X000416472Y000333642D01*
X000416612Y000333620D01*
X000416751Y000333602D01*
X000416891Y000333589D01*
X000417031Y000333579D01*
X000417171Y000333572D01*
X000417311Y000333571D01*
D330*
X000416811Y000342193D03*
X000416811Y000367193D03*
D331*
X000563098Y000370973D03*
X000563098Y000343413D03*
D332*
X000561130Y000353256D03*
X000561130Y000361130D03*
G75*
D343*
X000417311Y000443807D02*
X000574437Y000443807D01*
X000574627Y000443809D01*
X000574817Y000443816D01*
X000575007Y000443828D01*
X000575197Y000443844D01*
X000575386Y000443864D01*
X000575575Y000443890D01*
X000575763Y000443919D01*
X000575950Y000443954D01*
X000576136Y000443993D01*
X000576320Y000444036D01*
X000576506Y000444083D01*
X000576689Y000444136D01*
X000576870Y000444191D01*
X000577050Y000444252D01*
X000577229Y000444319D01*
X000577406Y000444388D01*
X000577582Y000444461D01*
X000577755Y000444540D01*
X000577927Y000444623D01*
X000578096Y000444709D01*
X000578264Y000444799D01*
X000578429Y000444894D01*
X000578592Y000444991D01*
X000578752Y000445095D01*
X000578910Y000445200D01*
X000579065Y000445310D01*
X000579218Y000445424D01*
X000579368Y000445542D01*
X000579514Y000445662D01*
X000579658Y000445787D01*
X000579799Y000445915D01*
X000579937Y000446046D01*
X000580072Y000446181D01*
X000580203Y000446319D01*
X000580331Y000446460D01*
X000580455Y000446603D01*
X000580576Y000446750D01*
X000580694Y000446900D01*
X000580806Y000447053D01*
X000580916Y000447208D01*
X000581023Y000447366D01*
X000581126Y000447525D01*
X000581224Y000447689D01*
X000581319Y000447854D01*
X000581409Y000448022D01*
X000581495Y000448191D01*
X000581578Y000448363D01*
X000581656Y000448536D01*
X000581730Y000448712D01*
X000581799Y000448888D01*
X000581864Y000449068D01*
X000581926Y000449247D01*
X000581981Y000449429D01*
X000582034Y000449612D01*
X000582082Y000449796D01*
X000582125Y000449982D01*
X000582164Y000450168D01*
X000582199Y000450355D01*
X000582228Y000450542D01*
X000582254Y000450732D01*
X000582274Y000450921D01*
X000582290Y000451111D01*
X000582301Y000451301D01*
X000582309Y000451491D01*
X000582311Y000451681D01*
X000582311Y000483176D01*
X000582309Y000483366D01*
X000582301Y000483556D01*
X000582290Y000483747D01*
X000582274Y000483937D01*
X000582254Y000484126D01*
X000582228Y000484314D01*
X000582199Y000484503D01*
X000582164Y000484690D01*
X000582125Y000484876D01*
X000582082Y000485060D01*
X000582034Y000485246D01*
X000581981Y000485429D01*
X000581926Y000485609D01*
X000581864Y000485790D01*
X000581799Y000485968D01*
X000581730Y000486146D01*
X000581656Y000486322D01*
X000581578Y000486495D01*
X000581495Y000486667D01*
X000581409Y000486836D01*
X000581319Y000487004D01*
X000581224Y000487169D01*
X000581126Y000487331D01*
X000581023Y000487492D01*
X000580916Y000487650D01*
X000580806Y000487805D01*
X000580694Y000487958D01*
X000580576Y000488108D01*
X000580455Y000488253D01*
X000580331Y000488398D01*
X000580203Y000488539D01*
X000580072Y000488677D01*
X000579937Y000488812D01*
X000579799Y000488943D01*
X000579658Y000489071D01*
X000579514Y000489194D01*
X000579368Y000489316D01*
X000579218Y000489433D01*
X000579065Y000489547D01*
X000578910Y000489656D01*
X000578752Y000489763D01*
X000578592Y000489865D01*
X000578429Y000489964D01*
X000578264Y000490059D01*
X000578096Y000490149D01*
X000577927Y000490235D01*
X000577755Y000490318D01*
X000577582Y000490395D01*
X000577406Y000490470D01*
X000577229Y000490538D01*
X000577050Y000490604D01*
X000576870Y000490665D01*
X000576689Y000490721D01*
X000576506Y000490774D01*
X000576320Y000490822D01*
X000576136Y000490865D01*
X000575950Y000490904D01*
X000575763Y000490939D01*
X000575575Y000490968D01*
X000575386Y000490994D01*
X000575197Y000491014D01*
X000575007Y000491030D01*
X000574817Y000491042D01*
X000574627Y000491049D01*
X000574437Y000491051D01*
X000417311Y000491051D01*
X000417171Y000491049D01*
X000417031Y000491043D01*
X000416891Y000491033D01*
X000416751Y000491019D01*
X000416612Y000491002D01*
X000416472Y000490980D01*
X000416336Y000490955D01*
X000416198Y000490926D01*
X000416062Y000490893D01*
X000415927Y000490855D01*
X000415793Y000490815D01*
X000415660Y000490770D01*
X000415528Y000490721D01*
X000415398Y000490670D01*
X000415269Y000490615D01*
X000415142Y000490556D01*
X000415015Y000490493D01*
X000414892Y000490427D01*
X000414771Y000490358D01*
X000414651Y000490285D01*
X000414533Y000490208D01*
X000414418Y000490129D01*
X000414304Y000490046D01*
X000414194Y000489960D01*
X000414085Y000489871D01*
X000413978Y000489778D01*
X000413876Y000489684D01*
X000413774Y000489587D01*
X000413678Y000489486D01*
X000413583Y000489383D01*
X000413490Y000489276D01*
X000413401Y000489168D01*
X000413316Y000489058D01*
X000413232Y000488943D01*
X000413154Y000488828D01*
X000413077Y000488711D01*
X000413004Y000488591D01*
X000412934Y000488469D01*
X000412869Y000488346D01*
X000412805Y000488220D01*
X000412747Y000488093D01*
X000412692Y000487964D01*
X000412640Y000487833D01*
X000412592Y000487702D01*
X000412547Y000487568D01*
X000412506Y000487435D01*
X000412469Y000487300D01*
X000412436Y000487164D01*
X000412406Y000487026D01*
X000412382Y000486889D01*
X000412360Y000486750D01*
X000412342Y000486611D01*
X000412329Y000486470D01*
X000412319Y000486331D01*
X000412313Y000486191D01*
X000412310Y000486050D01*
X000412310Y000448806D01*
X000412313Y000448667D01*
X000412319Y000448527D01*
X000412329Y000448386D01*
X000412342Y000448247D01*
X000412360Y000448108D01*
X000412382Y000447969D01*
X000412406Y000447832D01*
X000412436Y000447694D01*
X000412469Y000447558D01*
X000412506Y000447423D01*
X000412547Y000447288D01*
X000412592Y000447156D01*
X000412640Y000447024D01*
X000412692Y000446894D01*
X000412747Y000446765D01*
X000412805Y000446638D01*
X000412869Y000446512D01*
X000412934Y000446387D01*
X000413004Y000446267D01*
X000413077Y000446147D01*
X000413154Y000446028D01*
X000413232Y000445913D01*
X000413316Y000445800D01*
X000413401Y000445690D01*
X000413490Y000445580D01*
X000413583Y000445475D01*
X000413678Y000445371D01*
X000413774Y000445271D01*
X000413876Y000445174D01*
X000413978Y000445078D01*
X000414085Y000444987D01*
X000414194Y000444898D01*
X000414304Y000444812D01*
X000414418Y000444729D01*
X000414533Y000444650D01*
X000414651Y000444573D01*
X000414771Y000444500D01*
X000414892Y000444431D01*
X000415015Y000444365D01*
X000415142Y000444302D01*
X000415269Y000444243D01*
X000415398Y000444188D01*
X000415528Y000444136D01*
X000415660Y000444088D01*
X000415793Y000444043D01*
X000415927Y000444001D01*
X000416062Y000443965D01*
X000416198Y000443932D01*
X000416336Y000443903D01*
X000416472Y000443878D01*
X000416612Y000443856D01*
X000416751Y000443838D01*
X000416891Y000443825D01*
X000417031Y000443815D01*
X000417171Y000443809D01*
X000417311Y000443807D01*
D344*
X000416811Y000452428D03*
X000416811Y000477428D03*
D345*
X000563098Y000481209D03*
X000563098Y000453648D03*
D346*
X000561130Y000463492D03*
X000561130Y000471366D03*
G75*
D357*
X000417311Y000164280D02*
X000574437Y000164280D01*
X000574627Y000164282D01*
X000574817Y000164289D01*
X000575007Y000164301D01*
X000575197Y000164317D01*
X000575386Y000164337D01*
X000575575Y000164363D01*
X000575763Y000164392D01*
X000575950Y000164427D01*
X000576136Y000164466D01*
X000576320Y000164509D01*
X000576506Y000164557D01*
X000576689Y000164609D01*
X000576870Y000164665D01*
X000577050Y000164726D01*
X000577229Y000164792D01*
X000577406Y000164861D01*
X000577582Y000164935D01*
X000577755Y000165013D01*
X000577927Y000165095D01*
X000578096Y000165181D01*
X000578264Y000165272D01*
X000578429Y000165367D01*
X000578592Y000165465D01*
X000578752Y000165568D01*
X000578910Y000165674D01*
X000579065Y000165784D01*
X000579218Y000165897D01*
X000579368Y000166015D01*
X000579514Y000166136D01*
X000579658Y000166260D01*
X000579799Y000166388D01*
X000579937Y000166519D01*
X000580072Y000166654D01*
X000580203Y000166792D01*
X000580331Y000166933D01*
X000580455Y000167077D01*
X000580576Y000167223D01*
X000580694Y000167373D01*
X000580806Y000167526D01*
X000580916Y000167681D01*
X000581023Y000167838D01*
X000581126Y000167999D01*
X000581224Y000168162D01*
X000581319Y000168327D01*
X000581409Y000168495D01*
X000581495Y000168664D01*
X000581578Y000168836D01*
X000581656Y000169009D01*
X000581730Y000169185D01*
X000581799Y000169362D01*
X000581864Y000169541D01*
X000581926Y000169721D01*
X000581981Y000169902D01*
X000582034Y000170085D01*
X000582082Y000170270D01*
X000582125Y000170455D01*
X000582164Y000170641D01*
X000582199Y000170828D01*
X000582228Y000171016D01*
X000582254Y000171205D01*
X000582274Y000171394D01*
X000582290Y000171584D01*
X000582301Y000171774D01*
X000582309Y000171963D01*
X000582311Y000172154D01*
X000582311Y000203650D01*
X000582309Y000203840D01*
X000582301Y000204029D01*
X000582290Y000204219D01*
X000582274Y000204409D01*
X000582254Y000204599D01*
X000582228Y000204788D01*
X000582199Y000204976D01*
X000582164Y000205162D01*
X000582125Y000205349D01*
X000582082Y000205534D01*
X000582034Y000205717D01*
X000581981Y000205900D01*
X000581926Y000206083D01*
X000581864Y000206263D01*
X000581799Y000206442D01*
X000581730Y000206619D01*
X000581656Y000206795D01*
X000581578Y000206968D01*
X000581495Y000207140D01*
X000581409Y000207309D01*
X000581319Y000207477D01*
X000581224Y000207642D01*
X000581126Y000207805D01*
X000581023Y000207965D01*
X000580916Y000208123D01*
X000580806Y000208278D01*
X000580694Y000208431D01*
X000580576Y000208581D01*
X000580455Y000208727D01*
X000580331Y000208869D01*
X000580203Y000209012D01*
X000580072Y000209150D01*
X000579937Y000209285D01*
X000579799Y000209416D01*
X000579658Y000209544D01*
X000579514Y000209668D01*
X000579368Y000209789D01*
X000579218Y000209907D01*
X000579065Y000210020D01*
X000578910Y000210130D01*
X000578752Y000210236D01*
X000578592Y000210339D01*
X000578429Y000210435D01*
X000578264Y000210532D01*
X000578096Y000210622D01*
X000577927Y000210707D01*
X000577755Y000210791D01*
X000577582Y000210869D01*
X000577406Y000210943D01*
X000577229Y000211012D01*
X000577050Y000211078D01*
X000576870Y000211139D01*
X000576689Y000211195D01*
X000576506Y000211247D01*
X000576320Y000211295D01*
X000576136Y000211337D01*
X000575950Y000211377D01*
X000575763Y000211412D01*
X000575575Y000211441D01*
X000575386Y000211466D01*
X000575197Y000211486D01*
X000575007Y000211503D01*
X000574817Y000211515D01*
X000574627Y000211522D01*
X000574437Y000211524D01*
X000417311Y000211524D01*
X000417171Y000211522D01*
X000417031Y000211516D01*
X000416891Y000211506D01*
X000416751Y000211493D01*
X000416612Y000211475D01*
X000416472Y000211452D01*
X000416336Y000211428D01*
X000416198Y000211398D01*
X000416062Y000211366D01*
X000415927Y000211329D01*
X000415793Y000211288D01*
X000415660Y000211242D01*
X000415528Y000211195D01*
X000415398Y000211143D01*
X000415269Y000211088D01*
X000415142Y000211029D01*
X000415015Y000210966D01*
X000414892Y000210900D01*
X000414771Y000210831D01*
X000414651Y000210758D01*
X000414533Y000210679D01*
X000414418Y000210602D01*
X000414304Y000210519D01*
X000414194Y000210433D01*
X000414085Y000210344D01*
X000413978Y000210252D01*
X000413876Y000210157D01*
X000413774Y000210060D01*
X000413678Y000209959D01*
X000413583Y000209856D01*
X000413490Y000209750D01*
X000413401Y000209641D01*
X000413316Y000209531D01*
X000413232Y000209417D01*
X000413154Y000209302D01*
X000413077Y000209184D01*
X000413004Y000209064D01*
X000412934Y000208943D01*
X000412869Y000208819D01*
X000412805Y000208693D01*
X000412747Y000208564D01*
X000412692Y000208436D01*
X000412640Y000208307D01*
X000412592Y000208175D01*
X000412547Y000208042D01*
X000412506Y000207907D01*
X000412469Y000207773D01*
X000412436Y000207636D01*
X000412406Y000207499D01*
X000412382Y000207362D01*
X000412360Y000207222D01*
X000412342Y000207084D01*
X000412329Y000206944D01*
X000412319Y000206804D01*
X000412313Y000206664D01*
X000412310Y000206524D01*
X000412310Y000169280D01*
X000412313Y000169140D01*
X000412319Y000169000D01*
X000412329Y000168860D01*
X000412342Y000168720D01*
X000412360Y000168581D01*
X000412382Y000168442D01*
X000412406Y000168305D01*
X000412436Y000168167D01*
X000412469Y000168031D01*
X000412506Y000167896D01*
X000412547Y000167762D01*
X000412592Y000167629D01*
X000412640Y000167497D01*
X000412692Y000167367D01*
X000412747Y000167238D01*
X000412805Y000167111D01*
X000412869Y000166985D01*
X000412934Y000166861D01*
X000413004Y000166740D01*
X000413077Y000166620D01*
X000413154Y000166501D01*
X000413232Y000166387D01*
X000413316Y000166273D01*
X000413401Y000166163D01*
X000413490Y000166054D01*
X000413583Y000165948D01*
X000413678Y000165845D01*
X000413774Y000165744D01*
X000413876Y000165647D01*
X000413978Y000165552D01*
X000414085Y000165460D01*
X000414194Y000165371D01*
X000414304Y000165285D01*
X000414418Y000165201D01*
X000414533Y000165123D01*
X000414651Y000165046D01*
X000414771Y000164973D01*
X000414892Y000164904D01*
X000415015Y000164838D01*
X000415142Y000164775D01*
X000415269Y000164716D01*
X000415398Y000164661D01*
X000415528Y000164609D01*
X000415660Y000164561D01*
X000415793Y000164516D01*
X000415927Y000164475D01*
X000416062Y000164438D01*
X000416198Y000164404D01*
X000416336Y000164376D01*
X000416472Y000164351D01*
X000416612Y000164329D01*
X000416751Y000164311D01*
X000416891Y000164298D01*
X000417031Y000164287D01*
X000417171Y000164282D01*
X000417311Y000164280D01*
D358*
X000416811Y000172902D03*
X000416811Y000197902D03*
D359*
X000563098Y000201682D03*
X000563098Y000174122D03*
D360*
X000561130Y000183965D03*
X000561130Y000191839D03*
G75*
D371*
X000417311Y000105224D02*
X000574437Y000105224D01*
X000574627Y000105227D01*
X000574817Y000105234D01*
X000575007Y000105246D01*
X000575197Y000105261D01*
X000575386Y000105282D01*
X000575575Y000105308D01*
X000575763Y000105336D01*
X000575950Y000105372D01*
X000576136Y000105411D01*
X000576320Y000105454D01*
X000576506Y000105502D01*
X000576689Y000105553D01*
X000576870Y000105610D01*
X000577050Y000105671D01*
X000577229Y000105736D01*
X000577406Y000105806D01*
X000577582Y000105880D01*
X000577755Y000105958D01*
X000577927Y000106041D01*
X000578096Y000106127D01*
X000578264Y000106217D01*
X000578429Y000106312D01*
X000578592Y000106410D01*
X000578752Y000106512D01*
X000578910Y000106619D01*
X000579065Y000106729D01*
X000579218Y000106841D01*
X000579368Y000106960D01*
X000579514Y000107081D01*
X000579658Y000107205D01*
X000579799Y000107332D01*
X000579937Y000107464D01*
X000580072Y000107599D01*
X000580203Y000107737D01*
X000580331Y000107878D01*
X000580455Y000108022D01*
X000580576Y000108168D01*
X000580694Y000108318D01*
X000580806Y000108471D01*
X000580916Y000108626D01*
X000581023Y000108783D01*
X000581126Y000108944D01*
X000581224Y000109107D01*
X000581319Y000109271D01*
X000581409Y000109440D01*
X000581495Y000109609D01*
X000581578Y000109781D01*
X000581656Y000109954D01*
X000581730Y000110130D01*
X000581799Y000110307D01*
X000581864Y000110486D01*
X000581926Y000110666D01*
X000581981Y000110847D01*
X000582034Y000111030D01*
X000582082Y000111215D01*
X000582125Y000111400D01*
X000582164Y000111586D01*
X000582199Y000111772D01*
X000582228Y000111961D01*
X000582254Y000112150D01*
X000582274Y000112339D01*
X000582290Y000112528D01*
X000582301Y000112718D01*
X000582309Y000112908D01*
X000582311Y000113099D01*
X000582311Y000144595D01*
X000582309Y000144785D01*
X000582301Y000144975D01*
X000582290Y000145165D01*
X000582274Y000145355D01*
X000582254Y000145544D01*
X000582228Y000145733D01*
X000582199Y000145921D01*
X000582164Y000146108D01*
X000582125Y000146293D01*
X000582082Y000146479D01*
X000582034Y000146664D01*
X000581981Y000146847D01*
X000581926Y000147028D01*
X000581864Y000147207D01*
X000581799Y000147387D01*
X000581730Y000147564D01*
X000581656Y000147740D01*
X000581578Y000147913D01*
X000581495Y000148084D01*
X000581409Y000148254D01*
X000581319Y000148422D01*
X000581224Y000148587D01*
X000581126Y000148750D01*
X000581023Y000148910D01*
X000580916Y000149067D01*
X000580806Y000149222D01*
X000580694Y000149376D01*
X000580576Y000149526D01*
X000580455Y000149672D01*
X000580331Y000149816D01*
X000580203Y000149957D01*
X000580072Y000150095D01*
X000579937Y000150230D01*
X000579799Y000150361D01*
X000579658Y000150489D01*
X000579514Y000150613D01*
X000579368Y000150734D01*
X000579218Y000150852D01*
X000579065Y000150965D01*
X000578910Y000151075D01*
X000578752Y000151181D01*
X000578592Y000151284D01*
X000578429Y000151382D01*
X000578264Y000151476D01*
X000578096Y000151567D01*
X000577927Y000151653D01*
X000577755Y000151736D01*
X000577582Y000151814D01*
X000577406Y000151888D01*
X000577229Y000151957D01*
X000577050Y000152023D01*
X000576870Y000152084D01*
X000576689Y000152140D01*
X000576506Y000152192D01*
X000576320Y000152240D01*
X000576136Y000152282D01*
X000575950Y000152322D01*
X000575763Y000152357D01*
X000575575Y000152386D01*
X000575386Y000152412D01*
X000575197Y000152432D01*
X000575007Y000152448D01*
X000574817Y000152459D01*
X000574627Y000152467D01*
X000574437Y000152469D01*
X000417311Y000152469D01*
X000417171Y000152467D01*
X000417031Y000152461D01*
X000416891Y000152450D01*
X000416751Y000152438D01*
X000416612Y000152420D01*
X000416472Y000152398D01*
X000416336Y000152373D01*
X000416198Y000152344D01*
X000416062Y000152311D01*
X000415927Y000152273D01*
X000415793Y000152233D01*
X000415660Y000152188D01*
X000415528Y000152140D01*
X000415398Y000152087D01*
X000415269Y000152033D01*
X000415142Y000151974D01*
X000415015Y000151910D01*
X000414892Y000151845D01*
X000414771Y000151776D01*
X000414651Y000151703D01*
X000414533Y000151626D01*
X000414418Y000151547D01*
X000414304Y000151464D01*
X000414194Y000151378D01*
X000414085Y000151289D01*
X000413978Y000151197D01*
X000413876Y000151102D01*
X000413774Y000151005D01*
X000413678Y000150904D01*
X000413583Y000150801D01*
X000413490Y000150695D01*
X000413401Y000150586D01*
X000413316Y000150476D01*
X000413232Y000150362D01*
X000413154Y000150247D01*
X000413077Y000150129D01*
X000413004Y000150009D01*
X000412934Y000149888D01*
X000412869Y000149764D01*
X000412805Y000149638D01*
X000412747Y000149510D01*
X000412692Y000149382D01*
X000412640Y000149252D01*
X000412592Y000149120D01*
X000412547Y000148987D01*
X000412506Y000148853D01*
X000412469Y000148718D01*
X000412436Y000148582D01*
X000412406Y000148444D01*
X000412382Y000148307D01*
X000412360Y000148168D01*
X000412342Y000148029D01*
X000412329Y000147889D01*
X000412319Y000147749D01*
X000412313Y000147608D01*
X000412310Y000147469D01*
X000412310Y000110225D01*
X000412313Y000110085D01*
X000412319Y000109945D01*
X000412329Y000109805D01*
X000412342Y000109664D01*
X000412360Y000109525D01*
X000412382Y000109386D01*
X000412406Y000109250D01*
X000412436Y000109112D01*
X000412469Y000108976D01*
X000412506Y000108841D01*
X000412547Y000108707D01*
X000412592Y000108574D01*
X000412640Y000108442D01*
X000412692Y000108312D01*
X000412747Y000108183D01*
X000412805Y000108056D01*
X000412869Y000107929D01*
X000412934Y000107806D01*
X000413004Y000107685D01*
X000413077Y000107565D01*
X000413154Y000107447D01*
X000413232Y000107332D01*
X000413316Y000107217D01*
X000413401Y000107108D01*
X000413490Y000106999D01*
X000413583Y000106893D01*
X000413678Y000106790D01*
X000413774Y000106688D01*
X000413876Y000106592D01*
X000413978Y000106497D01*
X000414085Y000106405D01*
X000414194Y000106316D01*
X000414304Y000106230D01*
X000414418Y000106146D01*
X000414533Y000106068D01*
X000414651Y000105990D01*
X000414771Y000105918D01*
X000414892Y000105849D01*
X000415015Y000105783D01*
X000415142Y000105719D01*
X000415269Y000105661D01*
X000415398Y000105606D01*
X000415528Y000105553D01*
X000415660Y000105506D01*
X000415793Y000105461D01*
X000415927Y000105420D01*
X000416062Y000105383D01*
X000416198Y000105350D01*
X000416336Y000105321D01*
X000416472Y000105295D01*
X000416612Y000105274D01*
X000416751Y000105256D01*
X000416891Y000105243D01*
X000417031Y000105233D01*
X000417171Y000105227D01*
X000417311Y000105224D01*
D372*
X000416811Y000113847D03*
X000416811Y000138847D03*
D373*
X000563098Y000142627D03*
X000563098Y000115067D03*
D374*
X000561130Y000124910D03*
X000561130Y000132784D03*
G04 next file*
G75*
D385*
X000417311Y000554042D02*
X000574437Y000554042D01*
X000574627Y000554046D01*
X000574817Y000554053D01*
X000575007Y000554065D01*
X000575197Y000554081D01*
X000575386Y000554101D01*
X000575575Y000554127D01*
X000575763Y000554156D01*
X000575950Y000554191D01*
X000576136Y000554230D01*
X000576320Y000554273D01*
X000576506Y000554319D01*
X000576689Y000554373D01*
X000576870Y000554429D01*
X000577050Y000554490D01*
X000577229Y000554556D01*
X000577406Y000554625D01*
X000577582Y000554699D01*
X000577755Y000554777D01*
X000577927Y000554860D01*
X000578096Y000554946D01*
X000578264Y000555036D01*
X000578429Y000555131D01*
X000578592Y000555229D01*
X000578752Y000555332D01*
X000578910Y000555438D01*
X000579065Y000555548D01*
X000579218Y000555661D01*
X000579368Y000555778D01*
X000579514Y000555900D01*
X000579658Y000556024D01*
X000579799Y000556152D01*
X000579937Y000556282D01*
X000580072Y000556418D01*
X000580203Y000556556D01*
X000580331Y000556697D01*
X000580455Y000556841D01*
X000580576Y000556987D01*
X000580694Y000557137D01*
X000580806Y000557290D01*
X000580916Y000557445D01*
X000581023Y000557603D01*
X000581126Y000557763D01*
X000581224Y000557926D01*
X000581319Y000558091D01*
X000581409Y000558259D01*
X000581495Y000558428D01*
X000581578Y000558600D01*
X000581656Y000558773D01*
X000581730Y000558949D01*
X000581799Y000559126D01*
X000581864Y000559305D01*
X000581926Y000559485D01*
X000581981Y000559666D01*
X000582034Y000559849D01*
X000582082Y000560034D01*
X000582125Y000560219D01*
X000582164Y000560405D01*
X000582199Y000560592D01*
X000582228Y000560780D01*
X000582254Y000560969D01*
X000582274Y000561158D01*
X000582290Y000561348D01*
X000582301Y000561538D01*
X000582309Y000561728D01*
X000582311Y000561918D01*
X000582311Y000593414D01*
X000582309Y000593604D01*
X000582301Y000593794D01*
X000582290Y000593984D01*
X000582274Y000594174D01*
X000582254Y000594363D01*
X000582228Y000594552D01*
X000582199Y000594739D01*
X000582164Y000594927D01*
X000582125Y000595113D01*
X000582082Y000595298D01*
X000582034Y000595483D01*
X000581981Y000595666D01*
X000581926Y000595847D01*
X000581864Y000596027D01*
X000581799Y000596206D01*
X000581730Y000596383D01*
X000581656Y000596559D01*
X000581578Y000596732D01*
X000581495Y000596904D01*
X000581409Y000597073D01*
X000581319Y000597241D01*
X000581224Y000597406D01*
X000581126Y000597569D01*
X000581023Y000597729D01*
X000580916Y000597887D01*
X000580806Y000598042D01*
X000580694Y000598195D01*
X000580576Y000598345D01*
X000580455Y000598491D01*
X000580331Y000598634D01*
X000580203Y000598776D01*
X000580072Y000598914D01*
X000579937Y000599049D01*
X000579799Y000599180D01*
X000579658Y000599308D01*
X000579514Y000599432D01*
X000579368Y000599553D01*
X000579218Y000599671D01*
X000579065Y000599784D01*
X000578910Y000599894D01*
X000578752Y000599999D01*
X000578592Y000600103D01*
X000578429Y000600201D01*
X000578264Y000600296D01*
X000578096Y000600386D01*
X000577927Y000600472D01*
X000577755Y000600555D01*
X000577582Y000600633D01*
X000577406Y000600706D01*
X000577229Y000600776D01*
X000577050Y000600842D01*
X000576870Y000600903D01*
X000576689Y000600959D01*
X000576506Y000601011D01*
X000576320Y000601059D01*
X000576136Y000601102D01*
X000575950Y000601141D01*
X000575763Y000601176D01*
X000575575Y000601205D01*
X000575386Y000601231D01*
X000575197Y000601251D01*
X000575007Y000601267D01*
X000574817Y000601279D01*
X000574627Y000601286D01*
X000574437Y000601288D01*
X000417311Y000601288D01*
X000417171Y000601286D01*
X000417031Y000601280D01*
X000416891Y000601270D01*
X000416751Y000601257D01*
X000416612Y000601239D01*
X000416472Y000601217D01*
X000416336Y000601192D01*
X000416198Y000601163D01*
X000416062Y000601130D01*
X000415927Y000601093D01*
X000415793Y000601052D01*
X000415660Y000601007D01*
X000415528Y000600959D01*
X000415398Y000600907D01*
X000415269Y000600852D01*
X000415142Y000600793D01*
X000415015Y000600730D01*
X000414892Y000600664D01*
X000414771Y000600595D01*
X000414651Y000600522D01*
X000414533Y000600443D01*
X000414418Y000600366D01*
X000414304Y000600283D01*
X000414194Y000600196D01*
X000414085Y000600108D01*
X000413978Y000600016D01*
X000413876Y000599921D01*
X000413774Y000599824D01*
X000413678Y000599723D01*
X000413583Y000599619D01*
X000413490Y000599514D01*
X000413401Y000599405D01*
X000413316Y000599295D01*
X000413232Y000599181D01*
X000413154Y000599064D01*
X000413077Y000598948D01*
X000413004Y000598828D01*
X000412934Y000598707D01*
X000412869Y000598583D01*
X000412805Y000598457D01*
X000412747Y000598330D01*
X000412692Y000598201D01*
X000412640Y000598071D01*
X000412592Y000597939D01*
X000412547Y000597806D01*
X000412506Y000597672D01*
X000412469Y000597537D01*
X000412436Y000597401D01*
X000412406Y000597263D01*
X000412382Y000597126D01*
X000412360Y000596986D01*
X000412342Y000596848D01*
X000412329Y000596708D01*
X000412319Y000596568D01*
X000412313Y000596428D01*
X000412310Y000596288D01*
X000412310Y000559044D01*
X000412313Y000558904D01*
X000412319Y000558764D01*
X000412329Y000558624D01*
X000412342Y000558484D01*
X000412360Y000558345D01*
X000412382Y000558206D01*
X000412406Y000558069D01*
X000412436Y000557931D01*
X000412469Y000557795D01*
X000412506Y000557660D01*
X000412547Y000557526D01*
X000412592Y000557393D01*
X000412640Y000557261D01*
X000412692Y000557131D01*
X000412747Y000557002D01*
X000412805Y000556875D01*
X000412869Y000556749D01*
X000412934Y000556625D01*
X000413004Y000556504D01*
X000413077Y000556384D01*
X000413154Y000556266D01*
X000413232Y000556151D01*
X000413316Y000556037D01*
X000413401Y000555927D01*
X000413490Y000555818D01*
X000413583Y000555712D01*
X000413678Y000555609D01*
X000413774Y000555508D01*
X000413876Y000555411D01*
X000413978Y000555316D01*
X000414085Y000555224D01*
X000414194Y000555135D01*
X000414304Y000555049D01*
X000414418Y000554966D01*
X000414533Y000554887D01*
X000414651Y000554810D01*
X000414771Y000554737D01*
X000414892Y000554668D01*
X000415015Y000554602D01*
X000415142Y000554539D01*
X000415269Y000554480D01*
X000415398Y000554425D01*
X000415528Y000554373D01*
X000415660Y000554325D01*
X000415793Y000554280D01*
X000415927Y000554239D01*
X000416062Y000554202D01*
X000416198Y000554169D01*
X000416336Y000554140D01*
X000416472Y000554115D01*
X000416612Y000554093D01*
X000416751Y000554075D01*
X000416891Y000554062D01*
X000417031Y000554052D01*
X000417171Y000554046D01*
X000417311Y000554042D01*
D386*
X000416811Y000562664D03*
X000416811Y000587666D03*
D387*
X000563098Y000591446D03*
X000563098Y000563886D03*
D388*
X000561130Y000573729D03*
X000561130Y000581603D03*
G75*
D399*
X000417311Y000278453D02*
X000574437Y000278453D01*
X000574627Y000278454D01*
X000574817Y000278462D01*
X000575007Y000278474D01*
X000575197Y000278490D01*
X000575386Y000278510D01*
X000575575Y000278536D01*
X000575763Y000278565D01*
X000575950Y000278600D01*
X000576136Y000278639D01*
X000576320Y000278682D01*
X000576506Y000278730D01*
X000576689Y000278782D01*
X000576870Y000278838D01*
X000577050Y000278899D01*
X000577229Y000278965D01*
X000577406Y000279034D01*
X000577582Y000279107D01*
X000577755Y000279186D01*
X000577927Y000279269D01*
X000578096Y000279355D01*
X000578264Y000279445D01*
X000578429Y000279540D01*
X000578592Y000279638D01*
X000578752Y000279741D01*
X000578910Y000279847D01*
X000579065Y000279957D01*
X000579218Y000280070D01*
X000579368Y000280187D01*
X000579514Y000280309D01*
X000579658Y000280433D01*
X000579799Y000280561D01*
X000579937Y000280692D01*
X000580072Y000280827D01*
X000580203Y000280965D01*
X000580331Y000281106D01*
X000580455Y000281250D01*
X000580576Y000281396D01*
X000580694Y000281546D01*
X000580806Y000281699D01*
X000580916Y000281854D01*
X000581023Y000282012D01*
X000581126Y000282172D01*
X000581224Y000282335D01*
X000581319Y000282500D01*
X000581409Y000282667D01*
X000581495Y000282837D01*
X000581578Y000283009D01*
X000581656Y000283181D01*
X000581730Y000283358D01*
X000581799Y000283535D01*
X000581864Y000283714D01*
X000581926Y000283894D01*
X000581981Y000284075D01*
X000582034Y000284257D01*
X000582082Y000284443D01*
X000582125Y000284628D01*
X000582164Y000284814D01*
X000582199Y000285001D01*
X000582228Y000285189D01*
X000582254Y000285378D01*
X000582274Y000285567D01*
X000582290Y000285756D01*
X000582301Y000285947D01*
X000582309Y000286137D01*
X000582311Y000286327D01*
X000582311Y000317823D01*
X000582309Y000318013D01*
X000582301Y000318203D01*
X000582290Y000318393D01*
X000582274Y000318583D01*
X000582254Y000318772D01*
X000582228Y000318961D01*
X000582199Y000319149D01*
X000582164Y000319336D01*
X000582125Y000319522D01*
X000582082Y000319707D01*
X000582034Y000319892D01*
X000581981Y000320075D01*
X000581926Y000320256D01*
X000581864Y000320436D01*
X000581799Y000320615D01*
X000581730Y000320792D01*
X000581656Y000320968D01*
X000581578Y000321141D01*
X000581495Y000321313D01*
X000581409Y000321482D01*
X000581319Y000321649D01*
X000581224Y000321815D01*
X000581126Y000321978D01*
X000581023Y000322138D01*
X000580916Y000322295D01*
X000580806Y000322451D01*
X000580694Y000322604D01*
X000580576Y000322754D01*
X000580455Y000322900D01*
X000580331Y000323044D01*
X000580203Y000323185D01*
X000580072Y000323323D01*
X000579937Y000323458D01*
X000579799Y000323589D01*
X000579658Y000323717D01*
X000579514Y000323841D01*
X000579368Y000323962D01*
X000579218Y000324080D01*
X000579065Y000324193D01*
X000578910Y000324303D01*
X000578752Y000324409D01*
X000578592Y000324512D01*
X000578429Y000324610D01*
X000578264Y000324705D01*
X000578096Y000324795D01*
X000577927Y000324881D01*
X000577755Y000324964D01*
X000577582Y000325042D01*
X000577406Y000325116D01*
X000577229Y000325185D01*
X000577050Y000325251D01*
X000576870Y000325311D01*
X000576689Y000325368D01*
X000576506Y000325420D01*
X000576320Y000325468D01*
X000576136Y000325511D01*
X000575950Y000325550D01*
X000575763Y000325585D01*
X000575575Y000325614D01*
X000575386Y000325640D01*
X000575197Y000325660D01*
X000575007Y000325676D01*
X000574817Y000325688D01*
X000574627Y000325695D01*
X000574437Y000325697D01*
X000417311Y000325697D01*
X000417171Y000325695D01*
X000417031Y000325689D01*
X000416891Y000325679D01*
X000416751Y000325665D01*
X000416612Y000325648D01*
X000416472Y000325626D01*
X000416336Y000325601D01*
X000416198Y000325572D01*
X000416062Y000325539D01*
X000415927Y000325501D01*
X000415793Y000325461D01*
X000415660Y000325416D01*
X000415528Y000325368D01*
X000415398Y000325316D01*
X000415269Y000325261D01*
X000415142Y000325202D01*
X000415015Y000325139D01*
X000414892Y000325073D01*
X000414771Y000325004D01*
X000414651Y000324931D01*
X000414533Y000324854D01*
X000414418Y000324775D01*
X000414304Y000324692D01*
X000414194Y000324606D01*
X000414085Y000324517D01*
X000413978Y000324425D01*
X000413876Y000324330D01*
X000413774Y000324233D01*
X000413678Y000324132D01*
X000413583Y000324029D01*
X000413490Y000323923D01*
X000413401Y000323814D01*
X000413316Y000323704D01*
X000413232Y000323590D01*
X000413154Y000323475D01*
X000413077Y000323356D01*
X000413004Y000323237D01*
X000412934Y000323116D01*
X000412869Y000322992D01*
X000412805Y000322866D01*
X000412747Y000322739D01*
X000412692Y000322610D01*
X000412640Y000322480D01*
X000412592Y000322348D01*
X000412547Y000322215D01*
X000412506Y000322081D01*
X000412469Y000321946D01*
X000412436Y000321810D01*
X000412406Y000321671D01*
X000412382Y000321535D01*
X000412360Y000321396D01*
X000412342Y000321257D01*
X000412329Y000321117D01*
X000412319Y000320977D01*
X000412313Y000320837D01*
X000412310Y000320697D01*
X000412310Y000283453D01*
X000412313Y000283313D01*
X000412319Y000283173D01*
X000412329Y000283033D01*
X000412342Y000282893D01*
X000412360Y000282754D01*
X000412382Y000282615D01*
X000412406Y000282478D01*
X000412436Y000282340D01*
X000412469Y000282204D01*
X000412506Y000282069D01*
X000412547Y000281935D01*
X000412592Y000281802D01*
X000412640Y000281670D01*
X000412692Y000281540D01*
X000412747Y000281411D01*
X000412805Y000281284D01*
X000412869Y000281158D01*
X000412934Y000281033D01*
X000413004Y000280913D01*
X000413077Y000280793D01*
X000413154Y000280675D01*
X000413232Y000280559D01*
X000413316Y000280446D01*
X000413401Y000280336D01*
X000413490Y000280227D01*
X000413583Y000280121D01*
X000413678Y000280018D01*
X000413774Y000279917D01*
X000413876Y000279820D01*
X000413978Y000279725D01*
X000414085Y000279633D01*
X000414194Y000279544D01*
X000414304Y000279457D01*
X000414418Y000279375D01*
X000414533Y000279296D01*
X000414651Y000279219D01*
X000414771Y000279146D01*
X000414892Y000279077D01*
X000415015Y000279011D01*
X000415142Y000278948D01*
X000415269Y000278888D01*
X000415398Y000278834D01*
X000415528Y000278782D01*
X000415660Y000278734D01*
X000415793Y000278689D01*
X000415927Y000278648D01*
X000416062Y000278611D01*
X000416198Y000278578D01*
X000416336Y000278549D01*
X000416472Y000278524D01*
X000416612Y000278502D01*
X000416751Y000278484D01*
X000416891Y000278471D01*
X000417031Y000278461D01*
X000417171Y000278454D01*
X000417311Y000278453D01*
D400*
X000416811Y000287075D03*
X000416811Y000312075D03*
D401*
X000563098Y000315855D03*
X000563098Y000288295D03*
D402*
X000561130Y000298138D03*
X000561130Y000306012D03*
G04 next file*
G75*
D413*
X000417311Y000223335D02*
X000574437Y000223335D01*
X000574627Y000223337D01*
X000574817Y000223344D01*
X000575007Y000223356D01*
X000575197Y000223372D01*
X000575386Y000223392D01*
X000575575Y000223417D01*
X000575763Y000223447D01*
X000575950Y000223482D01*
X000576136Y000223521D01*
X000576320Y000223564D01*
X000576506Y000223612D01*
X000576689Y000223664D01*
X000576870Y000223720D01*
X000577050Y000223781D01*
X000577229Y000223847D01*
X000577406Y000223916D01*
X000577582Y000223990D01*
X000577755Y000224067D01*
X000577927Y000224151D01*
X000578096Y000224237D01*
X000578264Y000224327D01*
X000578429Y000224422D01*
X000578592Y000224520D01*
X000578752Y000224623D01*
X000578910Y000224729D01*
X000579065Y000224839D01*
X000579218Y000224952D01*
X000579368Y000225070D01*
X000579514Y000225191D01*
X000579658Y000225315D01*
X000579799Y000225443D01*
X000579937Y000225574D01*
X000580072Y000225708D01*
X000580203Y000225847D01*
X000580331Y000225988D01*
X000580455Y000226132D01*
X000580576Y000226277D01*
X000580694Y000226426D01*
X000580806Y000226581D01*
X000580916Y000226736D01*
X000581023Y000226894D01*
X000581126Y000227054D01*
X000581224Y000227217D01*
X000581319Y000227382D01*
X000581409Y000227550D01*
X000581495Y000227719D01*
X000581578Y000227891D01*
X000581656Y000228064D01*
X000581730Y000228240D01*
X000581799Y000228417D01*
X000581864Y000228596D01*
X000581926Y000228776D01*
X000581981Y000228957D01*
X000582034Y000229140D01*
X000582082Y000229325D01*
X000582125Y000229510D01*
X000582164Y000229696D01*
X000582199Y000229883D01*
X000582228Y000230071D01*
X000582254Y000230260D01*
X000582274Y000230449D01*
X000582290Y000230639D01*
X000582301Y000230829D01*
X000582309Y000231019D01*
X000582311Y000231209D01*
X000582311Y000262705D01*
X000582309Y000262895D01*
X000582301Y000263085D01*
X000582290Y000263275D01*
X000582274Y000263465D01*
X000582254Y000263654D01*
X000582228Y000263843D01*
X000582199Y000264031D01*
X000582164Y000264218D01*
X000582125Y000264404D01*
X000582082Y000264589D01*
X000582034Y000264774D01*
X000581981Y000264957D01*
X000581926Y000265138D01*
X000581864Y000265318D01*
X000581799Y000265497D01*
X000581730Y000265674D01*
X000581656Y000265850D01*
X000581578Y000266023D01*
X000581495Y000266195D01*
X000581409Y000266364D01*
X000581319Y000266531D01*
X000581224Y000266697D01*
X000581126Y000266860D01*
X000581023Y000267020D01*
X000580916Y000267178D01*
X000580806Y000267333D01*
X000580694Y000267486D01*
X000580576Y000267636D01*
X000580455Y000267782D01*
X000580331Y000267926D01*
X000580203Y000268067D01*
X000580072Y000268205D01*
X000579937Y000268340D01*
X000579799Y000268471D01*
X000579658Y000268599D01*
X000579514Y000268723D01*
X000579368Y000268844D01*
X000579218Y000268962D01*
X000579065Y000269075D01*
X000578910Y000269185D01*
X000578752Y000269291D01*
X000578592Y000269394D01*
X000578429Y000269492D01*
X000578264Y000269587D01*
X000578096Y000269677D01*
X000577927Y000269763D01*
X000577755Y000269846D01*
X000577582Y000269924D01*
X000577406Y000269998D01*
X000577229Y000270067D01*
X000577050Y000270133D01*
X000576870Y000270193D01*
X000576689Y000270250D01*
X000576506Y000270302D01*
X000576320Y000270350D01*
X000576136Y000270393D01*
X000575950Y000270432D01*
X000575763Y000270467D01*
X000575575Y000270496D01*
X000575386Y000270522D01*
X000575197Y000270542D01*
X000575007Y000270558D01*
X000574817Y000270570D01*
X000574627Y000270577D01*
X000574437Y000270579D01*
X000417311Y000270579D01*
X000417171Y000270577D01*
X000417031Y000270571D01*
X000416891Y000270561D01*
X000416751Y000270547D01*
X000416612Y000270530D01*
X000416472Y000270507D01*
X000416336Y000270483D01*
X000416198Y000270454D01*
X000416062Y000270421D01*
X000415927Y000270384D01*
X000415793Y000270343D01*
X000415660Y000270298D01*
X000415528Y000270250D01*
X000415398Y000270198D01*
X000415269Y000270143D01*
X000415142Y000270084D01*
X000415015Y000270021D01*
X000414892Y000269955D01*
X000414771Y000269886D01*
X000414651Y000269813D01*
X000414533Y000269736D01*
X000414418Y000269657D01*
X000414304Y000269574D01*
X000414194Y000269488D01*
X000414085Y000269399D01*
X000413978Y000269307D01*
X000413876Y000269212D01*
X000413774Y000269115D01*
X000413678Y000269014D01*
X000413583Y000268911D01*
X000413490Y000268805D01*
X000413401Y000268696D01*
X000413316Y000268586D01*
X000413232Y000268472D01*
X000413154Y000268357D01*
X000413077Y000268239D01*
X000413004Y000268119D01*
X000412934Y000267998D01*
X000412869Y000267873D01*
X000412805Y000267748D01*
X000412747Y000267621D01*
X000412692Y000267492D01*
X000412640Y000267362D01*
X000412592Y000267230D01*
X000412547Y000267097D01*
X000412506Y000266963D01*
X000412469Y000266828D01*
X000412436Y000266692D01*
X000412406Y000266553D01*
X000412382Y000266417D01*
X000412360Y000266278D01*
X000412342Y000266139D01*
X000412329Y000265999D01*
X000412319Y000265859D01*
X000412313Y000265719D01*
X000412310Y000265579D01*
X000412310Y000228335D01*
X000412313Y000228195D01*
X000412319Y000228055D01*
X000412329Y000227915D01*
X000412342Y000227775D01*
X000412360Y000227636D01*
X000412382Y000227497D01*
X000412406Y000227360D01*
X000412436Y000227222D01*
X000412469Y000227086D01*
X000412506Y000226951D01*
X000412547Y000226817D01*
X000412592Y000226684D01*
X000412640Y000226552D01*
X000412692Y000226422D01*
X000412747Y000226293D01*
X000412805Y000226166D01*
X000412869Y000226040D01*
X000412934Y000225916D01*
X000413004Y000225795D01*
X000413077Y000225674D01*
X000413154Y000225557D01*
X000413232Y000225442D01*
X000413316Y000225328D01*
X000413401Y000225218D01*
X000413490Y000225109D01*
X000413583Y000225003D01*
X000413678Y000224900D01*
X000413774Y000224799D01*
X000413876Y000224702D01*
X000413978Y000224607D01*
X000414085Y000224515D01*
X000414194Y000224426D01*
X000414304Y000224339D01*
X000414418Y000224257D01*
X000414533Y000224178D01*
X000414651Y000224101D01*
X000414771Y000224027D01*
X000414892Y000223959D01*
X000415015Y000223893D01*
X000415142Y000223830D01*
X000415269Y000223771D01*
X000415398Y000223715D01*
X000415528Y000223664D01*
X000415660Y000223616D01*
X000415793Y000223571D01*
X000415927Y000223530D01*
X000416062Y000223493D01*
X000416198Y000223460D01*
X000416336Y000223430D01*
X000416472Y000223406D01*
X000416612Y000223383D01*
X000416751Y000223366D01*
X000416891Y000223353D01*
X000417031Y000223342D01*
X000417171Y000223337D01*
X000417311Y000223335D01*
D414*
X000416811Y000231957D03*
X000416811Y000256957D03*
D415*
X000563098Y000260737D03*
X000563098Y000233177D03*
D416*
X000561130Y000243020D03*
X000561130Y000250894D03*
G04 next file*
G75*
D427*
X000417311Y000498925D02*
X000574437Y000498925D01*
X000574627Y000498927D01*
X000574817Y000498934D01*
X000575007Y000498946D01*
X000575197Y000498962D01*
X000575386Y000498982D01*
X000575575Y000499008D01*
X000575763Y000499037D01*
X000575950Y000499071D01*
X000576136Y000499111D01*
X000576320Y000499153D01*
X000576506Y000499202D01*
X000576689Y000499254D01*
X000576870Y000499310D01*
X000577050Y000499371D01*
X000577229Y000499437D01*
X000577406Y000499505D01*
X000577582Y000499580D01*
X000577755Y000499658D01*
X000577927Y000499741D01*
X000578096Y000499827D01*
X000578264Y000499917D01*
X000578429Y000500012D01*
X000578592Y000500110D01*
X000578752Y000500213D01*
X000578910Y000500319D01*
X000579065Y000500429D01*
X000579218Y000500542D01*
X000579368Y000500660D01*
X000579514Y000500781D01*
X000579658Y000500905D01*
X000579799Y000501033D01*
X000579937Y000501164D01*
X000580072Y000501299D01*
X000580203Y000501437D01*
X000580331Y000501578D01*
X000580455Y000501722D01*
X000580576Y000501868D01*
X000580694Y000502018D01*
X000580806Y000502170D01*
X000580916Y000502325D01*
X000581023Y000502484D01*
X000581126Y000502644D01*
X000581224Y000502806D01*
X000581319Y000502972D01*
X000581409Y000503139D01*
X000581495Y000503308D01*
X000581578Y000503481D01*
X000581656Y000503653D01*
X000581730Y000503829D01*
X000581799Y000504007D01*
X000581864Y000504186D01*
X000581926Y000504366D01*
X000581981Y000504547D01*
X000582034Y000504730D01*
X000582082Y000504915D01*
X000582125Y000505100D01*
X000582164Y000505285D01*
X000582199Y000505473D01*
X000582228Y000505661D01*
X000582254Y000505850D01*
X000582274Y000506039D01*
X000582290Y000506229D01*
X000582301Y000506419D01*
X000582309Y000506609D01*
X000582311Y000506799D01*
X000582311Y000538293D01*
X000582309Y000538485D01*
X000582301Y000538675D01*
X000582290Y000538865D01*
X000582274Y000539055D01*
X000582254Y000539244D01*
X000582228Y000539433D01*
X000582199Y000539621D01*
X000582164Y000539808D01*
X000582125Y000539993D01*
X000582082Y000540179D01*
X000582034Y000540364D01*
X000581981Y000540547D01*
X000581926Y000540728D01*
X000581864Y000540908D01*
X000581799Y000541087D01*
X000581730Y000541264D01*
X000581656Y000541440D01*
X000581578Y000541612D01*
X000581495Y000541785D01*
X000581409Y000541954D01*
X000581319Y000542122D01*
X000581224Y000542287D01*
X000581126Y000542450D01*
X000581023Y000542610D01*
X000580916Y000542768D01*
X000580806Y000542923D01*
X000580694Y000543076D01*
X000580576Y000543226D01*
X000580455Y000543370D01*
X000580331Y000543516D01*
X000580203Y000543657D01*
X000580072Y000543795D01*
X000579937Y000543930D01*
X000579799Y000544061D01*
X000579658Y000544189D01*
X000579514Y000544313D01*
X000579368Y000544434D01*
X000579218Y000544552D01*
X000579065Y000544665D01*
X000578910Y000544775D01*
X000578752Y000544881D01*
X000578592Y000544983D01*
X000578429Y000545082D01*
X000578264Y000545177D01*
X000578096Y000545267D01*
X000577927Y000545353D01*
X000577755Y000545436D01*
X000577582Y000545514D01*
X000577406Y000545588D01*
X000577229Y000545657D01*
X000577050Y000545723D01*
X000576870Y000545784D01*
X000576689Y000545840D01*
X000576506Y000545892D01*
X000576320Y000545940D01*
X000576136Y000545982D01*
X000575950Y000546022D01*
X000575763Y000546057D01*
X000575575Y000546086D01*
X000575386Y000546112D01*
X000575197Y000546132D01*
X000575007Y000546148D01*
X000574817Y000546160D01*
X000574627Y000546167D01*
X000574437Y000546169D01*
X000417311Y000546169D01*
X000417171Y000546167D01*
X000417031Y000546161D01*
X000416891Y000546151D01*
X000416751Y000546138D01*
X000416612Y000546120D01*
X000416472Y000546098D01*
X000416336Y000546073D01*
X000416198Y000546044D01*
X000416062Y000546011D01*
X000415927Y000545974D01*
X000415793Y000545933D01*
X000415660Y000545887D01*
X000415528Y000545840D01*
X000415398Y000545788D01*
X000415269Y000545733D01*
X000415142Y000545674D01*
X000415015Y000545610D01*
X000414892Y000545544D01*
X000414771Y000545476D01*
X000414651Y000545403D01*
X000414533Y000545326D01*
X000414418Y000545247D01*
X000414304Y000545164D01*
X000414194Y000545078D01*
X000414085Y000544989D01*
X000413978Y000544897D01*
X000413876Y000544802D01*
X000413774Y000544705D01*
X000413678Y000544603D01*
X000413583Y000544501D01*
X000413490Y000544395D01*
X000413401Y000544286D01*
X000413316Y000544176D01*
X000413232Y000544062D01*
X000413154Y000543947D01*
X000413077Y000543829D01*
X000413004Y000543709D01*
X000412934Y000543588D01*
X000412869Y000543464D01*
X000412805Y000543338D01*
X000412747Y000543210D01*
X000412692Y000543082D01*
X000412640Y000542952D01*
X000412592Y000542820D01*
X000412547Y000542687D01*
X000412506Y000542553D01*
X000412469Y000542418D01*
X000412436Y000542282D01*
X000412406Y000542144D01*
X000412382Y000542006D01*
X000412360Y000541868D01*
X000412342Y000541729D01*
X000412329Y000541589D01*
X000412319Y000541449D01*
X000412313Y000541309D01*
X000412310Y000541167D01*
X000412310Y000503925D01*
X000412313Y000503785D01*
X000412319Y000503645D01*
X000412329Y000503505D01*
X000412342Y000503365D01*
X000412360Y000503226D01*
X000412382Y000503087D01*
X000412406Y000502949D01*
X000412436Y000502812D01*
X000412469Y000502676D01*
X000412506Y000502541D01*
X000412547Y000502407D01*
X000412592Y000502274D01*
X000412640Y000502142D01*
X000412692Y000502012D01*
X000412747Y000501883D01*
X000412805Y000501755D01*
X000412869Y000501630D01*
X000412934Y000501506D01*
X000413004Y000501384D01*
X000413077Y000501265D01*
X000413154Y000501147D01*
X000413232Y000501032D01*
X000413316Y000500918D01*
X000413401Y000500807D01*
X000413490Y000500699D01*
X000413583Y000500593D01*
X000413678Y000500490D01*
X000413774Y000500389D01*
X000413876Y000500291D01*
X000413978Y000500197D01*
X000414085Y000500105D01*
X000414194Y000500016D01*
X000414304Y000499930D01*
X000414418Y000499847D01*
X000414533Y000499768D01*
X000414651Y000499691D01*
X000414771Y000499618D01*
X000414892Y000499549D01*
X000415015Y000499483D01*
X000415142Y000499420D01*
X000415269Y000499361D01*
X000415398Y000499306D01*
X000415528Y000499254D01*
X000415660Y000499206D01*
X000415793Y000499160D01*
X000415927Y000499120D01*
X000416062Y000499083D01*
X000416198Y000499050D01*
X000416336Y000499021D01*
X000416472Y000498996D01*
X000416612Y000498974D01*
X000416751Y000498956D01*
X000416891Y000498942D01*
X000417031Y000498933D01*
X000417171Y000498927D01*
X000417311Y000498925D01*
D428*
X000416811Y000507547D03*
X000416811Y000532547D03*
D429*
X000563098Y000536327D03*
X000563098Y000508767D03*
D430*
X000561130Y000518610D03*
X000561130Y000526484D03*
M02*