G75*
%MOIN*%
%OFA0B0*%
%FSLAX25Y25*%
%IPPOS*%
%LPD*%
%AMOC8*
5,1,8,0,0,1.08239X$1,22.5*
%
%ADD10C,0.00000*%
%ADD11C,0.00300*%
%ADD12C,0.00800*%
%ADD13R,0.00787X0.03937*%
%ADD14C,0.00600*%
%ADD15C,0.00500*%
D10*
X0011800Y0006800D02*
X0168926Y0006800D01*
X0169116Y0006802D01*
X0169306Y0006809D01*
X0169496Y0006821D01*
X0169686Y0006837D01*
X0169875Y0006857D01*
X0170064Y0006883D01*
X0170252Y0006912D01*
X0170439Y0006947D01*
X0170625Y0006986D01*
X0170810Y0007029D01*
X0170995Y0007077D01*
X0171178Y0007129D01*
X0171359Y0007185D01*
X0171539Y0007246D01*
X0171718Y0007312D01*
X0171895Y0007381D01*
X0172071Y0007455D01*
X0172244Y0007533D01*
X0172416Y0007616D01*
X0172585Y0007702D01*
X0172753Y0007792D01*
X0172918Y0007887D01*
X0173081Y0007985D01*
X0173241Y0008088D01*
X0173399Y0008194D01*
X0173554Y0008304D01*
X0173707Y0008417D01*
X0173857Y0008535D01*
X0174003Y0008656D01*
X0174147Y0008780D01*
X0174288Y0008908D01*
X0174426Y0009039D01*
X0174561Y0009174D01*
X0174692Y0009312D01*
X0174820Y0009453D01*
X0174944Y0009597D01*
X0175065Y0009743D01*
X0175183Y0009893D01*
X0175296Y0010046D01*
X0175406Y0010201D01*
X0175512Y0010359D01*
X0175615Y0010519D01*
X0175713Y0010682D01*
X0175808Y0010847D01*
X0175898Y0011015D01*
X0175984Y0011184D01*
X0176067Y0011356D01*
X0176145Y0011529D01*
X0176219Y0011705D01*
X0176288Y0011882D01*
X0176354Y0012061D01*
X0176415Y0012241D01*
X0176471Y0012422D01*
X0176523Y0012605D01*
X0176571Y0012790D01*
X0176614Y0012975D01*
X0176653Y0013161D01*
X0176688Y0013348D01*
X0176717Y0013536D01*
X0176743Y0013725D01*
X0176763Y0013914D01*
X0176779Y0014104D01*
X0176791Y0014294D01*
X0176798Y0014484D01*
X0176800Y0014674D01*
X0176800Y0046170D01*
X0176798Y0046360D01*
X0176791Y0046550D01*
X0176779Y0046740D01*
X0176763Y0046930D01*
X0176743Y0047119D01*
X0176717Y0047308D01*
X0176688Y0047496D01*
X0176653Y0047683D01*
X0176614Y0047869D01*
X0176571Y0048054D01*
X0176523Y0048239D01*
X0176471Y0048422D01*
X0176415Y0048603D01*
X0176354Y0048783D01*
X0176288Y0048962D01*
X0176219Y0049139D01*
X0176145Y0049315D01*
X0176067Y0049488D01*
X0175984Y0049660D01*
X0175898Y0049829D01*
X0175808Y0049997D01*
X0175713Y0050162D01*
X0175615Y0050325D01*
X0175512Y0050485D01*
X0175406Y0050643D01*
X0175296Y0050798D01*
X0175183Y0050951D01*
X0175065Y0051101D01*
X0174944Y0051247D01*
X0174820Y0051391D01*
X0174692Y0051532D01*
X0174561Y0051670D01*
X0174426Y0051805D01*
X0174288Y0051936D01*
X0174147Y0052064D01*
X0174003Y0052188D01*
X0173857Y0052309D01*
X0173707Y0052427D01*
X0173554Y0052540D01*
X0173399Y0052650D01*
X0173241Y0052756D01*
X0173081Y0052859D01*
X0172918Y0052957D01*
X0172753Y0053052D01*
X0172585Y0053142D01*
X0172416Y0053228D01*
X0172244Y0053311D01*
X0172071Y0053389D01*
X0171895Y0053463D01*
X0171718Y0053532D01*
X0171539Y0053598D01*
X0171359Y0053659D01*
X0171178Y0053715D01*
X0170995Y0053767D01*
X0170810Y0053815D01*
X0170625Y0053858D01*
X0170439Y0053897D01*
X0170252Y0053932D01*
X0170064Y0053961D01*
X0169875Y0053987D01*
X0169686Y0054007D01*
X0169496Y0054023D01*
X0169306Y0054035D01*
X0169116Y0054042D01*
X0168926Y0054044D01*
X0011800Y0054044D01*
X0011660Y0054042D01*
X0011520Y0054036D01*
X0011380Y0054026D01*
X0011240Y0054013D01*
X0011101Y0053995D01*
X0010962Y0053973D01*
X0010825Y0053948D01*
X0010687Y0053919D01*
X0010551Y0053886D01*
X0010416Y0053849D01*
X0010282Y0053808D01*
X0010149Y0053763D01*
X0010017Y0053715D01*
X0009887Y0053663D01*
X0009758Y0053608D01*
X0009631Y0053549D01*
X0009505Y0053486D01*
X0009381Y0053420D01*
X0009260Y0053351D01*
X0009140Y0053278D01*
X0009022Y0053201D01*
X0008907Y0053122D01*
X0008793Y0053039D01*
X0008683Y0052953D01*
X0008574Y0052864D01*
X0008468Y0052772D01*
X0008365Y0052677D01*
X0008264Y0052580D01*
X0008167Y0052479D01*
X0008072Y0052376D01*
X0007980Y0052270D01*
X0007891Y0052161D01*
X0007805Y0052051D01*
X0007722Y0051937D01*
X0007643Y0051822D01*
X0007566Y0051704D01*
X0007493Y0051584D01*
X0007424Y0051463D01*
X0007358Y0051339D01*
X0007295Y0051213D01*
X0007236Y0051086D01*
X0007181Y0050957D01*
X0007129Y0050827D01*
X0007081Y0050695D01*
X0007036Y0050562D01*
X0006995Y0050428D01*
X0006958Y0050293D01*
X0006925Y0050157D01*
X0006896Y0050019D01*
X0006871Y0049882D01*
X0006849Y0049743D01*
X0006831Y0049604D01*
X0006818Y0049464D01*
X0006808Y0049324D01*
X0006802Y0049184D01*
X0006800Y0049044D01*
X0006800Y0011800D01*
X0006802Y0011660D01*
X0006808Y0011520D01*
X0006818Y0011380D01*
X0006831Y0011240D01*
X0006849Y0011101D01*
X0006871Y0010962D01*
X0006896Y0010825D01*
X0006925Y0010687D01*
X0006958Y0010551D01*
X0006995Y0010416D01*
X0007036Y0010282D01*
X0007081Y0010149D01*
X0007129Y0010017D01*
X0007181Y0009887D01*
X0007236Y0009758D01*
X0007295Y0009631D01*
X0007358Y0009505D01*
X0007424Y0009381D01*
X0007493Y0009260D01*
X0007566Y0009140D01*
X0007643Y0009022D01*
X0007722Y0008907D01*
X0007805Y0008793D01*
X0007891Y0008683D01*
X0007980Y0008574D01*
X0008072Y0008468D01*
X0008167Y0008365D01*
X0008264Y0008264D01*
X0008365Y0008167D01*
X0008468Y0008072D01*
X0008574Y0007980D01*
X0008683Y0007891D01*
X0008793Y0007805D01*
X0008907Y0007722D01*
X0009022Y0007643D01*
X0009140Y0007566D01*
X0009260Y0007493D01*
X0009381Y0007424D01*
X0009505Y0007358D01*
X0009631Y0007295D01*
X0009758Y0007236D01*
X0009887Y0007181D01*
X0010017Y0007129D01*
X0010149Y0007081D01*
X0010282Y0007036D01*
X0010416Y0006995D01*
X0010551Y0006958D01*
X0010687Y0006925D01*
X0010825Y0006896D01*
X0010962Y0006871D01*
X0011101Y0006849D01*
X0011240Y0006831D01*
X0011380Y0006818D01*
X0011520Y0006808D01*
X0011660Y0006802D01*
X0011800Y0006800D01*
D11*
X0029947Y0011606D02*
X0033650Y0011606D01*
X0033650Y0014074D01*
X0033650Y0015289D02*
X0029947Y0015289D01*
X0029947Y0017758D01*
X0029947Y0018972D02*
X0029947Y0020824D01*
X0030564Y0021441D01*
X0033033Y0021441D01*
X0033650Y0020824D01*
X0033650Y0018972D01*
X0029947Y0018972D01*
X0033650Y0017758D02*
X0033650Y0015289D01*
X0031798Y0015289D02*
X0031798Y0016523D01*
X0030564Y0022655D02*
X0029947Y0023272D01*
X0029947Y0024507D01*
X0030564Y0025124D01*
X0031181Y0025124D01*
X0033650Y0022655D01*
X0033650Y0025124D01*
X0033650Y0034706D02*
X0029947Y0034706D01*
X0033650Y0034706D02*
X0033650Y0037174D01*
X0033650Y0038389D02*
X0029947Y0038389D01*
X0029947Y0040858D01*
X0029947Y0042072D02*
X0029947Y0043924D01*
X0030564Y0044541D01*
X0033033Y0044541D01*
X0033650Y0043924D01*
X0033650Y0042072D01*
X0029947Y0042072D01*
X0033650Y0040858D02*
X0033650Y0038389D01*
X0031798Y0038389D02*
X0031798Y0039623D01*
X0031181Y0045755D02*
X0029947Y0046990D01*
X0033650Y0046990D01*
X0033650Y0048224D02*
X0033650Y0045755D01*
X0066267Y0043275D02*
X0066267Y0040189D01*
X0066884Y0039572D01*
X0068118Y0039572D01*
X0068736Y0040189D01*
X0068736Y0043275D01*
X0069950Y0042041D02*
X0071184Y0043275D01*
X0071184Y0039572D01*
X0069950Y0039572D02*
X0072419Y0039572D01*
X0092450Y0038806D02*
X0094302Y0038806D01*
X0094919Y0039424D01*
X0094919Y0040658D01*
X0094302Y0041275D01*
X0092450Y0041275D01*
X0092450Y0037572D01*
X0093684Y0038806D02*
X0094919Y0037572D01*
X0096133Y0038189D02*
X0096750Y0037572D01*
X0097985Y0037572D01*
X0098602Y0038189D01*
X0098602Y0038806D01*
X0097985Y0039424D01*
X0097368Y0039424D01*
X0097985Y0039424D02*
X0098602Y0040041D01*
X0098602Y0040658D01*
X0097985Y0041275D01*
X0096750Y0041275D01*
X0096133Y0040658D01*
X0114450Y0041275D02*
X0114450Y0037572D01*
X0116302Y0037572D01*
X0116919Y0038189D01*
X0116919Y0040658D01*
X0116302Y0041275D01*
X0114450Y0041275D01*
X0118133Y0039424D02*
X0120602Y0039424D01*
X0119985Y0041275D02*
X0118133Y0039424D01*
X0119985Y0041275D02*
X0119985Y0037572D01*
X0119985Y0031275D02*
X0120602Y0030658D01*
X0120602Y0030041D01*
X0119985Y0029424D01*
X0120602Y0028806D01*
X0120602Y0028189D01*
X0119985Y0027572D01*
X0118750Y0027572D01*
X0118133Y0028189D01*
X0116919Y0028189D02*
X0116919Y0030658D01*
X0116302Y0031275D01*
X0114450Y0031275D01*
X0114450Y0027572D01*
X0116302Y0027572D01*
X0116919Y0028189D01*
X0119368Y0029424D02*
X0119985Y0029424D01*
X0118133Y0030658D02*
X0118750Y0031275D01*
X0119985Y0031275D01*
X0098602Y0029424D02*
X0096133Y0029424D01*
X0097985Y0031275D01*
X0097985Y0027572D01*
X0094919Y0027572D02*
X0093684Y0028806D01*
X0094302Y0028806D02*
X0092450Y0028806D01*
X0094302Y0028806D02*
X0094919Y0029424D01*
X0094919Y0030658D01*
X0094302Y0031275D01*
X0092450Y0031275D01*
X0092450Y0027572D01*
X0076102Y0026658D02*
X0076102Y0026041D01*
X0073633Y0023572D01*
X0076102Y0023572D01*
X0072419Y0024189D02*
X0071802Y0023572D01*
X0070567Y0023572D01*
X0069950Y0024189D01*
X0069950Y0026658D01*
X0070567Y0027275D01*
X0071802Y0027275D01*
X0072419Y0026658D01*
X0073633Y0026658D02*
X0074250Y0027275D01*
X0075485Y0027275D01*
X0076102Y0026658D01*
X0092450Y0021275D02*
X0094302Y0021275D01*
X0094919Y0020658D01*
X0094919Y0019424D01*
X0094302Y0018806D01*
X0092450Y0018806D01*
X0093684Y0018806D02*
X0094919Y0017572D01*
X0096133Y0017572D02*
X0098602Y0017572D01*
X0097368Y0017572D02*
X0097368Y0021275D01*
X0096133Y0020041D01*
X0092450Y0021275D02*
X0092450Y0017572D01*
X0076102Y0013572D02*
X0073633Y0013572D01*
X0074868Y0013572D02*
X0074868Y0017275D01*
X0073633Y0016041D01*
X0072419Y0016658D02*
X0071802Y0017275D01*
X0070567Y0017275D01*
X0069950Y0016658D01*
X0069950Y0014189D01*
X0070567Y0013572D01*
X0071802Y0013572D01*
X0072419Y0014189D01*
X0114450Y0017572D02*
X0116302Y0017572D01*
X0116919Y0018189D01*
X0116919Y0020658D01*
X0116302Y0021275D01*
X0114450Y0021275D01*
X0114450Y0017572D01*
X0118133Y0017572D02*
X0120602Y0020041D01*
X0120602Y0020658D01*
X0119985Y0021275D01*
X0118750Y0021275D01*
X0118133Y0020658D01*
X0118133Y0017572D02*
X0120602Y0017572D01*
X0120602Y0047572D02*
X0118133Y0047572D01*
X0119368Y0047572D02*
X0119368Y0051275D01*
X0118133Y0050041D01*
X0116919Y0050658D02*
X0116302Y0051275D01*
X0114450Y0051275D01*
X0114450Y0047572D01*
X0116302Y0047572D01*
X0116919Y0048189D01*
X0116919Y0050658D01*
X0098602Y0050658D02*
X0098602Y0050041D01*
X0096133Y0047572D01*
X0098602Y0047572D01*
X0094919Y0047572D02*
X0093684Y0048806D01*
X0094302Y0048806D02*
X0092450Y0048806D01*
X0094302Y0048806D02*
X0094919Y0049424D01*
X0094919Y0050658D01*
X0094302Y0051275D01*
X0092450Y0051275D01*
X0092450Y0047572D01*
X0096133Y0050658D02*
X0096750Y0051275D01*
X0097985Y0051275D01*
X0098602Y0050658D01*
D12*
X0120363Y0048178D02*
X0128237Y0048178D01*
X0125678Y0046997D02*
X0125678Y0043847D01*
X0123316Y0045422D01*
X0125678Y0046997D01*
X0125087Y0046209D02*
X0125087Y0044635D01*
X0123906Y0045422D01*
X0125087Y0046209D01*
X0125087Y0045927D02*
X0124664Y0045927D01*
X0124346Y0045129D02*
X0125087Y0045129D01*
X0128237Y0042666D02*
X0120363Y0042666D01*
X0120363Y0038178D02*
X0128237Y0038178D01*
X0125678Y0036997D02*
X0125678Y0033847D01*
X0123316Y0035422D01*
X0125678Y0036997D01*
X0125087Y0036209D02*
X0125087Y0034635D01*
X0123906Y0035422D01*
X0125087Y0036209D01*
X0125087Y0035546D02*
X0124093Y0035546D01*
X0124917Y0034748D02*
X0125087Y0034748D01*
X0128237Y0032666D02*
X0120363Y0032666D01*
X0120363Y0028178D02*
X0128237Y0028178D01*
X0125678Y0026997D02*
X0125678Y0023847D01*
X0123316Y0025422D01*
X0125678Y0026997D01*
X0125087Y0026209D02*
X0125087Y0024635D01*
X0123906Y0025422D01*
X0125087Y0026209D01*
X0125087Y0025964D02*
X0124720Y0025964D01*
X0125087Y0025166D02*
X0124291Y0025166D01*
X0120363Y0022666D02*
X0128237Y0022666D01*
X0128237Y0018178D02*
X0120363Y0018178D01*
X0123316Y0015422D02*
X0125678Y0016997D01*
X0125678Y0013847D01*
X0123316Y0015422D01*
X0123906Y0015422D02*
X0125087Y0014635D01*
X0125087Y0016209D01*
X0123906Y0015422D01*
X0124149Y0015584D02*
X0125087Y0015584D01*
X0125087Y0014785D02*
X0124862Y0014785D01*
X0128237Y0012666D02*
X0120363Y0012666D01*
D13*
X0122922Y0015422D03*
X0122922Y0025422D03*
X0122922Y0035422D03*
X0122922Y0045422D03*
D14*
X0079398Y0051221D02*
X0059302Y0051221D01*
X0012602Y0051117D02*
X0010000Y0051117D01*
X0010000Y0051551D02*
X0010000Y0050683D01*
X0012602Y0050683D02*
X0012602Y0051551D01*
X0012169Y0049586D02*
X0011735Y0049586D01*
X0011301Y0049153D01*
X0011301Y0048285D01*
X0010867Y0047852D01*
X0010434Y0047852D01*
X0010000Y0048285D01*
X0010000Y0049153D01*
X0010434Y0049586D01*
X0012169Y0049586D02*
X0012602Y0049153D01*
X0012602Y0048285D01*
X0012169Y0047852D01*
X0012602Y0046640D02*
X0010000Y0046640D01*
X0010867Y0046640D02*
X0010867Y0045339D01*
X0011301Y0044905D01*
X0012169Y0044905D01*
X0012602Y0045339D01*
X0012602Y0046640D01*
X0059302Y0032623D02*
X0079398Y0032623D01*
D15*
X0079865Y0031572D02*
X0079867Y0031619D01*
X0079873Y0031666D01*
X0079883Y0031713D01*
X0079896Y0031758D01*
X0079914Y0031802D01*
X0079935Y0031844D01*
X0079959Y0031885D01*
X0079987Y0031923D01*
X0080018Y0031959D01*
X0080052Y0031992D01*
X0080088Y0032022D01*
X0080127Y0032049D01*
X0080168Y0032073D01*
X0080211Y0032093D01*
X0080255Y0032109D01*
X0080301Y0032122D01*
X0080347Y0032131D01*
X0080395Y0032136D01*
X0080442Y0032137D01*
X0080489Y0032134D01*
X0080536Y0032127D01*
X0080582Y0032116D01*
X0080627Y0032102D01*
X0080671Y0032083D01*
X0080712Y0032061D01*
X0080752Y0032036D01*
X0080790Y0032007D01*
X0080825Y0031976D01*
X0080858Y0031941D01*
X0080887Y0031904D01*
X0080913Y0031865D01*
X0080936Y0031823D01*
X0080955Y0031780D01*
X0080971Y0031735D01*
X0080983Y0031689D01*
X0080991Y0031643D01*
X0080995Y0031596D01*
X0080995Y0031548D01*
X0080991Y0031501D01*
X0080983Y0031455D01*
X0080971Y0031409D01*
X0080955Y0031364D01*
X0080936Y0031321D01*
X0080913Y0031279D01*
X0080887Y0031240D01*
X0080858Y0031203D01*
X0080825Y0031168D01*
X0080790Y0031137D01*
X0080752Y0031108D01*
X0080713Y0031083D01*
X0080671Y0031061D01*
X0080627Y0031042D01*
X0080582Y0031028D01*
X0080536Y0031017D01*
X0080489Y0031010D01*
X0080442Y0031007D01*
X0080395Y0031008D01*
X0080347Y0031013D01*
X0080301Y0031022D01*
X0080255Y0031035D01*
X0080211Y0031051D01*
X0080168Y0031071D01*
X0080127Y0031095D01*
X0080088Y0031122D01*
X0080052Y0031152D01*
X0080018Y0031185D01*
X0079987Y0031221D01*
X0079959Y0031259D01*
X0079935Y0031300D01*
X0079914Y0031342D01*
X0079896Y0031386D01*
X0079883Y0031431D01*
X0079873Y0031478D01*
X0079867Y0031525D01*
X0079865Y0031572D01*
X0041643Y0032079D02*
X0041643Y0051765D01*
X0025894Y0051765D01*
X0021957Y0047828D01*
X0021957Y0051765D01*
X0025894Y0051765D01*
X0019692Y0052505D02*
X0019694Y0052552D01*
X0019700Y0052598D01*
X0019709Y0052644D01*
X0019723Y0052688D01*
X0019740Y0052732D01*
X0019761Y0052773D01*
X0019785Y0052813D01*
X0019812Y0052851D01*
X0019843Y0052886D01*
X0019876Y0052919D01*
X0019912Y0052949D01*
X0019951Y0052975D01*
X0019991Y0052999D01*
X0020033Y0053018D01*
X0020077Y0053035D01*
X0020122Y0053047D01*
X0020168Y0053056D01*
X0020214Y0053061D01*
X0020261Y0053062D01*
X0020307Y0053059D01*
X0020353Y0053052D01*
X0020399Y0053041D01*
X0020443Y0053027D01*
X0020486Y0053009D01*
X0020527Y0052987D01*
X0020567Y0052962D01*
X0020604Y0052934D01*
X0020639Y0052903D01*
X0020671Y0052869D01*
X0020700Y0052832D01*
X0020725Y0052794D01*
X0020748Y0052753D01*
X0020767Y0052710D01*
X0020782Y0052666D01*
X0020794Y0052621D01*
X0020802Y0052575D01*
X0020806Y0052528D01*
X0020806Y0052482D01*
X0020802Y0052435D01*
X0020794Y0052389D01*
X0020782Y0052344D01*
X0020767Y0052300D01*
X0020748Y0052257D01*
X0020725Y0052216D01*
X0020700Y0052178D01*
X0020671Y0052141D01*
X0020639Y0052107D01*
X0020604Y0052076D01*
X0020567Y0052048D01*
X0020528Y0052023D01*
X0020486Y0052001D01*
X0020443Y0051983D01*
X0020399Y0051969D01*
X0020353Y0051958D01*
X0020307Y0051951D01*
X0020261Y0051948D01*
X0020214Y0051949D01*
X0020168Y0051954D01*
X0020122Y0051963D01*
X0020077Y0051975D01*
X0020033Y0051992D01*
X0019991Y0052011D01*
X0019951Y0052035D01*
X0019912Y0052061D01*
X0019876Y0052091D01*
X0019843Y0052124D01*
X0019812Y0052159D01*
X0019785Y0052197D01*
X0019761Y0052237D01*
X0019740Y0052278D01*
X0019723Y0052322D01*
X0019709Y0052366D01*
X0019700Y0052412D01*
X0019694Y0052458D01*
X0019692Y0052505D01*
X0021957Y0047828D02*
X0021957Y0032079D01*
X0041643Y0032079D01*
X0041643Y0028665D02*
X0041643Y0008979D01*
X0021957Y0008979D01*
X0021957Y0024728D01*
X0025894Y0028665D01*
X0041643Y0028665D01*
X0025894Y0028665D02*
X0021957Y0028665D01*
X0021957Y0024728D01*
X0019692Y0029405D02*
X0019694Y0029452D01*
X0019700Y0029498D01*
X0019709Y0029544D01*
X0019723Y0029588D01*
X0019740Y0029632D01*
X0019761Y0029673D01*
X0019785Y0029713D01*
X0019812Y0029751D01*
X0019843Y0029786D01*
X0019876Y0029819D01*
X0019912Y0029849D01*
X0019951Y0029875D01*
X0019991Y0029899D01*
X0020033Y0029918D01*
X0020077Y0029935D01*
X0020122Y0029947D01*
X0020168Y0029956D01*
X0020214Y0029961D01*
X0020261Y0029962D01*
X0020307Y0029959D01*
X0020353Y0029952D01*
X0020399Y0029941D01*
X0020443Y0029927D01*
X0020486Y0029909D01*
X0020527Y0029887D01*
X0020567Y0029862D01*
X0020604Y0029834D01*
X0020639Y0029803D01*
X0020671Y0029769D01*
X0020700Y0029732D01*
X0020725Y0029694D01*
X0020748Y0029653D01*
X0020767Y0029610D01*
X0020782Y0029566D01*
X0020794Y0029521D01*
X0020802Y0029475D01*
X0020806Y0029428D01*
X0020806Y0029382D01*
X0020802Y0029335D01*
X0020794Y0029289D01*
X0020782Y0029244D01*
X0020767Y0029200D01*
X0020748Y0029157D01*
X0020725Y0029116D01*
X0020700Y0029078D01*
X0020671Y0029041D01*
X0020639Y0029007D01*
X0020604Y0028976D01*
X0020567Y0028948D01*
X0020528Y0028923D01*
X0020486Y0028901D01*
X0020443Y0028883D01*
X0020399Y0028869D01*
X0020353Y0028858D01*
X0020307Y0028851D01*
X0020261Y0028848D01*
X0020214Y0028849D01*
X0020168Y0028854D01*
X0020122Y0028863D01*
X0020077Y0028875D01*
X0020033Y0028892D01*
X0019991Y0028911D01*
X0019951Y0028935D01*
X0019912Y0028961D01*
X0019876Y0028991D01*
X0019843Y0029024D01*
X0019812Y0029059D01*
X0019785Y0029097D01*
X0019761Y0029137D01*
X0019740Y0029178D01*
X0019723Y0029222D01*
X0019709Y0029266D01*
X0019700Y0029312D01*
X0019694Y0029358D01*
X0019692Y0029405D01*
X0013800Y0032922D02*
X0008800Y0032922D01*
X0008800Y0042922D01*
X0013800Y0042922D01*
X0013800Y0032922D01*
X0013800Y0033221D02*
X0008800Y0033221D01*
X0008800Y0033720D02*
X0013800Y0033720D01*
X0013800Y0034218D02*
X0008800Y0034218D01*
X0008800Y0034717D02*
X0013800Y0034717D01*
X0013800Y0035215D02*
X0008800Y0035215D01*
X0008800Y0035714D02*
X0013800Y0035714D01*
X0013800Y0036212D02*
X0008800Y0036212D01*
X0008800Y0036711D02*
X0013800Y0036711D01*
X0013800Y0037209D02*
X0008800Y0037209D01*
X0008800Y0037708D02*
X0013800Y0037708D01*
X0013800Y0038206D02*
X0008800Y0038206D01*
X0008800Y0038705D02*
X0013800Y0038705D01*
X0013800Y0039203D02*
X0008800Y0039203D01*
X0008800Y0039702D02*
X0013800Y0039702D01*
X0013800Y0040200D02*
X0008800Y0040200D01*
X0008800Y0040699D02*
X0013800Y0040699D01*
X0013800Y0041197D02*
X0008800Y0041197D01*
X0008800Y0041696D02*
X0013800Y0041696D01*
X0013800Y0042194D02*
X0008800Y0042194D01*
X0008800Y0042693D02*
X0013800Y0042693D01*
X0013800Y0042922D02*
X0013800Y0012922D01*
X0008800Y0012922D01*
X0008800Y0042922D01*
X0013800Y0042922D01*
X0023532Y0041922D02*
X0023534Y0042125D01*
X0023542Y0042328D01*
X0023554Y0042530D01*
X0023572Y0042732D01*
X0023594Y0042934D01*
X0023621Y0043135D01*
X0023654Y0043336D01*
X0023691Y0043535D01*
X0023733Y0043734D01*
X0023780Y0043931D01*
X0023831Y0044127D01*
X0023888Y0044322D01*
X0023949Y0044516D01*
X0024015Y0044707D01*
X0024086Y0044898D01*
X0024161Y0045086D01*
X0024241Y0045273D01*
X0024326Y0045457D01*
X0024415Y0045639D01*
X0024508Y0045820D01*
X0024606Y0045997D01*
X0024708Y0046173D01*
X0024815Y0046345D01*
X0024925Y0046515D01*
X0025040Y0046683D01*
X0025159Y0046847D01*
X0025282Y0047009D01*
X0025409Y0047167D01*
X0025539Y0047322D01*
X0025674Y0047474D01*
X0025812Y0047623D01*
X0025954Y0047768D01*
X0026099Y0047910D01*
X0026248Y0048048D01*
X0026400Y0048183D01*
X0026555Y0048313D01*
X0026713Y0048440D01*
X0026875Y0048563D01*
X0027039Y0048682D01*
X0027207Y0048797D01*
X0027377Y0048907D01*
X0027549Y0049014D01*
X0027725Y0049116D01*
X0027902Y0049214D01*
X0028083Y0049307D01*
X0028265Y0049396D01*
X0028449Y0049481D01*
X0028636Y0049561D01*
X0028824Y0049636D01*
X0029015Y0049707D01*
X0029206Y0049773D01*
X0029400Y0049834D01*
X0029595Y0049891D01*
X0029791Y0049942D01*
X0029988Y0049989D01*
X0030187Y0050031D01*
X0030386Y0050068D01*
X0030587Y0050101D01*
X0030788Y0050128D01*
X0030990Y0050150D01*
X0031192Y0050168D01*
X0031394Y0050180D01*
X0031597Y0050188D01*
X0031800Y0050190D01*
X0032003Y0050188D01*
X0032206Y0050180D01*
X0032408Y0050168D01*
X0032610Y0050150D01*
X0032812Y0050128D01*
X0033013Y0050101D01*
X0033214Y0050068D01*
X0033413Y0050031D01*
X0033612Y0049989D01*
X0033809Y0049942D01*
X0034005Y0049891D01*
X0034200Y0049834D01*
X0034394Y0049773D01*
X0034585Y0049707D01*
X0034776Y0049636D01*
X0034964Y0049561D01*
X0035151Y0049481D01*
X0035335Y0049396D01*
X0035517Y0049307D01*
X0035698Y0049214D01*
X0035875Y0049116D01*
X0036051Y0049014D01*
X0036223Y0048907D01*
X0036393Y0048797D01*
X0036561Y0048682D01*
X0036725Y0048563D01*
X0036887Y0048440D01*
X0037045Y0048313D01*
X0037200Y0048183D01*
X0037352Y0048048D01*
X0037501Y0047910D01*
X0037646Y0047768D01*
X0037788Y0047623D01*
X0037926Y0047474D01*
X0038061Y0047322D01*
X0038191Y0047167D01*
X0038318Y0047009D01*
X0038441Y0046847D01*
X0038560Y0046683D01*
X0038675Y0046515D01*
X0038785Y0046345D01*
X0038892Y0046173D01*
X0038994Y0045997D01*
X0039092Y0045820D01*
X0039185Y0045639D01*
X0039274Y0045457D01*
X0039359Y0045273D01*
X0039439Y0045086D01*
X0039514Y0044898D01*
X0039585Y0044707D01*
X0039651Y0044516D01*
X0039712Y0044322D01*
X0039769Y0044127D01*
X0039820Y0043931D01*
X0039867Y0043734D01*
X0039909Y0043535D01*
X0039946Y0043336D01*
X0039979Y0043135D01*
X0040006Y0042934D01*
X0040028Y0042732D01*
X0040046Y0042530D01*
X0040058Y0042328D01*
X0040066Y0042125D01*
X0040068Y0041922D01*
X0040066Y0041719D01*
X0040058Y0041516D01*
X0040046Y0041314D01*
X0040028Y0041112D01*
X0040006Y0040910D01*
X0039979Y0040709D01*
X0039946Y0040508D01*
X0039909Y0040309D01*
X0039867Y0040110D01*
X0039820Y0039913D01*
X0039769Y0039717D01*
X0039712Y0039522D01*
X0039651Y0039328D01*
X0039585Y0039137D01*
X0039514Y0038946D01*
X0039439Y0038758D01*
X0039359Y0038571D01*
X0039274Y0038387D01*
X0039185Y0038205D01*
X0039092Y0038024D01*
X0038994Y0037847D01*
X0038892Y0037671D01*
X0038785Y0037499D01*
X0038675Y0037329D01*
X0038560Y0037161D01*
X0038441Y0036997D01*
X0038318Y0036835D01*
X0038191Y0036677D01*
X0038061Y0036522D01*
X0037926Y0036370D01*
X0037788Y0036221D01*
X0037646Y0036076D01*
X0037501Y0035934D01*
X0037352Y0035796D01*
X0037200Y0035661D01*
X0037045Y0035531D01*
X0036887Y0035404D01*
X0036725Y0035281D01*
X0036561Y0035162D01*
X0036393Y0035047D01*
X0036223Y0034937D01*
X0036051Y0034830D01*
X0035875Y0034728D01*
X0035698Y0034630D01*
X0035517Y0034537D01*
X0035335Y0034448D01*
X0035151Y0034363D01*
X0034964Y0034283D01*
X0034776Y0034208D01*
X0034585Y0034137D01*
X0034394Y0034071D01*
X0034200Y0034010D01*
X0034005Y0033953D01*
X0033809Y0033902D01*
X0033612Y0033855D01*
X0033413Y0033813D01*
X0033214Y0033776D01*
X0033013Y0033743D01*
X0032812Y0033716D01*
X0032610Y0033694D01*
X0032408Y0033676D01*
X0032206Y0033664D01*
X0032003Y0033656D01*
X0031800Y0033654D01*
X0031597Y0033656D01*
X0031394Y0033664D01*
X0031192Y0033676D01*
X0030990Y0033694D01*
X0030788Y0033716D01*
X0030587Y0033743D01*
X0030386Y0033776D01*
X0030187Y0033813D01*
X0029988Y0033855D01*
X0029791Y0033902D01*
X0029595Y0033953D01*
X0029400Y0034010D01*
X0029206Y0034071D01*
X0029015Y0034137D01*
X0028824Y0034208D01*
X0028636Y0034283D01*
X0028449Y0034363D01*
X0028265Y0034448D01*
X0028083Y0034537D01*
X0027902Y0034630D01*
X0027725Y0034728D01*
X0027549Y0034830D01*
X0027377Y0034937D01*
X0027207Y0035047D01*
X0027039Y0035162D01*
X0026875Y0035281D01*
X0026713Y0035404D01*
X0026555Y0035531D01*
X0026400Y0035661D01*
X0026248Y0035796D01*
X0026099Y0035934D01*
X0025954Y0036076D01*
X0025812Y0036221D01*
X0025674Y0036370D01*
X0025539Y0036522D01*
X0025409Y0036677D01*
X0025282Y0036835D01*
X0025159Y0036997D01*
X0025040Y0037161D01*
X0024925Y0037329D01*
X0024815Y0037499D01*
X0024708Y0037671D01*
X0024606Y0037847D01*
X0024508Y0038024D01*
X0024415Y0038205D01*
X0024326Y0038387D01*
X0024241Y0038571D01*
X0024161Y0038758D01*
X0024086Y0038946D01*
X0024015Y0039137D01*
X0023949Y0039328D01*
X0023888Y0039522D01*
X0023831Y0039717D01*
X0023780Y0039913D01*
X0023733Y0040110D01*
X0023691Y0040309D01*
X0023654Y0040508D01*
X0023621Y0040709D01*
X0023594Y0040910D01*
X0023572Y0041112D01*
X0023554Y0041314D01*
X0023542Y0041516D01*
X0023534Y0041719D01*
X0023532Y0041922D01*
X0023532Y0018822D02*
X0023534Y0019025D01*
X0023542Y0019228D01*
X0023554Y0019430D01*
X0023572Y0019632D01*
X0023594Y0019834D01*
X0023621Y0020035D01*
X0023654Y0020236D01*
X0023691Y0020435D01*
X0023733Y0020634D01*
X0023780Y0020831D01*
X0023831Y0021027D01*
X0023888Y0021222D01*
X0023949Y0021416D01*
X0024015Y0021607D01*
X0024086Y0021798D01*
X0024161Y0021986D01*
X0024241Y0022173D01*
X0024326Y0022357D01*
X0024415Y0022539D01*
X0024508Y0022720D01*
X0024606Y0022897D01*
X0024708Y0023073D01*
X0024815Y0023245D01*
X0024925Y0023415D01*
X0025040Y0023583D01*
X0025159Y0023747D01*
X0025282Y0023909D01*
X0025409Y0024067D01*
X0025539Y0024222D01*
X0025674Y0024374D01*
X0025812Y0024523D01*
X0025954Y0024668D01*
X0026099Y0024810D01*
X0026248Y0024948D01*
X0026400Y0025083D01*
X0026555Y0025213D01*
X0026713Y0025340D01*
X0026875Y0025463D01*
X0027039Y0025582D01*
X0027207Y0025697D01*
X0027377Y0025807D01*
X0027549Y0025914D01*
X0027725Y0026016D01*
X0027902Y0026114D01*
X0028083Y0026207D01*
X0028265Y0026296D01*
X0028449Y0026381D01*
X0028636Y0026461D01*
X0028824Y0026536D01*
X0029015Y0026607D01*
X0029206Y0026673D01*
X0029400Y0026734D01*
X0029595Y0026791D01*
X0029791Y0026842D01*
X0029988Y0026889D01*
X0030187Y0026931D01*
X0030386Y0026968D01*
X0030587Y0027001D01*
X0030788Y0027028D01*
X0030990Y0027050D01*
X0031192Y0027068D01*
X0031394Y0027080D01*
X0031597Y0027088D01*
X0031800Y0027090D01*
X0032003Y0027088D01*
X0032206Y0027080D01*
X0032408Y0027068D01*
X0032610Y0027050D01*
X0032812Y0027028D01*
X0033013Y0027001D01*
X0033214Y0026968D01*
X0033413Y0026931D01*
X0033612Y0026889D01*
X0033809Y0026842D01*
X0034005Y0026791D01*
X0034200Y0026734D01*
X0034394Y0026673D01*
X0034585Y0026607D01*
X0034776Y0026536D01*
X0034964Y0026461D01*
X0035151Y0026381D01*
X0035335Y0026296D01*
X0035517Y0026207D01*
X0035698Y0026114D01*
X0035875Y0026016D01*
X0036051Y0025914D01*
X0036223Y0025807D01*
X0036393Y0025697D01*
X0036561Y0025582D01*
X0036725Y0025463D01*
X0036887Y0025340D01*
X0037045Y0025213D01*
X0037200Y0025083D01*
X0037352Y0024948D01*
X0037501Y0024810D01*
X0037646Y0024668D01*
X0037788Y0024523D01*
X0037926Y0024374D01*
X0038061Y0024222D01*
X0038191Y0024067D01*
X0038318Y0023909D01*
X0038441Y0023747D01*
X0038560Y0023583D01*
X0038675Y0023415D01*
X0038785Y0023245D01*
X0038892Y0023073D01*
X0038994Y0022897D01*
X0039092Y0022720D01*
X0039185Y0022539D01*
X0039274Y0022357D01*
X0039359Y0022173D01*
X0039439Y0021986D01*
X0039514Y0021798D01*
X0039585Y0021607D01*
X0039651Y0021416D01*
X0039712Y0021222D01*
X0039769Y0021027D01*
X0039820Y0020831D01*
X0039867Y0020634D01*
X0039909Y0020435D01*
X0039946Y0020236D01*
X0039979Y0020035D01*
X0040006Y0019834D01*
X0040028Y0019632D01*
X0040046Y0019430D01*
X0040058Y0019228D01*
X0040066Y0019025D01*
X0040068Y0018822D01*
X0040066Y0018619D01*
X0040058Y0018416D01*
X0040046Y0018214D01*
X0040028Y0018012D01*
X0040006Y0017810D01*
X0039979Y0017609D01*
X0039946Y0017408D01*
X0039909Y0017209D01*
X0039867Y0017010D01*
X0039820Y0016813D01*
X0039769Y0016617D01*
X0039712Y0016422D01*
X0039651Y0016228D01*
X0039585Y0016037D01*
X0039514Y0015846D01*
X0039439Y0015658D01*
X0039359Y0015471D01*
X0039274Y0015287D01*
X0039185Y0015105D01*
X0039092Y0014924D01*
X0038994Y0014747D01*
X0038892Y0014571D01*
X0038785Y0014399D01*
X0038675Y0014229D01*
X0038560Y0014061D01*
X0038441Y0013897D01*
X0038318Y0013735D01*
X0038191Y0013577D01*
X0038061Y0013422D01*
X0037926Y0013270D01*
X0037788Y0013121D01*
X0037646Y0012976D01*
X0037501Y0012834D01*
X0037352Y0012696D01*
X0037200Y0012561D01*
X0037045Y0012431D01*
X0036887Y0012304D01*
X0036725Y0012181D01*
X0036561Y0012062D01*
X0036393Y0011947D01*
X0036223Y0011837D01*
X0036051Y0011730D01*
X0035875Y0011628D01*
X0035698Y0011530D01*
X0035517Y0011437D01*
X0035335Y0011348D01*
X0035151Y0011263D01*
X0034964Y0011183D01*
X0034776Y0011108D01*
X0034585Y0011037D01*
X0034394Y0010971D01*
X0034200Y0010910D01*
X0034005Y0010853D01*
X0033809Y0010802D01*
X0033612Y0010755D01*
X0033413Y0010713D01*
X0033214Y0010676D01*
X0033013Y0010643D01*
X0032812Y0010616D01*
X0032610Y0010594D01*
X0032408Y0010576D01*
X0032206Y0010564D01*
X0032003Y0010556D01*
X0031800Y0010554D01*
X0031597Y0010556D01*
X0031394Y0010564D01*
X0031192Y0010576D01*
X0030990Y0010594D01*
X0030788Y0010616D01*
X0030587Y0010643D01*
X0030386Y0010676D01*
X0030187Y0010713D01*
X0029988Y0010755D01*
X0029791Y0010802D01*
X0029595Y0010853D01*
X0029400Y0010910D01*
X0029206Y0010971D01*
X0029015Y0011037D01*
X0028824Y0011108D01*
X0028636Y0011183D01*
X0028449Y0011263D01*
X0028265Y0011348D01*
X0028083Y0011437D01*
X0027902Y0011530D01*
X0027725Y0011628D01*
X0027549Y0011730D01*
X0027377Y0011837D01*
X0027207Y0011947D01*
X0027039Y0012062D01*
X0026875Y0012181D01*
X0026713Y0012304D01*
X0026555Y0012431D01*
X0026400Y0012561D01*
X0026248Y0012696D01*
X0026099Y0012834D01*
X0025954Y0012976D01*
X0025812Y0013121D01*
X0025674Y0013270D01*
X0025539Y0013422D01*
X0025409Y0013577D01*
X0025282Y0013735D01*
X0025159Y0013897D01*
X0025040Y0014061D01*
X0024925Y0014229D01*
X0024815Y0014399D01*
X0024708Y0014571D01*
X0024606Y0014747D01*
X0024508Y0014924D01*
X0024415Y0015105D01*
X0024326Y0015287D01*
X0024241Y0015471D01*
X0024161Y0015658D01*
X0024086Y0015846D01*
X0024015Y0016037D01*
X0023949Y0016228D01*
X0023888Y0016422D01*
X0023831Y0016617D01*
X0023780Y0016813D01*
X0023733Y0017010D01*
X0023691Y0017209D01*
X0023654Y0017408D01*
X0023621Y0017609D01*
X0023594Y0017810D01*
X0023572Y0018012D01*
X0023554Y0018214D01*
X0023542Y0018416D01*
X0023534Y0018619D01*
X0023532Y0018822D01*
M02*
