  0
SECTION
  2
HEADER
  9
$ACADVER
  1
AC1009
  9
$MEASUREMENT
 70
     1
  0
ENDSEC
  0
SECTION
  2
ENTITIES
  0
LWPOLYLINE
  8
0
 62
7
 90
5
 70
1
 10
26.797000
 20
9.445562
 10
27.545438
 20
9.445562
 10
27.545438
 20
10.742437
 10
26.048562
 20
10.742437
 10
26.048562
 20
9.445562
  0
LWPOLYLINE
  8
0
 62
7
 90
5
 70
1
 10
26.797000
 20
7.545563
 10
27.545438
 20
7.545563
 10
27.545438
 20
8.842438
 10
26.048562
 20
8.842438
 10
26.048562
 20
7.545563
  0
LWPOLYLINE
  8
0
 62
7
 90
5
 70
1
 10
29.337000
 20
9.445562
 10
30.085438
 20
9.445562
 10
30.085438
 20
10.742437
 10
28.588562
 20
10.742437
 10
28.588562
 20
9.445562
  0
LWPOLYLINE
  8
0
 62
7
 90
5
 70
1
 10
29.337000
 20
7.545563
 10
30.085438
 20
7.545563
 10
30.085438
 20
8.842438
 10
28.588562
 20
8.842438
 10
28.588562
 20
7.545563
  0
LWPOLYLINE
  8
0
 62
7
 90
5
 70
1
 10
13.970000
 20
11.595438
 10
13.571563
 20
11.595438
 10
13.571563
 20
10.248563
 10
14.368438
 20
10.248563
 10
14.368438
 20
11.595438
  0
LWPOLYLINE
  8
0
 62
7
 90
5
 70
1
 10
13.970000
 20
9.055438
 10
13.571563
 20
9.055438
 10
13.571563
 20
7.708562
 10
14.368438
 20
7.708562
 10
14.368438
 20
9.055438
  0
LWPOLYLINE
  8
0
 62
7
 90
5
 70
1
 10
15.875000
 20
11.595438
 10
15.476562
 20
11.595438
 10
15.476562
 20
10.248563
 10
16.273438
 20
10.248563
 10
16.273438
 20
11.595438
  0
LWPOLYLINE
  8
0
 62
7
 90
5
 70
1
 10
15.875000
 20
9.055438
 10
15.476562
 20
9.055438
 10
15.476562
 20
7.708562
 10
16.273438
 20
7.708562
 10
16.273438
 20
9.055438
  0
LWPOLYLINE
  8
0
 62
7
 90
5
 70
1
 10
24.765000
 20
1.712938
 10
24.360163
 20
1.712938
 10
24.360163
 20
0.827063
 10
25.169837
 20
0.827063
 10
25.169837
 20
1.712938
  0
LWPOLYLINE
  8
0
 62
7
 90
5
 70
1
 10
26.035000
 20
1.712938
 10
25.630163
 20
1.712938
 10
25.630163
 20
0.827063
 10
26.439837
 20
0.827063
 10
26.439837
 20
1.712938
  0
LWPOLYLINE
  8
0
 62
7
 90
5
 70
1
 10
27.305000
 20
1.712938
 10
26.900163
 20
1.712938
 10
26.900163
 20
0.827063
 10
27.709837
 20
0.827063
 10
27.709837
 20
1.712938
  0
LWPOLYLINE
  8
0
 62
7
 90
5
 70
1
 10
28.575000
 20
1.712938
 10
28.170162
 20
1.712938
 10
28.170162
 20
0.827063
 10
28.979837
 20
0.827063
 10
28.979837
 20
1.712938
  0
LWPOLYLINE
  8
0
 62
7
 90
5
 70
1
 10
8.628438
 20
2.469000
 10
8.628438
 20
3.217437
 10
1.131562
 20
3.217437
 10
1.131562
 20
1.720562
 10
8.628438
 20
1.720562
  0
LWPOLYLINE
  8
0
 62
7
 90
5
 70
1
 10
8.628438
 20
9.469000
 10
8.628438
 20
10.217437
 10
1.131562
 20
10.217437
 10
1.131562
 20
8.720562
 10
8.628438
 20
8.720562
  0
LWPOLYLINE
  8
0
 62
7
 90
5
 70
1
 10
8.628438
 20
4.969000
 10
8.628438
 20
5.467437
 10
2.131562
 20
5.467437
 10
2.131562
 20
4.470563
 10
8.628438
 20
4.470563
  0
LWPOLYLINE
  8
0
 62
7
 90
5
 70
1
 10
8.628438
 20
6.969000
 10
8.628438
 20
7.467437
 10
2.131562
 20
7.467437
 10
2.131562
 20
6.470563
 10
8.628438
 20
6.470563
  0
LWPOLYLINE
  8
0
 62
7
 90
5
 70
1
 10
31.164562
 20
8.890000
 10
31.164562
 20
8.341563
 10
33.161437
 20
8.341563
 10
33.161437
 20
9.438438
 10
31.164562
 20
9.438438
  0
LWPOLYLINE
  8
0
 62
7
 90
5
 70
1
 10
35.164562
 20
8.890000
 10
35.164562
 20
8.341563
 10
37.161437
 20
8.341563
 10
37.161437
 20
9.438438
 10
35.164562
 20
9.438438
  0
LWPOLYLINE
  8
0
 62
7
 90
5
 70
1
 10
31.164562
 20
10.590000
 10
31.164562
 20
10.041562
 10
33.161437
 20
10.041562
 10
33.161437
 20
11.138438
 10
31.164562
 20
11.138438
  0
LWPOLYLINE
  8
0
 62
7
 90
5
 70
1
 10
35.164562
 20
10.590000
 10
35.164562
 20
10.041562
 10
37.161437
 20
10.041562
 10
37.161437
 20
11.138438
 10
35.164562
 20
11.138438
  0
LWPOLYLINE
  8
0
 62
7
 90
5
 70
1
 10
31.164562
 20
7.190000
 10
31.164562
 20
6.641563
 10
33.161437
 20
6.641563
 10
33.161437
 20
7.738438
 10
31.164562
 20
7.738438
  0
LWPOLYLINE
  8
0
 62
7
 90
5
 70
1
 10
35.164562
 20
7.190000
 10
35.164562
 20
6.641563
 10
37.161437
 20
6.641563
 10
37.161437
 20
7.738438
 10
35.164562
 20
7.738438
  0
LWPOLYLINE
  8
0
 62
7
 90
5
 70
1
 10
31.164562
 20
3.048000
 10
31.164562
 20
2.499563
 10
33.161437
 20
2.499563
 10
33.161437
 20
3.596437
 10
31.164562
 20
3.596437
  0
LWPOLYLINE
  8
0
 62
7
 90
5
 70
1
 10
35.164562
 20
3.048000
 10
35.164562
 20
2.499563
 10
37.161437
 20
2.499563
 10
37.161437
 20
3.596437
 10
35.164562
 20
3.596437
  0
LWPOLYLINE
  8
0
 62
7
 90
5
 70
1
 10
31.164562
 20
4.748000
 10
31.164562
 20
4.199562
 10
33.161437
 20
4.199562
 10
33.161437
 20
5.296438
 10
31.164562
 20
5.296438
  0
LWPOLYLINE
  8
0
 62
7
 90
5
 70
1
 10
35.164562
 20
4.748000
 10
35.164562
 20
4.199562
 10
37.161437
 20
4.199562
 10
37.161437
 20
5.296438
 10
35.164562
 20
5.296438
  0
LWPOLYLINE
  8
0
 62
7
 90
5
 70
1
 10
31.164562
 20
1.348000
 10
31.164562
 20
0.799563
 10
33.161437
 20
0.799562
 10
33.161437
 20
1.896437
 10
31.164562
 20
1.896438
  0
LWPOLYLINE
  8
0
 62
7
 90
5
 70
1
 10
35.164562
 20
1.348000
 10
35.164562
 20
0.799563
 10
37.161437
 20
0.799562
 10
37.161437
 20
1.896437
 10
35.164562
 20
1.896438
  0
LWPOLYLINE
  8
0
 62
7
 90
5
 70
1
 10
11.430000
 20
9.953563
 10
12.178437
 20
9.953563
 10
12.178437
 20
11.250438
 10
10.681563
 20
11.250438
 10
10.681563
 20
9.953563
  0
LWPOLYLINE
  8
0
 62
7
 90
5
 70
1
 10
11.430000
 20
8.053562
 10
12.178437
 20
8.053562
 10
12.178437
 20
9.350437
 10
10.681563
 20
9.350437
 10
10.681563
 20
8.053562
  0
LWPOLYLINE
  8
0
 62
7
 90
5
 70
1
 10
12.700000
 20
2.841563
 10
13.448437
 20
2.841563
 10
13.448437
 20
4.138438
 10
11.951562
 20
4.138438
 10
11.951562
 20
2.841563
  0
LWPOLYLINE
  8
0
 62
7
 90
5
 70
1
 10
12.700000
 20
0.941563
 10
13.448437
 20
0.941562
 10
13.448437
 20
2.238437
 10
11.951562
 20
2.238437
 10
11.951562
 20
0.941563
  0
LWPOLYLINE
  8
0
 62
7
 90
5
 70
1
 10
15.240000
 20
2.238437
 10
14.491563
 20
2.238437
 10
14.491563
 20
0.941563
 10
15.988437
 20
0.941563
 10
15.988437
 20
2.238437
  0
LWPOLYLINE
  8
0
 62
7
 90
5
 70
1
 10
15.240000
 20
4.138438
 10
14.491563
 20
4.138438
 10
14.491563
 20
2.841563
 10
15.988437
 20
2.841563
 10
15.988437
 20
4.138438
  0
LWPOLYLINE
  8
0
 62
7
 90
5
 70
1
 10
24.130000
 20
8.842438
 10
23.381562
 20
8.842438
 10
23.381562
 20
7.545563
 10
24.878438
 20
7.545563
 10
24.878438
 20
8.842438
  0
LWPOLYLINE
  8
0
 62
7
 90
5
 70
1
 10
24.130000
 20
10.742437
 10
23.381562
 20
10.742437
 10
23.381562
 20
9.445562
 10
24.878438
 20
9.445562
 10
24.878438
 20
10.742437
  0
LWPOLYLINE
  8
0
 62
7
 90
5
 70
1
 10
42.698438
 20
1.905000
 10
42.698438
 20
2.753437
 10
41.201563
 20
2.753437
 10
41.201563
 20
1.056563
 10
42.698438
 20
1.056563
  0
LWPOLYLINE
  8
0
 62
7
 90
5
 70
1
 10
47.698438
 20
1.905000
 10
47.698438
 20
2.753437
 10
46.201563
 20
2.753437
 10
46.201563
 20
1.056563
 10
47.698438
 20
1.056563
  0
LWPOLYLINE
  8
0
 62
7
 90
5
 70
1
 10
18.210238
 20
3.479800
 10
18.210238
 20
4.583138
 10
17.603762
 20
4.583138
 10
17.603762
 20
2.376462
 10
18.210238
 20
2.376462
  0
LWPOLYLINE
  8
0
 62
7
 90
5
 70
1
 10
19.480238
 20
3.479800
 10
19.480238
 20
4.583138
 10
18.873762
 20
4.583138
 10
18.873762
 20
2.376462
 10
19.480238
 20
2.376462
  0
LWPOLYLINE
  8
0
 62
7
 90
5
 70
1
 10
20.750238
 20
3.479800
 10
20.750238
 20
4.583138
 10
20.143762
 20
4.583138
 10
20.143762
 20
2.376462
 10
20.750238
 20
2.376462
  0
LWPOLYLINE
  8
0
 62
7
 90
5
 70
1
 10
22.020238
 20
3.479800
 10
22.020238
 20
4.583138
 10
21.413762
 20
4.583138
 10
21.413762
 20
2.376462
 10
22.020238
 20
2.376462
  0
LWPOLYLINE
  8
0
 62
7
 90
5
 70
1
 10
22.020238
 20
10.210800
 10
22.020238
 20
11.314138
 10
21.413762
 20
11.314138
 10
21.413762
 20
9.107463
 10
22.020238
 20
9.107463
  0
LWPOLYLINE
  8
0
 62
7
 90
5
 70
1
 10
20.750238
 20
10.210800
 10
20.750238
 20
11.314138
 10
20.143762
 20
11.314138
 10
20.143762
 20
9.107463
 10
20.750238
 20
9.107463
  0
LWPOLYLINE
  8
0
 62
7
 90
5
 70
1
 10
19.480238
 20
10.210800
 10
19.480238
 20
11.314138
 10
18.873762
 20
11.314138
 10
18.873762
 20
9.107463
 10
19.480238
 20
9.107463
  0
LWPOLYLINE
  8
0
 62
7
 90
5
 70
1
 10
18.210238
 20
10.210800
 10
18.210238
 20
11.314138
 10
17.603762
 20
11.314138
 10
17.603762
 20
9.107463
 10
18.210238
 20
9.107463
  0
ENDSEC
  0
EOF
