G75*
%MOIN*%
%OFA0B0*%
%FSLAX25Y25*%
%IPPOS*%
%LPD*%
%AMOC8*
5,1,8,0,0,1.08239X$1,22.5*
%
%ADD10C,0.00000*%
%ADD11C,0.01000*%
%ADD12C,0.00600*%
%ADD13C,0.00300*%
D10*
X0011800Y0006800D02*
X0168926Y0006800D01*
X0169116Y0006802D01*
X0169306Y0006809D01*
X0169496Y0006821D01*
X0169686Y0006837D01*
X0169875Y0006857D01*
X0170064Y0006883D01*
X0170252Y0006912D01*
X0170439Y0006947D01*
X0170625Y0006986D01*
X0170810Y0007029D01*
X0170995Y0007077D01*
X0171178Y0007129D01*
X0171359Y0007185D01*
X0171539Y0007246D01*
X0171718Y0007312D01*
X0171895Y0007381D01*
X0172071Y0007455D01*
X0172244Y0007533D01*
X0172416Y0007616D01*
X0172585Y0007702D01*
X0172753Y0007792D01*
X0172918Y0007887D01*
X0173081Y0007985D01*
X0173241Y0008088D01*
X0173399Y0008194D01*
X0173554Y0008304D01*
X0173707Y0008417D01*
X0173857Y0008535D01*
X0174003Y0008656D01*
X0174147Y0008780D01*
X0174288Y0008908D01*
X0174426Y0009039D01*
X0174561Y0009174D01*
X0174692Y0009312D01*
X0174820Y0009453D01*
X0174944Y0009597D01*
X0175065Y0009743D01*
X0175183Y0009893D01*
X0175296Y0010046D01*
X0175406Y0010201D01*
X0175512Y0010359D01*
X0175615Y0010519D01*
X0175713Y0010682D01*
X0175808Y0010847D01*
X0175898Y0011015D01*
X0175984Y0011184D01*
X0176067Y0011356D01*
X0176145Y0011529D01*
X0176219Y0011705D01*
X0176288Y0011882D01*
X0176354Y0012061D01*
X0176415Y0012241D01*
X0176471Y0012422D01*
X0176523Y0012605D01*
X0176571Y0012790D01*
X0176614Y0012975D01*
X0176653Y0013161D01*
X0176688Y0013348D01*
X0176717Y0013536D01*
X0176743Y0013725D01*
X0176763Y0013914D01*
X0176779Y0014104D01*
X0176791Y0014294D01*
X0176798Y0014484D01*
X0176800Y0014674D01*
X0176800Y0046170D01*
X0176798Y0046360D01*
X0176791Y0046550D01*
X0176779Y0046740D01*
X0176763Y0046930D01*
X0176743Y0047119D01*
X0176717Y0047308D01*
X0176688Y0047496D01*
X0176653Y0047683D01*
X0176614Y0047869D01*
X0176571Y0048054D01*
X0176523Y0048239D01*
X0176471Y0048422D01*
X0176415Y0048603D01*
X0176354Y0048783D01*
X0176288Y0048962D01*
X0176219Y0049139D01*
X0176145Y0049315D01*
X0176067Y0049488D01*
X0175984Y0049660D01*
X0175898Y0049829D01*
X0175808Y0049997D01*
X0175713Y0050162D01*
X0175615Y0050325D01*
X0175512Y0050485D01*
X0175406Y0050643D01*
X0175296Y0050798D01*
X0175183Y0050951D01*
X0175065Y0051101D01*
X0174944Y0051247D01*
X0174820Y0051391D01*
X0174692Y0051532D01*
X0174561Y0051670D01*
X0174426Y0051805D01*
X0174288Y0051936D01*
X0174147Y0052064D01*
X0174003Y0052188D01*
X0173857Y0052309D01*
X0173707Y0052427D01*
X0173554Y0052540D01*
X0173399Y0052650D01*
X0173241Y0052756D01*
X0173081Y0052859D01*
X0172918Y0052957D01*
X0172753Y0053052D01*
X0172585Y0053142D01*
X0172416Y0053228D01*
X0172244Y0053311D01*
X0172071Y0053389D01*
X0171895Y0053463D01*
X0171718Y0053532D01*
X0171539Y0053598D01*
X0171359Y0053659D01*
X0171178Y0053715D01*
X0170995Y0053767D01*
X0170810Y0053815D01*
X0170625Y0053858D01*
X0170439Y0053897D01*
X0170252Y0053932D01*
X0170064Y0053961D01*
X0169875Y0053987D01*
X0169686Y0054007D01*
X0169496Y0054023D01*
X0169306Y0054035D01*
X0169116Y0054042D01*
X0168926Y0054044D01*
X0011800Y0054044D01*
X0011660Y0054042D01*
X0011520Y0054036D01*
X0011380Y0054026D01*
X0011240Y0054013D01*
X0011101Y0053995D01*
X0010962Y0053973D01*
X0010825Y0053948D01*
X0010687Y0053919D01*
X0010551Y0053886D01*
X0010416Y0053849D01*
X0010282Y0053808D01*
X0010149Y0053763D01*
X0010017Y0053715D01*
X0009887Y0053663D01*
X0009758Y0053608D01*
X0009631Y0053549D01*
X0009505Y0053486D01*
X0009381Y0053420D01*
X0009260Y0053351D01*
X0009140Y0053278D01*
X0009022Y0053201D01*
X0008907Y0053122D01*
X0008793Y0053039D01*
X0008683Y0052953D01*
X0008574Y0052864D01*
X0008468Y0052772D01*
X0008365Y0052677D01*
X0008264Y0052580D01*
X0008167Y0052479D01*
X0008072Y0052376D01*
X0007980Y0052270D01*
X0007891Y0052161D01*
X0007805Y0052051D01*
X0007722Y0051937D01*
X0007643Y0051822D01*
X0007566Y0051704D01*
X0007493Y0051584D01*
X0007424Y0051463D01*
X0007358Y0051339D01*
X0007295Y0051213D01*
X0007236Y0051086D01*
X0007181Y0050957D01*
X0007129Y0050827D01*
X0007081Y0050695D01*
X0007036Y0050562D01*
X0006995Y0050428D01*
X0006958Y0050293D01*
X0006925Y0050157D01*
X0006896Y0050019D01*
X0006871Y0049882D01*
X0006849Y0049743D01*
X0006831Y0049604D01*
X0006818Y0049464D01*
X0006808Y0049324D01*
X0006802Y0049184D01*
X0006800Y0049044D01*
X0006800Y0011800D01*
X0006802Y0011660D01*
X0006808Y0011520D01*
X0006818Y0011380D01*
X0006831Y0011240D01*
X0006849Y0011101D01*
X0006871Y0010962D01*
X0006896Y0010825D01*
X0006925Y0010687D01*
X0006958Y0010551D01*
X0006995Y0010416D01*
X0007036Y0010282D01*
X0007081Y0010149D01*
X0007129Y0010017D01*
X0007181Y0009887D01*
X0007236Y0009758D01*
X0007295Y0009631D01*
X0007358Y0009505D01*
X0007424Y0009381D01*
X0007493Y0009260D01*
X0007566Y0009140D01*
X0007643Y0009022D01*
X0007722Y0008907D01*
X0007805Y0008793D01*
X0007891Y0008683D01*
X0007980Y0008574D01*
X0008072Y0008468D01*
X0008167Y0008365D01*
X0008264Y0008264D01*
X0008365Y0008167D01*
X0008468Y0008072D01*
X0008574Y0007980D01*
X0008683Y0007891D01*
X0008793Y0007805D01*
X0008907Y0007722D01*
X0009022Y0007643D01*
X0009140Y0007566D01*
X0009260Y0007493D01*
X0009381Y0007424D01*
X0009505Y0007358D01*
X0009631Y0007295D01*
X0009758Y0007236D01*
X0009887Y0007181D01*
X0010017Y0007129D01*
X0010149Y0007081D01*
X0010282Y0007036D01*
X0010416Y0006995D01*
X0010551Y0006958D01*
X0010687Y0006925D01*
X0010825Y0006896D01*
X0010962Y0006871D01*
X0011101Y0006849D01*
X0011240Y0006831D01*
X0011380Y0006818D01*
X0011520Y0006808D01*
X0011660Y0006802D01*
X0011800Y0006800D01*
D11*
X0034349Y0019299D02*
X0035851Y0017797D01*
X0037352Y0017797D01*
X0034349Y0019299D02*
X0034349Y0026805D01*
X0038853Y0026805D01*
X0040354Y0025304D01*
X0040354Y0022301D01*
X0038853Y0020800D01*
X0034349Y0020800D01*
X0031146Y0020800D02*
X0031146Y0029808D01*
X0029645Y0026805D02*
X0026643Y0026805D01*
X0025141Y0025304D01*
X0025141Y0020800D01*
X0020437Y0022301D02*
X0018936Y0020800D01*
X0020437Y0022301D02*
X0020437Y0028306D01*
X0018936Y0026805D02*
X0021939Y0026805D01*
X0029645Y0026805D02*
X0031146Y0025304D01*
X0044992Y0026805D02*
X0044992Y0020800D01*
X0046493Y0020800D02*
X0043490Y0020800D01*
X0049696Y0020800D02*
X0055701Y0020800D01*
X0055701Y0029808D01*
X0064909Y0029808D02*
X0064909Y0020800D01*
X0060405Y0020800D01*
X0058904Y0022301D01*
X0058904Y0025304D01*
X0060405Y0026805D01*
X0064909Y0026805D01*
X0068111Y0025304D02*
X0068111Y0023803D01*
X0074117Y0023803D01*
X0074117Y0025304D02*
X0074117Y0022301D01*
X0072615Y0020800D01*
X0069613Y0020800D01*
X0077319Y0020800D02*
X0077319Y0029808D01*
X0083324Y0029808D02*
X0083324Y0020800D01*
X0080322Y0023803D01*
X0077319Y0020800D01*
X0074117Y0025304D02*
X0072615Y0026805D01*
X0069613Y0026805D01*
X0068111Y0025304D01*
X0046493Y0026805D02*
X0044992Y0026805D01*
X0044992Y0029808D02*
X0044992Y0031309D01*
D12*
X0073897Y0048266D02*
X0073897Y0050435D01*
X0075198Y0050435D01*
X0075632Y0050001D01*
X0075632Y0049134D01*
X0075198Y0048700D01*
X0073897Y0048700D01*
X0073897Y0048266D02*
X0074331Y0047833D01*
X0074765Y0047833D01*
X0076729Y0048700D02*
X0077596Y0048700D01*
X0077163Y0048700D02*
X0077163Y0050435D01*
X0077596Y0050435D01*
X0080772Y0050001D02*
X0081206Y0050435D01*
X0082507Y0050435D01*
X0083719Y0050001D02*
X0083719Y0049567D01*
X0085454Y0049567D01*
X0085454Y0049134D02*
X0085454Y0050001D01*
X0085020Y0050435D01*
X0084153Y0050435D01*
X0083719Y0050001D01*
X0085020Y0048700D02*
X0085454Y0049134D01*
X0085020Y0048700D02*
X0084153Y0048700D01*
X0082507Y0048700D02*
X0081206Y0048700D01*
X0080772Y0049134D01*
X0080772Y0050001D01*
X0079561Y0048700D02*
X0078693Y0048700D01*
X0079127Y0048700D02*
X0079127Y0051302D01*
X0079561Y0051302D01*
X0077163Y0051302D02*
X0077163Y0051736D01*
X0082507Y0051302D02*
X0082507Y0048700D01*
X0086665Y0049134D02*
X0086665Y0050435D01*
X0088400Y0050435D02*
X0088400Y0049134D01*
X0087967Y0048700D01*
X0087533Y0049134D01*
X0087099Y0048700D01*
X0086665Y0049134D01*
X0089612Y0051302D02*
X0091347Y0048700D01*
X0092559Y0048700D02*
X0093860Y0048700D01*
X0094293Y0049134D01*
X0094293Y0050001D01*
X0093860Y0050435D01*
X0092559Y0050435D01*
X0092559Y0048266D01*
X0092992Y0047833D01*
X0093426Y0047833D01*
X0095505Y0048700D02*
X0095505Y0050435D01*
X0097240Y0050435D02*
X0097240Y0049134D01*
X0096806Y0048700D01*
X0095505Y0048700D01*
X0098452Y0049134D02*
X0098452Y0050001D01*
X0098885Y0050435D01*
X0100186Y0050435D01*
X0101398Y0050435D02*
X0101398Y0049134D01*
X0101832Y0048700D01*
X0102265Y0049134D01*
X0102699Y0048700D01*
X0103133Y0049134D01*
X0103133Y0050435D01*
X0104345Y0050001D02*
X0104778Y0050435D01*
X0105646Y0050435D01*
X0106079Y0050001D01*
X0106079Y0049134D01*
X0105646Y0048700D01*
X0104778Y0048700D01*
X0104345Y0049134D01*
X0104345Y0050001D01*
X0107291Y0050435D02*
X0108592Y0050435D01*
X0109026Y0050001D01*
X0108592Y0049567D01*
X0107725Y0049567D01*
X0107291Y0049134D01*
X0107725Y0048700D01*
X0109026Y0048700D01*
X0110238Y0051302D02*
X0111972Y0048700D01*
X0113184Y0048700D02*
X0113184Y0050001D01*
X0113618Y0050435D01*
X0114052Y0050001D01*
X0114052Y0048700D01*
X0114919Y0048700D02*
X0114919Y0050435D01*
X0114485Y0050435D01*
X0114052Y0050001D01*
X0116131Y0050001D02*
X0116131Y0049134D01*
X0116564Y0048700D01*
X0117432Y0048700D01*
X0117865Y0049134D01*
X0117865Y0050001D01*
X0117432Y0050435D01*
X0116564Y0050435D01*
X0116131Y0050001D01*
X0119077Y0050435D02*
X0120378Y0050435D01*
X0120812Y0050001D01*
X0120812Y0049134D01*
X0120378Y0048700D01*
X0119077Y0048700D01*
X0121852Y0048700D02*
X0121852Y0049134D01*
X0122285Y0049134D01*
X0122285Y0048700D01*
X0121852Y0048700D01*
X0123497Y0049134D02*
X0123497Y0050001D01*
X0123931Y0050435D01*
X0125232Y0050435D01*
X0126443Y0050435D02*
X0126443Y0048700D01*
X0127745Y0048700D01*
X0128178Y0049134D01*
X0128178Y0050435D01*
X0129390Y0050001D02*
X0129390Y0048700D01*
X0131125Y0048700D02*
X0131125Y0051302D01*
X0132655Y0050869D02*
X0132655Y0049134D01*
X0132222Y0048700D01*
X0134186Y0048700D02*
X0135053Y0048700D01*
X0134620Y0048700D02*
X0134620Y0050435D01*
X0135053Y0050435D01*
X0136265Y0050435D02*
X0137566Y0050435D01*
X0138000Y0050001D01*
X0138000Y0049134D01*
X0137566Y0048700D01*
X0136265Y0048700D01*
X0136265Y0048266D02*
X0136265Y0050435D01*
X0134620Y0051302D02*
X0134620Y0051736D01*
X0133089Y0050435D02*
X0132222Y0050435D01*
X0131125Y0050001D02*
X0130691Y0050435D01*
X0129824Y0050435D01*
X0129390Y0050001D01*
X0125232Y0048700D02*
X0123931Y0048700D01*
X0123497Y0049134D01*
X0125232Y0048700D02*
X0125232Y0051302D01*
X0136265Y0048266D02*
X0136699Y0047833D01*
X0137133Y0047833D01*
X0100186Y0048700D02*
X0098885Y0048700D01*
X0098452Y0049134D01*
X0100186Y0048700D02*
X0100186Y0051302D01*
X0072686Y0051302D02*
X0072686Y0048700D01*
X0070951Y0048700D02*
X0070951Y0050001D01*
X0071384Y0050435D01*
X0072252Y0050435D01*
X0072686Y0050001D01*
X0069739Y0050435D02*
X0068872Y0050435D01*
X0069305Y0050869D02*
X0069305Y0049134D01*
X0068872Y0048700D01*
D13*
X0025358Y0016419D02*
X0024123Y0017653D01*
X0024123Y0013950D01*
X0022889Y0013950D02*
X0025358Y0013950D01*
X0021675Y0013950D02*
X0021058Y0013950D01*
X0021058Y0014567D01*
X0021675Y0014567D01*
X0021675Y0013950D01*
X0019833Y0014567D02*
X0017364Y0017036D01*
X0017364Y0014567D01*
X0017982Y0013950D01*
X0019216Y0013950D01*
X0019833Y0014567D01*
X0019833Y0017036D01*
X0019216Y0017653D01*
X0017982Y0017653D01*
X0017364Y0017036D01*
M02*
